<?xml version="1.0" encoding="utf-8"?>
<!-- Generator: Adobe Illustrator 24.3.0, SVG Export Plug-In . SVG Version: 6.00 Build 0)  -->
<svg version="1.1" id="Layer_1" xmlns="http://www.w3.org/2000/svg" xmlns:xlink="http://www.w3.org/1999/xlink" x="0px" y="0px"
	 width="14px" height="14px" viewBox="0 0 14 14" style="enable-background:new 0 0 14 14;" xml:space="preserve">
<path style="fill:#ECECEC;" d="M5.8,14c1,0,1.9-0.7,2.1-1.7H3.7C3.9,13.3,4.8,14,5.8,14L5.8,14z"/>
<path style="fill:#ECECEC;" d="M10.2,8.4L10.2,8.4c-2.6,0-4.7-2.1-4.7-4.6c0-1,0.3-1.9,0.9-2.7V0.6C6.4,0.3,6.1,0,5.8,0
	C5.5,0,5.2,0.3,5.2,0.6v0.6c-2,0.3-3.5,2-3.5,4v1.6c0,1.2-0.5,2.2-1.4,3c-0.4,0.4-0.5,1-0.1,1.4c0.2,0.2,0.5,0.4,0.8,0.4h9.6
	c0.6,0,1-0.5,1-1c0-0.3-0.1-0.6-0.4-0.8C10.8,9.5,10.5,9,10.2,8.4L10.2,8.4z"/>
<path style="fill:#ECECEC;" d="M10.2,0C8.1,0,6.4,1.7,6.4,3.8s1.7,3.8,3.8,3.8S14,5.9,14,3.8c0,0,0,0,0,0C14,1.7,12.3,0,10.2,0z"/>
</svg>
