<?xml version="1.0" encoding="utf-8"?>
<!-- Generator: Adobe Illustrator 24.3.0, SVG Export Plug-In . SVG Version: 6.00 Build 0)  -->
<svg version="1.1" id="Layer_1" xmlns="http://www.w3.org/2000/svg" xmlns:xlink="http://www.w3.org/1999/xlink" x="0px" y="0px"
	 width="260px" height="157.7px" viewBox="0 0 260 157.7" style="enable-background:new 0 0 260 157.7;" xml:space="preserve">
<g transform="translate(0 0)">
	<ellipse style="fill:#E1E1E1;" cx="165.4" cy="149.2" rx="94.6" ry="8.5"/>
	<rect x="119.1" y="0" style="opacity:0.3;fill:#3F3D56;enable-background:new    ;" width="102.7" height="69.6"/>
	<rect x="184.8" y="6.4" style="fill:#F2F2F2;" width="30.4" height="33.2"/>
	<rect x="136.8" y="6.4" style="fill:#F2F2F2;" width="29.3" height="2"/>
	<rect x="184.8" y="44.6" style="fill:#F2F2F2;" width="10.4" height="2"/>
	<rect x="185.2" y="48.3" style="fill:#F2F2F2;" width="29.7" height="2"/>
	<rect x="130.7" y="13.7" style="fill:#F2F2F2;" width="42.3" height="2"/>
	<rect x="130.7" y="19.3" style="fill:#F2F2F2;" width="42.3" height="2"/>
	<rect x="130.7" y="25" style="fill:#F2F2F2;" width="42.3" height="2"/>
	<rect x="130.7" y="30.6" style="fill:#F2F2F2;" width="42.3" height="2"/>
	<rect x="130.7" y="36.2" style="fill:#F2F2F2;" width="42.3" height="2"/>
	<rect x="130.7" y="41.9" style="fill:#F2F2F2;" width="42.3" height="2"/>
	<rect x="130.7" y="47.5" style="fill:#F2F2F2;" width="42.3" height="2"/>
	<path style="fill:#2F2E41;" d="M189.4,25.3c0.5-0.3,0.9-0.6,1.5-0.7c3.3-1.2,6.8-2,10.4-2.3c3.1-0.2,6.4,0,8.8,2
		c0.4,0.3,0.7,0.6,0.9,1c0.2,0.7,0.3,1.4,0.1,2.1c0,0.3-0.1,0.5-0.2,0.8c-0.4,0.6-1.1,0.9-1.8,0.8c-0.7-0.1-1.3-0.4-2-0.5
		c-0.4-0.1-0.9-0.1-1.3-0.1l-4.3-0.2c-2.7-0.3-5.3-0.2-8,0.3c-0.8,0.1-1.6,0.4-2.3,0.8c-0.6,0.3-1,0.8-1.6,0.2
		C188.7,28.3,188.1,26.3,189.4,25.3z"/>
	<path style="fill:#F2F2F2;" d="M196.1,27.2c0,0,5.8-2.6,8,0.4s-1.2,1.8-1.2,1.8l-3.8,1.2l-4.2-0.8L196.1,27.2z"/>
	<path style="fill:#FFB9B9;" d="M196.4,25.3c0,0,0.8,3.8,0.2,4.8s3.4,2.4,3.4,2.4l3.8-1.6c0,0-1-6.2,0-7.4L196.4,25.3z"/>
	<path style="opacity:0.1;enable-background:new    ;" d="M196.4,25.3c0,0,0.8,3.8,0.2,4.8s3.4,2.4,3.4,2.4l3.8-1.6c0,0-1-6.2,0-7.4
		L196.4,25.3z"/>
	<path style="fill:#FFB9B9;" d="M205.5,21.5c0,3.3-2.7,6-6,6c-0.4,0-0.7,0-1.1-0.1c-3.2-0.6-5.4-3.7-4.8-6.9
		c0.6-3.2,3.7-5.4,6.9-4.8C203.4,16.2,205.5,18.6,205.5,21.5L205.5,21.5z"/>
	<path style="fill:#F2F2F2;" d="M209.1,39.7h-19l0.4-1.9l1.9-8.1l2.2-1.5l0,0l1-0.7l0.5-0.3c0,0,0.3,0.1,0.6,0.3
		c0.1,0.1,0.2,0.1,0.3,0.2l0,0c0.2,0.1,0.3,0.2,0.5,0.3c0,0,0.1,0,0.1,0.1c0.4,0.4,1.5,2.4,3.3,1.4c0.1-0.1,0.2-0.1,0.3-0.2
		c0.5-0.3,0.9-0.7,1.4-1.1c0.4-0.4,0.6-0.6,0.8-0.8c0.1-0.1,0.2-0.2,0.3-0.2c0.1,0,0.2-0.1,0.3-0.1c0.6,0,1.4,1.2,1.4,1.2l0,0.1v0
		l2.5,7.5L209.1,39.7z"/>
	<path style="fill:#2F2E41;" d="M190.1,39.7h5.8c0-0.7,0-1.3-0.1-2c-0.2-1.3-0.6-2.6-0.9-3.9c-0.2-1.2-0.4-2.3-0.3-3.5
		c0-0.2,0-0.3,0-0.5c0-0.4,0.1-0.7,0.3-1.1c0.1-0.2,0.3-0.4,0.5-0.6c0.1-0.1,0.1-0.1,0.1-0.2l0,0c0,0,0-0.1,0-0.1
		c0-0.1,0.1-0.2,0.1-0.3c-0.1-0.7-0.5-1.2-1.1-1.4c-0.8-0.3-1.7-0.3-2.6-0.1c-0.8,0.2-1.7,0.6-2.4,1c-0.3,0.1-0.5,0.3-0.8,0.4
		c-0.3,0.2-0.6,0.4-0.8,0.6c-0.6,0.7-1,1.5-1.1,2.4c-0.2,0.7-0.3,1.4-0.2,2c0,0,0,0,0,0.1c0.2,1.1,1.1,2,1.6,3
		c0.5,1.3,0.6,2.6,0.3,3.9c0,0.1,0,0.1,0,0.2H190.1L190.1,39.7z"/>
	<path style="fill:#2F2E41;" d="M213.6,32.4c-0.7,2.4-1.3,4.8-1.6,7.3h-8.2c-0.2-0.6-0.4-1.2-0.6-1.8c-0.2-0.4-0.3-0.9-0.4-1.4
		c-0.1-0.5-0.2-1.1-0.2-1.6c0-0.1,0-0.3,0-0.4c0,0,0,0,0,0c0-0.7,0.2-1.4,0.5-2c0.1-0.3,0.3-0.6,0.4-0.9c0.4-0.7,0.8-1.3,1.3-2
		c0.3-0.4,0.5-0.8,0.7-1.3c0,0,0,0,0,0c0.2-0.6,0.4-1.2,0.4-1.8c0-0.8-1.4-2.2,0.1-2.1c2,0.3,3.9,1.3,5.3,2.7
		c0.4,0.4,0.8,0.7,1.2,1.1c0.7,0.5,1.2,1.2,1.5,2c0,0.1,0,0.3,0.1,0.4C213.9,31.2,213.8,31.8,213.6,32.4z"/>
	<path style="fill:#FFB9B9;" d="M201.2,30.2c-0.2-0.6-0.5-1.1-0.9-1.5c-0.4-0.3-0.9-0.6-1.4-0.7c-0.7-0.2-1.4-0.3-2.1-0.3
		c-0.9-0.1-1.7,0.3-2.2,1c-0.2,0.6-0.1,1.3,0.2,1.9c0.1,0.3,0.3,0.6,0.6,0.8c0.4,0.2,0.8,0.3,1.3,0.3c0.7,0.2,1.3,0.5,1.9,0.8
		l1.5,0.9l2.5,1.5c-0.1,0,0-1.8-0.1-2.1C202.1,32,201.7,31.1,201.2,30.2z"/>
	<path style="fill:#2F2E41;" d="M205.4,18.4c-0.1-0.4-0.3-0.7-0.7-0.9c0-0.4,0-0.8-0.1-1.1c-0.4-1.1-1.2-1-2-1.5
		c-0.4-0.2-0.3-0.4-0.5-0.7c-0.2-0.4-0.6-0.8-1-1.1c-0.5-0.4-1.1-0.6-1.7-0.7c-1.3-0.1-2.3,1.1-3.5,1.5c-0.5,0.2-1.1,0.2-1.7,0.3
		c-0.6,0.1-1,0.6-1.2,1.1c0,0.3,0,0.5,0,0.8c-0.1,0.5-0.5,0.9-0.8,1.3c-0.6,1-0.6,2.3-0.1,3.3c0.1,0.2,0.2,0.4,0.4,0.6
		c0,0.5,0.2,1,0.4,1.4c0.6,1,1.4,1.8,2.4,2.4c-0.1-0.3-0.1-0.7-0.1-1c0-0.1,0-0.2,0-0.3c0.1-0.2,0.4-0.3,0.6-0.4
		c0.4-0.3,0.7-0.8,0.6-1.3c0-0.5-0.1-1,0-1.5c0-0.2,0.1-0.5,0.3-0.6c0.2-0.1,0.4-0.1,0.5-0.1c0.9,0,1.8-0.1,2.7-0.5
		c0.3-0.2,0.5-0.3,0.8-0.4c0.7-0.1,1.4,0.3,1.8,0.9c0.4,0.6,0.6,1.3,1,1.9c0.3,0.7,1,1.1,1.7,1.1c0.1,0,0.2,0,0.2-0.1
		c0-0.1,0-0.1,0-0.2l0-2.7C205.5,19.3,205.5,18.9,205.4,18.4L205.4,18.4z"/>
	<path style="fill:#2F2E41;" d="M189.6,36.5c0.1,1.1,0.2,2.1,0.2,3.2h-5v-4.2c0-0.1,0.1-0.2,0.1-0.3c0.4-0.9,0.9-1.8,1.5-2.6
		l0.1-0.1c0.2-0.4,0.5-0.7,0.6-1.1c0.1-0.2,0.2-1.1,0.4-1.2c0.6-0.3,1.1,1.1,1.2,1.5c0.3,1.2,0.5,2.3,0.7,3.5
		C189.5,35.6,189.6,36,189.6,36.5z"/>
	<path style="fill:#2F2E41;" d="M214.9,39.7h-11.5c-0.1-0.2-0.2-0.5-0.3-0.7c-0.7-1.6-1.6-3.1-2.8-4.5c-0.2-0.2-0.3-0.4-0.3-0.7
		c0-0.1,0-0.2,0.1-0.3c0.3-0.3,0.6-0.6,1-0.7c0.4-0.2,0.7-0.4,1.1-0.7c0.3-0.2,0.5-0.6,0.6-0.9c0-0.1,0.1-0.2,0.1-0.3l0.2,0.2
		c0.1,0.2,0.3,0.3,0.4,0.5c1.2,1.7,2.7,3.1,4.4,4.2c0.5,0.3,0.9,0.5,1.5,0.6c0.1,0,0.2,0,0.3,0c0.1-0.1,0.1-0.1,0.1-0.2
		c0.2-0.7,0.2-1.3,0.3-2c0.2-1.2,0.6-2.4,1.2-3.5c0.3-0.6,1.4-2.8,2.1-1.4c0.2,0.4,0.4,0.8,0.6,1.2c0.1,0.3,0.2,0.5,0.4,0.8
		c0.5,0.8,0.7,1.7,0.6,2.7C214.9,35.9,214.9,37.8,214.9,39.7z"/>
	<path style="opacity:0.1;enable-background:new    ;" d="M190.1,39.7h1l-0.6-1.9l-0.8-2.7c0,0.5,0,0.9-0.1,1.4
		c-0.1,0.9-0.4,1.8-0.8,2.7c-0.1,0.2-0.2,0.3-0.2,0.5L190.1,39.7z"/>
	<path style="opacity:0.1;enable-background:new    ;" d="M210.4,33.9c-0.1,0.4-0.1,0.8,0.1,1.2c0.3,1.1,0.5,2.3,0.4,3.5
		c0,0.1,0,0.1-0.1,0.2c0,0,0,0-0.1,0c-0.5,0.1-0.9,0-1.3-0.3L210.4,33.9z"/>
	<rect y="0.7" style="opacity:0.3;fill:#3F3D56;enable-background:new    ;" width="102.7" height="69.6"/>
	<rect x="6.6" y="7.1" style="fill:#F2F2F2;" width="30.4" height="33.2"/>
	<rect x="55.7" y="7.1" style="fill:#F2F2F2;" width="29.3" height="2"/>
	<rect x="6.9" y="45.3" style="fill:#F2F2F2;" width="10.4" height="2"/>
	<rect x="6.9" y="49" style="fill:#F2F2F2;" width="29.7" height="2"/>
	<rect x="48.8" y="14.4" style="fill:#F2F2F2;" width="42.3" height="2"/>
	<rect x="48.8" y="20" style="fill:#F2F2F2;" width="42.3" height="2"/>
	<rect x="48.8" y="25.7" style="fill:#F2F2F2;" width="42.3" height="2"/>
	<rect x="48.8" y="31.3" style="fill:#F2F2F2;" width="42.3" height="2"/>
	<rect x="48.8" y="37" style="fill:#F2F2F2;" width="42.3" height="2"/>
	<rect x="48.8" y="42.6" style="fill:#F2F2F2;" width="42.3" height="2"/>
	<rect x="48.8" y="48.3" style="fill:#F2F2F2;" width="42.3" height="2"/>
	<path style="fill:#D0CDE1;" d="M36.1,40.4h-4c-0.3-0.8-0.6-1.6-0.8-2.5c-0.2-1-0.6-1.9-1.3-2.6c-0.2-0.2-0.4-0.5-0.6-0.8
		c-0.3-0.7-0.5-1.4-0.4-2.1c0-0.2,0.1-0.4,0.1-0.6c0.2-0.8,0.5-1.5,0.7-2.3c0.1-0.3,0.4-0.5,0.7-0.6c0.3,0,0.5,0,0.8,0.1
		c0.1,0,0.1,0,0.2,0.1c0.4,0.3,0.7,0.8,0.8,1.3c0.8,2.2,1.7,4.4,2.5,6.6c0.2,0.4,0.3,0.9,0.5,1.3c0.2,0.6,0.5,1.3,0.7,1.9
		C36.1,40.3,36.1,40.4,36.1,40.4z"/>
	<path style="fill:#2F2E41;" d="M19.7,11.3c-1,0.3-1.8,1.1-2.1,2.1c-0.1,0.5,0,1-0.1,1.4c-0.3,1.1-1,2-1.8,2.7
		c-0.9,0.7-1.5,1.7-1.7,2.8c-0.1,1.2,0.8,2.4,0.7,3.6c-0.2,1.4-1.7,2.3-2,3.7c-0.2,0.9,0,1.9,0.6,2.7c1,1.5,2.5,2.6,4.3,3.1
		c1.7,0.5,3.5,0.7,5.4,0.7c2.2,0,4.6-0.2,6.2-1.6c0.9-0.8,1.5-2,1.7-3.3c0.2-1.7-0.5-3.4-0.1-5c0.3-1,1.1-1.9,1-3
		c-0.1-1-1-1.8-1.6-2.6c-0.5-0.8-1-1.7-1.3-2.6L27.5,13c-0.2-0.6-0.5-1.2-1-1.7c-1-0.8-2.5-0.6-3.6-0.4C21.8,10.9,20.7,11,19.7,11.3
		z"/>
	<path style="fill:#A0616A;" d="M20.6,21.5c0,0,0.1,3.5-0.2,3.8s1.4,2.6,1.4,2.6l3.1-0.1l1.6-1.3l-1.4-1.8c0,0-0.6-3-0.1-3.7
		S20.6,21.5,20.6,21.5z"/>
	<path style="opacity:0.1;enable-background:new    ;" d="M20.6,21.5c0,0,0.1,3.5-0.2,3.8s1.4,2.6,1.4,2.6l3.1-0.1l1.6-1.3l-1.4-1.8
		c0,0-0.6-3-0.1-3.7S20.6,21.5,20.6,21.5z"/>
	<ellipse style="fill:#A0616A;" cx="22.5" cy="18.7" rx="4.1" ry="4.1"/>
	<path style="fill:#D0CDE1;" d="M24.6,40.4H28c0.1-0.2,0.2-0.5,0.4-0.7l0,0c0.1-0.3,0.4-0.5,0.6-0.6c0.2-0.1,0.3-0.2,0.5-0.3
		c0.1-0.1,0.2-0.3,0.3-0.5c0.2-0.7,0.4-1.5,0.4-2.2c0-0.3,0-0.5,0-0.8c0-0.2,0-0.4,0.1-0.6c0.1-0.4,0.3-0.8,0.5-1.1
		c0.5-0.8,0.9-1.7,1.4-2.5c0.1-0.2,0.1-0.5,0.1-0.7c0-0.3-0.1-0.7-0.3-0.9c-0.1-0.1-0.1-0.2-0.2-0.3c-0.3-0.4-0.6-0.9-1-1.2
		c-0.8-0.8-1.7-1.5-2.8-1.9c-0.1,0-0.3-0.1-0.4-0.2c-0.1-0.1-0.3-0.3-0.3-0.4c-0.4-0.5-0.8-1.2-1.5-1.1c-0.2-0.1-0.5-0.1-0.7,0
		c0,0-0.1,0-0.1,0c-0.3,0.1-0.5,0.2-0.7,0.4c-0.6,0.3-1.3,0.4-2,0.4c-0.1,0-0.2,0-0.2-0.1c-0.1,0-0.1-0.1-0.2-0.2
		c-0.3-0.3-0.8-0.4-1.2-0.2c-0.2,0.1-0.4,0.2-0.5,0.3c-0.1,0.2-0.2,0.3-0.3,0.5c-0.4,0.3-0.9,0.5-1.4,0.4c-1,0-2.1,0.1-3.1,0.3
		c-0.9,0.2-1.7,0.6-2.4,1.2l0,0c-0.1,0.1-0.2,0.2-0.3,0.3c-0.2,0.2-0.4,0.4-0.5,0.7c-0.1,0.4-0.1,0.8-0.2,1.1
		c-0.1,0.4-0.4,0.7-0.6,1.1c0,0.3-0.1,0.6-0.2,0.9l0,0c0.7,0.6,1.2,1.3,1.9,1.9c0.4,0.3,0.7,0.7,1,1.1c0,0.1,0.1,0.2,0.1,0.3
		C14,35,14,35.4,14,35.7c0.2,1.7,0.9,3.3,2,4.6c0,0,0,0.1,0.1,0.1L24.6,40.4z"/>
	<path style="fill:#D0CDE1;" d="M13.8,34.4c-0.2,1.1-0.3,2.2-0.5,3.3c-0.1,0.6-0.2,1.2-0.3,1.7c-0.1,0.4-0.2,0.7-0.3,1H8
		c0-0.2,0-0.4,0-0.6c0.1-0.7,0.3-1.4,0.6-2c0.6-1.5,1.1-3,1.7-4.5c0.2-0.6,0.4-1.3,0.7-1.9c0-0.1,0.1-0.2,0.1-0.3
		c0.3-0.6,1-0.4,1.6-0.3c0.2,0,0.3,0.1,0.4,0.1c0.2,0.1,0.3,0.2,0.4,0.4c0.4,0.9,0.5,1.9,0.3,2.8L13.8,34.4z"/>
	<path style="fill:#2F2E41;" d="M28.4,39.7c0,0,0.1,0.3,0.2,0.7h-4C26.6,40.1,28.4,39.7,28.4,39.7L28.4,39.7z"/>
	<ellipse style="fill:#2F2E41;" cx="22.8" cy="16.3" rx="4.5" ry="2.4"/>
	<rect x="65.8" y="26.3" style="fill:#3F3D56;" width="102.7" height="69.6"/>
	<ellipse style="opacity:0.1;enable-background:new    ;" cx="153.6" cy="89.9" rx="12" ry="1.3"/>
	<rect x="72.4" y="32.7" style="fill:#F2F2F2;" width="30.4" height="33.2"/>
	<path style="fill:#2F2E41;" d="M82.2,47.9c0.2,0.1,0.4,0,0.5-0.2c0.4-0.7-0.4-1.5-0.2-2.3c0.1-0.6,0.8-1,1-1.6
		c0.1-0.6-0.3-1.3,0-1.8c0.3-0.4,0.8-0.6,1.3-0.5c0.5,0.1,0.9,0.3,1.4,0.3c0.6,0,1.3-0.2,1.9-0.4c0.6-0.2,1.3,0,1.7,0.4
		c0.5,0.7,0,1.6,0.2,2.4c0.1,0.6,0.7,1.2,0.7,1.8c0,0.2-0.6,0-0.6,0.3s-0.3,0,0,0c0.2,0,0.3-0.2,0.3-0.4c0-0.2,0.4-0.3,0.4-0.4
		c0-0.5,0.8-0.1,0.9-0.6c0.3-1,0.2-2.1-0.2-3c-0.2-0.4-0.4-0.8-0.5-1.2c0-0.6,0-1.2-0.1-1.8c-0.4-0.8-1.1-1.2-2-1.3
		c-0.8-0.1-1.7,0.1-2.5-0.1c-0.7-0.2-1.4-0.3-2.2-0.4c-0.9,0.1-1.7,0.6-2.3,1.3c-0.6,0.7-1.2,1.3-1.8,1.9c-0.2,0.1-0.4,0.3-0.6,0.5
		c-0.3,0.5-0.4,1-0.3,1.6c0.1,0.5,0.3,1.1,0.4,1.6c0.1,0.5,0.1,1,0.1,1.6c0,0.5,0.2,1,0.5,1.5c0.3,0.3,0.7,0.6,1.1,0.6
		c0.1,0,0.3-0.1,0.4-0.1C81.9,47.7,82,47.9,82.2,47.9z"/>
	<path style="fill:#575A89;" d="M75.5,66c0.1-1.8,0.2-3.2,0.2-3.2l0.9-2.3l2.8,5.5H75.5z"/>
	<path style="opacity:0.1;fill:#15BDE4;enable-background:new    ;" d="M75.5,66c0.1-1.8,0.2-3.2,0.2-3.2l0.9-2.3l2.8,5.5H75.5z"/>
	<path style="fill:#A0616A;" d="M81.9,48.1c0,0,2.6,6.5,1.1,7.8s8.3-2.1,8.3-2.1L91,53c0,0-3.2-1.2-1.6-4.8S81.9,48.1,81.9,48.1z"/>
	<path style="opacity:0.1;enable-background:new    ;" d="M81.9,48.1c0,0,2.6,6.5,1.1,7.8s8.3-2.1,8.3-2.1L91,53
		c0,0-3.2-1.2-1.6-4.8S81.9,48.1,81.9,48.1z"/>
	<ellipse style="fill:#A0616A;" cx="85.5" cy="45.3" rx="5.5" ry="5.5"/>
	<path style="fill:#00A2C8;" d="M98.8,57.1l-0.1,1.2c-0.1,1.5-0.2,4.4-0.4,7.8H77.2c-0.6-0.7-1-1.6-1.3-2.4
		c-0.1-0.2-0.1-0.5-0.2-0.8c-0.1-2.1,1.7-5,3-5.2c1.5-0.3,4.3-3.3,4.3-3.3c0,0.2,0.2,0.4,0.4,0.5l0,0c0.2,0.1,0.5,0.2,0.7,0.2
		c0.9,0,4.9-1.9,6.2-2.5c0.3-0.1,0.4-0.2,0.4-0.2c1.5,0.6,3,1.2,4.6,1.6C97,54.4,98.2,55.5,98.8,57.1z"/>
	<path style="fill:#2F2E41;" d="M81.2,47.4c0.2,0.1,0.4,0,0.5-0.2c0.4-0.7-0.4-1.5-0.2-2.3c0.1-0.6,0.8-1,1-1.6
		c0.1-0.6-0.3-1.3,0-1.8c0.3-0.4,0.8-0.6,1.3-0.5c0.5,0.1,0.9,0.3,1.4,0.3c0.6,0,1.3-0.2,1.9-0.4c0.6-0.2,1.3,0,1.7,0.4
		c0.5,0.7,0,1.6,0.2,2.4c0.1,0.6,1.6,1.1,1.7,0.7c0.3-1,0.2-2.1-0.2-3c-0.2-0.4-0.4-0.8-0.5-1.2c0-0.6,0-1.2-0.1-1.8
		c-0.4-0.8-1.1-1.2-2-1.3c-0.8-0.1-1.7,0.1-2.5-0.1c-0.7-0.2-1.4-0.3-2.2-0.4c-0.9,0.1-1.7,0.6-2.3,1.3c-0.6,0.7-1.2,1.3-1.8,1.9
		c-0.2,0.1-0.4,0.3-0.6,0.5c-0.3,0.5-0.4,1-0.3,1.6c0.1,0.5,0.3,1.1,0.4,1.6c0.1,0.5,0.1,1,0.1,1.6c0,0.5,0.2,1,0.5,1.5
		c0.3,0.3,0.7,0.6,1.1,0.6c0.1,0,0.3-0.1,0.4-0.1C81,47.1,81.1,47.3,81.2,47.4z"/>
	<path style="opacity:0.1;enable-background:new    ;" d="M101.5,66h-6.2c-0.5-3.4-0.9-7-0.9-7l1.2-0.5l2.5-1.4c0,0,0.2,0.4,0.5,1.2
		C99.4,59.9,100.5,62.9,101.5,66z"/>
	<path style="fill:#00A2C8;" d="M102,66h-7c-1-3.8-2.1-7.9-2.1-7.9l2.7-1.9l3.1,0.9C98.8,57.1,100.6,61.4,102,66z"/>
	<rect x="121.6" y="32.7" style="fill:#15BDE4;" width="29.3" height="2"/>
	<rect x="72.7" y="71" style="fill:#15BDE4;" width="10.4" height="2"/>
	<rect x="72.7" y="74.6" style="fill:#15BDE4;" width="29.7" height="2"/>
	<rect x="114.6" y="40" style="fill:#F2F2F2;" width="42.3" height="2"/>
	<rect x="114.6" y="45.6" style="fill:#F2F2F2;" width="42.3" height="2"/>
	<rect x="114.6" y="51.3" style="fill:#F2F2F2;" width="42.3" height="2"/>
	<rect x="114.6" y="56.9" style="fill:#F2F2F2;" width="42.3" height="2"/>
	<rect x="114.6" y="62.6" style="fill:#F2F2F2;" width="42.3" height="2"/>
	<rect x="114.6" y="68.2" style="fill:#F2F2F2;" width="42.3" height="2"/>
	<rect x="114.6" y="73.9" style="fill:#F2F2F2;" width="42.3" height="2"/>
	<path style="fill:#FF6584;" d="M165,74.1l-11.6,11.6l-4.9-4.9c-0.6-0.6-1.7-0.6-2.3,0l-0.2-0.3c-0.6,0.8-0.5,1.9,0.2,2.6l6.3,6.3
		c0.5,0.5,1.3,0.5,1.8,0c0,0,0,0,0,0l13-13c0.7-0.6,0.8-1.7,0.2-2.5l0,0C166.8,73.4,165.7,73.5,165,74.1z"/>
	<path style="opacity:0.1;enable-background:new    ;" d="M165,74.1l-11.6,11.6l-4.9-4.9c-0.6-0.6-1.7-0.6-2.3,0l-0.2-0.3
		c-0.6,0.8-0.5,1.9,0.2,2.6l6.3,6.3c0.5,0.5,1.3,0.5,1.8,0c0,0,0,0,0,0l13-13c0.7-0.6,0.8-1.7,0.2-2.5l0,0
		C166.8,73.4,165.7,73.5,165,74.1z"/>
	<path style="fill:#FF6584;" d="M165,73.6l-11.6,11.6l-4.9-4.9c-0.6-0.6-1.7-0.6-2.3,0l0,0c-0.6,0.6-0.6,1.7,0,2.3l6.3,6.3
		c0.5,0.5,1.3,0.5,1.8,0c0,0,0,0,0,0l13-13c0.6-0.6,0.6-1.7,0-2.3c0,0,0,0,0,0l0,0C166.7,73,165.7,73,165,73.6z"/>
	<path style="opacity:0.1;enable-background:new    ;" d="M250,140.5c0,13-18.2,9-40.4,9s-40.1,4-40.1-9s18.2-15.9,40.4-15.9
		S250,127.5,250,140.5z"/>
	<path style="fill:#3F3D56;" d="M250,138.1c0,13-18.2,9-40.4,9s-40.1,4-40.1-9s18.2-15.9,40.4-15.9S250,125.1,250,138.1z"/>
	<path style="fill:#FFC1C7;" d="M174.1,97.3l-0.8,1c0,0-10,0.9-9.6,2.6s12-2.2,12-2.2L174.1,97.3z"/>
	<path style="fill:#15BDE4;" d="M192.3,96.5c0,0-10.7,3.8-16.5,2.2l2.7,5.4c0,0,13.8-0.4,16.2-2.8S192.3,96.5,192.3,96.5z"/>
	<path style="opacity:0.1;enable-background:new    ;" d="M192.3,96.5c0,0-10.7,3.8-16.5,2.2l2.7,5.4c0,0,13.8-0.4,16.2-2.8
		S192.3,96.5,192.3,96.5z"/>
	<ellipse style="fill:#FFC1C7;" cx="185" cy="60.3" rx="7.2" ry="7.2"/>
	<path style="fill:#FFC1C7;" d="M191.1,67c0.2,0.5,0.6,0.9,0.9,1.3c1,1.1,2.2,1.9,3.5,2.6c-4.1,0.8-8.2,1.4-12.3,1.8
		c0.3-1.6,0-3.2-0.9-4.6c-0.9-1.3-1.6-2.7-2.2-4.2l4.8,0.1c0.9,0,1.8,0,2.6,0c0.8-0.2,1.6-0.3,2.4-0.3
		C191.2,64.1,190.6,65.9,191.1,67z"/>
	<path style="fill:#2F2E41;" d="M207.4,100.7l4.1,4.9c0,0,6.8,15.8-8,17.5c-8.6,1-17.3,0.6-25.7-1.2c0,0-6-2.8-6.1-0.7
		c-0.3,5-1.6,9.8-3.9,14.2l-2.8,6.5c-0.9,0.9-1.3,2.2-1.1,3.5c0.4,2-9.1,2.7-8.9,0c0.7-1.1,1.1-2.4,1.4-3.7c0-1.4,2.2-4.6,2.2-4.6
		l3.9-19.5c0,0-0.3-10,8.9-8.1s22.3-0.4,22.3-0.4l3-10.4L207.4,100.7z"/>
	<path style="opacity:0.1;enable-background:new    ;" d="M207.4,100.7l4.1,4.9c0,0,6.8,15.8-8,17.5c-8.6,1-17.3,0.6-25.7-1.2
		c0,0-6-2.8-6.1-0.7c-0.3,5-1.6,9.8-3.9,14.2l-2.8,6.5c-0.9,0.9-1.3,2.2-1.1,3.5c0.4,2-9.1,2.7-8.9,0c0.7-1.1,1.1-2.4,1.4-3.7
		c0-1.4,2.2-4.6,2.2-4.6l3.9-19.5c0,0-0.3-10,8.9-8.1s22.3-0.4,22.3-0.4l3-10.4L207.4,100.7z"/>
	<path style="fill:#2F2E41;" d="M192.2,100.3c0,0,12.4-4.7,19.3,5.2c0,0,1.8,15.3-5.3,16s-16.2,0.5-18.4-1.8S172,111,172,111
		s-6.8-3.5-8.1,1c-0.6,1.8-1.1,3.7-1.5,5.6c0,0-7,5.1-9.9,6.1c0,0-1.9,2.7-3,2.7s-7.7,1.5-7-3.5l11-10l11-10.7c0,0,3.1-4.6,11.1-2.2
		c5.3,1.6,10.7,2.9,16.1,3.9L192.2,100.3z"/>
	<path style="fill:#CBCEDA;" d="M163.4,145.1c0,0,2.6,6.5,0.4,7.3s-6.8,0.3-6.8,0.3c-2.2-0.3-4.5-0.5-6.8-0.5
		c-1.4,0.1-6.9-0.9-6.1-3.1s5-1.6,5-1.6l3.8-1.8c0,0,0.4-1.4,1.4-0.8S158,147.4,163.4,145.1z"/>
	<path style="fill:#CBCEDA;" d="M149.4,125.9c0,0,2.8,6.4-1.8,5.8s-8.1-1.5-9.5-1.6c-1.3-0.1-5-1.4-4.4-3.9c0-0.2,0-0.3,0-0.5
		c0-0.3,0.5-1,4.1-0.9c0,0,2.7,0,3.8-1.9C141.7,122.9,145.7,128,149.4,125.9z"/>
	<path style="fill:#15BDE4;" d="M180.1,71.7c0,0,9.7-6.1,17.9,0s13.5,33.8,13.5,33.8l-18.8-4.2c0,0-0.8-3.2-1.9-3.8
		s-1.2-2.8-1.2-2.8c-3.6-1.2-5.8-4.8-5.4-8.5C184.5,79.4,180.1,71.7,180.1,71.7z"/>
	<path style="fill:#15BDE4;" d="M185.1,72h-5c0,0-3,3.4-3.4,11.9l-1.6,6.8c0,0-3.4,8.1-1.4,9.5s6,1.2,6.8-1.5s6.4-18.4,6.4-18.4
		L185.1,72z"/>
	<path style="fill:#2F2E41;" d="M183.7,51c2.5-1,5.4-0.6,7.5,1.2c2.6,2.3,3.1,6.1,3.8,9.5s2,7.2,5.2,8.5c-1.5,0.2-2.9,0.2-4.4-0.1
		l4.9,4.4l-8.2-2.7c-2.6-0.8-5.3-1.7-7.9-1.2c-4.4,0.8-7.5,4.9-11.7,6.4l0.5-2.3l-2.8,0c0.7-0.5,1.2-1.2,1.6-1.9
		c-0.3-0.3-0.7-0.5-1.1-0.6c-1.2-7.4,3.2-14.7,8.9-19.6c1.1-1,2.4-1.8,3.8-2.1c1.5-0.3,3,0.4,3.7,1.8"/>
	<path style="fill:#3F3D56;" d="M59.5,118.8c0,15.6,9.8,28.2,21.8,28.2"/>
	<path style="fill:#15BDE4;" d="M81.3,147c0-15.8,10.9-28.5,24.4-28.5"/>
	<path style="fill:#15BDE4;" d="M67.4,120.2c0,14.8,6.2,26.8,13.9,26.8"/>
	<path style="fill:#3F3D56;" d="M81.3,147c0-20.1,12.6-36.4,28.2-36.4"/>
	<path style="fill:#A8A8A8;" d="M76.7,147.2c0,0,3.1-0.1,4-0.8s4.8-1.5,5-0.4s4.7,5.3,1.2,5.3s-8.1-0.5-9.1-1.1
		S76.7,147.2,76.7,147.2z"/>
	<path style="opacity:0.2;enable-background:new    ;" d="M87,151c-3.5,0-8.1-0.5-9.1-1.1c-0.7-0.4-1-2-1.1-2.7h-0.1
		c0,0,0.2,2.5,1.1,3.1s5.6,1.1,9.1,1.1c1,0,1.4-0.4,1.3-0.9C88.1,150.8,87.7,151,87,151z"/>
</g>
</svg>
