<?xml version="1.0" encoding="utf-8"?>
<!-- Generator: Adobe Illustrator 24.3.0, SVG Export Plug-In . SVG Version: 6.00 Build 0)  -->
<svg version="1.1" id="Layer_1" xmlns="http://www.w3.org/2000/svg" xmlns:xlink="http://www.w3.org/1999/xlink" x="0px" y="0px"
	 width="260px" height="196.5px" viewBox="0 0 260 196.5" style="enable-background:new 0 0 260 196.5;" xml:space="preserve">
<g transform="translate(0.013 -0.004)">
	<path style="opacity:0.1;fill:#6C63FF;enable-background:new    ;" d="M2.8,92.9c4.1,16,12.8,29.9,26.6,36.6
		c28.6,14,93.1,6.8,141.3-1.5c24.9-4.3,46.8-16.1,62.7-32.7L2.8,92.9z"/>
	<path style="opacity:0.1;fill:#6C63FF;enable-background:new    ;" d="M255.3,17.4h-26.4c-1.1,0.1-2.2-0.7-2.3-1.9s0.7-2.2,1.9-2.3
		c0.1,0,0.3,0,0.4,0h4.6c-1.1,0.1-2.2-0.7-2.3-1.9s0.7-2.2,1.9-2.3c0.1,0,0.3,0,0.4,0h-3.3c-1.1,0.1-2.2-0.7-2.3-1.9
		c-0.1-1.1,0.7-2.2,1.9-2.3c0.1,0,0.3,0,0.4,0H244c-3.4-1.4-7.1-2.3-10.8-2.7c-37.6-4.4-51-1.5-55.8,1.5c-5.9,3.8-12.5,6.4-19.3,7.7
		c-23.2,4.4-66.6,9.6-105.9-1.7C32.7,4.2,18.2,13.7,9.4,29.5h250.4c-0.2-4.4-1.3-8.6-3.1-12.6C256.3,17.3,255.8,17.4,255.3,17.4z"/>
	<path style="opacity:0.1;fill:#6C63FF;enable-background:new    ;" d="M0.6,59.4c-1,9.3-0.7,18.7,1,28l231.9,7.7
		c6.4-6.7,11.8-14.2,16.1-22.4L0.6,59.4z M92.3,79.4h-4.6c1.1-0.1,2.2,0.7,2.3,1.9s-0.7,2.2-1.9,2.3c-0.1,0-0.3,0-0.4,0H61.3
		c-1.1,0.1-2.2-0.7-2.3-1.9s0.7-2.2,1.9-2.3c0.1,0,0.3,0,0.4,0h4.6c-1.1,0.1-2.2-0.7-2.3-1.9c-0.1-1.1,0.7-2.2,1.9-2.3
		c0.1,0,0.3,0,0.4,0h-3.3c-1.1,0.1-2.2-0.7-2.3-1.9s0.7-2.2,1.9-2.3c0.1,0,0.3,0,0.4,0H89c1.1-0.1,2.2,0.7,2.3,1.9s-0.7,2.2-1.9,2.3
		c-0.1,0-0.3,0-0.4,0h3.3c1.1-0.1,2.2,0.7,2.3,1.9c0.1,1.1-0.7,2.2-1.9,2.3C92.5,79.4,92.4,79.4,92.3,79.4z"/>
	<path style="opacity:0.1;fill:#6C63FF;enable-background:new    ;" d="M259.9,29.7L6.7,35.3c-3.2,7.6-5.2,15.6-6.1,23.8h254.8
		c1.7-5,2.9-10,3.7-15.2C259.9,39.2,260.1,34.4,259.9,29.7z M52,48.1h-4.6c1.1-0.1,2.2,0.7,2.3,1.9c0.1,1.1-0.7,2.2-1.9,2.3
		c-0.1,0-0.3,0-0.4,0H21c-1.1,0.1-2.2-0.7-2.3-1.9c-0.1-1.1,0.7-2.2,1.9-2.3c0.1,0,0.3,0,0.4,0h4.6c-1.1,0.1-2.2-0.7-2.3-1.9
		c-0.1-1.1,0.7-2.2,1.9-2.3c0.1,0,0.3,0,0.4,0h-3.3C21.2,44,20.2,43.2,20,42c-0.1-1.1,0.7-2.2,1.9-2.3c0.1,0,0.3,0,0.4,0h26.4
		c1.1-0.1,2.2,0.7,2.3,1.9c0.1,1.1-0.7,2.2-1.9,2.3c-0.1,0-0.3,0-0.4,0H52c1.1-0.1,2.2,0.7,2.3,1.9c0.1,1.1-0.7,2.2-1.9,2.3
		C52.3,48.1,52.1,48.1,52,48.1z"/>
	<ellipse style="fill:#E1E1E1;" cx="151.8" cy="171.4" rx="17.2" ry="3.9"/>
	<ellipse style="fill:#E1E1E1;" cx="191.8" cy="183.6" rx="31" ry="2.5"/>
	<ellipse style="fill:#E1E1E1;" cx="67.2" cy="179.8" rx="31" ry="3.9"/>
	<ellipse style="fill:#E1E1E1;" cx="114.5" cy="160.5" rx="23.3" ry="3.9"/>
	<ellipse style="fill:#E1E1E1;" cx="121" cy="192.6" rx="18.7" ry="3.9"/>
	
		<linearGradient id="SVGID_1_" gradientUnits="userSpaceOnUse" x1="-497.5117" y1="495.776" x2="-497.5117" y2="496.776" gradientTransform="matrix(46.2672 0 0 -135.0991 23128.5098 67141.2266)">
		<stop  offset="0" style="stop-color:#808080;stop-opacity:0.251"/>
		<stop  offset="0.54" style="stop-color:#808080;stop-opacity:0.122"/>
		<stop  offset="1" style="stop-color:#808080;stop-opacity:0.102"/>
	</linearGradient>
	<path style="fill:url(#SVGID_1_);" d="M132,68.6c-0.5-3.3-3.5-11.1-3.5-11.1l0,0c-0.1-0.2-0.1-0.5-0.2-0.7c-2.1-7.4-5.1-8-5.1-8
		l-10.6-2.3c0.1,0.1,0.2,0.1,0.2,0.2c-0.1,0-0.1,0-0.2,0c-0.5-0.6-0.8-1.3-0.9-2c0-0.1,0-0.2-0.1-0.3c3-2.9,3-7.6,0.1-10.6
		c-0.2-0.2-0.5-0.5-0.7-0.7c-0.1-0.1-0.2-0.2-0.3-0.3c0.5-0.6,0.5-1.4,0.1-2c-1-1.7-2.6-2.9-4.5-3.4c-1.4-0.5-3-0.5-4.4-0.1
		c-0.8,0.3-1.6,0.7-2.3,1.1c-1.5,0.6-2.8,1.4-4,2.4c-0.3,0.2-0.4,0.6-0.4,1c0.1,0.3,0.2,0.5,0.4,0.7c0.3,0.6,0.3,1.2,0,1.8
		c-0.2,0.6-0.5,1.1-0.7,1.7c-0.2,0.6-0.1,1.2,0.4,1.7c0.2,0.2,0.4,0.3,0.7,0.5c0.2,0.2,0.5,0.4,0.6,0.7c0.4,0.6,0.8,1.1,1.3,1.7
		c0.6,0.8,1.1,1.6,1.6,2.4c0.3,0.6,0.6,1.2,1,1.8c0.1,0.2,0.3,0.3,0.4,0.4l-0.1,0c0.4,0.4,0.9,0.6,1.4,0.6h0.1c0.1,0,0.2,0,0.3-0.1
		V46c0,0.8,0,1.7,0,2.5l-0.1-0.1c-0.3-0.1-0.7-0.1-0.9,0.1l-9.8,7.8c-1.4,2.4-2.1,5.2-1.8,7.9L88,71.9c0,0-2.1,6.4-0.5,10.9
		s2.6,7.2,2.6,7.2s0.7,5.2,1.6,5.6s1.4,0.7,1.4,0.7l0.2,1.2l0,0c0,0,0.1,0.1,0.2,0.3c0.7,1.3,3.4,5.7,4.9,5.2
		c0.2,1.2,0.3,2.4,0.3,3.6l1.5,10.3c0.5,1.4,0.9,2.8,1,4.3c0.1,1.3,0.6,2.5,1.2,3.6c-0.8,1.5-1,3.2-0.7,4.8
		c0.6,2.7,1.4,15.4,1.4,15.4l1.1,3.1l0,3.6c-0.1,0.6-0.3,1.1-0.7,1.6c-0.7,0.8-0.7,1.7-2.5,2.8s-2.9,1.5-2.9,3c0,0.2,0,0.4-0.1,0.6
		c-0.2,1.1-0.5,1.6,2.8,2c2.3,0.2,4.7-0.6,6.4-2.1c0,0,0.6-1,3.2-1.4c0,0,0.9,0,1-0.9c0-0.3,0-0.8,0-1.4c0-0.8-0.1-1.7-0.3-2.5
		c-0.3-0.5-0.5-1-0.6-1.6h0.7c0.4-2.8,0.4-5.7,0-8.5c-0.4-1.9-0.4-3.8-0.1-5.7l-0.1-8.9c-0.6-0.8-0.7-1.8-0.2-2.7
		c0.7-1.7,0-10.3,0-10.3s0.3-3.1,1-3.8s0-4.5,0-4.7l1.3,4.5c0,0,0.6,9,1.8,10.6l0.4,4.1c0,0,2.6,3.7,2.1,5.8s0.5,9.3,0.5,9.3v7.5
		c0,0-1.2,3,0.5,4.1l0.7,0c-0.2,0.2-0.4,0.5-0.7,0.8c-0.4,0.8-0.6,1.7-0.6,2.6c-0.1,0.9-0.1,1.6-0.1,1.6c0.5,0.7,1.2,1.1,2,1.2
		c1.3,0.1,5.5,3.3,5.5,3.3c1.8,0,3.5-0.1,5.3-0.2l0.1,0c0.3-0.1,0.6-0.3,0.8-0.7c0.2-0.4,0.3-0.8,0.2-1.2c-0.3-0.9-0.9-1.6-1.8-1.9
		c-2.8-1.5-3.2-2.9-3.2-2.9l-1.8-2.8h0.3c0-2.2,0.7-4.4,1.8-6.2l-0.1-14.5c0,0,0.8-5-0.6-7.7c0,0-0.1-2.9,0.8-3.7s-1.3-9.8-1.3-9.8
		s-0.5-4.8-1-9.1l0,0c2.2,2.1,4.5-5.5,4.9-6.8h0.1l0-0.1c0-0.1,0-0.1,0-0.1l0,0c0,0-0.5-1.8-0.1-1.4s1.3-1,1.3-1s-0.1-7.3,1.4-10.9
		S132,68.6,132,68.6z M125.3,73.3L125.3,73.3c0.2,4.4,0,13.9,0,13.9s-0.3,1.2-0.6,2.6l-0.2-9l0,0l-0.2-8.5L125.3,73.3z M97,70.2
		c0,0,1.1,14,0,16c-0.4,0.9-0.7,1.8-0.8,2.8c-0.4-1-1.2-3.3-0.9-4.5c0.4-1.6-0.7-5.7-0.7-5.8c0-1.4,0.2-2.7,0.7-4
		c0.8-1.7,0.3-2.4,0.3-2.4S96.2,69.7,97,70.2z"/>
	<path style="fill:#D38884;" d="M99.7,101.8c-1,4.3-4.9-2.2-5.7-3.8c-0.1-0.2-0.2-0.3-0.2-0.3l0.4-2l2.2-0.9c0.4,0.2,0.7,0.4,1,0.6
		C99.4,96.9,100.3,99.4,99.7,101.8z"/>
	<path style="fill:#D38884;" d="M129.8,94.7c0,0,0,0.1,0,0.1c0,0,0,0.1,0,0.1c-0.4,1.3-2.6,8.9-4.8,6.8c-2.4-2.3-1.2-7.6-1.2-7.6h0
		l5-0.5L129.8,94.7L129.8,94.7L129.8,94.7z"/>
	<path style="fill:#444053;" d="M126.9,131.8l0.1,14.4c-1.2,1.8-1.8,4-1.8,6.2l-6.5,0.3c-1.6-1.1-0.5-4-0.5-4v-7.4
		c0,0-1-7.2-0.5-9.2s-2-5.7-2-5.7l-0.4-4c-1.2-1.6-1.8-10.5-1.8-10.5l-1.3-4.5c0,0.2,0.7,4,0,4.6s-1,3.8-1,3.8s0.7,8.5,0,10.2
		c-0.5,0.9-0.4,1.9,0.2,2.7l0.1,8.8c-0.4,1.9-0.4,3.8,0.1,5.7c0.4,2.8,0.4,5.7,0,8.5h-7l0-3.6l-1.1-3c0,0-0.8-12.5-1.4-15.3
		c-0.4-1.6-0.1-3.3,0.6-4.8c-0.7-1.1-1.1-2.3-1.2-3.5c-0.1-1.5-0.5-2.9-1-4.2l-1.5-10.2c0-2-0.2-3.9-0.7-5.8
		c-0.9-2.9-2.2-6.7-2.2-6.7l1.5,0.1L105,95c0,0,17.9-1.2,18.7-0.2c0.2,0.3,0.3,0.7,0.3,1c0.8,3.6,1.9,14.9,1.9,14.9s2.2,8.8,1.2,9.7
		s-0.8,3.7-0.8,3.7C127.7,126.9,126.9,131.8,126.9,131.8z"/>
	<path style="fill:#B07473;" d="M111.7,156.8c0,0.8-0.9,0.8-0.9,0.8c-2.6,0.4-3.2,1.4-3.2,1.4c-1.7,1.5-4,2.3-6.3,2.1
		c-3.2-0.3-2.9-0.9-2.7-1.9c0-0.2,0.1-0.4,0.1-0.6c0-1.5,1.1-1.9,2.9-3s1.7-2,2.4-2.8c0.5-0.7,0.8-1.5,0.8-2.4
		c0.8-1.4,2.9,0.2,2.9,0.2c0.1,0.5,3.2,0.4,3.2,0.4c0.1,0.6,0.3,1.2,0.6,1.7c0.2,0.8,0.3,1.6,0.3,2.5
		C111.8,156,111.8,156.6,111.7,156.8z"/>
	<path style="opacity:0.1;enable-background:new    ;" d="M111.7,156.8c0,0.8-0.9,0.8-0.9,0.8c-2.6,0.4-3.2,1.4-3.2,1.4
		c-1.7,1.5-4,2.3-6.3,2.1c-3.2-0.3-2.9-0.9-2.7-1.9c1.4,0.4,4.2,0.9,5.8,0c2.2-1.2,3.8-2.1,3.8-2.1l3.5-1.8
		C111.8,156,111.8,156.6,111.7,156.8z"/>
	<path style="fill:#B07473;" d="M131.5,161.2c-0.2,0.3-0.5,0.6-0.8,0.7l-0.1,0c-1.7,0.2-3.5,0.2-5.2,0.2c0,0-4.2-3.2-5.4-3.3
		c-0.8-0.1-1.5-0.5-1.9-1.2c0,0,0-0.8,0.1-1.6c0-0.9,0.2-1.7,0.6-2.5c0.6-0.6,0.7-1.4,1.9-0.9c0,0,1.8-3.2,3.9-0.7l2.2,3.3
		c0,0,0.4,1.4,3.2,2.9c0.8,0.4,1.5,1.1,1.7,1.9C131.8,160.4,131.7,160.8,131.5,161.2z"/>
	<path style="opacity:0.1;enable-background:new    ;" d="M131.5,161.2c-0.2,0.2-0.5,0.4-0.8,0.7l-0.1,0c-1.7,0.2-3.5,0.2-5.2,0.2
		c0,0-4.2-3.2-5.4-3.3c-0.8-0.1-1.5-0.5-1.9-1.2c0,0,0-0.8,0.1-1.6c1.3,0.4,3.2,1.1,3.8,1.8c1,1,2,1.9,3.2,2.7c0,0,4.5-0.4,6.5-0.5
		C131.8,160.4,131.7,160.8,131.5,161.2z"/>
	<path style="fill:#D38884;" d="M113.9,48.3l-6,6.3c0,0-7.2-0.5-6-2.7c0.6-1.1,0.7-3.4,0.7-5.3c-0.1-1.9-0.2-3.5-0.2-3.5
		s10.1-5,9.4-0.3c-0.2,0.9-0.2,1.8,0,2.7C111.8,46.7,112.7,47.8,113.9,48.3z"/>
	<path style="opacity:0.1;enable-background:new    ;" d="M111.7,42.7c-0.2,0.9-0.2,1.8,0,2.7c-1.4,1.4-3.3,2.2-5.3,2.2
		c-1.4,0-2.9-1.1-4-1.8c-0.1-1.9-0.1-2.8-0.1-2.8S112.5,38,111.7,42.7z"/>
	<path style="fill:#D38884;" d="M113.9,39.8c0,4.1-3.3,7.5-7.5,7.5c-4.1,0-7.5-3.3-7.5-7.5s3.3-7.5,7.5-7.5c1.7,0,3.3,0.6,4.7,1.6
		C112.8,35.4,113.9,37.5,113.9,39.8z"/>
	<path style="opacity:0.1;enable-background:new    ;" d="M124,95.8c-1.9,4.4-13.8,4.5-13.8,4.5v-4.8l-0.7,0
		c0.3,1.4-0.4,4.8-0.4,4.8c-9.5,1.3-11.8-4.1-11.8-4.1l0.3-1.8L105,95c0,0,17.9-1.2,18.7-0.2C123.9,95.1,124,95.5,124,95.8z"/>
	<path style="fill:#15BDE4;" d="M110.2,99.8v-4.8l-0.7,0c0.3,1.4-0.4,4.8-0.4,4.8c-7.1,1-10.2-1.8-11.3-3.2
		c-0.2-0.2-0.4-0.5-0.5-0.8l2.9-16.2l0.7-23.9l1-4.2l0.2-2v0h0l0.7,0.3l4.4,1.9l5-3.8l0.1-0.1l0.2-0.2l0.4,0.3l1,0.8l3.3,21.3
		c0,0,5.7,16.4,6.8,23c0,0.3,0.1,0.5,0.1,0.7C124.9,99.7,110.2,99.8,110.2,99.8z"/>
	<circle style="fill:#67647E;" cx="107.8" cy="51.9" r="0.4"/>
	<circle style="fill:#67647E;" cx="108" cy="55.8" r="0.4"/>
	<circle style="fill:#67647E;" cx="108.4" cy="62.1" r="0.4"/>
	<circle style="fill:#67647E;" cx="109.1" cy="68.8" r="0.4"/>
	<circle style="fill:#67647E;" cx="109.6" cy="75.2" r="0.4"/>
	<circle style="fill:#67647E;" cx="110" cy="82" r="0.4"/>
	<circle style="fill:#67647E;" cx="109.8" cy="88.6" r="0.4"/>
	<path style="opacity:0.1;enable-background:new    ;" d="M102.4,81.7c0,0-0.5,6.2-1.3,8s-1.3,6.9-1.3,6.9l-2-0.2
		c-0.2-0.2-0.4-0.5-0.5-0.8l2.9-16.2l0.7-23.9l1-4.2l0.2-2l0,0c0.2-0.1,0.5-0.1,0.7,0l0.1,0.1c0,0.1-0.1,0.2-0.1,0.3
		c-0.6,2.3-0.9,4.7-1.1,7c0,0,1.1,8.3,1.3,12.2C103.2,72.7,102.4,81.7,102.4,81.7z"/>
	<path style="opacity:0.1;enable-background:new    ;" d="M97.4,95.4c0,0.1,0,0.1-0.1,0.2c-0.9,1.1-2,1.9-3.4,2.4
		c-0.1-0.2-0.2-0.3-0.2-0.3l0.4-2l2.2-0.9C96.8,95,97.1,95.2,97.4,95.4z"/>
	<path style="fill:#67647E;" d="M92,63.7l-1.8,1.1l-1.7,7.5c0,0-2.1,6.3-0.5,10.9s2.6,7.1,2.6,7.1s0.6,5.1,1.6,5.6s1.4,0.6,1.4,0.6
		l0.2,1.2c0,0,2.6-0.9,3.6-2.5s-0.7-5.5-0.7-5.5s-1.4-3.3-1-4.9s-0.7-5.6-0.7-5.7c0-1.3,0.2-2.7,0.7-3.9c0.8-1.7,0.3-2.4,0.3-2.4
		l-0.5-4.8L92,63.7z"/>
	<path style="opacity:0.1;enable-background:new    ;" d="M124.2,94.4c0,0-4.9,1.8-6.4,0.2s-1.4-9.2-1.4-9.2s-1.5-14-2.4-16.3
		s-0.5-18.9-0.5-18.9c-0.3-1-0.7-1.9-1.2-2.7c0,0-0.1-0.1-0.1-0.1l0.2,0l0.7,0.1l1,0.8l3.3,21.3c0,0,5.7,16.4,6.8,23L124.2,94.4z"/>
	<path style="opacity:0.1;enable-background:new    ;" d="M129.8,94.9L129.8,94.9c-0.7,0.1-6.1,0.7-6.1-0.4c0-0.1,0-0.3,0-0.4l5-0.5
		l1,1l0,0c0,0.1,0,0.1,0,0.2L129.8,94.9z"/>
	<path style="fill:#67647E;" d="M124.6,56.2l3.6,1.9c0,0,3,7.7,3.4,11c0,0,2.2,8.8,0.7,12.5s-1.4,10.8-1.4,10.8s-0.9,1.3-1.2,1
		s0.1,1.4,0.1,1.4s-6.1,0.8-6.1-0.4c0.3-2.3,0.8-4.6,1.4-6.9c0,0,0.4-13.6-0.2-15.7S124.6,56.2,124.6,56.2z"/>
	<path style="opacity:0.1;enable-background:new    ;" d="M114,70.7c0,0-2,4.9-2.7,5.2s0.1,1.6,0.1,1.6S115.1,72.5,114,70.7z"/>
	<path style="opacity:0.1;enable-background:new    ;" d="M112.8,53.5c0-0.1-2.4,2.4-3,2.7S112.1,56.2,112.8,53.5z"/>
	<path style="opacity:0.1;enable-background:new    ;" d="M106,70.3c0,0-3.7,2.4-3.2,3.3S106,70.3,106,70.3z"/>
	<path style="opacity:0.1;enable-background:new    ;" d="M112.7,105.1c2.5,1.4,5.2,2.3,8,2.5L112.7,105.1z"/>
	<path style="opacity:0.1;enable-background:new    ;" d="M105.2,110c0,0,2.9,3.7,4.2,3.8S105.2,110,105.2,110z"/>
	<path style="opacity:0.1;enable-background:new    ;" d="M109.3,124.3c-0.1,0.1-1.6,3.3-3.2,3.4S109.3,124.3,109.3,124.3z"/>
	<path style="opacity:0.1;enable-background:new    ;" d="M122.8,131.4c0,0,2.9-0.6,3.5,1.4C126.3,132.8,126.1,132.1,122.8,131.4z"
		/>
	<path style="opacity:0.1;enable-background:new    ;" d="M120.8,143.2c0,0,3.5-0.7,4.2,0.3S120.8,143.2,120.8,143.2z"/>
	<path style="opacity:0.1;enable-background:new    ;" d="M110.9,144.9c0,0-3.6,0.7-3.4,1.2s3.8,0.4,3.9-0.3
		C111.5,145.3,111.3,145,110.9,144.9C110.9,144.9,110.9,144.9,110.9,144.9L110.9,144.9z"/>
	<path style="opacity:0.1;enable-background:new    ;" d="M119.6,147.9c0,0,5.8-0.7,5.5,0.5S119.6,147.9,119.6,147.9z"/>
	<path style="opacity:0.1;enable-background:new    ;" d="M89.1,75.9c0,0.1,3.8,0.6,4.4,1.8C92,77.1,90.6,76.5,89.1,75.9"/>
	<path style="opacity:0.1;enable-background:new    ;" d="M94.4,85.9c0,0-3.2,1-2.9,2.5S91.2,87.8,94.4,85.9z"/>
	<path style="opacity:0.1;enable-background:new    ;" d="M92.9,93.6c0,0,1.2-1.6,2.3-1.3S92.9,93.6,92.9,93.6z"/>
	<path style="opacity:0.1;enable-background:new    ;" d="M111,33.9c-0.1,0.1-0.2,0.2-0.4,0.3c-0.8,0.6-1.3,1.4-1.6,2.3
		c-0.3,0.9-0.9,1.7-1.7,2.3c-1.1,0.6-2.4,0.4-3.5,1c-1,0.5-1.6,1.6-1.5,2.7c0.1,0.4,0.2,0.8,0.3,1.2c0.2,0.9,0.4,1.8,0.3,2.7
		c0,0,0,0.1,0,0.1c-3.7-1.8-5.2-6.3-3.3-10c1.8-3.7,6.3-5.2,10-3.3C110.2,33.3,110.7,33.6,111,33.9L111,33.9z"/>
	<path style="fill:#585268;" d="M110.9,31.7c-0.9-1.7-2.6-2.9-4.4-3.3c-1.4-0.5-2.9-0.5-4.3-0.1c-0.8,0.3-1.5,0.6-2.3,1.1
		c-1.5,0.6-2.8,1.4-3.9,2.4c-0.3,0.2-0.4,0.6-0.4,1c0.1,0.3,0.2,0.5,0.4,0.7c0.3,0.6,0.3,1.2,0,1.8c-0.2,0.6-0.5,1.1-0.6,1.7
		c-0.2,0.6-0.1,1.2,0.3,1.7c0.2,0.2,0.4,0.3,0.7,0.5c0.2,0.2,0.4,0.4,0.6,0.7l1.2,1.7c0.6,0.7,1.1,1.5,1.5,2.4
		c0.3,0.6,0.6,1.2,1,1.8c0.4,0.6,1,0.9,1.7,0.9c0.1,0,0.2,0,0.3-0.1c0-0.1,0-0.1,0-0.2c0-0.9-0.1-1.8-0.3-2.7
		c-0.1-0.4-0.2-0.8-0.3-1.2c-0.1-1.1,0.5-2.2,1.5-2.7c1.1-0.6,2.5-0.3,3.5-1c0.8-0.6,1.3-1.4,1.7-2.3c0.3-0.9,0.8-1.7,1.6-2.3
		c0.8-0.4,1.1-1.4,0.7-2.2C110.9,31.8,110.9,31.7,110.9,31.7z"/>
	<path style="opacity:0.1;enable-background:new    ;" d="M107.5,153.8c0,0,1.1,1.5,0.8,2.3S107.5,153.8,107.5,153.8z"/>
	<path style="opacity:0.1;enable-background:new    ;" d="M123,157.4c0,0,0.3-2,1.3-2c0.6-0.1,1.3,0,1.8,0.2
		c0.8,0.3,1.5,0.8,1.3,0.8s-1.3-1.1-2.5-0.5C124.2,156.4,123.5,156.9,123,157.4z"/>
	<path style="opacity:0.1;enable-background:new    ;" d="M104.1,53.9l3.2-2.2c0,0-4.7-2.8-5.2-2.4s-0.9,3.9-0.9,3.9L104.1,53.9z"/>
	<path style="fill:#E1E7EF;" d="M104.1,53.7l3.2-2.3c0,0-4.7-2.8-5.2-2.4s-0.9,4.1-0.9,4.1L104.1,53.7z"/>
	<path style="fill:#00A2C8;" d="M104.1,53.7l3.2-2.3c0,0-4.7-2.8-5.2-2.4s-0.9,4.1-0.9,4.1L104.1,53.7z"/>
	<path style="fill:#67647E;" d="M102.6,49.1l-0.1,0c-0.3-0.1-0.6-0.1-0.9,0.1L92,56.9c-1.4,2.4-2.1,5.1-1.8,7.9l5.7,8
		c0,0,0.6-2.7,1.4-2.2c0,0,1.1,13.9,0,15.9S95.7,96,95.7,96l3.7,0.4c0,0,0.4-5.1,1.3-6.9s1.3-8,1.3-8s0.8-9,0.7-12.9
		s-1.3-12.2-1.3-12.2C101.5,53.9,101.9,51.5,102.6,49.1z"/>
	<path style="opacity:0.1;enable-background:new    ;" d="M112.1,52.5l-4-1.5c0,0,5.1-5.6,5.7-2.5L112.1,52.5z"/>
	<path style="fill:#E1E7EF;" d="M112.1,52.3l-4-1.5c0,0,5.1-5.6,5.7-2.5L112.1,52.3z"/>
	<path style="fill:#00A2C8;" d="M112.1,52.3l-4-1.5c0,0,5.1-5.6,5.7-2.5L112.1,52.3z"/>
	<path style="opacity:0.1;enable-background:new    ;" d="M112,47.5c0.1,0,0.1,0,0.2,0L112,47.5z"/>
	<path style="fill:#67647E;" d="M112.4,47.1l10.6,2.3c0,0,2.9,0.6,5,8s-2.9,16.3-2.9,16.3l-1.1-0.9l0.6,21.3c0,0-4.9,1.8-6.4,0.2
		s-1.4-9.2-1.4-9.2s-1.5-14-2.4-16.3S113.8,50,113.8,50S113,47,112.4,47.1z"/>
	<path style="opacity:0.1;enable-background:new    ;" d="M122.1,60.7c-0.3,3.8-0.1,7.7,0.3,11.5c0.4,3,1,6,1.8,8.9l-1-19.7
		C123.3,61.4,122.5,60.3,122.1,60.7z"/>
	<path style="opacity:0.1;enable-background:new    ;" d="M120.8,55.2c0.3,0.2,1.4,2.8,0.9,3.9S120.8,55.2,120.8,55.2z"/>
	<path style="opacity:0.1;enable-background:new    ;" d="M110.8,31.7c-0.5-1-1.3-1.9-2.3-2.4c0.7,0.5,1.3,1.2,1.7,2.1
		c0.5,0.7,0.3,1.8-0.4,2.3c0,0-0.1,0.1-0.1,0.1c-0.8,0.6-1.3,1.4-1.6,2.3c-0.3,0.9-0.9,1.7-1.7,2.3c-1.1,0.6-2.4,0.4-3.5,1
		c-1,0.5-1.6,1.6-1.5,2.7c0.1,0.4,0.2,0.8,0.3,1.2c0.2,0.9,0.4,1.8,0.3,2.7c0,0.1,0,0.1,0,0.2c-0.1,0.1-0.2,0.1-0.3,0.1
		c-0.3,0-0.6,0-0.8-0.1c0.4,0.4,0.9,0.6,1.4,0.5c0.1,0,0.3-0.1,0.3-0.2c0,0,0,0,0-0.1c0-0.9-0.1-1.8-0.3-2.7
		c-0.1-0.4-0.2-0.8-0.3-1.2c-0.1-1.1,0.5-2.2,1.5-2.7c1.1-0.6,2.5-0.3,3.5-1c0.8-0.6,1.3-1.4,1.7-2.3c0.3-0.9,0.8-1.7,1.6-2.3
		c0.8-0.4,1.1-1.4,0.7-2.2C110.9,31.8,110.8,31.7,110.8,31.7z"/>
	
		<linearGradient id="SVGID_2_" gradientUnits="userSpaceOnUse" x1="-497.0899" y1="495.8474" x2="-497.0899" y2="496.8474" gradientTransform="matrix(44.5588 0 0 -139.5681 22303.373 69378.5703)">
		<stop  offset="0" style="stop-color:#808080;stop-opacity:0.251"/>
		<stop  offset="0.54" style="stop-color:#808080;stop-opacity:0.122"/>
		<stop  offset="1" style="stop-color:#808080;stop-opacity:0.102"/>
	</linearGradient>
	<path style="fill:url(#SVGID_2_);" d="M175.9,60.4c-3.1-0.1-5.9-2.3-7.5-5c-0.4-0.6-0.7-1.4-0.8-2.1c0-0.2,0-0.3,0.1-0.5
		c0.1-0.3,0.2-0.5,0.2-0.8c0-0.1,0-0.2,0-0.3v0c0-0.6-0.2-1.2-0.7-1.5c-0.4-0.4-0.9-0.7-1.4-1.1c-1.3-1.3-1.9-3.1-1.8-4.9V44
		c0-0.8,0.1-1.6,0.1-2.3c0-0.4,0-0.9-0.1-1.3c-0.1-1.1-0.6-2.2-1.4-2.9c-2.3-1.8-6,0.1-8.4-1.7c-0.6-0.4-1-1-1.7-1.2
		c-0.5-0.1-1.1,0-1.6,0.2c-1.7,0.6-3.6,1.3-4.3,3c-0.4,1-0.3,2-0.6,3c-0.3,0.6-0.6,1.2-1,1.8c-0.3,0.5-0.4,1-0.4,1.5
		c0,0.3,0,0.6,0.1,0.8c0.1,0.3,0.3,0.6,0.6,0.8c-0.1,0.2-0.2,0.4-0.3,0.5c-0.4,0.5-1.1,0.9-1.6,1.4c-0.8,1-0.9,2.3-0.4,3.5
		c0.4,1.2,1.2,2.2,1.7,3.3c0.3,0.5,0.3,1,0.2,1.5c-0.2,0.3-0.5,0.6-0.8,0.9c-0.4,0.4-0.6,1-0.7,1.5c-5.1,1.2-5.1,5.3-5.1,5.3l0,0
		l-2.8,7c0,0-0.4,1.2-1,2.7l-3.3-0.6l2.3,3.8c-0.4,1.2-0.6,2.5-0.6,3.7c0,0-1,4.8,0.8,5.6l4,1.8c0.2,0.1,0.4,0.2,0.6,0.2l0.2,0.1
		c0.1,0.1,0.3,0.1,0.4,0h0.1c0.1,0,0.2,0,0.2,0c0.1,0,0.2-0.1,0.2-0.2c0,0,0,0,0,0l1.2-0.3l1,1.2c0.5,0.3,0.9,0.6,1.3,0.9l-1.6,15.6
		c0,0-0.3,20.8-1,25.5c-0.2,1.2-0.3,2.5-0.2,3.8l0,0c0.2,1.3,0.7,1.6,0.7,1.6v0c0,0,0,0,0,0c0.2-0.6,0.5-1.2,0.8-1.8v0.3
		c0,1.8-0.1,4.2-0.3,5.8c-0.3,2.7,0.8,11.8,0.8,11.8l0.4,8.2c0.1,1.4-0.3,2.8-0.9,4c-0.9,1.6-2.1,4-2.2,5c0,0.1,0,0.1,0,0.2l0,0
		l-2,2.4c0,0-0.8,1.2,1,1.7c1.3,0.2,2.6,0.1,3.8-0.3c1.2-0.3,2-1.3,2-2.5c0.3-1.1,0.9-2.2,1.6-3.1l0.3,1.9l2.2,0.5l0.3-5.2
		c0.1-0.3,0.2-0.6,0.1-0.9l0,0c0.4-3.7-1-3.4-1-3.4c0,0,0.1,0.1,0.1,0.1l-0.1-0.1l0,0c-0.5-1.5-0.7-3-0.5-4.6c0,0,1.1-8.2,1.5-10.4
		c0.2-3.1,0.2-6.2,0.1-9.4c0-0.1,0-0.2,0-0.3c3.3,0,7.4-0.2,10.3-0.4v0.3l-0.5,19.4c0,1.2-0.3,2.5-0.7,3.6c0,0,0,0,0,0.1
		c-0.6,1.6-1,3.3-1.1,5.1l-0.2,6.2v0.2l0,0c-0.4,0.2-1.1,0.6-1.1,2c0,2,3.5,1.4,3.5,1.4c3.6,0,3.6-3.7,3.6-3.7s0.1-3.4,0.3-5.7
		s-0.5-1.8-0.5-1.8l-0.1,6.5v-5.6l0.1-0.8v0l0,0v-0.2l0.5-6.7c0,0,3.3-11.2,3.8-13.3c0.4-1.5,0.2-6.1,0.1-8.6c0-0.1,0-0.2,0-0.3
		c1-0.1,1.9-0.1,2.3-0.1h0.2c0,0-0.2-17.9-0.6-24.7s-1.1-12.9-2.8-14.8c-1-1.1-2.5-4.6-3.4-7.2c2,0.9,4.1,1.6,6.3,2.1
		c5.4,1.1,4.7-3.6,4.7-3.6l-0.5-8.9h0c0-2.3-0.2-4.6-0.6-6.9c-0.2-1.7-0.7-3.4-1.4-5c0.6-0.2,1.2-0.5,1.7-0.7
		c1.5-0.6,3.1-1.6,3.3-3.1h-0.1C175.9,60.6,175.9,60.5,175.9,60.4L175.9,60.4z M142.5,73.2L142.5,73.2c0,0.9,0,2.5-0.1,4.3l-1.7-2.3
		l1.7-2.8L142.5,73.2z M166.1,81.3l-2.9-0.9c0.5-0.8,1.1-1.5,1.8-2.2l0.2-0.2l-0.1,0l0.1-0.1l0.1,0l-0.1,0.1l0.2,0
		c0.2,0.7,0.5,1.4,1,2C167.4,81,166.1,81.3,166.1,81.3L166.1,81.3z"/>
	<path style="fill:#A27772;" d="M148.8,163.6l-0.3,6.3l-2.1-0.5l-0.4-2.6L148.8,163.6z"/>
	<path style="opacity:0.1;enable-background:new    ;" d="M148.8,163.6l-0.3,6.3l-2.1-0.5l-0.4-2.6L148.8,163.6z"/>
	<path style="fill:#CC818C;" d="M156.6,170.7l3.2,0.7l2.4-2.1v-6l0.1-0.8v0l0,0v-0.2l0.4-6.7c0,0,3.2-11.1,3.8-13.2
		c0.4-1.5,0.2-6.1,0.1-8.6c0-1-0.1-1.7-0.1-1.7l-7.2-1.7l-0.2,5.5l-0.5,19.3c0,1.2-0.3,2.4-0.7,3.6l0,0.1c-0.6,1.6-1,3.3-1,5.1
		l-0.2,6.1v0.2L156.6,170.7z"/>
	<path style="opacity:0.1;enable-background:new    ;" d="M162.3,162.3v0.2l0,0V162.3L162.3,162.3z"/>
	<path style="opacity:0.1;enable-background:new    ;" d="M156.6,170.7l3.2,0.7l2.4-2.1v-0.5c0,0.2-0.1,0.4-0.3,0.5l0,0
		c-1.1,0.6-2.4,0.8-3.6,0.7l-1.3-0.1c-0.1,0-0.2,0-0.3,0.1v0.2L156.6,170.7z"/>
	<path style="fill:#B07473;" d="M161.9,169.5L161.9,169.5c0.2-0.1,0.4-0.4,0.4-0.6l0.1-6.4c0,0,0.7-0.5,0.5,1.8s-0.3,5.7-0.3,5.7
		s0,3.7-3.6,3.7c0,0-3.5,0.7-3.5-1.3s1.5-2.1,1.5-2.1l1.3,0.1C159.5,170.3,160.8,170.1,161.9,169.5z"/>
	<path style="fill:#CC818C;" d="M139.7,169.3c0.1,1.5,4.4,0.6,4.4,0.6l2.9-5.6c0,0,2.4-1.8,1.2-3.5c-0.1-0.1-0.1-0.2-0.2-0.3l0,0
		l0,0c0,0,0-0.1-0.1-0.1l0,0c-0.5-1.4-0.7-3-0.4-4.5c0,0,1.1-8.2,1.5-10.3c0.2-3.1,0.2-6.2,0.1-9.3c0-1.2-0.1-1.9-0.1-1.9l-7.1-1.9
		v2.1c0,1.8-0.1,4.2-0.3,5.8c-0.3,2.7,0.8,11.7,0.8,11.7l0.4,8.2c0.1,1.4-0.3,2.8-0.9,4c-0.9,1.6-2.1,3.9-2.1,4.9
		C139.7,169.3,139.7,169.3,139.7,169.3L139.7,169.3z"/>
	<path style="opacity:0.1;enable-background:new    ;" d="M139.7,169.3c0.1,1.5,4.4,0.6,4.4,0.6l2.9-5.6c0,0,2.4-1.8,1.2-3.5
		c-0.1-0.1-0.1-0.2-0.2-0.3c-0.2,1-0.5,2-1,3c0,0-2.4,4.8-3.1,5.8s-4-0.2-4.2-0.2C139.7,169.2,139.7,169.3,139.7,169.3L139.7,169.3z
		"/>
	<path style="fill:#B07473;" d="M147.9,160.5c0,0,1.4-0.3,1,3.3l0,0c0,0.8-0.4,1.7-1.1,2.1c-1.7,1.1-2.8,2.7-3.3,4.6l0,0
		c0,1.2-0.8,2.2-2,2.5c-1.2,0.4-2.5,0.5-3.8,0.3c-1.7-0.5-1-1.7-1-1.7l2-2.3c0,0,3.4,1.3,4.2,0.3s3.1-5.8,3.1-5.8
		S148.3,160.8,147.9,160.5z"/>
	<path style="opacity:0.1;enable-background:new    ;" d="M159.4,131l-0.2,5.5c1.9-0.2,3.3-0.4,3.5-0.8c0.5-0.8,2.3-1.1,3.9-1.2
		c0-1-0.1-1.7-0.1-1.7L159.4,131z"/>
	<path style="opacity:0.1;enable-background:new    ;" d="M141.9,135.3c0.2-0.4,0.5-0.7,0.8-0.9c0.8-0.4,0.7,2.7,0.7,2.7
		s2.5,0,5.7,0c0-1.2-0.1-1.9-0.1-1.9l-7.1-1.9C141.9,133.1,141.9,134,141.9,135.3z"/>
	<path style="fill:#444053;" d="M141,136c0,0,0.8-2.3,1.6-2.7s0.7,2.7,0.7,2.7s18.5,0.2,19.4-1.3s6.3-1.3,6.3-1.3
		s-0.2-17.8-0.6-24.5s-1.1-12.8-2.8-14.7c-1.1-1.2-2.6-5.1-3.6-7.6c-0.5-1.4-0.9-2.4-0.9-2.4l-17.6,1l-0.1,1.4l-1.9,18.7
		c0,0-0.3,20.7-1,25.4S141,136,141,136z"/>
	<g transform="translate(140.327 84.11)" style="opacity:0.1;">
		<path d="M20.9,50.6c0.9-1.4,6.3-1.3,6.3-1.3s-0.2-17.8-0.6-24.5s-1.1-12.8-2.8-14.7c-1.1-1.2-2.6-5.1-3.6-7.6
			c-0.4-1.2-0.8-2.1-0.8-2.4L20.8,0c0,0,0.3,1,0.9,2.4c1,2.6,2.5,6.4,3.6,7.6c1.7,1.8,2.4,8,2.8,14.7s0.6,24.5,0.6,24.5
			s-5.4-0.1-6.3,1.3C21.6,51.8,8,51.9,4,51.9C9.1,51.9,20.2,51.7,20.9,50.6z"/>
		<path d="M0.9,49.2c0.3-0.2,0.5,0.3,0.6,1c-0.3,0.6-0.6,1.1-0.8,1.7c0,0-0.5-0.3-0.7-1.6C0.2,49.9,0.5,49.5,0.9,49.2z"/>
	</g>
	<path style="fill:#585268;" d="M146.5,41c-1.2,1.7,0,4-1.3,5.6c-0.4,0.5-1.1,0.9-1.5,1.4c-0.7,1-0.9,2.3-0.4,3.4
		c0.4,1.1,1.1,2.2,1.7,3.3c0.3,0.4,0.3,1,0.2,1.5c-0.2,0.3-0.5,0.6-0.8,0.9c-0.8,0.9-0.9,2.2-0.4,3.4c0.5,1.1,1.3,2.1,2.2,3
		c0.4,0.7,1.3,1,2,0.6c0,0,0.1-0.1,0.1-0.1c4-2.1,5.7-6.9,3.8-11c-0.7-1.7-1.9-3.3-1.9-5.1c0-1.4,0.7-2.8,0.9-4.2
		c0.2-1.7-0.9-4.5-2.9-5.2C148.3,39.6,147.1,40.2,146.5,41z"/>
	<path style="opacity:0.1;enable-background:new    ;" d="M146.5,41c-1.2,1.7,0,4-1.3,5.6c-0.4,0.5-1.1,0.9-1.5,1.4
		c-0.7,1-0.9,2.3-0.4,3.4c0.4,1.1,1.1,2.2,1.7,3.3c0.3,0.4,0.3,1,0.2,1.5c-0.2,0.3-0.5,0.6-0.8,0.9c-0.8,0.9-0.9,2.2-0.4,3.4
		c0.5,1.1,1.3,2.1,2.2,3c0.4,0.7,1.3,1,2,0.6c0,0,0.1-0.1,0.1-0.1c4-2.1,5.7-6.9,3.8-11c-0.7-1.7-1.9-3.3-1.9-5.1
		c0-1.4,0.7-2.8,0.9-4.2c0.2-1.7-0.9-4.5-2.9-5.2C148.3,39.6,147.1,40.2,146.5,41z"/>
	<path style="opacity:0.1;enable-background:new    ;" d="M160,101.6c-2.4,0.3-4.8,1.1-6.9,2.4c-2.1,1.3-4.3,2.4-6.5,3.4"/>
	<path style="opacity:0.1;enable-background:new    ;" d="M158.5,107.3c-2.4,0.2-4.7,1.3-6.3,3.1c-0.6,0.6-1.1,1.3-1.7,1.9
		c-0.9,0.9-2.1,1.6-3.4,1.9"/>
	<path style="opacity:0.1;enable-background:new    ;" d="M159,111.7c-1.9,0.5-3.7,1.6-5.1,3.1c-0.4,0.4-0.7,0.8-1.1,1.2
		c-2,2.2-4.9,3.3-7.6,4.4"/>
	<path style="fill:#CC818C;" d="M158.8,50.9c0.1,2,0.2,3.9,0.5,5.8c0.1,1.1,0.4,2.2,1,3.2c1.3,1.6-6.5,3.7-6.5,3.7l-4.7-3.6
		c0,0,3.7-3.4,2-6.7S158.8,50.9,158.8,50.9z"/>
	<path style="opacity:0.1;enable-background:new    ;" d="M143.4,86.5h18.6c-0.5-1.4-0.9-2.4-0.9-2.4l-17.6,1L143.4,86.5z"/>
	<path style="fill:#00A2C8;" d="M142.2,86.2h19.9c-0.5-1.8-0.2-3.7,0.8-5.3c0.6-1,1.3-1.9,2.1-2.7l0.1-0.1l7-1.5l0.4-0.1
		c0,0,0.1-12.6-4.4-14.4c-2.6-1-5-2.4-7.2-4.1l-6.2,1.9l-4.5-2.3c-1.5,1.6-5.3,1-5.3,1c-6.3,0.7-6.3,5.5-6.3,5.5s3.7,8.6,4,8.6
		S142.2,86.2,142.2,86.2z"/>
	<path style="opacity:0.1;enable-background:new    ;" d="M149.1,78.2c0,0-4.1-0.9-5.4-2.5"/>
	<path style="opacity:0.1;enable-background:new    ;" d="M169.6,73.4l-4.7,3.9c0,0.3,0.1,0.6,0.2,0.9l0.1-0.1l7-1.5L169.6,73.4z"/>
	<path style="opacity:0.1;enable-background:new    ;" d="M156.8,84.9c0,0,1,0.6,2.6,1.3h2.7c-0.5-1.8-0.2-3.7,0.8-5.3l-4.8-1.5
		C159.8,80.9,156.8,84.9,156.8,84.9z"/>
	<path style="fill:#00A2C8;" d="M141.4,62.5l-2.8,1.5l-2.7,6.9c0,0-2.9,7.6-2.6,9.6c0,0-1,4.8,0.8,5.6l4.7,2.1
		c0.2,0.1,0.5,0,0.6-0.2c0.1-0.1,0-0.3,0-0.4c-0.7-1.3-1.4-3.2-0.2-4.3l-1.3-2.8l4.9-7.9l1.6-2.7L141.4,62.5z"/>
	<path style="opacity:0.1;enable-background:new    ;" d="M147.6,76.6c0.2,1,1.1,2.5,3.8,3.1l3,2.4l3.2,1.4l1.3,0.6l0.5-3.9
		l-1.2-0.7l-1.4-0.8c0,0-3.3-5.9-8.4-3.4C147.7,75.5,147.5,76,147.6,76.6z"/>
	<path style="fill:#CC818C;" d="M147.8,76.2c0.2,1,1.1,2.5,3.8,3.1l3,2.4l3.2,1.4l1.3,0.6l0.5-3.9l-1.2-0.7l-1.4-0.8
		c0,0-3.3-5.9-8.4-3.4C147.9,75.2,147.6,75.7,147.8,76.2L147.8,76.2z"/>
	<circle style="opacity:0.1;enable-background:new    ;" cx="153.6" cy="48.8" r="7.2"/>
	<circle style="fill:#CC818C;" cx="153.6" cy="48.7" r="7.2"/>
	<path style="opacity:0.1;enable-background:new    ;" d="M158.1,64.1l-2.2-4.2c0,0,3.2-1.3,3.4-2.8s3,1.7,2.4,2.8
		C160.6,61.4,159.4,62.8,158.1,64.1z"/>
	<path style="fill:#15BDE4;" d="M158.1,63.8l-2.2-4.2c0,0,3.2-1.3,3.4-2.8s3,1.7,2.4,2.8C160.6,61.1,159.4,62.5,158.1,63.8z"/>
	<path style="fill:#F6F8FB;" d="M140.3,74.7l12,16.1c0,0-4.4,2.4-10.5-1.9l-2.6-3.1l-7.5-12.7L140.3,74.7z"/>
	<path style="fill:#CC818C;" d="M137.9,83.4l1.1,0c0,0,6.7-6.5,8.3-3.2s-4.2,6.3-4.2,6.3l-1.8,1l-2.3,0.7l-1.5-2L137.9,83.4z"/>
	<path style="opacity:0.1;enable-background:new    ;" d="M139.6,86.9c0.1,0.4,0.2,0.8,0,1.1c0,0.1-0.1,0.2-0.2,0.2
		c-0.1,0-0.2,0-0.2,0c-0.6,0-1.1-0.3-1.5-0.7c-0.4-0.4-0.7-0.9-1-1.4c-0.4-0.5-0.5-1.1-0.5-1.7c0.2-0.6,0.6-1.2,1.2-1.4
		c1.1-0.7,1.1,0.1,1.4,1.1S139.3,86,139.6,86.9z"/>
	<path style="fill:#00A2C8;" d="M139.4,86.9c0.1,0.4,0.2,0.8,0,1.1c0,0.1-0.1,0.2-0.2,0.2c-0.1,0-0.2,0-0.2,0
		c-0.6,0-1.1-0.3-1.5-0.7c-0.4-0.4-0.7-0.9-1-1.4c-0.4-0.5-0.5-1.1-0.5-1.7c0.2-0.6,0.6-1.2,1.2-1.4c1.1-0.7,1.1,0.1,1.4,1.1
		S139.1,86,139.4,86.9z"/>
	<path style="opacity:0.1;enable-background:new    ;" d="M142.6,72.7l0.6-0.9l-0.5,1.8L142.6,72.7z"/>
	<path style="opacity:0.1;enable-background:new    ;" d="M157.7,83.2l1.3,0.6l0.5-3.9l-1.2-0.7C159.1,80.1,158.4,81.9,157.7,83.2z"
		/>
	<path style="opacity:0.1;enable-background:new    ;" d="M162.8,78.6c0,0-4.2,0.3-5.9-0.9"/>
	<g transform="translate(144.644 57.945)" style="opacity:0.1;">
		<path d="M17.7,23.3c0.6-1,1.3-1.9,2.1-2.7c0.2-0.1,0.4-0.2,0.6-0.3l6.5-1.3l0.4-0.1c0,0,0.1-12.6-4.4-14.4c-2.5-1-4.9-2.3-7-3.9
			l0.5-0.2c2.2,1.7,4.6,3.1,7.2,4.1c4.5,1.7,4.4,14.4,4.4,14.4h-0.7l-6.6,1.3c0,0-0.3,0.3-0.4,0.4c-0.8,0.8-1.5,1.8-2.1,2.8
			c-0.9,1.6-1.1,3.5-0.6,5.3h-0.7C16.4,26.8,16.7,24.9,17.7,23.3z"/>
		<path d="M0,1c0.1,0,0.2,0,0.3,0C0.8,1,1.2,1,1.7,1.1C1.1,1.1,0.6,1,0,1z"/>
		<path d="M9.5,2.3L5.4,0.2C5.5,0.2,5.6,0.1,5.6,0l4.3,2.2L9.5,2.3z"/>
	</g>
	<path style="fill:#00A2C8;" d="M169.8,73.1l2.7,3.4l0.6,9.1c0,0,0.7,4.6-4.6,3.5c-4-1-7.9-2.6-11.5-4.6c0,0,3-4,1.3-5.5l7.6,2.5
		c0,0,1.3-0.3,0.3-1.4c-0.7-0.9-1.1-2-1.2-3.1L169.8,73.1z"/>
	<path style="opacity:0.1;enable-background:new    ;" d="M171,82.7l1.5,1.7C171.7,84.2,171.1,83.6,171,82.7z"/>
	<path style="opacity:0.1;enable-background:new    ;" d="M168.4,82.5l2.4,3l-1.2,0.3L168.4,82.5z"/>
	<path style="opacity:0.1;enable-background:new    ;" d="M145,45.4c-0.2-0.7-0.1-1.4,0.3-2c0.4-0.6,0.7-1.2,1-1.8
		c0.3-1,0.2-2,0.6-3c0.7-1.7,2.6-2.4,4.2-3c0.5-0.2,1-0.3,1.5-0.2c0.7,0.2,1.1,0.8,1.7,1.2c2.3,1.7,6-0.2,8.3,1.6
		c0.8,0.8,1.3,1.8,1.4,2.9c0.1,1.1,0.1,2.2,0,3.3c0,1.9,0.3,4,1.8,5.3c0.4,0.4,0.9,0.7,1.4,1.1c0.5,0.4,0.7,0.9,0.7,1.5
		c-0.1,0.3-0.1,0.5-0.2,0.8c-0.2,1,0.1,2.1,0.7,3c1.6,2.7,4.3,4.9,7.4,5c-0.2,1.6-1.8,2.5-3.3,3.1c-1.8,1-3.8,1.5-5.8,1.5
		c-2-0.1-4.1-1.4-4.5-3.4c-0.1-0.7-0.1-1.5-0.7-1.9c-0.4-0.2-0.8-0.2-1.2-0.3c-0.5-0.3-0.9-0.8-1-1.4c-0.4-1.2-0.6-2.4-0.6-3.7
		c0-1.5,0.2-3.1-0.7-4.3c-0.8-1.1-2.1-1.7-3-2.7c-0.8-1-1.7-2.1-3.1-2.3C149.9,45.5,146.1,48.1,145,45.4z"/>
	<path style="fill:#585268;" d="M145,45c-0.2-0.7-0.1-1.4,0.3-2c0.4-0.6,0.7-1.2,1-1.8c0.3-1,0.2-2,0.6-3c0.7-1.7,2.6-2.4,4.2-3
		c0.5-0.2,1-0.3,1.5-0.2c0.7,0.2,1.1,0.8,1.7,1.2c2.3,1.7,6-0.2,8.3,1.6c0.8,0.8,1.3,1.8,1.4,2.9c0.1,1.1,0.1,2.2,0,3.3
		c0,1.9,0.3,4,1.8,5.3c0.4,0.4,0.9,0.7,1.4,1.1c0.5,0.4,0.7,0.9,0.7,1.5c-0.1,0.3-0.1,0.5-0.2,0.8c-0.2,1,0.1,2.1,0.7,3
		c1.6,2.7,4.3,4.9,7.4,5c-0.2,1.6-1.8,2.5-3.3,3.1c-1.8,1-3.8,1.5-5.8,1.5c-2-0.1-4.1-1.4-4.5-3.4c-0.1-0.7-0.1-1.5-0.7-1.9
		c-0.4-0.2-0.8-0.2-1.2-0.3c-0.5-0.3-0.9-0.8-1-1.4c-0.4-1.2-0.6-2.4-0.6-3.7c0-1.5,0.2-3.1-0.7-4.3c-0.8-1.1-2.1-1.7-3-2.7
		c-0.8-1-1.7-2.1-3.1-2.3C149.9,45.2,146.1,47.7,145,45z"/>
	<path style="opacity:0.1;enable-background:new    ;" d="M150.1,63.6l4.1-3.4c0,0-2.8-1.5-3.2-2.8s-2.6,0.6-2.4,1.8
		S150.1,63.6,150.1,63.6z"/>
	<path style="fill:#15BDE4;" d="M150.3,63.1l4.1-3.4c0,0-2.8-1.5-3.2-2.8s-2.6,0.6-2.4,1.8S150.3,63.1,150.3,63.1z"/>
	<circle style="opacity:0.1;enable-background:new    ;" cx="154.6" cy="62.5" r="0.3"/>
	<circle style="opacity:0.1;enable-background:new    ;" cx="154.6" cy="64.4" r="0.3"/>
	<circle style="opacity:0.1;enable-background:new    ;" cx="154.6" cy="66.2" r="0.3"/>
	<g transform="translate(144.909 37.553)" style="opacity:0.1;">
		<path d="M1.7,2.8C2.1,1.9,2,0.9,2.3,0C2.2,0.2,2,0.4,2,0.6c-0.4,0.9-0.3,2-0.6,3l0,0.1C1.5,3.4,1.6,3.1,1.7,2.8L1.7,2.8z"/>
		<path d="M27.8,25.4c-1.8,1-3.8,1.5-5.8,1.5c-2-0.1-4.1-1.4-4.5-3.4c-0.1-0.7-0.1-1.5-0.7-1.9c-0.4-0.2-0.8-0.2-1.2-0.3
			c-0.5-0.3-0.9-0.8-1-1.4c-0.4-1.2-0.6-2.4-0.6-3.7c0-1.5,0.2-3.1-0.7-4.3c-0.8-1.1-2.1-1.7-3-2.7C9.6,8.3,8.7,7.2,7.3,7
			C5.5,6.8,1.6,9.3,0.5,6.6C0.3,6.1,0.4,5.5,0.6,5C0.5,5.2,0.4,5.3,0.4,5.4C0,6-0.1,6.7,0.1,7.4c1.1,2.7,5,0.2,6.8,0.4
			C8.3,8,9.2,9.2,10,10.1c0.9,1,2.3,1.6,3,2.7c0.8,1.2,0.6,2.8,0.7,4.3c0,1.2,0.2,2.5,0.6,3.7c0.1,0.6,0.5,1.1,1,1.4
			c0.4,0.2,0.8,0.1,1.2,0.3c0.6,0.4,0.6,1.2,0.7,1.9c0.4,2,2.5,3.3,4.5,3.4c2,0,4-0.6,5.8-1.5c1.3-0.6,2.8-1.4,3.2-2.7
			C29.9,24.4,28.9,25,27.8,25.4z"/>
	</g>
	
		<linearGradient id="SVGID_3_" gradientUnits="userSpaceOnUse" x1="-497.7841" y1="495.7625" x2="-497.7841" y2="496.7625" gradientTransform="matrix(47.4417 0 0 -134.2823 23808.793 66756.6172)">
		<stop  offset="0" style="stop-color:#808080;stop-opacity:0.251"/>
		<stop  offset="0.54" style="stop-color:#808080;stop-opacity:0.122"/>
		<stop  offset="1" style="stop-color:#808080;stop-opacity:0.102"/>
	</linearGradient>
	<path style="fill:url(#SVGID_3_);" d="M213.1,75.9c-2.1-1.3-4.4-2.5-6.7-3.5l-0.1-0.1c-0.5-0.4-0.9-0.9-1.2-1.5c0-0.1,0-0.2,0-0.3
		c0,0,0,0,0,0c0.1-1.5,1.1-2.8,2.1-4l2.5-3c0.3-0.3,0.5-0.6,0.7-1c0.1-0.2,0.1-0.4,0.1-0.6v-0.3c0-0.7,0-1.5-0.1-2.2
		c0-0.6-0.2-1.5-0.8-1.6c-0.3-0.1-0.8,0.1-1-0.2c-0.1-0.1-0.1-0.3,0-0.4c0,0,0,0,0,0v0c0.1-0.5,0.2-1,0.2-1.5c0-0.3,0-0.5-0.1-0.8
		c-0.4-1.1-1.7-1.5-2.8-1.7s-2.4-0.4-3.1-1.3c-0.2-0.3-0.4-0.6-0.6-0.9c-0.3-0.3-0.7-0.5-1.2-0.6c-1.4-0.4-2.9-0.2-4.3,0.4
		c-0.5,0.3-1.1,0.5-1.7,0.5c-0.6,0-1.2-0.5-1.8-0.6c-1-0.1-2,0.5-2.5,1.4c-0.3,0.5-0.5,1.1-0.5,1.7V54l0,0c0,0.6,0.2,1.3,0.7,1.7
		c0.4,0.5,1.1,0.8,1.3,1.4c0.1,0.2,0.1,0.5,0.1,0.7c0,0,0,0.1,0,0.1l0,0c-1,1.3-1.6,3-1.6,4.6c0,3.4,2.2,6.3,5.4,7.3
		c0,0.1,0,0.2,0,0.2c0,1-0.3,1.9-1.1,2.6l-6.9,2.7c0,0-4.1-0.5-5.6,5.5c-0.2,1-0.3,2-0.3,3.1c0,1.6-0.4,3.2-1.1,4.6
		c-1.7,3.3-1.3,10.9,2.2,11.7c3.3,0.7,4.5,0.4,4.7,0.4v0.1c-0.1,1.4-0.6,13.8-2.5,15.2c-0.5,0.4-0.4,0.7,0,0.9c0,0,0,0.1,0,0.2
		c-0.1,0.9-0.3,4.3-1.6,6.3c-1.5,2.3-1.3,15.3-1.3,15.3l-1,7.7c0,0,0.6,4.8,0,5.6c-0.6,0.7-1.3,18.3-1.4,22.1h-0.1
		c-0.6,0-1.2,0.4-1.5,0.9c-1.1,1.4-2.3,2.6-3.6,3.7c-0.6,0.9-2.9,1.7-4.1,2.1c-0.2,0.1-0.3,0.1-0.5,0.2c-0.5,0.2-0.8,0.6-1,1.1
		c-0.2,0.3-0.2,0.6-0.1,0.9c0.3,0.8,6.7,1.3,8.3,0.5c1.3-0.6,6.3-1.4,8.4-1.7c0.8-0.1,1.4-0.7,1.5-1.5c0-0.3,0-0.5-0.2-0.7
		c-0.4-0.9-0.7-1.8-0.7-2.7c0.2-0.1,0.3-0.2,0.5-0.3c-0.2-2.7,0.2-5.5,1.1-8.1c1.5-4.1,2-11.6,1.6-16.5c0,0,4.7-20.2,8.4-22.1l0,0
		c0.1,0.1,1.9,2.4,2.1,9.5c0.1,4.2,1,8.2,2.8,12c0,0-1.2,12.3,0,16.9l-1.5,7.3c-0.1-0.1-0.2-0.2-0.2-0.2s0,0.2,0.1,0.5l0,0.2l0.1,0
		c0.2,1.1,0.4,2.3,0.3,3.4c-0.1,0.5-0.2,1.3-0.3,2c-0.2,1.1-0.2,2.2,0.4,2.4c1,0.4,6.6,0.9,7.6-0.3c0.4-0.5,0.5-1.2,0.3-1.9
		c-0.1-0.2-0.2-0.3-0.3-0.5c0,0-1.5-2.5-1.1-4.2c0.1-0.3,0-0.7-0.2-1c0.2-2.7,0.6-5.5,1.3-8.1c1-3.6,3-11.6,1.5-16.8l0,0
		c-0.1-0.2-0.1-0.4-0.2-0.6c-0.9-2.9-1.2-5.9-0.8-8.8c-0.6-2.5-0.6-5.2,0-7.7c0.9-4.2,1.6-8.4,1.6-8.4c0.3-3,0.3-6,0.1-9
		c0-0.1,0-0.2,0-0.2l0.2-0.1c0,0-1.3-5.8-1.8-9.5c-0.1-0.9-0.3-2-0.4-3.2c0.4-0.1,0.8-0.2,1.3-0.3c4.2-1.4,5.5-14.4,5.5-14.4V85
		C216.6,85,218,78.7,213.1,75.9z M182.2,176c-0.1-0.1-0.2-0.1-0.2-0.1l0,0L182.2,176z"/>
	<path style="fill:#65617D;" d="M210.6,150.7c1.8,5.2-0.3,13.6-1.3,17.4c-0.6,2.7-1.1,5.5-1.3,8.3c-2.2,0.4-4.4,0.3-6.6-0.2l1.6-7.7
		c-1.1-4.6,0-16.8,0-16.8c-1.8-3.7-2.7-7.8-2.8-12c-0.2-7.1-2-9.4-2-9.5l0,0c-3.6,1.9-8.2,22-8.2,22c0.4,4.9-0.1,12.4-1.6,16.5
		c-0.9,2.6-1.3,5.3-1.1,8c-0.6,0.4-1.3,0.6-2.1,0.4c-1.7-0.4-3.3-1.2-4.7-2.2c0,0,0.8-21.9,1.4-22.8s0-5.6,0-5.6l1-7.7
		c0,0-0.2-13,1.3-15.3c1.2-1.9,1.5-5.4,1.6-6.3v-0.2l2.2-2.6c0,0,21-1.6,22.6,0c0.5,0.7,0.7,1.5,0.8,2.4c0.2,3,0.2,6-0.1,9
		c0,0-0.6,4.1-1.5,8.3c-0.5,2.5-0.5,5.1,0,7.7C209.5,144.9,209.8,147.9,210.6,150.7z"/>
	<path style="fill:#A27772;" d="M209.3,183.7c-0.9,1.2-6.5,0.7-7.4,0.3c-0.6-0.2-0.5-1.3-0.4-2.4c0.1-0.7,0.2-1.4,0.3-2
		c0-1.4-0.1-2.8-0.5-4.1c0,0,1.2,1.3,1.5,0c0.1-0.5,0.6-0.9,1.1-1c0.6-0.2,1.3-0.2,2,0.1c1,0.4,2.6,1.3,2.3,2.5
		c-0.4,1.7,1.1,4.2,1.1,4.2c0.1,0.1,0.2,0.3,0.3,0.5C209.9,182.5,209.8,183.2,209.3,183.7z"/>
	<path style="opacity:0.1;enable-background:new    ;" d="M209.3,183.7c-0.9,1.2-6.5,0.7-7.4,0.3c-0.6-0.2-0.5-1.3-0.4-2.4
		c1,0.4,2.2,0.5,3.3,0.4c0.4,0,0.8,0,1.2,0c1.2,0.1,2.4,0,3.6-0.1C209.9,182.5,209.8,183.2,209.3,183.7z"/>
	<path style="opacity:0.1;enable-background:new    ;" d="M190,152.2c0.4,4.9-0.1,12.4-1.6,16.5c-0.9,2.6-1.3,5.3-1.1,8
		c-0.6,0.4-1.3,0.6-2.1,0.4c0.5-3.2,2.4-16.8,3.6-27.6c0.9-7.5,3.6-14.6,8-20.7l1.3,1.4C194.6,132.1,190,152.2,190,152.2z"/>
	<path style="fill:#FBBEBE;" d="M207.1,73.3l-0.9,4.5l-4.5,7.6l-5.5-2.4c0,0-7.5-7.9-2.8-9c0.6-0.1,1.1-0.4,1.6-0.7
		c0.8-0.7,1.3-1.7,1.2-2.7c0-1.1-0.3-2.2-0.8-3.2l9.7-3c-0.4,1.3-0.6,2.6-0.7,3.9c-0.1,2.6,0.9,3.9,1.7,4.6
		C206.4,73,206.7,73.1,207.1,73.3z"/>
	<path style="opacity:0.1;enable-background:new    ;" d="M205,64.2c-0.4,1.3-0.6,2.6-0.7,3.9c-0.2,0.2-0.4,0.4-0.6,0.6
		c-2,1.9-5,2.6-7.7,1.7c0-1.1-0.3-2.2-0.8-3.2L205,64.2z"/>
	<path style="fill:#FBBEBE;" d="M206.1,63c0,4.2-3.5,7.6-7.7,7.6c-4.2,0-7.6-3.5-7.6-7.7c0-4.2,3.5-7.6,7.7-7.6c2,0,3.9,0.8,5.4,2.2
		C205.3,59,206.2,61,206.1,63z"/>
	<path style="opacity:0.1;enable-background:new    ;" d="M207.1,73.2l-0.9,4.5l-4.5,7.6l-5.5-2.4c0,0-7.5-7.9-2.8-9
		c0.6-0.1,1.1-0.4,1.6-0.7c-0.9,2.3,2.7,7.2,2.7,7.2c0.4,0.6,1.4,0.2,1.4,0.2c2.3-0.3,6.5-6.9,7.1-8C206.3,73,206.7,73.1,207.1,73.2
		z"/>
	<path style="opacity:0.1;enable-background:new    ;" d="M211.4,117c-1.3,0.3-8.7,1.9-11.5,1.5c-3.1-0.5-9.1-0.8-9.1-0.8
		s-3.8,0.2-5-0.3v-0.2l2.2-2.6c0,0,21-1.6,22.6,0C211.1,115.3,211.4,116.1,211.4,117z"/>
	<path style="fill:#15BDE4;" d="M197.6,80.7c0,0-4-5.5-2.5-7.6l-6.7,2.7c0,0-4-0.5-5.5,5.5c-0.2,1-0.3,2-0.2,3.1
		c0,1.6-0.3,3.2-1.1,4.6c-1.7,3.3-1.3,10.9,2.1,11.7s4.6,0.4,4.6,0.4s-0.5,13.8-2.4,15.3s5,1.2,5,1.2s6,0.3,9.1,0.8
		s11.7-1.6,11.7-1.6s-1.3-5.8-1.7-9.5s-1.5-11.5-1.5-11.5l7.7-10.4c0,0,1.4-6.3-3.4-9.1c-2.1-1.3-4.3-2.5-6.5-3.5
		c0,0-4.8,7.7-7.2,8.1C198.9,80.9,198,81.3,197.6,80.7z"/>
	<path style="opacity:0.1;enable-background:new    ;" d="M188.8,82.9c-0.1,1.2,0.1,2.3,0.4,3.5c0.5,1,2.1,6.4,2.1,6.4h-3.8
		c0,0,2-2.2,1.9-3.2S188.8,82.9,188.8,82.9z"/>
	<path style="fill:#FBBEBE;" d="M199.9,101.6c0,0-8.3-2-9.1-3.8s-2.9-5.6-2.9-5.6l0.9-1.2l4,3.2c0,0,4.8,3.8,7.1,4.2
		S199.9,101.6,199.9,101.6z"/>
	<path style="opacity:5.000000e-02;enable-background:new    ;" d="M199.9,101.6c0,0-8.3-2-9.1-3.8s-2.9-5.6-2.9-5.6l0.9-1.2l4,3.2
		c0,0,4.8,3.8,7.1,4.2S199.9,101.6,199.9,101.6z"/>
	<path style="fill:#FBBEBE;" d="M207.1,91.8v4.5h-0.7c-3.6,0-7.1,0.9-10.2,2.6l-1.4,0.8l-0.4,0.2l-2.3-5.3l2.2-2h0.1
		c1.3,0.2,2.6,0.1,3.8-0.1c1.5-0.9,3.2-1.1,4.8-0.6c1.3,0.3,2.5,1.9,3.8,1.4L207.1,91.8z"/>
	<path style="opacity:0.1;enable-background:new    ;" d="M214.3,83.6l1.5,1.7v4.1c0,0-1.3,12.9-5.3,14.4s-11.3-0.8-11.3-0.8
		s-1.9-5-1-5.3s7.7-2.1,7.7-2.1s-0.1-7.6,1.4-9.8c0,0-1-7.1,2.4-7.2S214.3,83.6,214.3,83.6z"/>
	<path style="fill:#15BDE4;" d="M214.5,83.6l1.5,1.7v4.1c0,0-1.3,12.9-5.3,14.4s-11.3-0.8-11.3-0.8s-1.9-5-1-5.3s7.7-2.1,7.7-2.1
		s-0.1-7.6,1.4-9.8c0,0-1-7.1,2.4-7.2S214.5,83.6,214.5,83.6z"/>
	<path style="opacity:0.1;enable-background:new    ;" d="M204,66.2c0.1-0.5,0-1-0.2-1.5c-0.2-0.5-0.7-0.8-1.2-0.7
		c-0.6,0.2-0.9,1-1.5,1.2c-0.6,0.1-1.1-0.2-1.4-0.7c-0.2-0.5-0.3-1.1-0.3-1.6v-1.9c0.1-0.7-0.1-1.4-0.4-2c-0.7-0.7-1.6-1-2.6-0.9
		c-0.5,0-1.1,0.2-1.5,0.6c-0.4,0.4-1,0.6-1.5,0.6c-0.5-0.1-0.9-0.4-1.1-0.9v0c2.5-3.4,7.3-4.1,10.7-1.6c3.4,2.5,4.1,7.3,1.6,10.7
		c-0.3,0.4-0.6,0.7-0.9,1C203.9,67.8,204,67,204,66.2z"/>
	<path style="fill:#7C5C5C;" d="M193.5,59.1c-0.5-0.1-0.9-0.4-1.1-0.9c-0.1-0.2,0-0.5-0.1-0.7c-0.2-0.6-0.8-0.9-1.2-1.3
		c-0.8-1-0.9-2.4-0.2-3.5c0.4-0.9,1.4-1.5,2.4-1.4c0.6,0.1,1.1,0.5,1.8,0.6c0.6,0,1.2-0.2,1.7-0.5c1.3-0.6,2.8-0.7,4.2-0.4
		c0.4,0.1,0.8,0.3,1.1,0.6c0.2,0.3,0.4,0.6,0.6,0.9c0.7,0.9,2,1.1,3.1,1.3s2.4,0.6,2.7,1.7c0.1,0.7,0.1,1.5-0.1,2.2
		c0,0.2,0,0.3,0,0.5c0.2,0.3,0.6,0.2,0.9,0.2c0.6,0.1,0.8,1,0.8,1.6c0,0.7,0,1.5,0.1,2.2c0,0.3,0,0.6-0.1,0.8
		c-0.1,0.4-0.4,0.7-0.6,1l-2.5,3c-1.1,1.3-2.3,2.9-2.1,4.6c-0.6,0.2-1.2-0.2-1.3-0.7c0,0,0,0,0,0c-0.1-0.6-0.1-1.1,0.1-1.7
		c0.2-1,0.3-1.9,0.4-2.9c0.1-0.5,0-1-0.2-1.5c-0.2-0.5-0.7-0.8-1.2-0.7c-0.6,0.2-0.9,1-1.5,1.2c-0.6,0.1-1.1-0.2-1.4-0.7
		c-0.2-0.5-0.3-1.1-0.3-1.6v-1.9c0.1-0.7-0.1-1.4-0.4-2c-0.7-0.7-1.6-1-2.6-0.9c-0.5,0-1.1,0.2-1.5,0.6
		C194.6,58.9,194,59.2,193.5,59.1z"/>
	<path style="opacity:0.1;enable-background:new    ;" d="M195.2,82.7l2.4,9.7C197.5,92.4,199.4,92.3,195.2,82.7z"/>
	<path style="opacity:0.1;enable-background:new    ;" d="M203.2,81.1c0,0-3.1,5-1.9,10.3l0.6,0C201.9,91.4,200.9,89,203.2,81.1z"/>
	<path style="opacity:0.1;enable-background:new    ;" d="M205.2,109.6c0,0,3.8-1.3,4.1,1.7C209.2,111.3,208.5,109.3,205.2,109.6z"
		/>
	<path style="opacity:0.1;enable-background:new    ;" d="M194.2,92.9c0,0-0.8,5.3,0.6,7.4c-2.1,0.7-4.4,1.1-6.6,0.9l-0.5-8.3
		L194.2,92.9z"/>
	<path style="opacity:0.1;enable-background:new    ;" d="M194.8,99.7l-0.4,0.2l-2.3-5.3l2.2-2h0.1C194.3,93,193.7,97.5,194.8,99.7z
		"/>
	<path style="fill:#15BDE4;" d="M194.2,92.7c0,0-0.8,5.3,0.6,7.4c-2.1,0.7-4.4,1.1-6.6,0.9l-2.6-8.3L194.2,92.7z"/>
	<path style="fill:#A27772;" d="M187.8,180.5c-0.1,0.8-0.7,1.4-1.5,1.5c-2,0.3-7,1.1-8.2,1.7c-1.6,0.8-7.8,0.2-8.1-0.5
		c-0.1-0.3,0-0.6,0.1-0.9c0.2-0.5,0.6-0.8,1-1.1c0.1-0.1,0.3-0.1,0.5-0.2c1.2-0.4,3.4-1.2,4-2.1c1.3-1.1,2.5-2.4,3.6-3.7
		c0.3-0.5,0.8-0.9,1.4-0.9c0.7,0,1.4,0.3,1.7,1.7c0,0,3.6,2.1,4.6,0.3c0,0,0.2,2.8,0.8,3.5l0,0C187.7,179.9,187.8,180.2,187.8,180.5
		z"/>
	<path style="opacity:0.1;enable-background:new    ;" d="M187.8,180.5c-0.1,0.8-0.7,1.4-1.5,1.5c-2,0.3-7,1.1-8.2,1.7
		c-1.6,0.8-7.8,0.2-8.1-0.5c-0.1-0.3,0-0.6,0.1-0.9c0.2-0.5,0.6-0.8,1-1.1c1,0.7,3.3,1.3,8.2,0.6c2.8-0.3,5.6-1,8.2-2l0,0
		C187.7,179.9,187.8,180.2,187.8,180.5z"/>
	<g transform="translate(190.386 54.202)" style="opacity:0.1;">
		<path d="M17.9,3.4L17.9,3.4c0.1-0.6,0.2-1.2,0.2-1.7c0,0.5-0.1,0.9-0.2,1.4C17.8,3.1,17.8,3.3,17.9,3.4z"/>
		<path d="M13.5,10.4c0.1,0.3,0.2,0.6,0.2,0.9c0-0.4,0-0.8-0.2-1.2c-0.2-0.5-0.7-0.8-1.2-0.7c-0.6,0.2-0.9,1-1.6,1.2
			c-0.6,0.1-1.1-0.2-1.4-0.7C9.2,9.4,9.1,8.8,9.1,8.3V6.4C9.2,5.7,9,5,8.7,4.4C8,3.8,7,3.4,6.1,3.5C5.5,3.5,5,3.7,4.6,4.1
			c-0.4,0.4-1,0.6-1.5,0.6C2.6,4.5,2.1,4.2,2,3.7c-0.1-0.2,0-0.5-0.1-0.7C1.7,2.4,1.1,2,0.6,1.6C0.2,1.2,0,0.6,0,0
			c-0.1,0.7,0.2,1.4,0.6,1.9c0.4,0.5,1.1,0.8,1.2,1.3C1.9,3.5,1.9,3.8,2,4c0.2,0.5,0.6,0.9,1.1,0.9C3.6,5,4.2,4.8,4.6,4.4
			C5,4,5.5,3.8,6.1,3.8C7,3.7,8,4.1,8.7,4.7C9,5.3,9.2,6,9.1,6.7v1.9c0,0.6,0,1.1,0.3,1.6c0.2,0.5,0.8,0.8,1.4,0.7
			c0.6-0.2,0.9-1,1.6-1.2C12.8,9.7,13.3,10,13.5,10.4z"/>
		<path d="M19.7,8.4c-0.1,0.4-0.4,0.7-0.6,1l-2.5,3c-1,1.3-2.1,2.7-2.1,4.3c0.1-1.5,1.1-2.8,2.1-4l2.5-3c0.3-0.3,0.5-0.6,0.6-1
			c0.1-0.3,0.1-0.5,0.1-0.8C19.7,8,19.7,8.2,19.7,8.4z"/>
		<path d="M13.2,16.2c0-0.1-0.1-0.3-0.1-0.4c0,0.2,0,0.5,0.1,0.7c0.1,0.6,0.7,0.9,1.3,0.8c0,0,0,0,0,0c0-0.1,0-0.2,0-0.3
			C13.9,17.1,13.3,16.7,13.2,16.2z"/>
	</g>
	<path style="opacity:0.1;enable-background:new    ;" d="M178.6,175.8c0,0,0.8,1.4,3.6,0.2"/>
	<path style="opacity:0.1;enable-background:new    ;" d="M202.7,176.1c0,0,2.5,2.9,5.5,0.9"/>
	<path style="opacity:0.1;enable-background:new    ;" d="M209.8,141.9c0,0-1.7,1.1-1.8,1.7s0.9-0.5,0.9-0.5L209.8,141.9z"/>
	<path style="opacity:0.1;enable-background:new    ;" d="M210.5,150.3c-0.6,0.5-1.4,0.8-2.1,0.8c-1.3,0.1-1.2,1.7-0.3,1.2
		C208.9,151.7,209.7,151,210.5,150.3z"/>
	<path style="opacity:0.1;enable-background:new    ;" d="M210.8,151.3c0,0-0.8,4.1-1.5,3.3"/>
	
		<linearGradient id="SVGID_4_" gradientUnits="userSpaceOnUse" x1="-498.3461" y1="495.767" x2="-498.3461" y2="496.767" gradientTransform="matrix(50.0642 0 0 -134.5546 25021.9551 66890.2344)">
		<stop  offset="0" style="stop-color:#808080;stop-opacity:0.251"/>
		<stop  offset="0.54" style="stop-color:#808080;stop-opacity:0.122"/>
		<stop  offset="1" style="stop-color:#808080;stop-opacity:0.102"/>
	</linearGradient>
	<path style="fill:url(#SVGID_4_);" d="M50.1,182c0,0,5.2,1.4,7.7-0.5s3.6-1.3,3.6-1.3s6-0.3,6.5-1.7s-2.3-6.6-2.3-6.6
		c-0.2-0.5-0.5-1-0.6-1l0-2.2l0,0l0.9-9.1c2-5.1,0-11.8,0-11.8l-0.4-1.6c-0.2-0.9-0.1-1.9,0.3-2.7l3.6-7.3c0.2-0.5,0.4-1,0.7-1.4
		c0.2-0.4,0.5-0.9,0.9-1.6c0.1-0.2,0.2-0.4,0.4-0.6c0.4-0.7,1-1.5,1.6-2.4c1.4-2.1,2.4-4.6,2.9-7.1l0.2,0.6h0l0.1,0h0.1l0.1,0h0
		l1.1,14.3c-0.1,3,0.7,6,2.1,8.6L79.5,159c0.2,2.8-0.1,5.7-0.8,8.5l-0.9,2c-0.7,0.4-1.2,1-1.3,1.8c-0.4,1.6-1,3.2-1.7,4.6
		c-0.6,0.8-1.9,2.8-1.9,2.8s-0.6,2-0.2,2.7s3.6,0.7,3.6,0.7c3.6,0.8,6.4-1.1,6.2-2.5s0.6-1.7,0.6-1.7c1.4-0.5,1.3-1.4,1.3-1.4
		c0.3-2-0.1-4.1-1.1-5.8l-0.2,0.5c-0.1-1.1,0.1-2.1,0.4-3.1l-0.1,0.1l0,0h0c0.2-2,2.3-5.7,2.3-5.7c3.9-6.8,2.5-16,2.5-16l-0.6-2.9
		l0-1.1c-0.1-2.6,0.1-5.2,0.6-7.7c0.2-1.1,0.4-2.5,0.6-4c0.4-2.7,1-5.3,2-7.8l0.2,0h0c0.2,0,0.4-0.1,0.6-0.1h0c0,0,0.1-0.7,0.2-1.8
		c0.1-0.7,0.1-1.6,0.1-2.7c0-3.2-0.5-6.4-1.4-9.4l0.1-0.2c0,0,0.3-0.4,0.8-1l0,0c0.9-1.2,2.4-3,4.2-5c1.9-1.9,2.7-4.7,2.3-7.3
		c0,0-2.3-8.5-3.3-13.5c-0.4-2.2-1.3-4.2-2.5-6c0.2-0.8,0.3-1.6,0.3-2.4c0.2-1.5-0.1-3-0.7-4.4c-0.6-1.4-2.1-2.3-3.6-2.2
		c-0.2,0.1-0.4,0.1-0.6,0c-0.2-0.1-0.3-0.2-0.4-0.4c-0.8-1.3-1-2.8-0.7-4.3c0.3-1.5,0.8-2.9,1.1-4.4c0.3-1.5,0.1-3-0.8-4.3
		c-1.1-1.4-3-1.8-4.5-2.8C80.8,50,80,49,79,48.4c-1-0.5-2.2-0.5-3.2-0.2c-1.9,0.3-3.8,0.7-5.6,1.4c-1.9,0.8-3.5,2.1-4.9,3.6
		c-0.5,0.5-0.9,1.1-1.1,1.7c-0.5,1.5,0.4,3.1,0.2,4.7c-0.2,1.1-0.7,2.1-1.3,3.1c-0.6,0.9-0.8,2.1-0.5,3.2c0.6,1.6,2.7,2,4.2,2.8
		c0.2,0.1,0.4,0.2,0.5,0.4c0.4,0.7-0.4,1.3-0.9,1.9c-0.3,0.3-0.5,0.7-0.6,1.2c-1.3,0.5-2.2,1.6-2.5,3c-0.5,2.3,0.3,5.2,1,7.1
		c-0.8,4.3,0.2,6,1,6.6c0.7,0.6,1.2,1.5,1.3,2.5v0.1c0,0.8,0.1,1.6,0.2,2.3l0,0c0-0.2,0-0.4-0.1-0.5c-1.3,2.7-2.1,5.7-2.4,8.7
		c-0.1,1-0.3,2-0.6,3c-0.5,1.8-0.6,3.6-0.5,5.4l0.1,1.5c-0.1,0-0.2,0-0.3-0.1l0.8,1.5v2.5c0,1.1-0.2,2.2-0.6,3.3
		c-0.1,0.2-0.1,0.3-0.2,0.5c-0.2,0.4-0.3,0.9-0.3,1.3c-1.7,2.6-5.7,17.5-5.7,17.5c-2.1,4.9,0.2,8,0.2,8s1.1,13.5,1.3,14.2
		s0.7,8.9,0.7,8.9l0,0v0.7c-0.1-0.1-0.3-0.1-0.4-0.1c-1.9-0.1-2.4,2.9-2.4,2.9l-3.8,3.7c0,0-1.8-0.3-4.3,1.6S50.1,182,50.1,182z
		 M88.5,103.8L88.5,103.8l-0.1,0l0,0l0,0l0,0l0,0l-1.8-6.3c-0.5-1.7-0.5-3.4-0.1-5.1l1.4-6l0,0V85l4.4,11.6
		C92.5,98.2,89.9,102,88.5,103.8L88.5,103.8z"/>
	<path style="fill:#FDC2CC;" d="M90.5,122.7c-1.1,2.7-1.8,5.5-2.2,8.4c-0.2,1.5-0.4,2.8-0.6,3.9c-0.5,2.5-0.6,5.1-0.6,7.6l0,1.1
		l0.6,2.8c0,0,1.4,9.1-2.4,15.8c0,0-2.2,4-2.3,5.9l-1.5,0.6l-3.1-0.9c0,0,1.5-5.3,1-9l0.3-12.1c-1.4-2.6-2.1-5.5-2.1-8.5l-1.2-15.1
		L90.5,122.7z"/>
	<path style="fill:#FDC2CC;" d="M76.4,120.5c0,0-0.4,5.9-3.3,9.9c-1.4,1.8-2.6,3.7-3.5,5.8l-3.6,7.2c-0.4,0.8-0.5,1.8-0.3,2.7
		l0.4,1.6c0,0,1.9,6.6,0,11.6l-0.9,9.8h-5.5c0,0-0.5-8.1-0.7-8.8s-1.3-14-1.3-14s-2.3-3.1-0.2-7.9c0,0,4.8-18,6-17.6
		S76.4,120.5,76.4,120.5z"/>
	<g transform="translate(64.555 120.549)" style="opacity:0.1;">
		<path d="M1,27.3l-0.4-1.6c-0.2-0.9-0.1-1.9,0.3-2.7l3.6-7.2c0.9-2.1,2.1-4,3.5-5.8C10.8,6,11.3,0.5,11.3,0l0.6,0
			c0,0-0.4,5.9-3.3,9.9c-1.4,1.8-2.6,3.7-3.5,5.8l-3.6,7.2c-0.4,0.8-0.5,1.8-0.3,2.7l0.4,1.6c0,0,1.9,6.6,0,11.6l-0.9,9.8H0l0.9-9.8
			C2.9,33.8,1,27.3,1,27.3z"/>
	</g>
	<path style="opacity:0.1;enable-background:new    ;" d="M82.4,168.2c0.1-1.9,2.3-5.9,2.3-5.9c3.8-6.7,2.4-15.8,2.4-15.8l-0.6-2.8
		l0-1.1c-0.1-2.5,0.1-5.1,0.6-7.6c0.2-1.1,0.4-2.5,0.6-3.9c0.4-2.9,1.1-5.7,2.2-8.4l0.6,0c-1.1,2.7-1.8,5.5-2.2,8.4
		c-0.2,1.5-0.4,2.8-0.6,3.9c-0.5,2.5-0.6,5.1-0.6,7.6l0,1.1l0.6,2.8c0,0,1.4,9.1-2.4,15.8c0,0-2.2,4-2.3,5.9l-1.5,0.6l-0.3-0.1
		L82.4,168.2z"/>
	<path style="fill:#D39999;" d="M80.7,168.1c0.8,0.3,1.8,0.2,2.5-0.3c-0.5,1.5-0.6,3-0.2,4.6c0.6,2.5-5.8-2-5.8-2l1.4-3.1
		C79,167.9,79.9,168.3,80.7,168.1z"/>
	<path style="opacity:0.1;enable-background:new    ;" d="M81.2,168.3c0.7,0.1,1.5,0,2-0.5c-0.5,1.5-0.6,3-0.2,4.6
		c0.6,2.5-5.8-2-5.8-2l1.4-3.1c0.3,0.5,0.9,0.9,1.6,0.9C80.5,168.1,80.8,168.2,81.2,168.3z"/>
	<path style="fill:#FDC2CC;" d="M66.1,110h2.7V94.8l-2-0.4L66.1,110z"/>
	<path style="opacity:5.000000e-02;enable-background:new    ;" d="M66.1,110h2.7V94.8l-2-0.4L66.1,110z"/>
	<path style="fill:#7E5659;" d="M79.2,169.3c1,0,2,0.5,2.5,1.4l0.9,0.7l0.5-1.1c1,1.7,1.4,3.8,1.1,5.8c0,0,0.1,1-1.3,1.4
		c0,0-0.7,0.3-0.6,1.7s-2.6,3.2-6.1,2.5c0,0-3.1,0.1-3.5-0.7s0.2-2.7,0.2-2.7s1.3-2,1.9-2.8c0.7-1.5,1.3-3,1.7-4.6
		C76.6,169.6,78.3,168.5,79.2,169.3z"/>
	<path style="fill:#D39999;" d="M65.2,170.6l0-2.1c-1.8,0.5-3.8,0.5-5.6-0.1c0,0,0.2,2.2-0.1,2.5s1.2,3.1,1.2,3.1l1.7,1.8l2.9-1.1
		l0.8-2.5C66,172.1,65.4,170.6,65.2,170.6z"/>
	<path style="opacity:0.1;enable-background:new    ;" d="M65.2,170.6l0-2.1c-1.8,0.5-3.8,0.5-5.6-0.1c0,0,0.2,2.2-0.1,2.5
		s1.2,3.1,1.2,3.1l1.7,1.8l2.9-1.1l0.8-2.5C66,172.1,65.4,170.6,65.2,170.6z"/>
	<path style="fill:#7E5659;" d="M59.3,169.8c0,0,1.6,0.2,1.4,2.3s0.1,0,0.1,0c0.9,0.4,1.7,0.9,2.4,1.7c0.6,1,1.7-0.9,1.8-1.4
		s0.8-0.8,0.8-0.8s2.7,5.1,2.3,6.5s-6.4,1.7-6.4,1.7s-1.1-0.6-3.5,1.3s-7.6,0.5-7.6,0.5s-4.2-1.7-1.6-3.7s4.3-1.6,4.3-1.6l3.8-3.6
		C56.9,172.6,57.4,169.7,59.3,169.8z"/>
	<path style="fill:#865A61;" d="M78.9,49.6c1,0.6,1.8,1.7,2.8,2.4c1.4,1,3.3,1.4,4.4,2.8c0.8,1.2,1.1,2.8,0.8,4.2
		c-0.2,1.5-0.8,2.9-1.1,4.3c-0.4,1.5-0.1,3,0.7,4.3c0.1,0.2,0.2,0.3,0.4,0.4c0.2,0.1,0.4,0.1,0.6,0c1.5-0.1,2.9,0.8,3.6,2.2
		c0.6,1.4,0.8,2.9,0.6,4.4c0,1.2-0.2,2.4-0.7,3.6c-0.9,1.9-2.8,3-4.7,3.9c-1.2,0.6-2.5,1.1-3.7,1.5c-0.9,0.4-1.8,0.5-2.7,0.4
		c-1.6-0.3-2.7-1.7-4.1-2.2c-1.3-0.3-2.6-0.4-3.9-0.2c-1.1,0.2-2.2,0-3.1-0.7c-1-1-0.5-2.7,0-4c-1.6-0.1-2.8-1.5-2.7-3
		c0-0.6,0.3-1.2,0.7-1.6c0.5-0.6,1.2-1.2,0.9-1.9c-0.1-0.2-0.3-0.3-0.5-0.4c-1.5-0.9-3.5-1.2-4.2-2.8c-0.3-1.1-0.1-2.2,0.5-3.2
		c0.6-0.9,1-1.9,1.3-3c0.2-1.5-0.7-3.1-0.2-4.6c0.2-0.6,0.6-1.2,1.1-1.7c1.3-1.5,3-2.7,4.8-3.5c1.8-0.7,3.6-1.2,5.5-1.4
		C76.9,49.2,77.8,48.9,78.9,49.6z"/>
	<path style="fill:#FDC2CC;" d="M68.8,72.6c0,0-4.4-0.2-5.2,3.5s1.8,9.1,1.8,9.1L68.8,72.6z"/>
	<path style="opacity:5.000000e-02;enable-background:new    ;" d="M68.8,72.6c0,0-4.4-0.2-5.2,3.5s1.8,9.1,1.8,9.1L68.8,72.6z"/>
	<path style="fill:#FDC2CC;" d="M66,83.7l1.7,1.3l7.7,0.3l4.8-3.3l4.9-8.4c-2.4-0.5-4.2-2.4-4.7-4.8c-0.3-1.3-0.3-2.7-0.1-4
		c0,0-7.9-4.1-6.9,2.3c0.1,0.8,0.2,1.6,0.1,2.4c-0.1,1.8-1.7,3.2-3.6,3.1c-0.2,0-0.3,0-0.5-0.1l-1.4,2.1l-1.6,5.3L66,83.7z"/>
	<path style="opacity:0.1;enable-background:new    ;" d="M73.5,67.1c0.1,0.8,0.2,1.6,0.1,2.4c2.3,1,4.9,0.8,6.9-0.6
		c-0.3-1.3-0.3-2.7-0.1-4C80.4,64.8,72.5,60.8,73.5,67.1z"/>
	<circle style="fill:#FDC2CC;" cx="76.4" cy="62.9" r="7"/>
	<path style="fill:#15BDE4;" d="M71.5,82.4c0.2,0,0.3,0,0.5,0c0.9,0.1,4.7,0.3,6.9-2.3c2.4-2.9,5.7-6.5,5.8-6.6l3.3,1
		c0,0-2.6-0.9-4.3,3.9c-0.8,2.1-0.1,4.4,1.7,5.8c0.6,0.5,1.4,0.8,2.2,0.9c0,0,0,0,0,0v2.1l0,0l-1.3,5.9c-0.4,1.7-0.3,3.4,0.1,5.1
		l2.1,7.3c-0.3,0.2-13.1,8.9-21.6,2.9l0,0c0-0.3,1.1-8.8,0.4-13c-0.2-1.1-0.3-2.1-0.4-3.2v-0.1c-0.1-1-0.5-1.8-1.2-2.5
		c-0.8-0.7-1.8-2.5-0.8-7.3c0.3-1.2,0.6-2.4,1.1-3.5l2.9-6.5l0,0l2.6,0.1v0c-0.2,0.3-3.3,4.1-3.6,6.6C67.4,81.3,67,82.1,71.5,82.4z"
		/>
	<path style="fill:#FDC2CC;" d="M90.2,75.6c0,0,2.6,2.2,3.6,7.2s3.3,13.3,3.3,13.3c0.4,2.6-0.4,5.3-2.2,7.2
		c-3.1,3.6-5.2,6.4-5.2,6.4l-2.1,3c-0.4,0.5-0.9,0.9-1.5,1c-1.2,0.4-2.5,0.3-3.6-0.3c-0.9-0.5-1.3-1.7-0.9-2.7l0.5-1.1
		c0,0-4.2,2.7-4.6,1.2s4.9-2.9,4.9-2.9s4.4-0.7,5.3-2.8c0,0,4.7-6,4.3-8.1l-4.5-12.2c0,0-5.7-0.8-3.7-7.1S90.2,75.6,90.2,75.6z"/>
	<path style="fill:#65617D;" d="M63.1,121.4c0,0,10.4,2.1,12.8,1.8l0.3,0.9c0,0,3.9,0.9,12.8-0.5c0.6-0.1,1.2-0.2,1.8-0.3l0.2,0
		c0,0,0.1-0.7,0.2-1.8c0.4-4.2-0.1-8.5-1.5-12.5l-1.5-4.6c0,0-9.2,5.5-15.4,5c-0.5,0-1.1-0.1-1.6-0.1c-1.3,0-3.2,0-4.5-1l-2.7,0.5
		v7.5c0,1.1-0.2,2.2-0.6,3.2c-0.1,0.2-0.1,0.3-0.2,0.5C63.1,120.4,63,120.9,63.1,121.4z"/>
	<path style="opacity:0.1;enable-background:new    ;" d="M76.2,121.7v2.3c0,0,4.5,1,14.8-0.9c0,0,0.1-0.7,0.2-1.8
		C88.1,121.9,79.4,123.2,76.2,121.7z"/>
	<path style="opacity:0.1;enable-background:new    ;" d="M63.1,121.4c0,0,10.4,2.1,12.8,1.8l0.3,0.9v-2.3
		c-1.2,0.5-9.6-1.5-12.6-2.3c-0.1,0.2-0.1,0.3-0.2,0.5C63.1,120.4,63,120.9,63.1,121.4L63.1,121.4z"/>
	<path style="fill:#65617D;" d="M88.2,118.8l0.8,4.8c0.6-0.1,1.2-0.2,1.8-0.3c-0.3-1.7-0.6-3.4-0.6-5.1l-1-0.8L88.2,118.8z"/>
	<path style="opacity:0.1;enable-background:new    ;" d="M88.3,118.7l0.8,4.8c0.6-0.1,1.2-0.2,1.8-0.3c-0.3-1.7-0.6-3.4-0.6-5.1
		l-1-0.8L88.3,118.7z"/>
	<g transform="translate(66.344 104.296)" style="opacity:5.000000e-02;">
		<path d="M6,5C5.4,5,4.9,4.9,4.4,4.9C3.1,4.9,1.3,4.9,0,4l0.4-0.1c1.3,1,3.2,1,4.5,1C5.5,4.9,6,5,6.5,5c0.2,0,0.4,0,0.5,0
			C6.7,5.1,6.4,5.1,6,5z"/>
		<path d="M22.1,19.3c0.6-0.1,1.2-0.2,1.8-0.3l0.2,0c0,0,0.1-0.7,0.2-1.8c0.4-4.2-0.1-8.5-1.5-12.5l-1.4-4.3C21.7,0.1,21.9,0,21.9,0
			l1.5,4.6c1.4,4,1.9,8.3,1.5,12.5c-0.1,1.1-0.2,1.8-0.2,1.8l-0.2,0c-0.6,0.1-1.2,0.2-1.8,0.3c-3.1,0.5-6.2,0.8-9.3,0.8
			C16.3,20,19.2,19.8,22.1,19.3z"/>
		<path d="M9,18.9L9,18.9l-0.3,0C8.8,18.9,8.9,18.9,9,18.9z"/>
	</g>
	<ellipse style="fill:#D39999;" cx="89.5" cy="118.9" rx="0.4" ry="0.8"/>
	<path style="fill:#FDC2CC;" d="M64.6,102.6c0.3-3,1.1-5.9,2.3-8.6c0,0.1,0.1,0.6,0.1,0.8c0.1,0.8,0.1,1.6,0,2.4l-0.6,10.6l0.8,3.3
		c0.7,2.6-2,0.6-2,0.6c-0.2,0.7-0.9,1.1-1.6,1.1l-0.1-1.9c-0.1-1.8,0-3.6,0.5-5.3C64.3,104.6,64.5,103.6,64.6,102.6z"/>
	<path style="opacity:5.000000e-02;enable-background:new    ;" d="M64.6,102.6c0.3-3,1.1-5.9,2.3-8.6c0,0.1,0.1,0.6,0.1,0.8
		c0.1,0.8,0.1,1.6,0,2.4l-0.6,10.6l0.8,3.3c0.7,2.6-2,0.6-2,0.6c-0.2,0.7-0.9,1.1-1.6,1.1l-0.1-1.9c-0.1-1.8,0-3.6,0.5-5.3
		C64.3,104.6,64.5,103.6,64.6,102.6z"/>
	<path style="fill:#FDC2CC;" d="M90.8,108.3c-0.5,0.6-0.8,1-0.8,1l-2.1,3c-0.3,0.5-0.9,0.9-1.5,1c-1.2,0.4-2.5,0.3-3.6-0.3
		c-0.9-0.5-1.3-1.7-0.9-2.7l0.5-1.1c0,0-4.2,2.7-4.6,1.2s4.9-2.9,4.9-2.9s4.4-0.7,5.3-2.8c0,0,0.4-0.5,0.9-1.2"/>
	<path style="fill:#65617D;" d="M88.2,113.4c0,0-5-0.5-6.6-3.4l-0.7,2.4c0,0,5.3,3.6,6.5,3.2L88.2,113.4z"/>
	<path style="opacity:0.1;enable-background:new    ;" d="M88.1,113.4c0,0-5-0.5-6.6-3.4l-0.7,2.4c0,0,5.3,3.6,6.5,3.2L88.1,113.4z"
		/>
	<path style="fill:#65617D;" d="M65.4,112.1c0,0-1.8,0.6-2.1,0.3l0.8,1.5l1.5-1.1L65.4,112.1z"/>
	<path style="opacity:0.1;enable-background:new    ;" d="M65.4,112.1c0,0-1.8,0.6-2.1,0.3l0.8,1.5l1.5-1.1L65.4,112.1z"/>
	<path style="opacity:0.1;enable-background:new    ;" d="M76.2,121.7v-3l-0.7,3.1L76.2,121.7z"/>
	<path style="opacity:0.1;enable-background:new    ;" d="M83.3,59.2c-0.5,0.6-1.1,0.9-1.9,1c-0.7,0.1-1.5,0.1-2.2,0
		c-1.2-0.1-2.3,0.2-3.3,0.8c-0.6,0.5-1.1,1-1.5,1.6c-1.4,1.7-3.4,3.3-5.6,3.2c-0.4,0-0.8-0.2-1-0.4c-0.2-0.3-0.3-0.6-0.3-0.9
		c-0.1-1.4-0.1-2.9,0.1-4.3c0.1-0.9,0.3-1.7,0.6-2.5c0.4-0.8,0.9-1.6,1.5-2.2c0.8-0.9,1.7-1.6,2.7-2.2c1-0.6,2.2-0.7,3.4-0.4
		c1.3,0.4,2.4,1.4,3.6,1.9C81,55.3,84.9,56.9,83.3,59.2z"/>
	<path style="fill:#865A61;" d="M83.3,58.9c-0.5,0.6-1.1,0.9-1.9,1c-0.7,0.1-1.5,0.1-2.2,0c-1.2-0.1-2.3,0.2-3.3,0.8
		c-0.6,0.5-1.1,1-1.5,1.6c-1.4,1.7-3.4,3.3-5.6,3.2c-0.4,0-0.8-0.2-1-0.4c-0.2-0.3-0.3-0.6-0.3-0.9c-0.1-1.4-0.1-2.9,0.1-4.3
		c0.1-0.9,0.3-1.7,0.6-2.5c0.4-0.8,0.9-1.6,1.5-2.2c0.8-0.9,1.7-1.6,2.7-2.2c1-0.6,2.2-0.7,3.4-0.4c1.3,0.4,2.4,1.4,3.6,1.9
		C81,55,84.9,56.6,83.3,58.9z"/>
	<path style="fill:#FDC2CC;" d="M66.8,108.2l0,0.8l-0.2-0.8L66.8,108.2z"/>
	<path style="opacity:5.000000e-02;enable-background:new    ;" d="M66.8,108.2l0,0.8l-0.2-0.8L66.8,108.2z"/>
	<g transform="translate(83.181 74.534)" style="opacity:5.000000e-02;">
		<path d="M1.2,3c-1.9,6.4,3.7,7.1,3.7,7.1l4.5,12.2c0.4,2.1-4.3,8.1-4.3,8.1c-0.4,0.8-1.2,1.4-2,1.8c0.5-0.3,0.9-0.8,1.2-1.3
			c0,0,4.7-6,4.3-8.1L4.1,10.6c0,0-5.6-0.7-3.7-7.1C1.1,1.3,2,0.3,3,0C2.1,0.8,1.5,1.8,1.2,3z"/>
	</g>
	<g transform="translate(64.303 72.377)" style="opacity:0.1;">
		<path d="M20.2,10.9c0.3,0.3,0.6,0.6,0.9,0.9c0.6,0.5,1.4,0.8,2.2,0.9v0.2c-0.7-0.1-1.4-0.4-2-0.9C20.9,11.8,20.5,11.4,20.2,10.9z"
			/>
		<path d="M2.7,20L2.7,20c0.1,1.2,0.2,2.2,0.4,3.3c0.7,3.9-0.2,11.8-0.3,12.8c-0.1,0-0.1-0.1-0.2-0.1c0-0.3,1.1-8.8,0.4-13
			c-0.2-1.1-0.3-2.1-0.4-3.2v-0.1c0-0.6-0.3-1.2-0.6-1.7C2.3,18.6,2.6,19.3,2.7,20z"/>
		<path d="M6.9,0.3l-2.2,0c0,0,0,0,0,0L1.8,6.7C1.3,7.8,0.9,9,0.6,10.2C-0.2,14.1,0.3,16.1,1,17c-0.7-0.8-1.5-2.8-0.5-7.1
			c0.3-1.2,0.6-2.4,1.1-3.5L4.4,0l0,0l2.6,0.1v0C7.1,0.1,7,0.2,6.9,0.3z"/>
		<path d="M23.7,2.1L23.7,2.1L23.7,2.1z"/>
		<path d="M22.9,2l-2.2-0.7h0c-0.1,0.1-3.4,3.7-5.8,6.6c-2.2,2.6-6,2.4-6.9,2.3c-0.2,0-0.3,0-0.5,0C4.9,10.1,4,9.8,3.6,9.2
			C4.1,9.6,5.1,9.9,7.2,10c0.2,0,0.3,0,0.5,0c0.9,0.1,4.7,0.3,6.9-2.3c2.4-2.9,5.7-6.5,5.8-6.6l0,0l3.3,1C23.4,2,23.2,2,22.9,2z"/>
	</g>
	<path style="opacity:0.1;enable-background:new    ;" d="M60.7,173.1c0,0-3.2,0.9-3.8-0.5"/>
	<path style="opacity:0.1;enable-background:new    ;" d="M80.7,172.5c0,0-3.7,0.9-4.5-0.5"/>
	
		<linearGradient id="SVGID_5_" gradientUnits="userSpaceOnUse" x1="-488.1674" y1="488.4405" x2="-488.1674" y2="489.4405" gradientTransform="matrix(25.0177 0 0 -31.4737 12334.0703 15568.5059)">
		<stop  offset="0" style="stop-color:#808080;stop-opacity:0.251"/>
		<stop  offset="0.54" style="stop-color:#808080;stop-opacity:0.122"/>
		<stop  offset="1" style="stop-color:#808080;stop-opacity:0.102"/>
	</linearGradient>
	<path style="fill:url(#SVGID_5_);" d="M133.4,170.4c0.1-0.5,0.1-0.9,0.2-1.4c0.2-1.6,0.1-3.2-0.5-4.6l0,0c-0.1-0.2-0.1-0.4-0.1-0.4
		c-1.5-0.4-7.2,4.1-9.3,5.7c-0.7,0-1.5,0-2.4,0.1c-0.4,0-0.8,0-1.1,0h-1.4c-1.9-1.6-7.9-6.3-9.4-5.9c0,0-0.1,0.1-0.1,0.4l0,0
		c-0.5,1.5-0.7,3.1-0.5,4.6c0.1,0.5,0.2,0.9,0.2,1.4c0.1,1.6,0.9,3.1,2.1,4.2c0.5,2.6,1.3,5.1,2.5,7.4c0.1,0.4,0.2,0.7,0.3,1
		c-0.4,1.3-0.7,2.7-0.7,4.1c0,0-2-0.5-2.2,2v0.1c-0.7,0.3-1.6,1.1-0.6,2.7c0.1,0.2,0.3,0.4,0.5,0.4c0.2,0.1,0.4,0.1,0.3-0.2l1.3,1.4
		c0,0,2.3,0.3,2.3-1.1l0.1,0c0.3,0,0.6,0.1,1,0.1l0.2,0.5c0,0-1.7,0-1.3,1c0,0,0.4,0.4,0.6,0.3c0,0-0.2,0.7,0.7,0.7
		c0,0,1,0.5,1.3,0.1s1.2-0.9,1.2-1.1c0-0.1,0-0.6,0-1.4h0.1c1.9,0,4,0,5.8-0.1h0.2c0,0.8,0,1.4,0,1.5c0.1,0.2,0.9,0.8,1.2,1.1
		s1.3-0.1,1.3-0.1c0.9,0,0.7-0.7,0.7-0.7c0.2,0.1,0.6-0.3,0.6-0.3c0.5-1.1-1.3-1-1.3-1l0.2-0.7l1-0.1l0.2,0
		c-0.1,1.5,2.3,1.2,2.3,1.2l1.3-1.4c0,0.3,0.2,0.3,0.3,0.2c0.2-0.1,0.4-0.2,0.5-0.4c1.6-2.4-1.3-3-1.3-3c-0.1,0-0.2,0-0.3,0
		c0,0,0-0.1,0-0.1l0,0c0-0.3,0-0.6,0-1c-0.3-0.7-1-1.2-1.7-1.2c-0.6-0.1-0.6-2.8-0.5-4.6c0.1-0.3,0.1-0.7,0.1-1.1
		c0-0.6-0.1-1.1-0.2-1.7c0.9-1.4,1.6-3,2.2-4.6C132.6,173.5,133.3,172,133.4,170.4z"/>
	<path style="fill:#00A2C8;" d="M131.2,188.9L131.2,188.9c-0.1,1.3-0.3,3.3-0.3,3.3s-1,0.1-2.6,0.3l-1.1,0.1
		c-0.8,0.1-1.7,0.1-2.7,0.2c-1.8,0.1-3.8,0.2-5.6,0.1c-0.9,0-1.8-0.1-2.7-0.2c-0.4,0-0.7-0.1-1.1-0.1c-2.1-0.3-3.7-0.9-3.8-2
		c-0.1-0.5-0.1-0.9,0-1.4c0.2-2.4,2.2-1.9,2.2-1.9c0.1-1.4,0.3-2.8,0.7-4.2c0.2-0.9,0.5-1.7,0.5-1.7l13.7-0.9h0
		c0.4,0,0.7,0.3,0.7,0.7c0,0,0,0,0,0c-0.1,1.6-0.2,5.4,0.5,5.5c0.7,0.1,1.4,0.6,1.7,1.2C131.3,188.3,131.3,188.6,131.2,188.9z"/>
	<path style="fill:#15BDE4;" d="M119.6,170.9c0,0-5.2,6.2-7.7,4.5c-0.1,0-0.1-0.1-0.2-0.1c-1.3-1.1-2.1-2.7-2.2-4.4
		c0-0.5-0.1-0.9-0.2-1.3c-0.2-1.5-0.1-3.1,0.5-4.5l0,0c0.1-0.2,0.1-0.4,0.1-0.4C111.6,164.1,119.6,170.9,119.6,170.9z"/>
	<path style="fill:#6C63FF;" d="M116.8,171.4c0,0-1.6,1.1-3.9,3c-0.4,0.3-0.7,0.6-1.1,0.8c-1.3-1.1-2.1-2.7-2.2-4.4
		c0-0.5-0.1-0.9-0.2-1.3c-0.2-1.5-0.1-3.1,0.5-4.5l0,0C112.9,165.2,116.8,171.4,116.8,171.4z"/>
	<path style="opacity:0.5;fill:#FFFFFF;enable-background:new    ;" d="M116.8,171.4c0,0-1.6,1.1-3.9,3c-0.4,0.3-0.7,0.6-1.1,0.8
		c-1.3-1.1-2.1-2.7-2.2-4.4c0-0.5-0.1-0.9-0.2-1.3c-0.2-1.5-0.1-3.1,0.5-4.5l0,0C112.9,165.2,116.8,171.4,116.8,171.4z"/>
	<path style="opacity:0.1;enable-background:new    ;" d="M115,170.8c0,0-0.9,0.6-2.1,1.6c-0.2,0.2-0.4,0.3-0.6,0.4
		c-0.7-0.6-1.1-1.4-1.2-2.3c0-0.2-0.1-0.5-0.1-0.7c-0.1-0.8,0-1.7,0.3-2.4l0,0C113,167.5,115,170.8,115,170.8z"/>
	<path style="fill:#15BDE4;" d="M122.9,170.9c0,0,5.2,6.2,7.7,4.5c0.1,0,0.1-0.1,0.2-0.1c1.3-1.1,2.1-2.7,2.2-4.4
		c0-0.5,0.1-0.9,0.2-1.3c0.2-1.5,0.1-3.1-0.5-4.5l0,0c-0.1-0.2-0.1-0.4-0.1-0.4C130.9,164.1,122.9,170.9,122.9,170.9z"/>
	<path style="fill:#6C63FF;" d="M125.7,171.4c0,0,1.6,1.1,3.9,3c0.4,0.3,0.7,0.6,1.1,0.8c1.3-1.1,2.1-2.7,2.2-4.4
		c0-0.5,0.1-0.9,0.2-1.3c0.2-1.5,0.1-3.1-0.5-4.5l0,0C129.5,165.2,125.7,171.4,125.7,171.4z"/>
	<path style="opacity:0.5;fill:#FFFFFF;enable-background:new    ;" d="M125.7,171.4c0,0,1.6,1.1,3.9,3c0.4,0.3,0.7,0.6,1.1,0.8
		c1.3-1.1,2.1-2.7,2.2-4.4c0-0.5,0.1-0.9,0.2-1.3c0.2-1.5,0.1-3.1-0.5-4.5l0,0C129.5,165.2,125.7,171.4,125.7,171.4z"/>
	<path style="opacity:0.1;enable-background:new    ;" d="M127.5,170.8c0,0,0.9,0.6,2.1,1.6c0.2,0.2,0.4,0.3,0.6,0.4
		c0.7-0.6,1.1-1.4,1.2-2.3c0-0.2,0.1-0.5,0.1-0.7c0.1-0.8,0-1.6-0.2-2.4l0,0C129.5,167.5,127.5,170.8,127.5,170.8z"/>
	<path style="opacity:0.1;enable-background:new    ;" d="M128.4,180.6c-0.5,0.9-1.2,1.8-2,2.5c-2.1,1.8-10.9,1.1-11.5,1
		c-0.1,0-0.4-0.4-0.7-1c0.2-0.9,0.5-1.7,0.5-1.7L128.4,180.6z"/>
	<path style="fill:#15BDE4;" d="M121.4,170.3c-0.4,0-0.7,0-1.1,0c-1.9,0-8.1,0-8.8,2.6c-0.8,3,2.8,10.9,3.4,11s9.5,0.8,11.5-1
		s4.7-7.5,4.6-8.1C131,174.9,133.6,169.5,121.4,170.3z"/>
	<path style="opacity:0.1;enable-background:new    ;" d="M121.2,175.2c-2.8-0.3-5.5,1.2-6.7,3.8c-0.9,1.8-0.7,3.9,0.4,5.5
		c0.6,1.2,2,1.7,3.2,1.1C121.3,184.3,121.2,175.2,121.2,175.2z"/>
	<path style="opacity:0.1;enable-background:new    ;" d="M121,174.9c-2.8-0.3-5.5,1.2-6.7,3.8c-0.9,1.8-0.7,3.9,0.4,5.5
		c0.6,1.2,2,1.7,3.2,1.1C121.2,184,121,174.9,121,174.9z"/>
	<path style="fill:#6C63FF;" d="M121,175c-2.8-0.3-5.5,1.2-6.7,3.8c-0.9,1.8-0.7,3.9,0.4,5.5c0.6,1.2,2,1.7,3.2,1.1
		C121.2,184.1,121,175,121,175z"/>
	<path style="opacity:0.5;fill:#FFFFFF;enable-background:new    ;" d="M121,175c-2.8-0.3-5.5,1.2-6.7,3.8c-0.9,1.8-0.7,3.9,0.4,5.5
		c0.6,1.2,2,1.7,3.2,1.1C121.2,184.1,121,175,121,175z"/>
	<path style="fill:#3F2B3B;" d="M116.1,178.9c0,0-0.6,0.6-0.4,0.7S116.1,178.9,116.1,178.9z"/>
	<path style="fill:#3F2B3B;" d="M116.8,179.7c0,0-0.3,0.8-0.1,0.8s0.4-0.5,0.4-0.5L116.8,179.7z"/>
	<path style="fill:#3F2B3B;" d="M115.3,180.8c0,0-0.3,0.9,0,0.9S115.3,180.8,115.3,180.8z"/>
	<path style="fill:none;stroke:#3F2B3B;stroke-miterlimit:10;" d="M114.9,183.2c0.4,1,1.3,1.6,2.4,1.6"/>
	<path style="fill:none;stroke:#3F2B3B;stroke-miterlimit:10;" d="M116.4,183.7c0.4,0.4,1,0.5,1.4,0.2"/>
	<path style="opacity:0.1;enable-background:new    ;" d="M121.8,175.2c2.8-0.3,5.5,1.2,6.7,3.8c0.9,1.8,0.7,3.9-0.4,5.5
		c-0.6,1.2-2,1.7-3.2,1.1C121.6,184.3,121.8,175.2,121.8,175.2z"/>
	<path style="opacity:0.1;enable-background:new    ;" d="M121.9,174.9c2.8-0.3,5.5,1.2,6.7,3.8c0.9,1.8,0.7,3.9-0.4,5.5
		c-0.6,1.2-2,1.7-3.2,1.1C121.8,184,121.9,174.9,121.9,174.9z"/>
	<path style="fill:#6C63FF;" d="M121.9,175c2.8-0.3,5.5,1.2,6.7,3.8c0.9,1.8,0.7,3.9-0.4,5.5c-0.6,1.2-2,1.7-3.2,1.1
		C121.8,184.1,121.9,175,121.9,175z"/>
	<path style="opacity:0.5;fill:#FFFFFF;enable-background:new    ;" d="M121.9,175c2.8-0.3,5.5,1.2,6.7,3.8c0.9,1.8,0.7,3.9-0.4,5.5
		c-0.6,1.2-2,1.7-3.2,1.1C121.8,184.1,121.9,175,121.9,175z"/>
	<path style="fill:#3F2B3B;" d="M126.8,178.9c0,0,0.6,0.6,0.4,0.7S126.8,178.9,126.8,178.9z"/>
	<path style="fill:#3F2B3B;" d="M126.2,179.7c0,0,0.3,0.8,0.1,0.8s-0.4-0.5-0.4-0.5L126.2,179.7z"/>
	<path style="fill:#3F2B3B;" d="M127.7,180.8c0,0,0.3,0.9,0,0.9S127.7,180.8,127.7,180.8z"/>
	<path style="fill:none;stroke:#3F2B3B;stroke-miterlimit:10;" d="M128.1,183.2c-0.4,1-1.3,1.6-2.4,1.6"/>
	<path style="fill:none;stroke:#3F2B3B;stroke-miterlimit:10;" d="M126.5,183.7c-0.4,0.4-1,0.5-1.4,0.2"/>
	<path style="fill:#3F2B3B;" d="M119.3,188c1.5-0.6,3.2-0.6,4.7,0H119.3z"/>
	<path style="opacity:0.1;enable-background:new    ;" d="M115.2,192.6c-2.1-0.3-3.7-0.9-3.8-2c-0.1-0.5-0.1-0.9,0-1.4
		c0.3-0.1,0.5-0.2,0.8-0.3c0.6-0.1,1.3,0,1.9,0.3c1,0.3,0.9,1.5,1.1,3C115.2,192.4,115.2,192.5,115.2,192.6z"/>
	<path style="fill:#00A2C8;" d="M112,189.1c0,0-2.8,0.5-1.3,2.9c0.1,0.2,0.3,0.3,0.5,0.4c0.2,0.1,0.3,0.1,0.3-0.2l1.2,1.4
		c0,0,2.4,0.3,2.2-1.3s-0.1-2.7-1.1-3C113.3,189.1,112.6,189,112,189.1z"/>
	<path style="fill:none;stroke:#3F2B3B;stroke-miterlimit:10;" d="M112.7,190.7c0,0,0.6,1.3,1.4,0.2"/>
	<path style="fill:none;stroke:#3F2B3B;stroke-miterlimit:10;" d="M111.3,191.3c0,0,0.3,1.3,1.5,0.3"/>
	<path style="opacity:0.1;enable-background:new    ;" d="M131.2,188.9L131.2,188.9c-0.1,1.3-0.3,3.3-0.3,3.3s-1,0.1-2.6,0.3
		c0-0.1,0-0.2,0-0.3c0.2-1.5,0.1-2.7,1.1-3C130,189,130.6,188.9,131.2,188.9z"/>
	<path style="fill:#00A2C8;" d="M131.5,189.1c0,0,2.8,0.5,1.3,2.9c-0.1,0.2-0.3,0.3-0.5,0.4c-0.2,0.1-0.3,0.1-0.3-0.2l-1.2,1.4
		c0,0-2.4,0.3-2.2-1.3s0.1-2.7,1.1-3C130.2,189.1,130.8,189,131.5,189.1z"/>
	<path style="fill:none;stroke:#3F2B3B;stroke-miterlimit:10;" d="M130.8,190.7c0,0-0.6,1.3-1.4,0.2"/>
	<path style="fill:none;stroke:#3F2B3B;stroke-miterlimit:10;" d="M132.2,191.3c0,0-0.3,1.3-1.5,0.3"/>
	<path style="opacity:0.1;enable-background:new    ;" d="M118.9,192.9c-0.9,0-1.8-0.1-2.7-0.2l-0.8-2.8c0-0.2-0.1-0.3-0.1-0.5
		c0-1,0.8-1.8,1.8-1.7c0.9,0,1.7,0.8,1.7,1.7C118.9,190.5,118.9,191.9,118.9,192.9z"/>
	<path style="fill:#00A2C8;" d="M115.3,190l1,3.3c0,0-1.7,0-1.2,1c0,0,0.4,0.4,0.6,0.3c0,0-0.2,0.7,0.6,0.7c0,0,0.9,0.5,1.3,0.1
		s1.1-0.9,1.2-1.1c0-0.1,0-2.9,0-4.8c0-1-0.8-1.8-1.8-1.8l0,0c-1,0-1.8,0.8-1.8,1.8C115.2,189.6,115.2,189.8,115.3,190L115.3,190z"
		/>
	<path style="fill:none;stroke:#3F2B3B;stroke-miterlimit:10;" d="M116.6,194.1c0,0-0.7,0.7-0.3,1.1"/>
	<path style="fill:none;stroke:#3F2B3B;stroke-miterlimit:10;" d="M116.3,193.7c-0.4,0.1-0.6,0.5-0.7,0.8"/>
	<path style="opacity:0.1;enable-background:new    ;" d="M128.1,189.4c0,0.2,0,0.3-0.1,0.5l-0.8,2.6c-0.8,0.1-1.7,0.1-2.7,0.2
		c0-1,0-2.3,0-3.3c0-1,0.8-1.8,1.8-1.7C127.3,187.7,128.1,188.5,128.1,189.4L128.1,189.4z"/>
	<path style="fill:#00A2C8;" d="M128.2,190l-1,3.3c0,0,1.7,0,1.2,1c0,0-0.4,0.4-0.6,0.3c0,0,0.2,0.7-0.6,0.7c0,0-0.9,0.5-1.3,0.1
		s-1.1-0.9-1.2-1.1c0-0.1,0-2.9,0-4.8c0-1,0.8-1.8,1.8-1.8l0,0c1,0,1.8,0.8,1.8,1.8C128.2,189.6,128.2,189.8,128.2,190L128.2,190z"
		/>
	<path style="fill:none;stroke:#3F2B3B;stroke-miterlimit:10;" d="M126.8,194.1c0,0,0.7,0.7,0.3,1.1"/>
	<path style="fill:none;stroke:#3F2B3B;stroke-miterlimit:10;" d="M127.2,193.7c0.4,0.1,0.6,0.5,0.7,0.8"/>
	<path style="opacity:0.1;enable-background:new    ;" d="M121,174.3c0,0-3.4-0.1-3.5,2.5s5.3,1.5,5.3,1.5s2.3-0.3,1.9-1.9
		S123.5,174.4,121,174.3z"/>
	<path style="opacity:0.1;enable-background:new    ;" d="M121,174c0,0-3.4-0.1-3.5,2.5s5.3,1.5,5.3,1.5s2.3-0.3,1.9-1.9
		S123.5,174.1,121,174z"/>
	<path style="fill:#3F2B3B;" d="M121,174.1c0,0-3.4-0.1-3.5,2.5s5.3,1.5,5.3,1.5s2.3-0.3,1.9-1.9S123.5,174.3,121,174.1z"/>
	<path style="opacity:0.1;enable-background:new    ;" d="M113.5,187.3c0,0,1.1,0.4,1.4,1.2"/>
	<path style="opacity:0.1;enable-background:new    ;" d="M129.6,186.8c0,0-0.8,0.3-0.8,1.8"/>
	
		<ellipse transform="matrix(0.867 -0.4983 0.4983 0.867 -81.1585 82.4934)" style="fill:#6C63FF;" cx="114" cy="193.3" rx="0.5" ry="0.9"/>
	
		<ellipse transform="matrix(0.5 -0.866 0.866 0.5 -101.6905 208.8773)" style="fill:#6C63FF;" cx="130" cy="192.5" rx="0.9" ry="0.5"/>
	
		<ellipse transform="matrix(0.867 -0.4983 0.4983 0.867 -81.1585 82.4934)" style="opacity:0.5;fill:#FFFFFF;enable-background:new    ;" cx="114" cy="193.3" rx="0.5" ry="0.9"/>
	
		<ellipse transform="matrix(0.5 -0.866 0.866 0.5 -101.6905 208.8773)" style="opacity:0.5;fill:#FFFFFF;enable-background:new    ;" cx="130" cy="192.5" rx="0.9" ry="0.5"/>
	<ellipse style="opacity:0.1;fill:#6C63FF;enable-background:new    ;" cx="44" cy="163.6" rx="6.2" ry="1"/>
	<ellipse style="opacity:0.1;fill:#6C63FF;enable-background:new    ;" cx="19.8" cy="178.4" rx="6.2" ry="1"/>
	<ellipse style="fill:#00A2C8;" cx="13.4" cy="165.2" rx="9.2" ry="1.6"/>
	<path style="fill:#00A2C8;" d="M9.6,162.7c-0.4-0.3-0.7-0.8-0.9-1.3c-0.1-0.5,0.1-1.1,0.6-1.3c0.6-0.1,1.2,0.1,1.6,0.6
		c0.4,0.5,1,0.7,1.6,0.8c-0.6-0.6-0.9-1.4-0.7-2.2c0-0.2,0.1-0.3,0.2-0.5c0.3-0.3,0.9-0.2,1.3,0.1c1.2,0.8,1.5,2.5,1.5,3.9
		c0.1-0.5,0.1-1.1,0-1.6c0-0.5,0.2-1.1,0.6-1.4c0.3-0.2,0.6-0.2,0.9-0.2c0.5-0.1,1.1,0.1,1.5,0.4c0.4,0.5,0.4,1.3-0.1,1.8
		c-0.4,0.5-1,0.9-1.5,1.2c-0.4,0.3-0.8,0.6-1.1,1.1c0,0.1-0.1,0.1-0.1,0.2h-3.3C10.9,163.7,10.2,163.2,9.6,162.7L9.6,162.7z"/>
	<ellipse style="opacity:0.1;fill:#6C63FF;enable-background:new    ;" cx="235.3" cy="172.3" rx="6.2" ry="1"/>
	<path style="fill:#A8A8A8;" d="M231.2,167.5c0,0,3.5-0.1,4.6-0.9s5.4-1.7,5.7-0.4s5.3,6,1.3,6s-9.2-0.6-10.3-1.3
		S231.2,167.5,231.2,167.5z"/>
	<path style="opacity:0.2;enable-background:new    ;" d="M242.8,171.8c-4,0-9.2-0.6-10.3-1.3c-0.8-0.5-1.1-2.2-1.2-3.1h-0.1
		c0,0,0.2,2.8,1.3,3.5s6.3,1.3,10.3,1.3c1.1,0,1.5-0.4,1.5-1C244.1,171.6,243.7,171.8,242.8,171.8z"/>
</g>
</svg>
