<?xml version="1.0" encoding="utf-8"?>
<!-- Generator: Adobe Illustrator 24.3.0, SVG Export Plug-In . SVG Version: 6.00 Build 0)  -->
<svg version="1.1" id="Layer_1" xmlns="http://www.w3.org/2000/svg" xmlns:xlink="http://www.w3.org/1999/xlink" x="0px" y="0px"
	 width="501.5px" height="500px" viewBox="0 0 501.5 500" style="enable-background:new 0 0 501.5 500;" xml:space="preserve">
<path id="Intersection_1" style="opacity:0.78;fill:#F1F1F1;enable-background:new    ;" d="M137.2,500
	c-11.7-25.2-17.8-52.7-17.7-80.5c0-105.5,85.5-191,191-191s191,85.5,191,191c0,27.8-6,55.3-17.7,80.5H137.2z M0,200.7V0.3
	C0.8,0.2,1.6,0.1,2.4,0h20.2c55.5,5.6,95.9,55.2,90.3,110.7c-5.6,55.5-55.2,95.9-110.7,90.3C1.5,200.9,0.7,200.8,0,200.7L0,200.7z
	 M152.5,116.5c0-17.4,14.1-31.5,31.5-31.5s31.5,14.1,31.5,31.5S201.4,148,184,148S152.5,133.9,152.5,116.5L152.5,116.5z
	 M304.5,116.5c0-14.9,12.1-27,27-27s27,12.1,27,27s-12.1,27-27,27S304.5,131.4,304.5,116.5L304.5,116.5z"/>
</svg>
