<?xml version="1.0" encoding="utf-8"?>
<!-- Generator: Adobe Illustrator 24.3.0, SVG Export Plug-In . SVG Version: 6.00 Build 0)  -->
<svg version="1.1" id="Layer_1" xmlns="http://www.w3.org/2000/svg" xmlns:xlink="http://www.w3.org/1999/xlink" x="0px" y="0px"
	 width="20.7px" height="23.7px" viewBox="0 0 20.7 23.7" style="enable-background:new 0 0 20.7 23.7;" xml:space="preserve">
<path style="fill:#FFFFFF;" d="M10.4,23.7c1.6,0,3-1.3,3-3H7.4C7.4,22.3,8.7,23.7,10.4,23.7L10.4,23.7z M20.3,16.7
	c-0.9-1-2.6-2.4-2.6-7.1c0-3.5-2.5-6.5-5.9-7.2v-1c0-0.8-0.6-1.5-1.4-1.5c-0.8,0-1.5,0.6-1.5,1.4c0,0,0,0.1,0,0.1v1
	C5.4,3.1,3,6.1,3,9.6c0,4.7-1.7,6.2-2.6,7.1C0.1,17,0,17.4,0,17.7c0,0.8,0.7,1.5,1.5,1.5c0,0,0,0,0,0h17.7c0.8,0,1.5-0.7,1.5-1.5
	C20.7,17.4,20.6,17,20.3,16.7z"/>
</svg>
