<?xml version="1.0" encoding="utf-8"?>
<!-- Generator: Adobe Illustrator 24.3.0, SVG Export Plug-In . SVG Version: 6.00 Build 0)  -->
<svg version="1.1" id="Layer_1" xmlns="http://www.w3.org/2000/svg" xmlns:xlink="http://www.w3.org/1999/xlink" x="0px" y="0px"
	 width="25.1px" height="31px" viewBox="0 0 25.1 31" style="enable-background:new 0 0 25.1 31;" xml:space="preserve">
<g id="Group_524" transform="translate(-696 -460.411)">
	<g id="Group_523">
		<path id="Path_489" style="fill:#FFFFFF;" d="M718.4,488h-16.8c0,0-0.1,0-0.1,0c-1.5-0.2-2.6-1.6-2.5-3.1c0-4.6,0-9.2,0-13.7
			c0-2.6,0-5.1,0-7.7c0-1.1,0.6-2.2,1.6-2.7c0.3-0.2,0.7-0.3,1.1-0.4h13.7c0.4,0.1,0.7,0.4,1,0.7c1.4,1.4,2.8,2.8,4.2,4.2
			c0.4,0.3,0.6,0.8,0.5,1.3c0,3.6,0,7.3,0,10.9c0,2.5,0,5,0,7.5c0,1.3-0.8,2.5-2.1,2.9C718.8,487.9,718.6,488,718.4,488z M714.5,462
			c-0.1,0-0.2,0-0.2,0c-4.1,0-8.2,0-12.3,0c-0.8,0-1.4,0.6-1.4,1.3c0,0,0,0.1,0,0.1v21.4c-0.1,0.8,0.5,1.4,1.3,1.5
			c0.1,0,0.1,0,0.2,0c5.3,0,10.6,0,15.9,0c0.8,0.1,1.4-0.5,1.5-1.3c0-0.1,0-0.1,0-0.2c0-5.9,0-11.8,0-17.6v-0.3h-0.3
			c-0.9,0-1.7,0-2.6,0c-1,0.1-1.9-0.7-2-1.7c0-0.1,0-0.2,0-0.3c0-0.9,0-1.7,0-2.6L714.5,462z M716.2,463.2c0,0.6,0,1.3,0,1.9
			c0,0.1,0.2,0.2,0.3,0.2c0.3,0,0.5,0,0.8,0h1L716.2,463.2z"/>
		<path id="Path_490" style="fill:#FFFFFF;" d="M712.9,472.1c1.3,0.2,2.3,1.2,2.5,2.6c0,0.5,0.1,1.1,0,1.6c0,0.3,0,0.6,0,0.9
			c0.1,0.7-0.4,1.3-1.1,1.3c-0.1,0-0.2,0-0.2,0c-1.2,0-2.4,0-3.6,0H706c-0.7,0.1-1.3-0.4-1.4-1.1c0-0.1,0-0.2,0-0.3
			c0-0.6,0-1.2,0-1.8c-0.1-1.6,1-3,2.5-3.2c-0.2-0.4-0.3-0.8-0.3-1.1c-0.2-1.1-0.1-2.2,0.2-3.3c0.6-1.7,2.5-2.5,4.2-1.9
			c1.2,0.5,2.1,1.6,2.1,3c0,0.8,0,1.5-0.1,2.3C713.1,471.4,713,471.8,712.9,472.1z M713.8,476.9c0,0,0-0.1,0-0.1c0-0.6,0-1.1,0-1.7
			c0-0.7-0.6-1.3-1.3-1.3c-1.6,0-3.2,0-4.8,0c-0.7,0-1.2,0.4-1.3,1.1c0,0.7,0,1.4,0,2.1H713.8z M708.4,469.7L708.4,469.7
			c0,0.3,0,0.6,0,0.9c0,0.9,0.8,1.6,1.7,1.6c0.8,0,1.5-0.7,1.6-1.6c0-0.6,0-1.2,0-1.8c0-0.9-0.8-1.6-1.7-1.6c-0.8,0-1.5,0.7-1.6,1.6
			C708.4,469.1,708.4,469.4,708.4,469.7L708.4,469.7z"/>
		<path id="Path_491" style="fill:#FFFFFF;" d="M710.1,481.7c-1.5,0-3.1,0-4.6,0c-0.4,0-0.8-0.3-0.9-0.7c0-0.1,0-0.2,0-0.3
			c0.1-0.3,0.3-0.5,0.6-0.6c0.1,0,0.2,0,0.3,0c3,0,6,0,9,0c0.1,0,0.3,0,0.4,0c0.4,0.1,0.7,0.5,0.6,1c-0.1,0.3-0.3,0.5-0.6,0.6
			c-0.1,0-0.2,0-0.3,0L710.1,481.7z"/>
		<path id="Path_492" style="fill:#FFFFFF;" d="M710.1,484.4c-0.8,0-1.7,0-2.5,0c-0.4,0-0.8-0.3-0.8-0.8c0-0.3,0.2-0.6,0.5-0.8
			c0.1,0,0.2-0.1,0.4-0.1c1.7,0,3.3,0,5,0c0.4,0,0.8,0.3,0.9,0.7c0,0.2,0,0.3-0.1,0.4c-0.2,0.3-0.5,0.5-0.8,0.4
			C711.8,484.4,711,484.4,710.1,484.4z"/>
	</g>
	<path id="Path_493" style="fill:#FFFFFF;" d="M715,489.8C715,489.8,715,489.8,715,489.8c-5.3,0-10.6,0-15.9,0
		c-0.8,0.1-1.4-0.5-1.5-1.3c0-0.1,0-0.1,0-0.2v-21.4c0-0.1-0.4-0.9-0.6-0.9c-0.5,0-0.9,0.4-1,0.9c0,2.6,0,5.1,0,7.7
		c0,4.6,0,9.2,0,13.7c-0.1,1.5,1,2.8,2.5,3.1c0,0,0.1,0,0.1,0h16.8c0,0,0.1,0,0.2,0l0,0c0.1-0.1,0.2-0.3,0.3-0.5
		c0-0.2,0-0.3-0.1-0.5C715.7,489.9,715.4,489.9,715,489.8z"/>
</g>
</svg>
