<?xml version="1.0" encoding="utf-8"?>
<!-- Generator: Adobe Illustrator 24.3.0, SVG Export Plug-In . SVG Version: 6.00 Build 0)  -->
<svg version="1.1" id="Group_524" xmlns="http://www.w3.org/2000/svg" xmlns:xlink="http://www.w3.org/1999/xlink" x="0px" y="0px"
	 width="18.3px" height="22.6px" viewBox="0 0 18.3 22.6" style="enable-background:new 0 0 18.3 22.6;" xml:space="preserve">
<g id="Group_523" transform="translate(2.165)">
	<path id="Path_489" style="fill:#82E8FF;" d="M14.2,20.1H1.9c0,0,0,0-0.1,0C0.8,19.9,0,18.9,0,17.8c0-3.3,0-6.7,0-10
		C0,6,0,4.1,0,2.2c0-0.8,0.4-1.6,1.1-1.9C1.4,0.2,1.7,0.1,1.9,0h10c0.3,0.1,0.5,0.3,0.7,0.5c1,1,2,2,3.1,3c0.3,0.2,0.4,0.6,0.4,0.9
		c0,2.7,0,5.3,0,8c0,1.8,0,3.6,0,5.4c0,1-0.6,1.8-1.5,2.1C14.4,20,14.3,20.1,14.2,20.1z M11.3,1.2c-0.1,0-0.1,0-0.2,0
		c-3,0-5.9,0-8.9,0c-0.6,0-1,0.4-1,1c0,0,0,0.1,0,0.1v15.6c0,0.6,0.4,1,0.9,1.1c0,0,0.1,0,0.1,0h11.6c0.6,0,1-0.4,1.1-0.9
		c0,0,0-0.1,0-0.1c0-4.3,0-8.6,0-12.8V4.8h-0.2c-0.6,0-1.3,0-1.9,0c-0.7,0.1-1.4-0.5-1.4-1.3c0-0.1,0-0.1,0-0.2c0-0.6,0-1.3,0-1.9
		L11.3,1.2z M12.5,2.1c0,0.5,0,0.9,0,1.4c0,0.1,0.1,0.1,0.2,0.1c0.2,0,0.4,0,0.6,0H14L12.5,2.1z"/>
	<path id="Path_490" style="fill:#82E8FF;" d="M10.1,8.5c1,0.1,1.7,0.9,1.8,1.9c0,0.4,0,0.8,0,1.2c0,0.2,0,0.4,0,0.6
		c0,0.5-0.3,0.9-0.8,1c-0.1,0-0.1,0-0.2,0H5.1c-0.5,0.1-0.9-0.3-1-0.8c0-0.1,0-0.1,0-0.2c0-0.4,0-0.9,0-1.3C4,9.7,4.8,8.7,6,8.5
		C5.9,8.3,5.8,8,5.7,7.7C5.6,6.9,5.6,6.1,5.8,5.3c0.5-1.2,1.8-1.8,3-1.4c0.9,0.3,1.5,1.2,1.5,2.2c0,0.6,0,1.1,0,1.7
		C10.3,8,10.2,8.3,10.1,8.5z M10.8,12C10.8,12,10.8,11.9,10.8,12c0-0.5,0-0.9,0-1.3c0-0.5-0.4-1-1-1c-1.2,0-2.4,0-3.5,0
		c-0.5,0-0.9,0.3-1,0.8c0,0.5,0,1,0,1.5L10.8,12z M6.9,6.7L6.9,6.7c0,0.2,0,0.4,0,0.6c0,0.7,0.6,1.2,1.2,1.1c0.6,0,1.1-0.5,1.1-1.1
		c0-0.4,0-0.9,0-1.3c0-0.7-0.6-1.2-1.2-1.1C7.4,5,6.9,5.5,6.9,6.1C6.9,6.3,6.9,6.5,6.9,6.7L6.9,6.7z"/>
	<path id="Path_491" style="fill:#82E8FF;" d="M8.1,15.5c-1.1,0-2.2,0-3.4,0c-0.3,0-0.6-0.2-0.6-0.5c0-0.1,0-0.1,0-0.2
		c0-0.2,0.2-0.4,0.5-0.4c0.1,0,0.2,0,0.3,0c2.2,0,4.4,0,6.6,0c0.1,0,0.2,0,0.3,0c0.3,0.1,0.5,0.4,0.4,0.7c-0.1,0.2-0.2,0.4-0.5,0.4
		c-0.1,0-0.2,0-0.3,0L8.1,15.5z"/>
	<path id="Path_492" style="fill:#82E8FF;" d="M8.1,17.5c-0.6,0-1.2,0-1.8,0c-0.3,0-0.6-0.2-0.6-0.6c0-0.2,0.1-0.5,0.4-0.6
		c0.1,0,0.2,0,0.3,0c1.2,0,2.4,0,3.6,0c0.3,0,0.6,0.2,0.6,0.5c0,0.1,0,0.2-0.1,0.3c-0.1,0.2-0.3,0.3-0.6,0.3
		C9.3,17.5,8.7,17.5,8.1,17.5z"/>
</g>
<path id="Path_493" style="fill:#82E8FF;" d="M13.8,21.4C13.8,21.4,13.8,21.4,13.8,21.4H2.3c-0.6,0-1-0.4-1.1-0.9c0,0,0-0.1,0-0.1
	V4.7c0-0.1-0.3-0.7-0.5-0.7C0.4,4.1,0.1,4.3,0,4.7c0,1.9,0,3.7,0,5.6c0,3.3,0,6.7,0,10c0,1.1,0.8,2.1,1.9,2.2c0,0,0,0,0.1,0h12.2
	l0.1,0l0,0c0.1-0.1,0.2-0.2,0.2-0.4c0-0.1,0-0.2-0.1-0.4C14.3,21.5,14.1,21.5,13.8,21.4z"/>
</svg>
