<?xml version="1.0" encoding="utf-8"?>
<!-- Generator: Adobe Illustrator 24.3.0, SVG Export Plug-In . SVG Version: 6.00 Build 0)  -->
<svg version="1.1" id="Layer_1" xmlns="http://www.w3.org/2000/svg" xmlns:xlink="http://www.w3.org/1999/xlink" x="0px" y="0px"
	 width="138.2px" height="81.5px" viewBox="0 0 138.2 81.5" style="enable-background:new 0 0 138.2 81.5;" xml:space="preserve">
<path style="opacity:0.24;fill:#68E1FD;enable-background:new    ;" d="M134.5,52.6c-2.1,6.3-4,12.8-8.6,18
	c-0.4,0.4-0.7,0.8-1.1,1.2c-3.6,3.4-7.8,5.9-12.5,7.3c-4.6,1.5-9.5,2.3-14.3,2.3h-1.7c-4.2-0.1-8.4-0.5-12.5-1.3
	c-3.9-0.7-7.8-1.6-11.6-2.6c-1.7-0.5-3.4-0.9-5.1-1.4c-2.5-0.7-4.9-1.4-7.4-2.1c-4.5-1.3-9.1-2.4-13.8-3.3c-3.1-0.6-6.3-1-9.5-1.2
	c-1-0.1-2-0.1-3-0.2c-2.3-0.1-4.7-0.3-7-0.8c-3.4-0.9-6.7-2.2-9.7-3.9c-5.8-3-11.8-6.3-14.7-11.6c-7.1-13,7-24.8,20.5-27.2
	c3.7-0.6,7.4-0.7,10.9-1.4c1.2-0.2,2.4-0.6,3.5-1c2.6-1.1,5.1-2.5,7.5-4.2c3.9-2.6,7.6-5.3,12.3-6.6c8.9-2.4,18,1.3,27.1,3.1
	c0.8,0.2,1.6,0.3,2.5,0.4c3.3,0.5,6.7,0.7,10,0.7c5.6,0,11.2-0.3,16.7,0.1c8.9,0.6,18.5,3.6,22.8,10.4
	C140.5,35,137.3,44.3,134.5,52.6z"/>
<path style="fill:#68E1FD;" d="M122.8,9.6l-0.5,1.8L120,19l-2.5-0.6l1.5-4.9L79.4,38.8l-19.5-5.4L14.4,64l-1.5-1.8l46.5-31.3
	l19.6,5.4l38.2-24.4l-5.7,0.1l0-2.2l11.1-0.2L122.8,9.6z"/>
<linearGradient id="SVGID_1_" gradientUnits="userSpaceOnUse" x1="-564.3743" y1="435.144" x2="-563.9513" y2="433.577" gradientTransform="matrix(109.983 0 0 -54.382 62133.1289 23688.4121)">
	<stop  offset="0" style="stop-color:#010101;stop-opacity:0"/>
	<stop  offset="0.95" style="stop-color:#010101"/>
</linearGradient>
<path style="fill:url(#SVGID_1_);" d="M122.8,9.6l-0.5,1.8L120,19l-2.5-0.6l1.5-4.9L79.4,38.8l-19.5-5.4L14.4,64l-1.5-1.8l46.5-31.3
	l19.6,5.4l38.2-24.4l-5.7,0.1l0-2.2l11.1-0.2L122.8,9.6z"/>
<linearGradient id="SVGID_2_" gradientUnits="userSpaceOnUse" x1="-466.5751" y1="386.6218" x2="-464.4361" y2="383.2748" gradientTransform="matrix(5.523 0 0 -6.472 2621.3472 2540.6169)">
	<stop  offset="0" style="stop-color:#010101;stop-opacity:0"/>
	<stop  offset="0.95" style="stop-color:#010101"/>
</linearGradient>
<path style="fill:url(#SVGID_2_);" d="M48.8,38l0,2.8l-5.5,3.6l1.3-3.6L48.8,38z"/>
<linearGradient id="SVGID_3_" gradientUnits="userSpaceOnUse" x1="-466.5685" y1="385.5372" x2="-464.4896" y2="382.2212" gradientTransform="matrix(5.523 0 0 -6.348 2671.4229 2471.4087)">
	<stop  offset="0" style="stop-color:#010101;stop-opacity:0"/>
	<stop  offset="0.95" style="stop-color:#010101"/>
</linearGradient>
<path style="fill:url(#SVGID_3_);" d="M98.8,23.6l0,2.7l-5.5,3.6l1.3-3.6L98.8,23.6z"/>
<path style="fill:#68E1FD;" d="M45.9,18.2v52.6c-3.1-0.6-6.3-1-9.5-1.2c-1-0.1-2-0.1-3-0.2V18.2H45.9z"/>
<path style="fill:#68E1FD;" d="M72.2,38.1v39.5c-1.7-0.5-3.4-0.9-5.1-1.4c-2.5-0.7-4.9-1.4-7.4-2.1v-36H72.2z"/>
<path style="fill:#68E1FD;" d="M96.3,5.9v75.6c-4.2-0.1-8.4-0.5-12.5-1.3V5.9H96.3z"/>
<path style="fill:#68E1FD;" d="M124.8,26.8v45c-3.6,3.4-7.8,5.9-12.5,7.3V26.8H124.8z"/>
<path style="fill:#68E1FD;" d="M43.4,6.3c0.9,0.8,1.5,2,1.5,3.2c0.2,0.9,0.2,1.7,0,2.6c-0.2,0.9-0.6,1.7-1.3,2.3
	c-0.1,0.1-0.1,0.1-0.2,0.1c-0.2,0-0.3,0-0.5-0.1c-0.2-0.1-0.4-0.3-0.5-0.5c-0.3-0.5,0.2-1,0.4-1.6c0.4-1.1,0.4-2.3-0.1-3.4
	c-0.2-0.5-0.7-3.1,0-3C43,5.9,43,6,43.4,6.3z"/>
<linearGradient id="SVGID_4_" gradientUnits="userSpaceOnUse" x1="-394.2401" y1="400.4268" x2="-397.4641" y2="399.8638" gradientTransform="matrix(3.3333 0 0 -8.5572 1370.6963 3431.0222)">
	<stop  offset="0" style="stop-color:#010101;stop-opacity:0"/>
	<stop  offset="0.95" style="stop-color:#010101"/>
</linearGradient>
<path style="fill:url(#SVGID_4_);" d="M43.1,7.2c0.8,0.9,1.1,2.2,0.9,3.4c0,0.9-0.2,1.7-0.5,2.6c-0.3,0.9-0.9,1.6-1.7,2.1
	c-0.1,0-0.1,0.1-0.2,0.1c-0.2,0-0.3-0.1-0.4-0.2c-0.2-0.1-0.3-0.3-0.4-0.5c-0.2-0.5,0.4-1,0.7-1.5c0.6-1,0.8-2.2,0.5-3.4
	c-0.1-0.5-0.2-3.1,0.6-2.9C42.8,6.8,42.8,6.8,43.1,7.2z"/>
<linearGradient id="SVGID_5_" gradientUnits="userSpaceOnUse" x1="-307.8042" y1="383.0674" x2="-304.9112" y2="383.4434" gradientTransform="matrix(2.1738 0 0 -6.1321 711.0688 2370.5264)">
	<stop  offset="0" style="stop-color:#010101;stop-opacity:0"/>
	<stop  offset="0.95" style="stop-color:#010101"/>
</linearGradient>
<path style="fill:url(#SVGID_5_);" d="M43.1,23.4c-0.1,0.3,0,0.6,0.2,0.9c0.5-0.3,0.8-0.9,0.8-1.5c0.1-1.1,0.1-2.3-0.1-3.4
	c0-0.2-0.1-0.4-0.2-0.5c-0.2-0.2-0.4-0.4-0.7-0.5c-0.2-0.1-0.4-0.1-0.6-0.1c-0.2,0-0.4,0.1-0.5,0.3c0,0.1,0,0.2,0,0.3
	c0.1,0.4,0.2,0.8,0.4,1.1c0.2,0.3,0.4,0.6,0.4,0.9C43.1,21.6,43.2,22.5,43.1,23.4z"/>
<linearGradient id="SVGID_6_" gradientUnits="userSpaceOnUse" x1="-467.7888" y1="384.7285" x2="-465.5818" y2="385.5705" gradientTransform="matrix(5.5932 0 0 -6.3121 2652.7791 2450.0898)">
	<stop  offset="0" style="stop-color:#010101;stop-opacity:0"/>
	<stop  offset="0.95" style="stop-color:#010101"/>
</linearGradient>
<path style="fill:url(#SVGID_6_);" d="M35.3,19.2c0.5,0.3,1,0.4,1.5,0.4c0.2,0,0.4,0,0.6,0c0.5,0,1,0.4,1,0.9c0,0.4,0,0.7,0,1.1
	c-0.1,0.9,0,1.7,0.4,2.5c0.1,0.2,0.2,0.3,0.4,0.3c0.1,0,0.2,0,0.3-0.1c0.3-0.2,0.4-0.4,0.5-0.7c0.1-0.3,0.1-0.6,0.1-0.9
	c0-1.1-0.2-2.3-0.6-3.3c-0.1-0.1-0.1-0.2-0.2-0.3c-0.4-0.4-0.8-0.7-1.4-0.8c-0.6-0.1-1.1-0.1-1.7-0.1c-0.3,0-0.5,0-0.8,0
	c-0.3,0-0.5,0-0.8,0C34.4,18.4,35.2,19.1,35.3,19.2z"/>
<path style="fill:#606161;" d="M46.6,18.6c-0.3,2.4-1,4.7-1.9,6.9c-0.3,0.2-0.8-0.1-1.1-0.2l-0.1-0.1c-0.2-0.2,0.1-4.4,0.1-4.4
	c0-0.9-0.3-1.8-1-2.3c-1.3-0.9-2.8-1.8-2.7-2.5c0-0.1,0.1-0.2,0.1-0.3c0.7-0.7,4.4-0.2,5.1,0.3l0,0c0,0,0,0,0,0c0,0,0,0,0.1,0.1
	s0.2,0.2,0.3,0.3c0.3,0.3,0.5,0.7,0.7,1.1C46.4,17.9,46.6,18.2,46.6,18.6z"/>
<linearGradient id="SVGID_7_" gradientUnits="userSpaceOnUse" x1="-480.2119" y1="404.6931" x2="-481.6819" y2="405.1611" gradientTransform="matrix(6.406 0 0 -9.742 3121.2512 3963.5579)">
	<stop  offset="0" style="stop-color:#010101;stop-opacity:0"/>
	<stop  offset="0.95" style="stop-color:#010101"/>
</linearGradient>
<path style="fill:url(#SVGID_7_);" d="M46.2,17.5c0,0.3-2.5-0.2-2.9,0.3s0.4,0.3,0.6,1.4c0.2,2,0.1,4-0.3,6c0,0.1-0.1,0.1-0.2,0.2
	l-0.1-0.1c-0.2-0.2,0.1-4.4,0.1-4.4c0-0.9-0.3-1.8-1-2.3c0.1-0.6-0.2-1.2-0.6-1.5c-0.6-0.4-1.3-0.7-2.1-1c1-0.3,2-0.4,3-0.4
	c0.8,0,1.6,0.2,2.3,0.5l0,0c0,0,0,0,0,0c0,0,0,0,0.1,0.1s0.2,0.2,0.3,0.3C45.8,16.8,46.1,17.1,46.2,17.5z"/>
<path style="fill:#606161;" d="M41.5,25.1c-0.1,0.3-0.4,0.7-0.6,0.9c-0.3,0.3-0.8,0.3-1.1,0.1c-0.3-0.3-0.5-0.7-0.5-1.1
	c-0.1-1.4-0.1-3.8-0.3-5.2c0-0.2-0.1-0.3-0.2-0.4l0,0c-0.2-0.1-0.4-0.2-0.7-0.3c-0.5-0.1-1-0.3-1.5-0.5c-0.2-0.1-0.3-0.2-0.4-0.3
	c-0.9-1.1-1-2.6-0.4-3.8c0.2-0.3,0.5-0.5,0.9-0.5c1.2-0.1,3.2,0.5,3.7,1.4c0.1,0.3,0.3,0.6,0.4,0.9c0.4,0.5,1.1,0.6,1.5,1.1
	c0.2,0.2,0.3,0.5,0.3,0.8C43,20.5,42.6,23,41.5,25.1z"/>
<linearGradient id="SVGID_8_" gradientUnits="userSpaceOnUse" x1="-414.1752" y1="371.1808" x2="-416.2662" y2="371.3198" gradientTransform="matrix(3.6752 0 0 -5.092 1560.2269 1907.1166)">
	<stop  offset="0" style="stop-color:#010101;stop-opacity:0"/>
	<stop  offset="0.95" style="stop-color:#010101"/>
</linearGradient>
<path style="fill:url(#SVGID_8_);" d="M39,19.1c0.1,0.1,0.1,0.3,0,0.4c-0.1,0-0.1-0.1-0.2-0.1l0,0c-0.2-0.1-0.4-0.2-0.7-0.3
	c-0.3-0.1-0.7-0.2-1-0.3c-0.2-0.1-0.4-0.1-0.5-0.2c-0.2-0.1-0.3-0.2-0.4-0.3c-0.9-1.1-1-2.6-0.4-3.8c0.6,0.1,1.3,0.3,1.9,0.5
	c0.3,0.1,0.7,0.3,1,0.5c0.2,0.1,0.7,0.3,0.3,0.5c-0.5,0.3-1.4-0.2-1.7,0.2c-0.1,0.1-0.1,0.2-0.1,0.3c0,0.2,0,0.4-0.1,0.6
	c0,0.2,0,0.3,0,0.5c0.1,0.2,0.3,0.4,0.5,0.5c0.4,0.2,0.8,0.4,1.1,0.7C38.8,18.8,38.9,19,39,19.1L39,19.1z"/>
<path style="fill:#606161;" d="M39.7,27.8c0.1,0.1,0.3,0.2,0.5,0.3l0.7,0.4c0.3,0.1,0.6,0.3,0.9,0.1s0.2-0.4,0.1-0.7
	c-0.1-0.4-0.4-0.7-0.7-0.9c-0.1,0-0.1-0.1-0.2-0.2c0-0.1,0-0.1,0-0.2V26c0-0.7-1.1-0.6-1.4-0.2C39.2,26.5,39.3,27.3,39.7,27.8z"/>
<path style="fill:#606161;" d="M43.4,27c0.2,0.3,0.5,0.4,0.8,0.6c0.3,0.1,0.6,0.2,0.9,0.3c0.1,0.1,0.3,0,0.4,0
	c0.1,0,0.1-0.1,0.1-0.2c0.1-0.4,0-0.9-0.4-1.2c-0.2-0.1-0.3-0.2-0.4-0.4c-0.1-0.2-0.2-0.5-0.1-0.7c-0.1-0.6-1.1-0.4-1.3-0.1
	C43.2,25.8,43.2,26.4,43.4,27z"/>
<path style="fill:#68E1FD;" d="M35.5,13.9c0,0.2,0,0.5,0.2,0.7c0.1,0.1,0.3,0.2,0.5,0.3c0.9,0.5,1.9,0.8,2.9,1c1,0.2,2.1,0,3-0.5
	c0.3-0.2,0.5-0.4,0.7-0.8c0.1-0.4,0.1-0.8,0-1.2c0-1,0.2-2,0.6-2.9c0.3-0.9,0.3-2-0.1-2.9C42.9,7,43.7,6.4,43,6
	c-1.2-0.7-2.6-0.9-3.9-0.7c-0.7,0.1-2.9,0.9-3.1,1.4s0.5,1.1,0.4,1.7C35.9,10.2,35.6,12.1,35.5,13.9z"/>
<linearGradient id="SVGID_9_" gradientUnits="userSpaceOnUse" x1="-414.1706" y1="370.0099" x2="-417.1316" y2="369.39" gradientTransform="matrix(3.6774 0 0 -5.0063 1561.5988 1862.8191)">
	<stop  offset="0" style="stop-color:#010101;stop-opacity:0"/>
	<stop  offset="0.95" style="stop-color:#010101"/>
</linearGradient>
<path style="fill:url(#SVGID_9_);" d="M36.8,10.7c0-0.3,0.3-0.5,0.5-0.7c0.4-0.4,0.6-0.9,0.5-1.4c0-0.3-0.2-0.6-0.5-0.6
	c-0.1,0-0.1,0-0.2,0.1c-0.7,0.4-1.3,1.1-1.5,1.9c-0.1,0.3-0.1,0.6-0.1,0.8c0.1,0.4,0.4,0.7,0.7,0.9c0.6,0.5,1.4,0.9,2.2,1.2
	c0.2,0.1,0.9,0.3,0.7-0.1C39,12.6,36.8,11,36.8,10.7z"/>
<linearGradient id="SVGID_10_" gradientUnits="userSpaceOnUse" x1="-376.8109" y1="287.7909" x2="-378.9519" y2="288.3459" gradientTransform="matrix(2.961 0 0 -2.3306 1153.2286 684.9087)">
	<stop  offset="0" style="stop-color:#010101;stop-opacity:0"/>
	<stop  offset="0.95" style="stop-color:#010101"/>
</linearGradient>
<path style="fill:url(#SVGID_10_);" d="M36.8,14.1C36.8,14,36.9,14,36.8,14.1C36.9,14,37,14,37.1,14c0.3,0,0.6,0,1,0
	c0.1,0,0.2,0,0.3-0.1c0.1,0,0.1-0.1,0.1-0.2c0-0.1-0.2-0.1-0.3-0.1c-0.4-0.1-0.7-0.2-1-0.3c-0.3-0.2-0.6-0.3-0.9-0.4
	c-0.2-0.1-0.6,0-0.7,0.2c0,0,0,0.1,0,0.2l0,0.6c0,0.2,0,0.5,0.1,0.7c0.2,0.3,0.5,0.5,0.9,0.6c0.1,0,0.2,0.1,0.3,0
	C36.6,14.8,36.6,14.4,36.8,14.1z"/>
<linearGradient id="SVGID_11_" gradientUnits="userSpaceOnUse" x1="-442.0619" y1="193.6431" x2="-443.3679" y2="192.0331" gradientTransform="matrix(4.501 0 0 -1.4379 2033.001 291.4539)">
	<stop  offset="0" style="stop-color:#010101;stop-opacity:0"/>
	<stop  offset="0.95" style="stop-color:#010101"/>
</linearGradient>
<path style="fill:url(#SVGID_11_);" d="M37.4,13.9l4.3,0.2l0.2,0.1c0,0-0.4,1.3-1.2,1.2C39.6,15,38.5,14.5,37.4,13.9z"/>
<path style="fill:#68E1FD;" d="M39.3,14.6l2.1,0c0,0-0.4,0.6-0.8,0.7L39.3,14.6z"/>
<linearGradient id="SVGID_12_" gradientUnits="userSpaceOnUse" x1="-296.8979" y1="-77.3801" x2="-296.9479" y2="-79.3771" gradientTransform="matrix(2.091 0 0 -0.689 661.2059 -38.8731)">
	<stop  offset="0" style="stop-color:#010101;stop-opacity:0"/>
	<stop  offset="0.95" style="stop-color:#010101"/>
</linearGradient>
<path style="fill:url(#SVGID_12_);" d="M39.3,14.6l2.1,0c0,0-0.4,0.6-0.8,0.7L39.3,14.6z"/>
<path style="fill:#68E1FD;" d="M35.5,7c-0.7,0.7-1.3,1.4-1.8,2.2c-0.4,0.5-0.6,1.2-0.6,1.8c0.1,0.6,0.5,1.1,1,1.4
	c0.5,0.3,1.1,0.6,1.7,0.8l1.8,0.6c0.1,0.1,0.3,0.1,0.4,0.1c0.4-0.1,0.6-0.4,0.5-0.7c0-0.1,0-0.2-0.1-0.2c-0.3-0.4-0.6-0.7-0.9-0.9
	c-0.3-0.3-1.3-0.8-1.4-1.2c0-0.1,0-0.2,0-0.2c0-0.1,0.1-0.2,0.2-0.2c1-0.8,2.4-2.3,2.1-3.5C38.1,5.5,36.3,6.2,35.5,7z"/>
<path style="fill:#F4A982;" d="M39.9,7.2c0.4,0.2,0.9,0.1,1.2-0.1c0.2-0.1,0.3-0.3,0.3-0.5C41.5,6,41,5.5,41,5
	c0-0.3,0.2-0.5,0.1-0.8C41,4,39.7,3.7,39.6,3.9C39.3,5.5,38.4,6.5,39.9,7.2z"/>
<linearGradient id="SVGID_13_" gradientUnits="userSpaceOnUse" x1="-180.0178" y1="276.4977" x2="-174.7888" y2="280.2576" gradientTransform="matrix(1.4611 0 0 -2.1753 302.6468 607.422)">
	<stop  offset="0" style="stop-color:#010101;stop-opacity:0"/>
	<stop  offset="0.95" style="stop-color:#010101"/>
</linearGradient>
<path style="fill:url(#SVGID_13_);" d="M39.8,4c0,0-0.1,2.3,1.3,2.2c0,0,0.2,0,0.2-0.3S40.9,5.2,40.9,5S39.8,4,39.8,4z"/>
<path style="fill:#F4A982;" d="M43.4,2.5c-0.2,0.7-0.5,1.3-0.9,1.9C42.3,4.7,42,5,41.7,5.2c-0.3,0.2-0.8,0.3-1.1,0.1
	C40.3,5.2,40,5,39.9,4.6c-0.2-0.5-0.4-1-0.4-1.5c0-0.5,0.3-1.6,1.2-1.2c0.2,0.1,0.3,0.2,0.5,0.3c0.2,0.1,0.5,0.2,0.8,0
	c0.1,0,0.2-0.1,0.3-0.1c0,0,0.1,0,0.1,0.1c0.2,0.1,0.5,0.1,0.7,0C43.2,2.4,43.3,2.5,43.4,2.5z"/>
<path style="fill:#F4A982;" d="M40.9,13.6c0.1,0.2,0.2,0.5,0.1,0.7c0,0,0,0.1,0,0.1c0,0.1-0.1,0.1-0.2,0.1c-0.5,0.2-1-0.2-1.6-0.3
	c-0.1,0-0.3,0-0.4,0c-0.2,0-0.3-0.1-0.5-0.2c-0.2-0.1-0.3-0.2-0.5-0.3c-0.4-0.2-0.2-0.6,0.1-0.9c0.2-0.2,0.5-0.2,0.8-0.1
	C39.4,13.2,40.4,13.1,40.9,13.6z"/>
<path style="fill:#F4A982;" d="M44.1,13.7c0.1,0,0.1,0.1,0.1,0.1c0,0,0,0.1,0,0.2c0,0.3-0.2,0.6-0.4,0.8c-0.1,0.1-0.2,0.2-0.3,0.2
	c-0.3,0-0.5-0.2-0.7-0.3s-0.6,0-0.8-0.1c-0.2-0.1-0.3-0.3-0.3-0.5c0-0.4,0.7-0.6,1-0.7C43.2,13.3,43.7,13.4,44.1,13.7z"/>
<path style="fill:#68E1FD;" d="M43,12.5c0.1-0.2,0.2-0.4,0.5-0.5c0.1,0,0.2,0,0.3,0c2.2-0.1,4.4-0.1,6.6,0.2c0,0.1,0,0.3-0.1,0.3
	c-1,1.2-2.1,2.4-3.3,3.5c-0.1,0.1-0.2,0.1-0.3,0.2c-0.1,0-0.3,0.1-0.4,0c-0.4,0-0.7-0.1-1.1-0.1c-1.4-0.2-2.8-0.3-4.2-0.3
	c-0.3,0-0.7,0-1-0.1c-0.2-0.1-0.4-0.2-0.7-0.3c-0.7-0.3-1.4-0.8-2.1-1.2c0,0-0.1-0.1-0.1-0.1s0.1-0.1,0.1-0.1c0.7-0.2,1,0.3,1.7,0.6
	c0.5,0.3,1,0.5,1.5,0.7c0.4,0.1,0.9-0.5,1.1-0.8C42.1,13.9,42.6,13.3,43,12.5z"/>
<linearGradient id="SVGID_14_" gradientUnits="userSpaceOnUse" x1="-526.2445" y1="357.9363" x2="-526.7285" y2="361.8493" gradientTransform="matrix(13.2091 0 0 -4.3162 6996.2798 1561.7004)">
	<stop  offset="0" style="stop-color:#010101;stop-opacity:0"/>
	<stop  offset="0.95" style="stop-color:#010101"/>
</linearGradient>
<path style="fill:url(#SVGID_14_);" d="M50.2,12.5c-0.1,0.1-0.2,0.3-0.4,0.4c-0.9,1.1-1.9,2.1-3,3.1c-0.1,0.1-0.2,0.1-0.3,0.2
	c-0.1,0-0.3,0-0.4,0c-0.4,0-0.7-0.1-1.1-0.1c-1.3-0.2-2.7-0.3-4-0.3c-0.1,0-0.1,0-0.2,0h-0.4c-0.2,0-0.4,0-0.6-0.1
	c-0.2-0.1-0.5-0.2-0.7-0.3c-0.5-0.2-1-0.5-1.4-0.8c-0.2-0.1-0.5-0.3-0.7-0.5c-0.1,0-0.1-0.1-0.1-0.1c0-0.1,0.1-0.1,0.1-0.1
	c0.7-0.2,0.9,0.2,1.5,0.5c0.5,0.3,1.1,0.6,1.6,0.8c0.4,0.1,0.9-0.5,1.1-0.8c0.6-0.6,1.1-1.3,1.5-2c0.1-0.2,0.2-0.4,0.4-0.5
	c0.1,0,0.2,0,0.3-0.1c2.2-0.1,4.4-0.1,6.6,0.2C50.3,12.3,50.3,12.4,50.2,12.5z"/>
<linearGradient id="SVGID_15_" gradientUnits="userSpaceOnUse" x1="-506.3911" y1="349.6166" x2="-507.0211" y2="353.4636" gradientTransform="matrix(9.045 0 0 -3.9187 4626.812 1386.3782)">
	<stop  offset="0" style="stop-color:#010101;stop-opacity:0"/>
	<stop  offset="0.95" style="stop-color:#010101"/>
</linearGradient>
<path style="fill:url(#SVGID_15_);" d="M50.2,12.5c-1,1.2-2.1,2.4-3.3,3.5c-0.1,0.1-0.2,0.1-0.3,0.2c-0.1,0-0.3,0-0.4,0
	c-0.4,0-0.7-0.1-1.1-0.1c-1.3-0.2-2.7-0.3-4-0.3c0.2-0.1,0.3-0.3,0.5-0.5c0.6-0.6,1.1-1.3,1.4-2c0.2-0.4,0.5-0.7,0.8-0.9
	c0.1,0,0.2,0,0.3,0C46.2,12.3,48.2,12.3,50.2,12.5L50.2,12.5z"/>
<path style="fill:#606161;" d="M44.2,1.9c0.3-0.1,0.5-0.5,0.4-0.8c0,0,0-0.1-0.1-0.1c-0.3-0.3-0.6-0.5-1.1-0.5c-0.1,0-0.1,0-0.2,0
	c0,0-0.1-0.1-0.1-0.1C43,0.1,42.7,0,42.5,0c-0.3,0-0.5,0-0.8,0.1c-0.2,0.1-0.4,0.2-0.5,0.3c-0.2,0-0.4,0.1-0.7,0.1
	c-0.3,0-0.5,0.2-0.7,0.4c0,0.1-0.1,0.2-0.1,0.2c-0.1,0-0.1,0.1-0.2,0.1c-0.2,0.2-0.4,0.4-0.4,0.7c0,0.3,0.1,0.5,0.2,0.8
	c0,0.1,0,0.1,0.1,0.1c0.1,0.1,0.4,0.3,0.5,0.2c0.1-0.2,0.1-0.6,0.3-0.7s0.2,0.1,0.4,0.2c0.2,0.1,0.4,0.1,0.7,0.1
	c0.1,0,0.2-0.1,0.3-0.1c0.1,0,0.2,0,0.3,0c0.2,0.1,0.2,0.3,0.4,0.5C42.4,3,42.7,3,42.8,2.8C42.9,2.9,42.9,3,43,3
	c0.1,0.1,0.2,0.1,0.3,0c0,0,0.1-0.1,0.1-0.2c0.1,0,0.1-0.1,0.2-0.1c0.1,0,0.2,0,0.3,0c0.2,0,0.4-0.2,0.5-0.4
	C44.6,2.2,44.5,1.9,44.2,1.9C44.2,1.9,44.2,1.9,44.2,1.9z"/>
<path style="fill:#F4A982;" d="M39.6,2.7c0,0-0.1,0-0.1,0c-0.1,0-0.1,0-0.1,0.1c0,0,0,0.1,0,0.2c0,0.1,0,0.2,0,0.2
	c0,0.2,0.1,0.3,0.3,0.3c0.1,0,0.3,0,0.3-0.2C40,3.1,39.8,2.8,39.6,2.7z"/>
<linearGradient id="SVGID_16_" gradientUnits="userSpaceOnUse" x1="1220.2555" y1="-324.2536" x2="1224.8156" y2="-323.8806" gradientTransform="matrix(0.3184 0 0 -0.4675 -349.0829 -148.4774)">
	<stop  offset="0" style="stop-color:#010101;stop-opacity:0"/>
	<stop  offset="0.95" style="stop-color:#010101"/>
</linearGradient>
<path style="fill:url(#SVGID_16_);" d="M39.6,3.1c0,0,0-0.1,0-0.1s-0.1-0.1-0.2-0.1c0,0,0,0,0,0c-0.1,0.1-0.1,0.2,0,0.3
	c0,0,0,0.1,0.1,0.1c0.1,0.1,0.1,0.1,0.2,0C39.7,3.3,39.7,3.3,39.6,3.1C39.7,3.2,39.7,3.2,39.6,3.1z"/>
<linearGradient id="SVGID_17_" gradientUnits="userSpaceOnUse" x1="-118.0538" y1="434.5627" x2="-210.4258" y2="433.8137" gradientTransform="matrix(1.283 0 0 -51.176 194.699 22280.0195)">
	<stop  offset="0" style="stop-color:#010101;stop-opacity:0"/>
	<stop  offset="0.95" style="stop-color:#010101"/>
</linearGradient>
<rect x="33.4" y="18.2" style="fill:url(#SVGID_17_);" width="1.3" height="51.2"/>
<linearGradient id="SVGID_18_" gradientUnits="userSpaceOnUse" x1="-168.6843" y1="431.7344" x2="-228.5933" y2="430.9694" gradientTransform="matrix(1.439 0 0 -36.435 309.9244 15784.3145)">
	<stop  offset="0" style="stop-color:#010101;stop-opacity:0"/>
	<stop  offset="0.95" style="stop-color:#010101"/>
</linearGradient>
<path style="fill:url(#SVGID_18_);" d="M59.7,74.1l1.4,0.4V38h-1.4V74.1z"/>
<linearGradient id="SVGID_19_" gradientUnits="userSpaceOnUse" x1="-104.0624" y1="436.7617" x2="-238.6094" y2="436.0317" gradientTransform="matrix(1.253 0 0 -74.655 228.1317 32645.3008)">
	<stop  offset="0" style="stop-color:#010101;stop-opacity:0"/>
	<stop  offset="0.95" style="stop-color:#010101"/>
</linearGradient>
<path style="fill:url(#SVGID_19_);" d="M83.9,79.9l1.3,0.5V5.8h-1.3V79.9z"/>
<linearGradient id="SVGID_20_" gradientUnits="userSpaceOnUse" x1="-107.9055" y1="434.7136" x2="-204.0915" y2="433.9666" gradientTransform="matrix(1.255 0 0 -52.279 257.6788 22776.1523)">
	<stop  offset="0" style="stop-color:#010101;stop-opacity:0"/>
	<stop  offset="0.95" style="stop-color:#010101"/>
</linearGradient>
<path style="fill:url(#SVGID_20_);" d="M112.3,79.1l1.3-0.4V26.8h-1.3V79.1z"/>
<path style="fill:#68E1FD;" d="M115.6,15.2c-0.4,1.2-0.5,2.4-0.5,3.6c-0.1,0.9-1.3,2.1-1.1,2.9s0.8,0.5,1.5,1.1
	c0.1,0.1,0.1,0.1,0.2,0.1c0.2,0,0.3,0,0.5-0.1c0.2-0.1,0.4-0.3,0.5-0.5c0.3-0.5,0.2-0.4-0.1-1c-0.5-1.1,0.4-2,0.8-3.1
	c0.2-0.5-0.3-4-1.1-3.9C116,14.6,115.7,14.9,115.6,15.2z"/>
<linearGradient id="SVGID_21_" gradientUnits="userSpaceOnUse" x1="-183.3397" y1="360.3069" x2="-178.3387" y2="360.5519" gradientTransform="matrix(1.4734 0 0 -4.4115 385.4713 1609.1801)">
	<stop  offset="0" style="stop-color:#010101;stop-opacity:0"/>
	<stop  offset="0.95" style="stop-color:#010101"/>
</linearGradient>
<path style="fill:url(#SVGID_21_);" d="M115.7,21.1c0-0.2,0-0.4,0-0.6c0-0.1,0.1-0.3,0.1-0.4c0.1-0.5,0-1,0.1-1.5
	c0.1-0.5,0.5-1,0.9-1.3c0.3,0.6,0.3,1.3,0.2,2c-0.1,0.2-0.2,0.4-0.3,0.5c-0.1,0.3-0.2,0.6-0.2,0.9c0,0.2,0.1,0.6,0.1,0.8
	C116.3,22.1,115.7,21.5,115.7,21.1z"/>
<linearGradient id="SVGID_22_" gradientUnits="userSpaceOnUse" x1="-374.2641" y1="374.4187" x2="-371.3721" y2="374.7947" gradientTransform="matrix(2.1747 0 0 -6.1321 784.566 2379.0854)">
	<stop  offset="0" style="stop-color:#010101;stop-opacity:0"/>
	<stop  offset="0.95" style="stop-color:#010101"/>
</linearGradient>
<path style="fill:url(#SVGID_22_);" d="M116.1,31.9c0.1,0.3,0,0.6-0.2,0.9c-0.5-0.3-0.8-0.9-0.8-1.5c-0.1-1.1-0.1-2.3,0.1-3.4
	c0-0.2,0.1-0.4,0.2-0.5c0.2-0.2,0.5-0.4,0.7-0.5c0.2-0.1,0.4-0.1,0.6-0.1c0.2,0,0.4,0.1,0.5,0.3c0,0.1,0,0.2,0,0.3
	c-0.1,0.4-0.2,0.8-0.4,1.1c-0.2,0.3-0.4,0.6-0.4,0.9C116,30.2,116,31.1,116.1,31.9L116.1,31.9z"/>
<linearGradient id="SVGID_23_" gradientUnits="userSpaceOnUse" x1="-492.4891" y1="375.3163" x2="-490.2801" y2="376.1593" gradientTransform="matrix(5.5919 0 0 -6.3079 2736.3503 2456.8145)">
	<stop  offset="0" style="stop-color:#010101;stop-opacity:0"/>
	<stop  offset="0.95" style="stop-color:#010101"/>
</linearGradient>
<path style="fill:url(#SVGID_23_);" d="M123.8,27.8c-0.5,0.3-1,0.4-1.5,0.4c-0.2,0-0.4,0-0.6,0c-0.5,0-1,0.4-1,0.9
	c0,0.4,0,0.7,0,1.1c0.1,0.9-0.1,1.7-0.4,2.5c-0.1,0.2-0.2,0.3-0.4,0.3c-0.1,0-0.2,0-0.3-0.1c-0.3-0.2-0.4-0.4-0.5-0.7
	c-0.1-0.3-0.1-0.6-0.1-0.9c0-1.1,0.2-2.3,0.6-3.3c0.1-0.1,0.1-0.2,0.2-0.3c0.4-0.4,0.8-0.7,1.4-0.8c0.6-0.1,1.1-0.1,1.7-0.1
	c0.3,0,0.5,0,0.8,0c0.3,0,0.5,0,0.8,0C124.7,26.9,124,27.6,123.8,27.8z"/>
<path style="fill:#606161;" d="M112.5,27.2c0.3,2.4,1,4.7,1.9,6.9c0.3,0.2,0.8-0.1,1.1-0.2c0.1,0,0.1-0.1,0.1-0.1
	c0.2-0.2-0.1-4.4-0.1-4.4c0-0.9,0.3-1.8,1-2.3c1.3-0.9,2.8-1.8,2.7-2.5c0-0.1-0.1-0.2-0.1-0.3c-0.7-0.7-4.4-0.2-5.1,0.3l0,0
	c0,0,0,0,0,0c0,0-0.1,0.1-0.1,0.1c-0.1,0.1-0.2,0.2-0.3,0.3c-0.3,0.3-0.5,0.7-0.7,1C112.7,26.4,112.6,26.8,112.5,27.2z"/>
<linearGradient id="SVGID_24_" gradientUnits="userSpaceOnUse" x1="-500.9915" y1="411.312" x2="-502.4626" y2="411.78" gradientTransform="matrix(6.403 0 0 -9.739 3192.6272 3970.7852)">
	<stop  offset="0" style="stop-color:#010101;stop-opacity:0"/>
	<stop  offset="0.95" style="stop-color:#010101"/>
</linearGradient>
<path style="fill:url(#SVGID_24_);" d="M112.9,26.1c0,0.3,2.5-0.2,2.9,0.3s-0.4,0.3-0.6,1.4c-0.2,2-0.1,4,0.3,6
	c0,0.1,0.1,0.1,0.2,0.2c0.1,0,0.1-0.1,0.1-0.1c0.2-0.2-0.1-4.4-0.1-4.4c0-0.9,0.3-1.7,1-2.3c-0.1-0.6,0.2-1.2,0.6-1.5
	c0.6-0.4,1.3-0.7,2-1c-1-0.3-2-0.4-3-0.4c-0.8,0-1.6,0.2-2.3,0.5l0,0c0,0,0,0,0,0c0,0-0.1,0.1-0.1,0.1c-0.1,0.1-0.2,0.2-0.3,0.3
	C113.4,25.3,113.1,25.7,112.9,26.1z"/>
<path style="fill:#606161;" d="M117.6,33.7c0.1,0.3,0.4,0.7,0.6,0.9c0.3,0.3,0.8,0.3,1.1,0.1c0.4-0.2,0.3-0.7,0.2-1.1
	c-0.1-1.6,0-3.3,0.1-4.9c0-0.2,0.5-0.6,0.7-0.7l0,0c0.2-0.1,0.4-0.2,0.7-0.3c0.5-0.1,1-0.3,1.5-0.5c0.2-0.1,0.3-0.2,0.4-0.3
	c0.9-1.1,1-2.6,0.4-3.8c-0.2-0.3-0.5-0.5-0.9-0.5c-1.2-0.1-3.2,0.5-3.7,1.4c-0.1,0.3-0.3,0.6-0.4,0.9c-0.4,0.5-1.1,0.6-1.5,1.1
	c-0.2,0.2-0.3,0.5-0.3,0.8C116.2,29.1,116.6,31.5,117.6,33.7z"/>
<linearGradient id="SVGID_25_" gradientUnits="userSpaceOnUse" x1="-456.9193" y1="373.977" x2="-459.0092" y2="374.116" gradientTransform="matrix(3.6754 0 0 -5.089 1645.0868 1914.3517)">
	<stop  offset="0" style="stop-color:#010101;stop-opacity:0"/>
	<stop  offset="0.95" style="stop-color:#010101"/>
</linearGradient>
<path style="fill:url(#SVGID_25_);" d="M120.2,27.7c-0.1,0.1-0.1,0.3,0,0.4c0.1,0,0.1-0.1,0.2-0.1l0,0c0.2-0.1,0.4-0.2,0.7-0.3
	c0.3-0.1,0.7-0.2,1-0.4c0.2-0.1,0.4-0.1,0.5-0.2c0.2-0.1,0.3-0.2,0.4-0.3c0.9-1.1,1-2.6,0.4-3.8c-0.6,0.1-1.3,0.3-1.9,0.5
	c-0.3,0.1-0.7,0.3-1,0.5c-0.2,0.1-0.7,0.3-0.3,0.5c0.5,0.3,1.4-0.2,1.7,0.2c0.1,0.1,0.1,0.2,0.1,0.3c0,0.2,0,0.4,0,0.6
	c0.1,0.4-0.1,0.8-0.5,1c-0.4,0.2-0.8,0.4-1.1,0.7C120.4,27.4,120.3,27.5,120.2,27.7z"/>
<path style="fill:#606161;" d="M119.4,36.4c-0.1,0.1-0.3,0.2-0.5,0.3l-0.7,0.4c-0.3,0.1-0.6,0.3-0.9,0.1s-0.2-0.4-0.1-0.7
	c0.1-0.4,0.4-0.7,0.7-0.9c0.1,0,0.1-0.1,0.2-0.2c0-0.1,0-0.1,0-0.2v-0.7c0-0.7,1.1-0.6,1.4-0.2C119.9,35,119.9,35.8,119.4,36.4z"/>
<path style="fill:#606161;" d="M115.7,35.5c-0.2,0.3-0.5,0.4-0.8,0.5c-0.3,0.1-0.6,0.2-0.9,0.3c-0.1,0-0.3,0-0.4,0
	c-0.1,0-0.1-0.1-0.1-0.2c-0.1-0.4,0-0.9,0.4-1.2c0.2-0.1,0.3-0.2,0.4-0.4c0.1-0.2,0.2-0.5,0.1-0.8c0.1-0.6,1.1-0.4,1.3-0.1
	C116,34.4,116,35,115.7,35.5z"/>
<path style="fill:#68E1FD;" d="M123.7,22.5c0,0.2,0,0.5-0.2,0.6c-0.1,0.1-0.3,0.3-0.5,0.3c-0.9,0.5-1.9,0.8-2.9,1
	c-1,0.2-2.1,0-3-0.5c-0.3-0.2-0.5-0.4-0.7-0.8c-0.1-0.4-0.1-0.8,0-1.2c0.1-1,1.4-1.4,0.3-2.5c-0.7-0.7-0.5-2.4-0.1-3.2
	c0.4-0.7-1.2-1.3-0.4-1.7c1.2-0.7,2.6-0.9,4-0.7c0.7,0.1,2.9,0.9,3.1,1.4s-0.5,1.1-0.4,1.7C123.3,18.8,123.6,20.6,123.7,22.5z"/>
<linearGradient id="SVGID_26_" gradientUnits="userSpaceOnUse" x1="-455.4342" y1="361.4133" x2="-458.3992" y2="360.7923" gradientTransform="matrix(3.6765 0 0 -5.0035 1645.6071 1870.1495)">
	<stop  offset="0" style="stop-color:#010101;stop-opacity:0"/>
	<stop  offset="0.95" style="stop-color:#010101"/>
</linearGradient>
<path style="fill:url(#SVGID_26_);" d="M122.3,19.3c0-0.3-0.3-0.5-0.5-0.7c-0.4-0.4-0.6-0.9-0.5-1.4c0-0.3,0.2-0.6,0.6-0.6
	c0.1,0,0.1,0,0.2,0.1c0.7,0.4,1.3,1.1,1.5,1.9c0.1,0.3,0.1,0.6,0.1,0.8c-0.1,0.4-0.4,0.7-0.7,0.9c-0.6,0.5-1.4,0.9-2.2,1.2
	c-0.2,0.1-0.9,0.3-0.7-0.1C120.1,21.2,122.3,19.6,122.3,19.3z"/>
<linearGradient id="SVGID_27_" gradientUnits="userSpaceOnUse" x1="-427.1005" y1="300.9141" x2="-429.2405" y2="301.4671" gradientTransform="matrix(2.9609 0 0 -2.3309 1238.4391 693.6044)">
	<stop  offset="0" style="stop-color:#010101;stop-opacity:0"/>
	<stop  offset="0.95" style="stop-color:#010101"/>
</linearGradient>
<path style="fill:url(#SVGID_27_);" d="M122.4,22.6C122.3,22.6,122.3,22.6,122.4,22.6c-0.1-0.1-0.2-0.1-0.2-0.1c-0.3,0-0.6,0-1,0
	c-0.1,0-0.2,0-0.3-0.1c-0.1,0-0.1-0.1-0.1-0.2c0-0.1,0.2-0.1,0.3-0.1c0.4-0.1,0.7-0.2,1-0.3c0.3-0.2,0.6-0.3,0.9-0.4
	c0.2-0.1,0.6,0,0.7,0.2c0,0,0,0.1,0,0.2l0,0.6c0,0.2,0,0.5-0.1,0.7c-0.2,0.3-0.5,0.5-0.9,0.6c-0.1,0-0.2,0.1-0.3,0
	C122.6,23.4,122.6,22.9,122.4,22.6z"/>
<linearGradient id="SVGID_28_" gradientUnits="userSpaceOnUse" x1="-455.8526" y1="176.2488" x2="-457.1556" y2="174.6328" gradientTransform="matrix(4.511 0 0 -1.4329 2118.4983 297.8024)">
	<stop  offset="0" style="stop-color:#010101;stop-opacity:0"/>
	<stop  offset="0.95" style="stop-color:#010101"/>
</linearGradient>
<path style="fill:url(#SVGID_28_);" d="M121.7,22.5l-4.3,0.2l-0.2,0.1c0,0,0.4,1.3,1.2,1.2C119.6,23.5,120.7,23.1,121.7,22.5z"/>
<path style="fill:#68E1FD;" d="M119.8,23.1h-2.1c0,0,0.4,0.6,0.8,0.7L119.8,23.1z"/>
<linearGradient id="SVGID_29_" gradientUnits="userSpaceOnUse" x1="-296.9421" y1="-88.3669" x2="-296.9921" y2="-90.3989" gradientTransform="matrix(2.091 0 0 -0.677 739.6089 -35.6201)">
	<stop  offset="0" style="stop-color:#010101;stop-opacity:0"/>
	<stop  offset="0.95" style="stop-color:#010101"/>
</linearGradient>
<path style="fill:url(#SVGID_29_);" d="M119.8,23.1h-2.1c0,0,0.4,0.6,0.8,0.7L119.8,23.1z"/>
<path style="fill:#68E1FD;" d="M123.2,15.2c0.7,0.8,1.2,1.6,1.7,2.5c0.4,0.5,0.6,1.2,0.6,1.8c-0.1,0.6-3.3,2.6-3.9,2.9
	c-0.1,0.1-0.3,0.1-0.4,0.1c-0.4-0.1-0.6-0.4-0.5-0.7c0-0.1,0-0.2,0.1-0.2c0.3-0.4,0.6-0.7,0.9-0.9c0.3-0.3,1.3-0.8,1.4-1.2
	c0-0.1,0-0.2,0-0.2c0-0.1-0.1-0.2-0.2-0.2c-1-0.8-2.4-2.3-2.1-3.5C121,14,122.4,14.4,123.2,15.2z"/>
<path style="fill:#FFC709;" d="M116.9,15c-0.3-0.1-0.6-0.3-0.6-0.6c0-0.3-0.1-0.5,0-0.8c-0.1-0.6-0.3-1.2-0.7-1.7
	c-0.3-0.5-0.5-1.1-0.4-1.8c0.1-0.5,0.5-0.9,0.9-1.2c0.4-0.3,0.9-0.5,1.4-0.6c0.5-0.2,1-0.3,1.5-0.2c0.9,0.2,1.6,0.8,1.8,1.7
	c0.1,0.7,0.2,1.4,0.4,2.1c0.2,0.4,0.5,0.8,0.9,1.2c0.3,0.4,0.5,0.8,0.5,1.3c0,0.2-0.1,0.4-0.2,0.5c-0.3,0.2-0.7,0.2-1,0.1
	c-0.3-0.2-0.6-0.3-1-0.5c-0.6-0.1-1.3,0-1.8,0.3C117.9,14.9,117.4,15,116.9,15z"/>
<path style="fill:#EEB41E;" d="M120.7,13.5c-0.2-0.2-0.4-0.5-0.5-0.8c-0.1-0.4,0-0.8-0.2-1.2c-0.2-0.4-0.5-0.8-1-1
	c-0.2-0.1-0.5-0.2-0.7-0.2c-0.1,0-0.3,0.1-0.4,0.1l-1.9,0.9c0,0-0.1,0-0.1,0.1c-0.1,0.1,0,0.3,0.1,0.5c0.2,0.4,0.3,0.9,0.3,1.4
	c0,0.5,0.3,1,0.7,1.3c0.3,0.2,0.8,0.2,1.1,0c0.1-0.1,0.1-0.2,0.2-0.2c0.2-0.1,0.5-0.2,0.8-0.1c0.2,0,0.5,0.1,0.7,0.1
	c0.4,0.1,1,0.5,1.4,0.5C121.1,14.4,121,13.9,120.7,13.5z"/>
<path style="fill:#F6CCBB;" d="M119.3,15.7c-0.4,0.2-0.9,0.1-1.2-0.1c-0.2-0.1-0.3-0.3-0.3-0.5c-0.1-0.5,0.4-1,0.4-1.6
	c0-0.3-0.2-0.5-0.1-0.8s1.5-0.6,1.5-0.3C119.9,14,120.8,15.1,119.3,15.7z"/>
<linearGradient id="SVGID_30_" gradientUnits="userSpaceOnUse" x1="-248.7533" y1="227.1791" x2="-243.5303" y2="230.9401" gradientTransform="matrix(1.4629 0 0 -2.175 381.7365 615.8546)">
	<stop  offset="0" style="stop-color:#010101;stop-opacity:0"/>
	<stop  offset="0.95" style="stop-color:#010101"/>
</linearGradient>
<path style="fill:url(#SVGID_30_);" d="M119.3,12.5c0,0,0.1,2.3-1.3,2.2c0,0-0.2,0-0.2-0.3s0.3-0.6,0.3-0.8S119.3,12.5,119.3,12.5z"
	/>
<path style="fill:#F6CCBB;" d="M115.8,11.1c0.2,0.7,0.5,1.3,0.9,1.9c0.2,0.3,0.4,0.6,0.8,0.8c0.3,0.2,0.8,0.3,1.1,0.1
	c0.3-0.1,0.6-0.4,0.7-0.7c0.2-0.5,0.4-1,0.4-1.5c0-0.5-0.3-1.6-1.2-1.2c-0.2,0.1-0.3,0.2-0.5,0.3c-0.2,0.1-0.5,0.2-0.8,0
	c-0.1,0-0.2-0.1-0.3-0.1c0,0-0.1,0-0.1,0.1c-0.2,0.1-0.5,0.1-0.7,0C116,11,115.9,11,115.8,11.1z"/>
<path style="fill:#F6CCBB;" d="M118.3,22.2c-0.1,0.2-0.2,0.5-0.1,0.7c0,0.1,0,0.1,0,0.1c0,0.1,0.1,0.1,0.2,0.1
	c0.5,0.2,1-0.2,1.6-0.3h0.4c0.2,0,0.3-0.1,0.5-0.2c0.2-0.1,0.3-0.2,0.5-0.3c0.4-0.2,0.2-0.6-0.1-0.9c-0.2-0.2-0.5-0.2-0.8-0.1
	C119.8,21.7,118.7,21.6,118.3,22.2z"/>
<path style="fill:#F6CCBB;" d="M115.1,22.3c-0.1,0-0.1,0.1-0.1,0.1c0,0,0,0.1,0,0.2c0,0.3,0.2,0.6,0.4,0.9c0.1,0.1,0.2,0.2,0.4,0.2
	c0.3,0,0.5-0.2,0.7-0.3s0.6,0,0.8-0.1c0.2-0.1,0.3-0.3,0.3-0.5c0-0.4-0.7-0.6-1-0.7C115.9,21.9,115.5,22,115.1,22.3z"/>
<path style="fill:#68E1FD;" d="M116.2,21.1c-0.1-0.2-0.2-0.4-0.5-0.5c-0.1,0-0.2,0-0.3,0c-2.2-0.1-4.4-0.1-6.6,0.2
	c0,0.1,0,0.3,0.1,0.3c1,1.2,2.1,2.4,3.3,3.5c0.1,0.1,0.2,0.1,0.3,0.2c0.1,0,0.3,0,0.4,0c0.4,0,0.7-0.1,1.1-0.1
	c1.4-0.2,2.8-0.3,4.2-0.3c0.3,0,0.7,0,1-0.1c0.2-0.1,0.4-0.2,0.7-0.3c0.7-0.3,1.4-0.8,2.1-1.2c0,0,0.1-0.1,0.1-0.1s-0.1-0.1-0.1-0.1
	c-0.7-0.2-1,0.2-1.7,0.6c-0.5,0.3-1,0.5-1.5,0.7c-0.4,0.1-0.9-0.5-1.1-0.8C117.1,22.5,116.6,21.8,116.2,21.1z"/>
<linearGradient id="SVGID_31_" gradientUnits="userSpaceOnUse" x1="-526.4674" y1="359.1454" x2="-526.9514" y2="363.0665" gradientTransform="matrix(13.2266 0 0 -4.3097 7077.9785 1567.374)">
	<stop  offset="0" style="stop-color:#010101;stop-opacity:0"/>
	<stop  offset="0.95" style="stop-color:#010101"/>
</linearGradient>
<path style="fill:url(#SVGID_31_);" d="M109,21.1c0.1,0.1,0.2,0.3,0.4,0.4c0.9,1.1,1.9,2.1,3,3.1c0.1,0.1,0.2,0.1,0.3,0.2
	c0.1,0,0.3,0,0.4,0c0.4,0,0.7-0.1,1.1-0.1c1.3-0.2,2.7-0.3,4-0.3c0.1,0,0.1,0,0.2,0h0.4c0.2,0,0.4,0,0.6-0.1
	c0.2-0.1,0.5-0.2,0.7-0.3c0.5-0.2,1-0.5,1.4-0.8c0.2-0.1,0.5-0.3,0.7-0.5c0.1,0,0.1-0.1,0.1-0.1c0-0.1-0.1-0.1-0.1-0.1
	c-0.7-0.2-0.9,0.2-1.5,0.5c-0.5,0.3-1.1,0.6-1.6,0.8c-0.4,0.1-0.9-0.5-1.1-0.8c-0.6-0.6-1.1-1.3-1.5-2c-0.1-0.2-0.2-0.4-0.5-0.5
	c-0.1,0-0.2,0-0.3-0.1c-2.2-0.1-4.4-0.1-6.6,0.2C108.8,20.9,108.9,21,109,21.1z"/>
<linearGradient id="SVGID_32_" gradientUnits="userSpaceOnUse" x1="-506.7791" y1="351.952" x2="-507.4101" y2="355.804" gradientTransform="matrix(9.042 0 0 -3.9118 4692.9077 1391.9104)">
	<stop  offset="0" style="stop-color:#010101;stop-opacity:0"/>
	<stop  offset="0.95" style="stop-color:#010101"/>
</linearGradient>
<path style="fill:url(#SVGID_32_);" d="M109,21.1c1,1.2,2.1,2.4,3.3,3.5c0.1,0.1,0.2,0.1,0.3,0.2c0.1,0,0.3,0,0.4,0
	c0.4,0,0.7-0.1,1.1-0.1c1.3-0.2,2.7-0.3,4-0.3c-0.2-0.1-0.3-0.3-0.5-0.5c-0.6-0.6-1.1-1.3-1.4-2c-0.2-0.4-0.5-0.7-0.8-0.9
	c-0.1,0-0.2,0-0.3,0C113,20.8,111,20.9,109,21.1L109,21.1z"/>
<path style="fill:#F6CCBB;" d="M119.6,11.3c0,0,0.1,0,0.1,0c0.1,0,0.1,0,0.1,0.1c0,0.1,0,0.1,0,0.2c0,0.1,0,0.2,0,0.2
	c0,0.2-0.2,0.3-0.3,0.3c-0.1,0-0.3-0.1-0.3-0.2C119.2,11.6,119.3,11.4,119.6,11.3L119.6,11.3z"/>
<linearGradient id="SVGID_33_" gradientUnits="userSpaceOnUse" x1="732.0792" y1="-361.8387" x2="736.6132" y2="-361.4607" gradientTransform="matrix(0.3205 0 0 -0.4688 -267.8702 -139.347)">
	<stop  offset="0" style="stop-color:#010101;stop-opacity:0"/>
	<stop  offset="0.95" style="stop-color:#010101"/>
</linearGradient>
<path style="fill:url(#SVGID_33_);" d="M119.5,11.7c0,0,0-0.1,0-0.1s0.1-0.1,0.1-0.1c0,0,0,0,0,0c0.1,0.1,0.1,0.2,0,0.3
	c0,0,0,0.1-0.1,0.1c0,0-0.1,0-0.1,0c-0.1,0-0.1,0-0.1-0.1C119.4,11.7,119.5,11.7,119.5,11.7z"/>
<path style="fill:#FFC709;" d="M118.3,10.7c0,0.1,0,0.2,0,0.2c0,0.2-0.2,0.3-0.4,0.4c-0.2,0.1-0.4,0.1-0.6,0.1c-0.2,0-0.4,0-0.6,0.1
	c-0.1,0-0.1,0.1-0.2,0.1c-0.4,0.2-0.8,0.1-1.1-0.2c-0.1-0.1-0.1-0.2-0.1-0.3c-0.1-0.4,0.1-0.7,0.4-0.9c0.3-0.1,0.7-0.2,1.1-0.2
	c0.3,0,0.7,0,1-0.1c0.2,0,0.7-0.1,0.8,0.1c0,0.1-0.1,0.2-0.2,0.3C118.3,10.5,118.3,10.6,118.3,10.7z"/>
</svg>
