<?xml version="1.0" encoding="utf-8"?>
<!-- Generator: Adobe Illustrator 24.3.0, SVG Export Plug-In . SVG Version: 6.00 Build 0)  -->
<svg version="1.1" id="Layer_1" xmlns="http://www.w3.org/2000/svg" xmlns:xlink="http://www.w3.org/1999/xlink" x="0px" y="0px"
	 width="21.3px" height="15.7px" viewBox="0 0 21.3 15.7" style="enable-background:new 0 0 21.3 15.7;" xml:space="preserve">
<path style="fill:#8ED16F;" d="M18,0L8.4,9.6c-0.3,0.3-0.7,0.3-0.9,0L3.3,5.5L0,8.8L6.3,15c0.4,0.4,1,0.7,1.6,0.7l0,0
	c0.6,0,1.2-0.2,1.6-0.7L21.3,3.3L18,0z"/>
<g transform="translate(6.554 2.193)" style="opacity:0.1;">
	<path d="M13.6,0L1.2,12.4C0.9,12.7,0.5,13,0,13.1c0.4,0.3,0.9,0.4,1.3,0.4l0,0c0.6,0,1.2-0.2,1.6-0.7L14.7,1.1L13.6,0z"/>
</g>
</svg>
