<?xml version="1.0" encoding="utf-8"?>
<!-- Generator: Adobe Illustrator 24.3.0, SVG Export Plug-In . SVG Version: 6.00 Build 0)  -->
<svg version="1.1" id="Layer_1" xmlns="http://www.w3.org/2000/svg" xmlns:xlink="http://www.w3.org/1999/xlink" x="0px" y="0px"
	 width="122.1px" height="81.9px" viewBox="0 0 122.1 81.9" style="enable-background:new 0 0 122.1 81.9;" xml:space="preserve">
<path style="opacity:0.24;fill:#68E1FD;enable-background:new    ;" d="M122.1,49.7c0,5-0.8,10-3.1,14.5c-1.5,2.9-3.6,5.4-6.1,7.4
	c-6.1,5-14.4,7.7-22.6,8.6c-11.5,1.2-23.1-0.5-34.6,0c-7.2,0.3-14.4,1.5-21.6,1.7s-14.7-0.8-20.8-4.5c-2.3-1.4-4.3-3.1-6.1-5.1
	c-2.2-2.5-4-5.3-5.2-8.4c-4.6-11.7-0.8-25.9,9.1-34c3.9-3.2,8.6-5.4,13.2-7.6C33.9,17.8,50.1-13.7,88.1,7
	c7.4,4.1,11.3,12.4,17.8,17.6c5.8,4.7,12.5,9.3,14.9,16.2C121.8,43.6,122.2,46.6,122.1,49.7z"/>
<path style="opacity:0.24;fill:#68E1FD;enable-background:new    ;" d="M112.8,71.6c-6.1,5-14.4,7.7-22.6,8.6
	c-11.5,1.2-23.1-0.5-34.6,0c-7.2,0.3-14.4,1.5-21.6,1.7s-14.7-0.8-20.8-4.5c-2.3-1.4-4.3-3.1-6.1-5.1c0.6-0.1,1.2-0.2,1.8-0.3
	c12.1-1.4,24.4-1.6,36.6-1.8l33.4-0.5c3.7-0.1,7.4-0.1,11.1,0.2c4.7,0.4,9.3,1.4,14.1,1.8C106.9,71.9,109.9,71.8,112.8,71.6z"/>
<linearGradient id="SVGID_1_" gradientUnits="userSpaceOnUse" x1="-571.4291" y1="356.6634" x2="-571.3771" y2="382.0874" gradientTransform="matrix(95.0853 0 0 -4.4247 54394.1562 1669.115)">
	<stop  offset="0" style="stop-color:#010101;stop-opacity:0"/>
	<stop  offset="0.95" style="stop-color:#010101"/>
</linearGradient>
<path style="fill:url(#SVGID_1_);" d="M91.8,72.2c-22.6-1.1-45.1-1.1-67.7-0.1c-3.8,0-7.6,0.6-11.2,1.6c1.7,1.4,4.3,1.5,6.7,1.5
	c17.3,0.2,34.7,0.3,52,0.2c1,0,2.4-0.4,2.2-1.3c-0.1-0.3-0.3-0.5-0.3-0.8c0-0.5,0.7-0.7,1.3-0.7c1.5-0.1,3,0,4.5,0.2
	c0.5,0,1.1,0.2,1.5,0.6c0.2,0.3,0.4,0.6,0.6,1c0.7,1.1,2.3,1.3,3.7,1.1c1.3-0.4,2.7-0.7,4-0.9c1.2,0,2.4,0.2,3.6,0.5
	c3.9,0.8,8,0.5,12,0.2c4.1-0.3,4.2-2.8,0.1-3C100.6,72.3,96.2,72.4,91.8,72.2z"/>
<path style="fill:#F5C7C8;" d="M107.3,46.1l-1.9-9h2.6c0,0,0.6,7.2,0.9,9.1L107.3,46.1z"/>
<path style="fill:#F5C7C8;" d="M108.7,45.6c0.2,0.7,0.2,1.5,0.1,2.2c-0.2,0.8-0.8,1.4-1.6,1.7c-0.5,0.1-0.8-0.2-0.8-0.5
	s1.3-1.4,1.1-1.7s-0.7,0.7-0.9,0.4s-0.1-0.6,0.3-1.1s0-1.2,0-1.2S108.4,45,108.7,45.6z"/>
<path style="fill:#606161;" d="M103.7,18.5c0.7-0.3,1.5-0.3,2.2,0c1.1,0.3,1.9,1.4,1.7,2.6c-0.1,0.8-0.5,1.5-1.1,2
	c-1.5,0.9-2.4,0.1-2.8-1.1c-0.3-0.7-0.4-1.4-0.3-2.1C103.4,19.4,103.2,18.9,103.7,18.5L103.7,18.5z"/>
<linearGradient id="SVGID_2_" gradientUnits="userSpaceOnUse" x1="-441.436" y1="372.0594" x2="-442.3871" y2="372.1004" gradientTransform="matrix(4.2583 0 0 -5.1568 1986.6351 1939.6128)">
	<stop  offset="0" style="stop-color:#010101;stop-opacity:0"/>
	<stop  offset="0.95" style="stop-color:#010101"/>
</linearGradient>
<path style="fill:url(#SVGID_2_);" d="M103.7,18.5c0.7-0.3,1.5-0.3,2.2,0c1.1,0.3,1.9,1.4,1.7,2.6c-0.1,0.8-0.5,1.5-1.1,2
	c-1.5,0.9-2.4,0.1-2.8-1.1c-0.3-0.7-0.4-1.4-0.3-2.1C103.4,19.4,103.2,18.9,103.7,18.5L103.7,18.5z"/>
<ellipse style="fill:#606161;" cx="100.6" cy="20.7" rx="4" ry="4.4"/>
<path style="fill:#F5C7C8;" d="M87.8,32.9c-0.3-0.5-0.7-0.9-1.1-1.3c-0.3-0.2-0.9-0.6-1.1-0.5c-0.3,0.2,1,1.2-0.2,1.1
	c-0.5,0-1.1,0.1-1.5,0.4c-0.2,0.1-0.3,0.3-0.3,0.6c0,0.2,0.1,0.4,0.3,0.6c0.6,0.2,1.3,0.3,1.9,0.2c0.5,0,1.1,0.1,1.6,0.3"/>
<path style="fill:#F5C7C8;" d="M95.7,28c-0.3,0.7-0.5,1.5-0.6,2.3c-0.1,1.4-0.3,2.9-0.6,4.3c-0.1,0.2-6.9-1.9-6.9-1.9
	c-0.3,0.4-0.3,1-0.1,1.5c0,0,5,4,8.1,4.2s2.7-6.2,2.7-6.2"/>
<path style="fill:#F5C7C8;" d="M101.7,69.8l-0.6,1.1c0.3-0.1,1.9,1,2.6,1c0.5,0,0.9-0.2,1.3-0.4l-0.5-2l-0.8-10l-4.3,0.5L101.7,69.8
	z"/>
<path style="fill:#F5C7C8;" d="M93.4,69.7l-0.8,0.7c0.3,0,1.6,1.4,2.3,1.6c0.5,0.1,0.9,0,1.4-0.1l0.1-2.1l0.9-9.3L93,60.9L93.4,69.7
	z"/>
<path style="fill:#F5C7C8;" d="M102.2,23.6l0.2,3.2c-0.4,0.5-1.1,0.8-1.7,0.7c-1.8-0.2-1.7-0.6-1.7-0.6s0-2.3-0.1-2.8"/>
<path style="fill:#DBB4AF;" d="M101.8,24.7l0.4-0.6l-3.3,0.3c0,0.2,0,0.7,0.1,1.2C100,25.8,101.1,25.5,101.8,24.7z"/>
<path style="fill:#606161;" d="M104.8,46.9c0,0,0.5,8.9,1.2,16c0,0-9.7,1.2-13.7-0.1c0,0,0.9-14.3,1-16.3L104.8,46.9z"/>
<linearGradient id="SVGID_3_" gradientUnits="userSpaceOnUse" x1="-535.2463" y1="420.3927" x2="-536.4903" y2="420.4677" gradientTransform="matrix(13.728 0 0 -16.9733 7449.1382 7190.6558)">
	<stop  offset="0" style="stop-color:#010101;stop-opacity:0"/>
	<stop  offset="0.95" style="stop-color:#010101"/>
</linearGradient>
<path style="fill:url(#SVGID_3_);" d="M104.8,46.9c0,0,0.5,8.9,1.2,16c0,0-9.7,1.2-13.7-0.1c0,0,0.9-14.3,1-16.3L104.8,46.9z"/>
<path style="fill:#68E1FD;" d="M104.8,27.8c0,0,0-0.6-2.5-0.7c-1.2-0.1-2.5-0.1-3.7,0.1c-2.4,0.4-2.6,0.5-3,0.8
	c-0.9,0.6-2.3,18-2.3,18s-1.4,2.1,6,2.8c1.9,0.1,3.8-0.4,5.5-1.4L104.8,27.8z"/>
<path style="fill:#F5C7C8;" d="M103.6,18.4c0,0-0.1,4.1-1.5,5.5c-1.4,1.5-2.3,1.7-4,1.1c-1.5-0.5-1.7-4.1-1.7-5.1
	C96.2,17.2,100.9,14.9,103.6,18.4z"/>
<linearGradient id="SVGID_4_" gradientUnits="userSpaceOnUse" x1="-294.949" y1="420.9285" x2="-279.343" y2="422.5305" gradientTransform="matrix(2.031 0 0 -17.602 698.6904 7452.729)">
	<stop  offset="0" style="stop-color:#010101;stop-opacity:0"/>
	<stop  offset="0.95" style="stop-color:#010101"/>
</linearGradient>
<path style="fill:url(#SVGID_4_);" d="M104.7,30.6l0.1,16.7l-1.7,0.9l-0.3-14.8L104.7,30.6z"/>
<path style="fill:#68E1FD;" d="M103.2,26.5l0,0.8c0,0.1-0.1,0.2-0.2,0.3c-1.2,0.3-2.4,0.5-3.7,0.5l-1.7-0.4c-0.1,0-0.2-0.1-0.2-0.3
	l0-0.4c0-0.2,0.1-0.3,0.3-0.3l5.1-0.5c0.1,0,0.2,0,0.3,0.1C103.2,26.3,103.2,26.4,103.2,26.5z"/>
<linearGradient id="SVGID_5_" gradientUnits="userSpaceOnUse" x1="-478.4966" y1="249.094" x2="-475.5036" y2="253.474" gradientTransform="matrix(5.829 0 0 -1.8629 2888.6138 491.5515)">
	<stop  offset="0" style="stop-color:#010101;stop-opacity:0"/>
	<stop  offset="0.95" style="stop-color:#010101"/>
</linearGradient>
<path style="fill:url(#SVGID_5_);" d="M103.2,26.5l0,0.8c0,0.1-0.1,0.2-0.2,0.3c-1.2,0.3-2.4,0.5-3.7,0.5l-1.7-0.4
	c-0.1,0-0.2-0.1-0.2-0.3l0-0.4c0-0.2,0.1-0.3,0.3-0.3l5.1-0.5c0.1,0,0.2,0,0.3,0.1C103.2,26.3,103.2,26.4,103.2,26.5z"/>
<path style="fill:#F5C7C8;" d="M103.1,21c0,0,0.1-0.6,0.8-0.4s0,1.3-0.2,1.6c-0.2,0.2-0.5,0.3-0.8,0.2"/>
<path style="fill:#4EAE93;" d="M104.2,18.2l0.3,1H104l-0.4-1.5L104.2,18.2z"/>
<path style="fill:#68E1FD;" d="M104.8,27.6c0,0,1,0.8,2.9,4.8c0.6,1.5,1.1,3.1,1.4,4.7c-1.3,0.6-2.7,1-4.2,1.2
	c-0.7-3.5-2.4-4.9-2.7-6.5S103.8,27.3,104.8,27.6z"/>
<path style="fill:#68E1FD;" d="M91.3,70.6c-0.7,0.2-1.4,0.6-1.9,1.1c-0.2,0.2-0.3,0.5-0.3,0.8c0,0.3,0.1,0.6,0.4,0.7
	c0.2,0.1,0.4,0.1,0.6,0.1c1.9,0.1,3.7,0,5.6-0.1c0.2,0,0.3,0,0.4-0.1c0-0.1,0.1-0.2,0.1-0.3l-0.1-1c0-0.1,0-0.2-0.1-0.3
	c-0.2-0.2-0.6,0-0.9-0.1c-0.7,0-0.8-0.7-1.4-0.9C92.9,70.3,92.1,70.4,91.3,70.6z"/>
<path style="fill:#68E1FD;" d="M100.4,70.6c-0.7,0.2-1.4,0.6-1.9,1.1c-0.2,0.2-0.3,0.5-0.3,0.8c0,0.3,0.1,0.6,0.4,0.7
	c0.2,0.1,0.4,0.1,0.6,0.1c1.9,0.1,3.7,0,5.6-0.1c0.1,0,0.3,0,0.4-0.1c0.1-0.1,0.1-0.2,0.1-0.3l-0.1-1c0-0.1,0-0.2-0.1-0.3
	c-0.2-0.2-0.6,0-0.9-0.1c-0.7,0-0.8-0.7-1.4-0.9C101.9,70.2,101.1,70.3,100.4,70.6z"/>
<linearGradient id="SVGID_6_" gradientUnits="userSpaceOnUse" x1="-495.5364" y1="319.6299" x2="-496.1194" y2="324.1629" gradientTransform="matrix(7.0644 0 0 -2.9683 3594.2729 1024.3496)">
	<stop  offset="0" style="stop-color:#010101;stop-opacity:0"/>
	<stop  offset="0.95" style="stop-color:#010101"/>
</linearGradient>
<path style="fill:url(#SVGID_6_);" d="M91.3,70.6c-0.7,0.2-1.4,0.6-1.9,1.1c-0.2,0.2-0.3,0.5-0.3,0.8c0,0.3,0.1,0.6,0.4,0.7
	c0.2,0.1,0.4,0.1,0.6,0.1c1.9,0.1,3.7,0,5.6-0.1c0.2,0,0.3,0,0.4-0.1c0-0.1,0.1-0.2,0.1-0.3l-0.1-1c0-0.1,0-0.2-0.1-0.3
	c-0.2-0.2-0.6,0-0.9-0.1c-0.7,0-0.8-0.7-1.4-0.9C92.9,70.3,92.1,70.4,91.3,70.6z"/>
<linearGradient id="SVGID_7_" gradientUnits="userSpaceOnUse" x1="-495.6969" y1="320.4522" x2="-496.2789" y2="324.9832" gradientTransform="matrix(7.0711 0 0 -2.9727 3607.2063 1026.2141)">
	<stop  offset="0" style="stop-color:#010101;stop-opacity:0"/>
	<stop  offset="0.95" style="stop-color:#010101"/>
</linearGradient>
<path style="fill:url(#SVGID_7_);" d="M100.4,70.6c-0.7,0.2-1.4,0.6-1.9,1.1c-0.2,0.2-0.3,0.5-0.3,0.8c0,0.3,0.1,0.6,0.4,0.7
	c0.2,0.1,0.4,0.1,0.6,0.1c1.9,0.1,3.7,0,5.6-0.1c0.1,0,0.3,0,0.4-0.1c0.1-0.1,0.1-0.2,0.1-0.3l-0.1-1c0-0.1,0-0.2-0.1-0.3
	c-0.2-0.2-0.6,0-0.9-0.1c-0.7,0-0.8-0.7-1.4-0.9C101.9,70.2,101.1,70.3,100.4,70.6z"/>
<path style="fill:#606161;" d="M96.5,17.5c-0.1,0.1-0.1,0.2-0.2,0.4c-0.2,0.3-0.3,0.7-0.3,1.1c0,0.2,0.3,0.9,0.3,0.9
	c0.5-0.8,1.1-1.5,1.9-2c0.4,0.6,1,1,1.7,1.2c0.7,0.2,1.3,0.7,1.7,1.3c0.2,0.4,0.1,1,0.4,1.3c0.8-0.1,1-1.2,1.7-1.3
	c0.1,0,0.3,0,0.4,0c0.3-0.1,0.6-0.4,0.6-0.7c0.1-1.5-1.9-2.8-3.2-3.3c-1.3-0.5-2.7-0.5-3.9,0C97.3,16.5,96.8,16.9,96.5,17.5z"/>
<linearGradient id="SVGID_8_" gradientUnits="userSpaceOnUse" x1="-512.6727" y1="379.1821" x2="-513.3546" y2="378.7301" gradientTransform="matrix(8.9572 0 0 -5.7263 4695.248 2188.9744)">
	<stop  offset="0" style="stop-color:#010101;stop-opacity:0"/>
	<stop  offset="0.95" style="stop-color:#010101"/>
</linearGradient>
<path style="fill:url(#SVGID_8_);" d="M96.5,17.5c-0.1,0.1-0.1,0.2-0.2,0.4c-0.2,0.3-0.3,0.7-0.3,1.1c0,0.2,0.3,0.9,0.3,0.9
	c0.5-0.8,1.1-1.5,1.9-2c0.4,0.6,1,1,1.7,1.2c0.7,0.2,1.3,0.7,1.7,1.3c0.2,0.4,0.1,1,0.4,1.3c0.8-0.1,1-1.2,1.7-1.3
	c0.1,0,0.3,0,0.4,0c0.3-0.1,0.6-0.4,0.6-0.7c0.1-1.5-1.9-2.8-3.2-3.3c-1.3-0.5-2.7-0.5-3.9,0C97.3,16.5,96.8,16.9,96.5,17.5z"/>
<path style="fill:#68E1FD;" d="M34.2,10.6h15.2c8.8,0,16,7.2,16,16v31.3c0,8.8-7.2,16-16,16H34.2c-8.8,0-16-7.2-16-16V26.6
	C18.2,17.8,25.4,10.6,34.2,10.6z"/>
<path style="fill:#68E1FD;" d="M35.6,10.6h15.2c8.8,0,16,7.2,16,16v31.3c0,8.8-7.2,16-16,16H35.6c-8.8,0-16-7.2-16-16V26.6
	C19.6,17.8,26.7,10.6,35.6,10.6z"/>
<linearGradient id="SVGID_9_" gradientUnits="userSpaceOnUse" x1="-565.3143" y1="436.6781" x2="-565.1573" y2="435.0361" gradientTransform="matrix(47.123 0 0 -63.263 26678.6777 27614.8496)">
	<stop  offset="0" style="stop-color:#FFFFFF;stop-opacity:0"/>
	<stop  offset="0.14" style="stop-color:#FFFFFF;stop-opacity:0.22"/>
	<stop  offset="0.3" style="stop-color:#FFFFFF;stop-opacity:0.451"/>
	<stop  offset="0.45" style="stop-color:#FFFFFF;stop-opacity:0.651"/>
	<stop  offset="0.6" style="stop-color:#FFFFFF;stop-opacity:0.8"/>
	<stop  offset="0.73" style="stop-color:#FFFFFF;stop-opacity:0.91"/>
	<stop  offset="0.85" style="stop-color:#FFFFFF;stop-opacity:0.98"/>
	<stop  offset="0.94" style="stop-color:#FFFFFF"/>
</linearGradient>
<path style="fill:url(#SVGID_9_);" d="M35.6,10.6h15.2c8.8,0,16,7.2,16,16v31.3c0,8.8-7.2,16-16,16H35.6c-8.8,0-16-7.2-16-16V26.6
	C19.6,17.8,26.7,10.6,35.6,10.6z"/>
<linearGradient id="SVGID_10_" gradientUnits="userSpaceOnUse" x1="-563.5387" y1="434.7841" x2="-560.9537" y2="436.5011" gradientTransform="matrix(39.372 0 0 -57.407 22202.1973 25029.5684)">
	<stop  offset="0" style="stop-color:#010101;stop-opacity:0"/>
	<stop  offset="0.95" style="stop-color:#010101"/>
</linearGradient>
<path style="fill:url(#SVGID_10_);" d="M23.2,47l1.2-33.3l35.7,0.7c0,0-4.7,34.6-1.4,43.5s3.8,12.3,3.8,12.3l-38.5,1L23.2,47z"/>
<path style="fill:#FFFFFF;" d="M69,67.2l-39,0.4c0,0-4-20.5-4.7-27.3c-0.7-6.6-0.8-26.5-0.8-26.5h37.2c0,0,0.1,19.3,0.8,25.7
	C63.1,46.5,69,67.2,69,67.2z"/>
<path style="fill:#68E1FD;" d="M86.4,13.3L83.7,8l-0.2-0.4c0,0,0,0,0,0c0,0-0.1,0-0.1,0c0,0-0.1,0-0.1,0.1l-2.9,5.7
	c-0.1,0.1-0.1,0.3-0.1,0.4v55.4h6.1V13.7C86.5,13.6,86.4,13.4,86.4,13.3z M86.4,69.1h-6.1v-1.2h6.1V69.1z"/>
<linearGradient id="SVGID_11_" gradientUnits="userSpaceOnUse" x1="-416.6833" y1="435.7333" x2="-465.9952" y2="434.6483" gradientTransform="matrix(3.7713 0 0 -60.3973 1683.4408 26345.1113)">
	<stop  offset="0" style="stop-color:#FFFFFF;stop-opacity:0"/>
	<stop  offset="0.14" style="stop-color:#FFFFFF;stop-opacity:0.22"/>
	<stop  offset="0.3" style="stop-color:#FFFFFF;stop-opacity:0.451"/>
	<stop  offset="0.45" style="stop-color:#FFFFFF;stop-opacity:0.651"/>
	<stop  offset="0.6" style="stop-color:#FFFFFF;stop-opacity:0.8"/>
	<stop  offset="0.73" style="stop-color:#FFFFFF;stop-opacity:0.91"/>
	<stop  offset="0.85" style="stop-color:#FFFFFF;stop-opacity:0.98"/>
	<stop  offset="0.94" style="stop-color:#FFFFFF"/>
</linearGradient>
<path style="fill:url(#SVGID_11_);" d="M85.4,13.7v54.2h-3.8V13.7c0-0.1,0-0.3,0-0.4l1.8-5.7c0,0,0,0,0,0c0-0.1,0.1,0,0.1,0L83.7,8
	l1.6,5.3C85.4,13.4,85.4,13.6,85.4,13.7z"/>
<linearGradient id="SVGID_12_" gradientUnits="userSpaceOnUse" x1="-422.7007" y1="369.4904" x2="-432.2737" y2="366.9174" gradientTransform="matrix(3.771 0 0 -4.942 1683.2648 1895.4463)">
	<stop  offset="0" style="stop-color:#FFFFFF;stop-opacity:0"/>
	<stop  offset="0.14" style="stop-color:#FFFFFF;stop-opacity:0.22"/>
	<stop  offset="0.3" style="stop-color:#FFFFFF;stop-opacity:0.451"/>
	<stop  offset="0.45" style="stop-color:#FFFFFF;stop-opacity:0.651"/>
	<stop  offset="0.6" style="stop-color:#FFFFFF;stop-opacity:0.8"/>
	<stop  offset="0.73" style="stop-color:#FFFFFF;stop-opacity:0.91"/>
	<stop  offset="0.85" style="stop-color:#FFFFFF;stop-opacity:0.98"/>
	<stop  offset="0.94" style="stop-color:#FFFFFF"/>
</linearGradient>
<path style="fill:url(#SVGID_12_);" d="M81.6,69.1h3.8v4c0,0.5-0.3,0.9-0.7,0.9h-2.4c-0.4,0-0.7-0.4-0.7-0.9L81.6,69.1z"/>
<linearGradient id="SVGID_13_" gradientUnits="userSpaceOnUse" x1="-483.5254" y1="388.5026" x2="-483.6154" y2="387.2155" gradientTransform="matrix(6.153 0 0 -6.7397 3058.7458 2628.5103)">
	<stop  offset="0" style="stop-color:#FFFFFF;stop-opacity:0"/>
	<stop  offset="0.14" style="stop-color:#FFFFFF;stop-opacity:0.22"/>
	<stop  offset="0.3" style="stop-color:#FFFFFF;stop-opacity:0.451"/>
	<stop  offset="0.45" style="stop-color:#FFFFFF;stop-opacity:0.651"/>
	<stop  offset="0.6" style="stop-color:#FFFFFF;stop-opacity:0.8"/>
	<stop  offset="0.73" style="stop-color:#FFFFFF;stop-opacity:0.91"/>
	<stop  offset="0.85" style="stop-color:#FFFFFF;stop-opacity:0.98"/>
	<stop  offset="0.94" style="stop-color:#FFFFFF"/>
</linearGradient>
<path style="fill:url(#SVGID_13_);" d="M86.5,13.7c-2,0.8-4.2,0.8-6.2,0l1.8-3.5l1.4-2.6l1.2,2.4L86.5,13.7z"/>
<path style="fill:#68E1FD;" d="M84.7,10c-0.8,0.3-1.7,0.4-2.6,0.2l1.4-2.6L84.7,10z"/>
<linearGradient id="SVGID_14_" gradientUnits="userSpaceOnUse" x1="-363.6164" y1="319.7697" x2="-362.3484" y2="322.3487" gradientTransform="matrix(2.7 0 0 -2.9608 1064.582 958.0092)">
	<stop  offset="0" style="stop-color:#010101;stop-opacity:0"/>
	<stop  offset="0.95" style="stop-color:#010101"/>
</linearGradient>
<path style="fill:url(#SVGID_14_);" d="M84.7,10c-0.9,0.3-1.8,0.4-2.7,0.2l1.4-2.8L84.7,10z"/>
<path style="fill:#68E1FD;" d="M28.6,20.4h18.5c0.3,0,0.5,0.2,0.5,0.5l0,0c0,0.3-0.2,0.5-0.5,0.5H28.6c-0.3,0-0.5-0.2-0.5-0.5l0,0
	C28.1,20.7,28.3,20.4,28.6,20.4z"/>
<path style="fill:#68E1FD;" d="M28.6,22.3h18.5c0.3,0,0.5,0.2,0.5,0.5l0,0c0,0.3-0.2,0.5-0.5,0.5H28.6c-0.3,0-0.5-0.2-0.5-0.5l0,0
	C28.1,22.5,28.3,22.3,28.6,22.3z"/>
<path style="fill:#68E1FD;" d="M28.6,24.2h18.5c0.3,0,0.5,0.2,0.5,0.5l0,0c0,0.3-0.2,0.5-0.5,0.5H28.6c-0.3,0-0.5-0.2-0.5-0.5l0,0
	C28.1,24.4,28.3,24.2,28.6,24.2z"/>
<path style="fill:#68E1FD;" d="M35,26h12.1c0.3,0,0.5,0.2,0.5,0.5l0,0c0,0.3-0.2,0.5-0.5,0.5H35c-0.3,0-0.5-0.2-0.5-0.5l0,0
	C34.5,26.3,34.7,26,35,26z"/>
<path style="fill:#68E1FD;" d="M28.8,32.3h18.5c0.3,0,0.5,0.2,0.5,0.5l0,0c0,0.3-0.2,0.5-0.5,0.5H28.8c-0.3,0-0.5-0.2-0.5-0.5l0,0
	C28.3,32.5,28.5,32.3,28.8,32.3z"/>
<path style="fill:#68E1FD;" d="M28.8,34.1h18.5c0.3,0,0.5,0.2,0.5,0.5l0,0c0,0.3-0.2,0.5-0.5,0.5H28.8c-0.3,0-0.5-0.2-0.5-0.5l0,0
	C28.3,34.4,28.5,34.1,28.8,34.1z"/>
<path style="fill:#68E1FD;" d="M28.8,36h18.5c0.3,0,0.5,0.2,0.5,0.5l0,0c0,0.3-0.2,0.5-0.5,0.5H28.8c-0.3,0-0.5-0.2-0.5-0.5l0,0
	C28.3,36.2,28.5,36,28.8,36z"/>
<path style="fill:#68E1FD;" d="M35.2,37.9h12.1c0.3,0,0.5,0.2,0.5,0.5l0,0c0,0.3-0.2,0.5-0.5,0.5H35.2c-0.3,0-0.5-0.2-0.5-0.5l0,0
	C34.7,38.1,34.9,37.9,35.2,37.9z"/>
<path style="fill:#68E1FD;" d="M48.7,44.6H30.3c-0.3,0-0.6-0.2-0.7-0.5l0,0c0-0.1,0-0.3,0.1-0.4c0.1-0.1,0.3-0.2,0.4-0.2h18.4
	c0.3,0,0.6,0.2,0.7,0.5l0,0c0,0.1,0,0.3-0.1,0.4C49,44.6,48.8,44.6,48.7,44.6z"/>
<path style="fill:#68E1FD;" d="M48.9,46.5H30.6c-0.3,0-0.6-0.2-0.7-0.5l0,0c0-0.1,0-0.3,0.1-0.4c0.1-0.1,0.3-0.2,0.4-0.2h18.4
	c0.3,0,0.6,0.2,0.7,0.5l0,0c0,0.1,0,0.3-0.1,0.4C49.2,46.5,49.1,46.5,48.9,46.5z"/>
<path style="fill:#68E1FD;" d="M49.2,48.4H30.8c-0.3,0-0.6-0.2-0.7-0.5l0,0c0-0.1,0-0.3,0.1-0.4c0.1-0.1,0.3-0.2,0.4-0.2h18.4
	c0.3,0,0.6,0.2,0.7,0.5l0,0c0,0.1,0,0.3-0.1,0.4C49.5,48.3,49.4,48.4,49.2,48.4L49.2,48.4z"/>
<path style="fill:#68E1FD;" d="M49.6,50.2H37.4c-0.3,0-0.5-0.2-0.6-0.4l0-0.2c0-0.1,0-0.2,0.1-0.3c0.1-0.1,0.2-0.1,0.3-0.1h12.2
	c0.3,0,0.5,0.2,0.6,0.4l0,0.2c0,0.1,0,0.2-0.1,0.3C49.9,50.2,49.7,50.2,49.6,50.2z"/>
<path style="fill:#68E1FD;" d="M50.9,56.5H32.5c-0.3,0-0.6-0.2-0.7-0.5l0,0c0-0.1,0-0.3,0.1-0.4c0.1-0.1,0.2-0.2,0.4-0.2h18.4
	c0.3,0,0.6,0.2,0.7,0.5l0,0c0,0.1,0,0.3-0.1,0.4C51.2,56.5,51,56.5,50.9,56.5z"/>
<path style="fill:#68E1FD;" d="M51.3,58.4H32.9c-0.3,0-0.6-0.2-0.7-0.5l0,0c0-0.1,0-0.3,0.1-0.4c0.1-0.1,0.2-0.2,0.4-0.2h18.4
	c0.3,0,0.6,0.2,0.7,0.5l0,0c0,0.1,0,0.3-0.1,0.4C51.6,58.3,51.5,58.4,51.3,58.4z"/>
<path style="fill:#68E1FD;" d="M51.7,60.3H33.3c-0.3,0-0.6-0.2-0.7-0.5l0,0c0-0.1,0-0.3,0.1-0.4c0.1-0.1,0.2-0.2,0.4-0.2h18.4
	c0.3,0,0.6,0.2,0.7,0.5l0,0c0,0.1,0,0.3-0.1,0.4C52,60.2,51.9,60.3,51.7,60.3z"/>
<path style="fill:#68E1FD;" d="M52.2,62.2H40c-0.3,0-0.5-0.2-0.6-0.5l0-0.2c0-0.1,0-0.2,0.1-0.3c0.1-0.1,0.2-0.1,0.3-0.1H52
	c0.3,0,0.5,0.2,0.6,0.4l0,0.2c0,0.1,0,0.2-0.1,0.3C52.5,62.1,52.3,62.2,52.2,62.2z"/>
<path style="fill:#68E1FD;" d="M56.3,28.4h-3.7c-1.4,0.1-2.6-1-2.6-2.3v-3.5c0.1-1.4,1.3-2.4,2.6-2.3h3.7c1.4-0.1,2.6,1,2.6,2.3v3.5
	C58.9,27.4,57.7,28.4,56.3,28.4z M52.7,20.9c-1-0.1-1.8,0.7-1.9,1.7V26c0.1,1,0.9,1.7,1.9,1.7h3.7c1,0.1,1.8-0.7,1.9-1.7v-3.5
	c-0.1-1-0.9-1.7-1.9-1.7L52.7,20.9z"/>
<path style="fill:#68E1FD;" d="M57.3,40.3h-3.7c-1.3,0.1-2.5-0.9-2.6-2.2l-0.2-3.4c0-0.7,0.2-1.3,0.7-1.7c0.5-0.5,1.2-0.7,1.9-0.7
	h3.7c1.3-0.1,2.5,0.9,2.6,2.2l0.2,3.4c0,0.7-0.2,1.3-0.7,1.7C58.7,40.1,58,40.4,57.3,40.3L57.3,40.3z M53.5,32.9
	c-0.5,0-1,0.2-1.4,0.5c-0.4,0.3-0.5,0.8-0.5,1.2l0.2,3.4c0.1,1,1,1.7,1.9,1.6h3.7c0.5,0,1-0.2,1.4-0.5c0.4-0.3,0.5-0.8,0.5-1.2
	L59,34.5c-0.1-1-1-1.7-1.9-1.6H53.5z"/>
<path style="fill:#68E1FD;" d="M54.8,51.4c-1.3,0.1-2.4-0.9-2.6-2.1l-0.3-3.4c-0.1-0.6,0.2-1.3,0.7-1.7c0.5-0.5,1.2-0.8,1.9-0.8
	l3.7-0.1c1.3-0.1,2.5,0.8,2.7,2.1l0.3,3.4c0.1,0.6-0.2,1.3-0.7,1.7c-0.5,0.5-1.2,0.8-1.9,0.8L54.8,51.4L54.8,51.4z M58.2,43.9
	L58.2,43.9L54.4,44c-0.5,0-1,0.2-1.4,0.6c-0.3,0.3-0.5,0.8-0.5,1.3l0.3,3.4c0.2,1,1,1.6,2,1.5l3.7-0.1c0.5,0,1-0.2,1.4-0.6
	c0.3-0.3,0.5-0.8,0.5-1.3l-0.3-3.4C59.9,44.5,59.1,43.8,58.2,43.9L58.2,43.9z"/>
<path style="fill:#68E1FD;" d="M57.7,62.7c-1.2,0.1-2.3-0.8-2.6-2l-0.6-3.3c-0.1-0.7,0.1-1.4,0.6-1.9c0.5-0.5,1.2-0.8,2-0.8l3.6-0.1
	c1.3-0.1,2.4,0.7,2.7,2l0.6,3.3c0.1,0.7-0.1,1.4-0.6,1.8c-0.5,0.5-1.2,0.8-2,0.9L57.7,62.7L57.7,62.7z M60.7,55.3L60.7,55.3L57,55.4
	c-0.5,0-1,0.2-1.4,0.6c-0.3,0.4-0.5,0.9-0.4,1.3l0.6,3.3c0.2,0.9,1.1,1.5,2,1.4l3.6-0.1c0.5,0,1-0.2,1.4-0.6
	c0.3-0.4,0.5-0.9,0.4-1.3l-0.6-3.3C62.4,55.8,61.6,55.2,60.7,55.3L60.7,55.3z"/>
<path style="fill:#68E1FD;" d="M35.6,12.4h16.3c1.1,0,2,0.9,2,2l0,0c0,1.1-0.9,2-2,2H35.6c-1.1,0-2-0.9-2-2l0,0
	C33.6,13.3,34.5,12.4,35.6,12.4z"/>
<linearGradient id="SVGID_15_" gradientUnits="userSpaceOnUse" x1="-549.1246" y1="352.8068" x2="-549.1316" y2="354.2588" gradientTransform="matrix(20.372 0 0 -4.066 11230.5918 1451.582)">
	<stop  offset="0" style="stop-color:#FFFFFF;stop-opacity:0"/>
	<stop  offset="0.14" style="stop-color:#FFFFFF;stop-opacity:0.22"/>
	<stop  offset="0.3" style="stop-color:#FFFFFF;stop-opacity:0.451"/>
	<stop  offset="0.45" style="stop-color:#FFFFFF;stop-opacity:0.651"/>
	<stop  offset="0.6" style="stop-color:#FFFFFF;stop-opacity:0.8"/>
	<stop  offset="0.73" style="stop-color:#FFFFFF;stop-opacity:0.91"/>
	<stop  offset="0.85" style="stop-color:#FFFFFF;stop-opacity:0.98"/>
	<stop  offset="0.94" style="stop-color:#FFFFFF"/>
</linearGradient>
<path style="fill:url(#SVGID_15_);" d="M35.6,12.4h16.3c1.1,0,2,0.9,2,2l0,0c0,1.1-0.9,2-2,2H35.6c-1.1,0-2-0.9-2-2l0,0
	C33.6,13.3,34.5,12.4,35.6,12.4z"/>
<path style="fill:#68E1FD;" d="M54.7,26.9l-3.2-2.8c-0.4-0.3-0.4-0.9-0.1-1.2c0,0,0.1-0.1,0.1-0.1c0.4-0.4,1.1-0.4,1.6,0l1.5,1.3
	l5.1-5.2c0.4-0.4,1.1-0.4,1.5-0.1c0.4,0.3,0.5,0.8,0.2,1.2c0,0-0.1,0.1-0.1,0.1L54.7,26.9z"/>
<path style="fill:#68E1FD;" d="M56.2,38.6L53,35.8c-0.4-0.3-0.4-0.9-0.1-1.2c0,0,0.1-0.1,0.1-0.1c0.4-0.4,1.1-0.4,1.6,0l1.5,1.3
	l5.1-5.2c0.4-0.4,1.1-0.4,1.5-0.1c0.4,0.3,0.5,0.8,0.2,1.2c0,0-0.1,0.1-0.1,0.1L56.2,38.6z"/>
<path style="fill:#68E1FD;" d="M57.3,49.7l-3.2-2.8c-0.4-0.3-0.4-0.9-0.1-1.2c0,0,0.1-0.1,0.1-0.1c0.4-0.4,1.1-0.4,1.6,0l1.5,1.3
	l5.1-5.2c0.4-0.4,1.1-0.4,1.5-0.1c0.4,0.3,0.5,0.8,0.2,1.2c0,0-0.1,0.1-0.1,0.1L57.3,49.7z"/>
<path style="fill:#68E1FD;" d="M60.1,60.9l-3.2-2.8c-0.4-0.3-0.4-0.9-0.1-1.2c0,0,0.1-0.1,0.1-0.1c0.4-0.4,1.1-0.4,1.5,0l1.5,1.3
	l5.1-5.2c0.4-0.4,1.1-0.4,1.5-0.1c0.4,0.3,0.5,0.8,0.2,1.2c0,0-0.1,0.1-0.1,0.1L60.1,60.9z"/>
<rect x="80.3" y="67.9" style="fill:#68E1FD;" width="6.1" height="1.2"/>
<linearGradient id="SVGID_16_" gradientUnits="userSpaceOnUse" x1="-482.2249" y1="138.3382" x2="-482.1569" y2="129.8322" gradientTransform="matrix(6.066 0 0 -1.176 3008.491 229.691)">
	<stop  offset="0" style="stop-color:#010101;stop-opacity:0"/>
	<stop  offset="0.95" style="stop-color:#010101"/>
</linearGradient>
<rect x="80.3" y="67.9" style="fill:url(#SVGID_16_);" width="6.1" height="1.2"/>
<path style="fill:#68E1FD;" d="M86.5,69.1v4c0,0.3-0.1,0.5-0.3,0.7c-0.2,0.2-0.5,0.3-0.8,0.3h-4c-0.3,0-0.6-0.1-0.8-0.3
	c-0.2-0.2-0.3-0.4-0.3-0.7v-4H86.5z"/>
<linearGradient id="SVGID_17_" gradientUnits="userSpaceOnUse" x1="-483.5796" y1="368.2319" x2="-483.5686" y2="370.8699" gradientTransform="matrix(6.154 0 0 -4.9102 3059.3269 1881.3971)">
	<stop  offset="0" style="stop-color:#010101;stop-opacity:0"/>
	<stop  offset="0.95" style="stop-color:#010101"/>
</linearGradient>
<path style="fill:url(#SVGID_17_);" d="M86.5,69.1v4c0,0.3-0.1,0.5-0.3,0.7c-0.2,0.2-0.5,0.3-0.8,0.3h-4c-0.3,0-0.6-0.1-0.8-0.3
	c-0.2-0.2-0.3-0.4-0.3-0.7v-4H86.5z"/>
</svg>
