<?xml version="1.0" encoding="utf-8"?>
<!-- Generator: Adobe Illustrator 24.3.0, SVG Export Plug-In . SVG Version: 6.00 Build 0)  -->
<svg version="1.1" id="Layer_1" xmlns="http://www.w3.org/2000/svg" xmlns:xlink="http://www.w3.org/1999/xlink" x="0px" y="0px"
	 width="14px" height="14px" viewBox="0 0 14 14" style="enable-background:new 0 0 14 14;" xml:space="preserve">
<g transform="translate(-4.5 -4.5)">
	<path style="fill:#15BDE4;" d="M6.3,5.5h2.8c0.3,0,0.5-0.2,0.5-0.5v0c0-0.3-0.2-0.5-0.5-0.5H5C4.7,4.5,4.5,4.7,4.5,5c0,0,0,0,0,0
		v4.1c0,0.3,0.2,0.5,0.5,0.5c0,0,0,0,0,0h0c0.3,0,0.5-0.2,0.5-0.5c0,0,0,0,0,0V6.3l4.3,4.2c0.1,0.1,0.2,0.1,0.4,0.1
		c0.1,0,0.3-0.1,0.4-0.1c0.2-0.2,0.2-0.5,0-0.7L6.3,5.5z"/>
	<path style="fill:#15BDE4;" d="M18,4.5h-4.1c-0.3,0-0.5,0.2-0.5,0.5c0,0,0,0,0,0v0c0,0.3,0.2,0.5,0.5,0.5c0,0,0,0,0,0h2.8l-4.2,4.3
		c-0.2,0.2-0.2,0.5,0,0.7c0.2,0.2,0.5,0.2,0.7,0l4.3-4.2v2.8c0,0.3,0.2,0.5,0.5,0.5c0,0,0,0,0,0h0c0.3,0,0.5-0.2,0.5-0.5
		c0,0,0,0,0,0V5C18.5,4.7,18.3,4.5,18,4.5C18,4.5,18,4.5,18,4.5z"/>
	<path style="fill:#15BDE4;" d="M10.1,12.3c-0.1,0-0.3,0.1-0.4,0.1l-4.3,4.2v-2.8c0-0.3-0.2-0.5-0.5-0.5c0,0,0,0,0,0h0
		c-0.3,0-0.5,0.2-0.5,0.5c0,0,0,0,0,0V18c0,0.3,0.2,0.5,0.5,0.5c0,0,0,0,0,0h4.1c0.3,0,0.5-0.2,0.5-0.5c0,0,0,0,0,0v0
		c0-0.3-0.2-0.5-0.5-0.5c0,0,0,0,0,0H6.3l4.2-4.3c0.2-0.2,0.2-0.5,0-0.7C10.4,12.4,10.3,12.4,10.1,12.3L10.1,12.3z"/>
	<path style="fill:#15BDE4;" d="M18,13.4L18,13.4c-0.3,0-0.5,0.2-0.5,0.5c0,0,0,0,0,0v2.8l-4.3-4.2c-0.1-0.1-0.2-0.1-0.4-0.1
		c-0.1,0-0.3,0.1-0.4,0.1c-0.2,0.2-0.2,0.5,0,0.7l4.2,4.3h-2.8c-0.3,0-0.5,0.2-0.5,0.5c0,0,0,0,0,0v0c0,0.3,0.2,0.5,0.5,0.5
		c0,0,0,0,0,0H18c0.3,0,0.5-0.2,0.5-0.5c0,0,0,0,0,0v-4.1C18.5,13.6,18.3,13.4,18,13.4C18,13.4,18,13.4,18,13.4z"/>
</g>
</svg>
