<?xml version="1.0" encoding="utf-8"?>
<!-- Generator: Adobe Illustrator 24.3.0, SVG Export Plug-In . SVG Version: 6.00 Build 0)  -->
<svg version="1.1" id="Layer_1" xmlns="http://www.w3.org/2000/svg" xmlns:xlink="http://www.w3.org/1999/xlink" x="0px" y="0px"
	 width="20px" height="10.8px" viewBox="0 0 20 10.8" style="enable-background:new 0 0 20 10.8;" xml:space="preserve">
<g transform="translate(0 -104.721)">
	<g transform="translate(0 104.721)">
		<path style="fill:#B8B8B8;" d="M19.7,5C18.9,4,18,3.2,17,2.5c-2-1.6-4.5-2.4-7-2.5C7.5,0.1,5,0.9,3,2.5C2,3.2,1.1,4,0.3,5L0,5.4
			l0.3,0.4C1.1,6.8,2,7.6,3,8.3c2,1.6,4.5,2.4,7,2.5c2.5-0.1,5-0.9,7-2.5c1-0.7,1.9-1.6,2.7-2.5L20,5.4L19.7,5z M10,9.2
			c-2.1,0-3.8-1.7-3.8-3.8c0-0.3,0-0.6,0.1-0.9L5.5,4.3C5.1,6,5.6,7.7,6.8,8.8c-1.1-0.4-2-0.9-3-1.6C3.1,6.7,2.5,6.1,1.8,5.4
			c0.6-0.7,1.3-1.3,2.1-1.8c0.9-0.7,1.9-1.2,3-1.6l0.6,0.7c1.5-1.4,3.9-1.4,5.4,0.2s1.4,3.9-0.2,5.4C11.9,8.8,11,9.2,10,9.2z
			 M16.1,7.2c-0.9,0.7-1.9,1.2-3,1.6c1.9-1.7,2-4.7,0.3-6.6c-0.1-0.1-0.2-0.2-0.3-0.3c1.1,0.4,2,0.9,3,1.6c0.7,0.5,1.4,1.1,2.1,1.8
			C17.5,6.1,16.9,6.7,16.1,7.2z"/>
		<path style="fill:#B8B8B8;" d="M7.3,4.6C6.9,6.1,7.7,7.6,9.2,8.1c1.5,0.5,3.1-0.4,3.5-1.9c0.5-1.5-0.4-3.1-1.9-3.5
			c-1-0.3-2,0-2.8,0.7L9.4,5L7.3,4.6z"/>
	</g>
</g>
</svg>
