<?xml version="1.0" encoding="utf-8"?>
<!-- Generator: Adobe Illustrator 24.3.0, SVG Export Plug-In . SVG Version: 6.00 Build 0)  -->
<svg version="1.1" id="Layer_1" xmlns="http://www.w3.org/2000/svg" xmlns:xlink="http://www.w3.org/1999/xlink" x="0px" y="0px"
	 width="200px" height="29.5px" viewBox="0 0 200 29.5" style="enable-background:new 0 0 200 29.5;" xml:space="preserve">
<g id="Group_693" transform="translate(-453.45 -1494.4)">
	<g id="Group_693-2" transform="translate(494.358 1498.229)">
		<path id="Path_1000" style="fill:#FFFFFF;" d="M9.4,0v1.2H1.2v8.9h8.2v1.2H1.2v10.1H0V0H9.4z"/>
		<path id="Path_1001" style="fill:#FFFFFF;" d="M26.7,21.4h-1.2v-2.7c-0.2,0.3-0.5,0.6-0.8,0.9c-2.9,2.9-7.5,2.9-10.4,0
			c-2.9-2.9-2.9-7.5,0-10.4s7.5-2.9,10.4,0c0,0,0,0,0,0c0.3,0.3,0.5,0.6,0.8,0.9V8.2h1.2L26.7,21.4z M25.5,15.6v-2.4
			c-0.7-3.3-3.8-5.4-7.1-4.7c-3.3,0.7-5.4,3.8-4.7,7.1c0.7,3.3,3.8,5.4,7.1,4.7C23.1,19.8,25,18,25.5,15.6z"/>
		<path id="Path_1002" style="fill:#FFFFFF;" d="M34.3,14.6c-0.8-0.4-1.5-0.9-2.1-1.4c-0.6-0.6-0.9-1.4-0.9-2.2
			c0-0.8,0.3-1.7,0.9-2.2c0.6-0.6,1.4-0.9,2.2-0.9c0.8,0,1.6,0.3,2.2,0.9c0.5,0.5,0.8,1.2,0.8,1.9v0.1l-1,0.4c0-0.6-0.3-1.1-0.6-1.5
			C35.4,9.2,34.9,9,34.4,9c-1.1,0-2,0.9-2,1.9c0,0.5,0.2,1,0.6,1.4c0.4,0.4,0.9,0.7,1.4,1c0.9,0.4,1.7,1,2.4,1.7
			c1.5,1.5,1.6,4,0.1,5.5s-4,1.6-5.5,0.1c0,0,0,0-0.1,0c-0.7-0.6-1.1-1.6-1.1-2.5l1.2-0.3c0,0.7,0.3,1.5,0.8,2c1.1,1,2.8,1,3.8-0.1
			c1-1.1,1-2.7,0-3.8C35.5,15.4,34.9,15,34.3,14.6z"/>
		<path id="Path_1003" style="fill:#FFFFFF;" d="M43.5,8.3V2.7h1.2v5.6h2.7v1.2h-2.7v11.9h-1.2V9.5h-2.7V8.3H43.5z"/>
		<path id="Path_1004" style="fill:#FFFFFF;" d="M71.4,18.2l1.3,0.5c-0.2,0.3-0.5,0.6-0.8,0.9c-2.9,2.9-7.5,2.9-10.4,0
			c-2.9-2.9-2.9-7.5,0-10.4s7.5-2.9,10.4,0c0,0,0,0,0,0c0.3,0.3,0.5,0.6,0.8,0.9l-1.3,0.5c-0.1-0.2-0.3-0.3-0.4-0.5
			c-2.4-2.4-6.2-2.4-8.6,0s-2.4,6.2,0,8.6c2.4,2.4,6.2,2.4,8.6,0C71.1,18.5,71.3,18.4,71.4,18.2z"/>
		<path id="Path_1005" style="fill:#FFFFFF;" d="M82.5,7c4.1,0,7.4,3.3,7.4,7.4s-3.3,7.4-7.4,7.4c-4.1,0-7.4-3.3-7.4-7.4
			c0-2,0.8-3.8,2.2-5.2C78.6,7.8,80.5,7,82.5,7z M78.2,10.1c-2.4,2.4-2.4,6.2,0,8.6c2.4,2.4,6.2,2.4,8.6,0c2.4-2.4,2.4-6.2,0-8.6
			c-1.1-1.1-2.7-1.8-4.3-1.8C80.8,8.3,79.3,8.9,78.2,10.1L78.2,10.1z"/>
		<path id="Path_1006" style="fill:#FFFFFF;" d="M94.3,11.2v10.2H93V8.2h1.2v0.8c1-1,2.4-1.6,3.8-1.6c2.8-0.1,5.2,2,5.3,4.8
			c0,0.1,0,0.2,0,0.3v8.8h-1.2v-8.7c0-1.1-0.4-2.1-1.2-2.9c-1.6-1.6-4.1-1.6-5.7,0C94.8,10.2,94.5,10.6,94.3,11.2z"/>
		<path id="Path_1007" style="fill:#FFFFFF;" d="M108.6,11.2v10.2h-1.2V8.2h1.2v0.8c1-1,2.4-1.6,3.8-1.6c2.8-0.1,5.2,2,5.3,4.8
			c0,0.1,0,0.2,0,0.3v8.8h-1.2v-8.7c0-1.1-0.4-2.1-1.2-2.9c-1.6-1.6-4.1-1.6-5.7,0C109.2,10.2,108.8,10.6,108.6,11.2z"/>
		<path id="Path_1008" style="fill:#FFFFFF;" d="M124.3,18.9c1.1,1,2.5,1.6,4,1.6c1.6,0,3.2-0.6,4.3-1.8c0.2-0.2,0.3-0.3,0.4-0.5
			l1.3,0.5c-0.2,0.3-0.5,0.6-0.8,0.9c-2.9,2.9-7.5,2.8-10.4,0c-2.9-2.9-2.8-7.5,0-10.4c2.6-2.6,6.8-2.9,9.7-0.6
			c0.2,0.2,0.4,0.4,0.6,0.6c0.1,0.1,0.2,0.2,0.2,0.2l-0.9,0.9L124.3,18.9z M132,9.5c-2.7-2-6.5-1.5-8.5,1.2c-1.6,2.2-1.6,5.1,0,7.3
			L132,9.5z"/>
		<path id="Path_1009" style="fill:#FFFFFF;" d="M148.8,18.2l1.3,0.5c-0.2,0.3-0.5,0.6-0.8,0.9c-2.9,2.9-7.5,2.9-10.4,0
			c-2.9-2.9-2.9-7.5,0-10.4s7.5-2.9,10.4,0c0,0,0,0,0,0c0.3,0.3,0.5,0.6,0.8,0.9l-1.3,0.5c-0.1-0.2-0.3-0.3-0.4-0.5
			c-2.4-2.4-6.2-2.4-8.6,0s-2.4,6.2,0,8.6c2.4,2.4,6.2,2.4,8.6,0C148.6,18.5,148.7,18.4,148.8,18.2z"/>
		<path id="Path_1010" style="fill:#FFFFFF;" d="M155.2,8.3V2.7h1.2v5.6h2.7v1.2h-2.7v11.9h-1.2V9.5h-2.7V8.3H155.2z"/>
	</g>
	<g id="Group_694" transform="translate(453.45 1494.4)">
		<path id="Path_1011" style="fill:#FFFFFF;" d="M10,13.5c-1.3-1.3-1.3-3.5,0-4.8c0,0,0,0,0,0l7.1-7.1l0.1-0.1L16,0.5
			c-0.7-0.7-1.7-0.7-2.4,0l-13.1,13c-0.7,0.7-0.7,1.7,0,2.4c0,0,0,0,0,0l13.1,13c0.7,0.7,1.7,0.7,2.4,0l4.7-4.7L10,13.5z M16,25.4
			c-0.7,0.7-1.7,0.7-2.4,0c-0.7-0.7-0.7-1.7,0-2.4s1.7-0.7,2.4,0c0,0,0,0,0,0C16.6,23.7,16.6,24.7,16,25.4L16,25.4z"/>
		<path id="Path_1012" style="fill:#FFFFFF;" d="M13.5,12.3l2.4,2.4l7.1-7.1L19.5,4l-6,6C12.9,10.6,12.9,11.7,13.5,12.3
			C13.5,12.3,13.5,12.3,13.5,12.3z"/>
		<path id="Path_1013" style="fill:#FFFFFF;" d="M23.4,18.7L22,17.3c-0.2-0.2-0.2-0.4,0-0.6c0,0,0,0,0,0l5.1-5.1L25.5,10l-5.9,5.9
			c-0.7,0.7-0.7,1.7,0,2.4l3.5,3.5l5.9-5.9c0.7-0.7,0.7-1.7,0-2.4l-0.2-0.2L23.4,18.7z"/>
	</g>
</g>
</svg>
