<?xml version="1.0" encoding="utf-8"?>
<!-- Generator: Adobe Illustrator 24.3.0, SVG Export Plug-In . SVG Version: 6.00 Build 0)  -->
<svg version="1.1" id="Layer_1" xmlns="http://www.w3.org/2000/svg" xmlns:xlink="http://www.w3.org/1999/xlink" x="0px" y="0px"
	 width="122.2px" height="81.6px" viewBox="0 0 122.2 81.6" style="enable-background:new 0 0 122.2 81.6;" xml:space="preserve">
<path style="opacity:0.18;fill:#68E1FD;enable-background:new    ;" d="M113.4,23.1c-0.4,6.3-2,12.6-1.8,18.9c-7,0.2-14,0-21,1.2
	c-7.9,1.4-16,1.4-24,1.3c-21.7-0.1-43.5-0.3-65.2-0.7c0.9-3.5,2-6.8,3.3-10.1c3-7.3-1.4-16.2,3.6-22.8c8.5-11.5,29.4-9.2,42.3-8.5
	C58,2.8,65.3,3.2,72.5,2.2C77.2,1.5,87.7,0,88.3,0C95.5,0.1,114.5,4.4,113.4,23.1z"/>
<path style="fill:#68E1FD;" d="M58.7,16.7v4h0.6v-1.6h3.4l-1.1-1.3l1.2-1.2L58.7,16.7z"/>
<linearGradient id="SVGID_1_" gradientUnits="userSpaceOnUse" x1="-439.5601" y1="355.6659" x2="-438.1781" y2="352.3719" gradientTransform="matrix(4.166 0 0 -4.08 1888.6071 1461.9695)">
	<stop  offset="0" style="stop-color:#FFFFFF;stop-opacity:0"/>
	<stop  offset="0.99" style="stop-color:#FFFFFF"/>
</linearGradient>
<path style="fill:url(#SVGID_1_);" d="M58.7,16.7v4h0.6v-1.6h3.4l-1.1-1.2l1.2-1.2L58.7,16.7z"/>
<path style="fill:#68E1FD;" d="M118.5,75.9c-1.7,1.4-3.6,2.5-5.6,3.2c-8.9,3.4-19.3,2.9-29,1.6s-19.4-3.2-29.2-2.4
	c-5.7,0.5-11.3,1.9-16.9,2.1c-0.7,0-1.4,0-2.1,0c-3.4-0.1-6.8-0.5-10.1-1.3c-1.7-0.4-3.4-0.9-5.1-1.4c-5-1.5-10.1-3.4-13.5-6.8
	c-2-2-10.3-8.1-5.7-27c21.7,0.3,43.5,0.6,65.2,0.7c8,0,16.1,0.1,24-1.4c7-1.2,13.9-1.1,21-1.2c0,0.5,0.1,1,0.1,1.5
	c0.3,3.6,1.4,5.4,3.5,8.3c2.1,2.7,3.9,5.5,5.4,8.6C123,65.5,123,71.8,118.5,75.9z"/>
<linearGradient id="SVGID_2_" gradientUnits="userSpaceOnUse" x1="-424.1596" y1="352.6602" x2="-423.1596" y2="352.6602" gradientTransform="matrix(3.7571 0 0 -4.0297 1686.2881 1464.1416)">
	<stop  offset="0" style="stop-color:#ECC4D7"/>
	<stop  offset="0.42" style="stop-color:#EFD4D1"/>
	<stop  offset="1" style="stop-color:#F2EAC9"/>
</linearGradient>
<path style="fill:url(#SVGID_2_);" d="M96,43.2c0.1-0.3,0.3-0.7,0.4-1c0.1-0.1,0.1-0.3,0-0.4c-0.1-0.1-0.2-0.2-0.3-0.2
	c-0.7-0.4-1.5-0.6-2.3-0.5c-0.2,0-0.4,0.1-0.6,0.2c-0.2,0.1-0.4,0.4-0.5,0.6c-0.1,0.3-0.1,0.5-0.1,0.8c-0.1,0.3-0.1,0.7,0,1
	c0.1,0.4,0.4,0.7,0.7,0.8c0,0,0.1,0,0.1,0c0.2,0.1,0.3,0.4,0.5,0.5c0.1,0.1,0.2,0.1,0.4,0.1c0.6,0.1,1.1-0.2,1.4-0.6
	c0.1-0.1,0.1-0.3,0.1-0.4C95.9,43.7,95.9,43.4,96,43.2z"/>
<linearGradient id="SVGID_3_" gradientUnits="userSpaceOnUse" x1="-454.5824" y1="377.7057" x2="-456.0314" y2="377.1417" gradientTransform="matrix(4.736 0 0 -5.578 2201.1953 2155.4053)">
	<stop  offset="5.000000e-02" style="stop-color:#000000;stop-opacity:0"/>
	<stop  offset="0.89" style="stop-color:#000000;stop-opacity:0.749"/>
	<stop  offset="0.99" style="stop-color:#000000"/>
</linearGradient>
<path style="fill:url(#SVGID_3_);" d="M46.5,48.6l-2.7,4.9l-2-1.8l1.6-3.8l2.7,0.3L46.5,48.6z"/>
<path style="fill:#68E1FD;" d="M46.1,48.2l-2.7,4.9l-2-1.8l1.6-3.8L46.1,48.2z"/>
<linearGradient id="SVGID_4_" gradientUnits="userSpaceOnUse" x1="-455.9559" y1="377.3309" x2="-454.9559" y2="377.3309" gradientTransform="matrix(4.736 0 0 -5.579 2200.7747 2155.4724)">
	<stop  offset="0" style="stop-color:#FFFFFF;stop-opacity:0"/>
	<stop  offset="0.99" style="stop-color:#FFFFFF"/>
</linearGradient>
<path style="fill:url(#SVGID_4_);" d="M46.1,48.2l-2.7,4.9l-2-1.8l1.6-3.8L46.1,48.2z"/>
<linearGradient id="SVGID_5_" gradientUnits="userSpaceOnUse" x1="-539.835" y1="403.5555" x2="-538.9631" y2="405.9724" gradientTransform="matrix(15.2085 0 0 -9.7162 8238.0947 4007.2534)">
	<stop  offset="5.000000e-02" style="stop-color:#000000;stop-opacity:0"/>
	<stop  offset="0.89" style="stop-color:#000000;stop-opacity:0.749"/>
	<stop  offset="0.99" style="stop-color:#000000"/>
</linearGradient>
<path style="fill:url(#SVGID_5_);" d="M40.5,72c-0.3,0.8-0.6,1.6-0.8,2.5c-0.5,1.6-1,3.3-1.5,4.9c-0.1,0.3-0.2,0.5-0.3,0.8
	c0,0.1-0.1,0.1-0.2,0.2c-0.7,0-1.4,0-2.1,0c-3.4-0.1-6.8-0.5-10.1-1.3l0,0c0.3-0.4,0.7-0.8,1.2-1.1c1.4-1.2,4.3-1.9,5.8-3.1
	c0.6-0.5,1.3-0.9,2-1.3c1.2-0.5,1.2-1,2.6-0.9c0.2,0,0.3,0,0.4,0.1c0.3,0.2,0.2,0.6,0,0.9c-0.2,0.4-0.5,0.9-0.7,1.3
	c0.4,0,0.8-0.2,1.1-0.5c0.3-0.3,0.5-0.6,0.7-1l0.9-1.6c0.1-0.3,0.4-0.6,0.6-0.8C41.3,70.1,40.7,71.6,40.5,72z"/>
<linearGradient id="SVGID_6_" gradientUnits="userSpaceOnUse" x1="-346.7859" y1="405.2696" x2="-345.7829" y2="405.2696" gradientTransform="matrix(2.4998 0 0 -9.8812 905.8868 4070.3652)">
	<stop  offset="0" style="stop-color:#ECC4D7"/>
	<stop  offset="0.42" style="stop-color:#EFD4D1"/>
	<stop  offset="1" style="stop-color:#F2EAC9"/>
</linearGradient>
<path style="fill:url(#SVGID_6_);" d="M40.8,66.8c-0.2,0.5-0.4,1.1-0.6,1.6c-0.2,0.5-0.2,1.1,0,1.7c0.1,0.1,0.1,0.3,0.1,0.4
	c-0.1,0.1-0.2,0.2-0.4,0.2c-0.2,0-0.3,0-0.4-0.1c-0.3-0.2-0.5-0.6-0.5-1c0-0.4,0-0.8,0.1-1.1c0.1-1-0.1-2-0.1-3.1c0-0.4,0-0.8,0-1.1
	c0.1-0.9,0.1-1.7,0.2-2.6c0-0.2,0-0.5,0-0.7c0.1-0.1,0.3,0,0.4-0.1c0.4-0.2,0.8,0,1.3,0.1c0.5,0.1,0.4,0.4,0.4,0.8
	c0,1.1-0.1,2.1-0.2,3.2C41.2,65.7,41,66.2,40.8,66.8z"/>
<linearGradient id="SVGID_7_" gradientUnits="userSpaceOnUse" x1="-353.3607" y1="399.1203" x2="-352.3577" y2="399.1203" gradientTransform="matrix(2.573 0 0 -8.4474 945.6631 3436.2219)">
	<stop  offset="0" style="stop-color:#ECC4D7"/>
	<stop  offset="0.42" style="stop-color:#EFD4D1"/>
	<stop  offset="1" style="stop-color:#F2EAC9"/>
</linearGradient>
<path style="fill:url(#SVGID_7_);" d="M36.7,63c-0.1,0.5-0.2,0.9-0.2,1.4c-0.1,1.3,0,2.7,0.2,4c0,0.2,0,0.3,0.1,0.4
	c0.1,0.1,0.2,0.1,0.3,0.1c0.3,0,0.7-0.1,0.9-0.4c0.2-0.3,0.3-0.6,0.3-0.9c0.1-0.8,0.1-1.6,0.1-2.4c0-0.2,0-0.3,0-0.5
	c0-0.1-0.1-0.3-0.2-0.4c0-0.4,0.1-0.8,0.4-1.2c0.2-0.4,0.4-0.9,0.4-1.4c0.1-0.5,0.1-1-0.6-1.2c-0.6-0.2-1.3,0.1-1.6,0.7
	c0,0,0,0.1,0,0.1C36.7,61.9,36.8,62.5,36.7,63z"/>
<linearGradient id="SVGID_8_" gradientUnits="userSpaceOnUse" x1="-397.3397" y1="384.4942" x2="-396.3376" y2="384.4942" gradientTransform="matrix(3.1994 0 0 -6.2801 1313.0508 2464.6873)">
	<stop  offset="0" style="stop-color:#ECC4D7"/>
	<stop  offset="0.42" style="stop-color:#EFD4D1"/>
	<stop  offset="1" style="stop-color:#F2EAC9"/>
</linearGradient>
<path style="fill:url(#SVGID_8_);" d="M43.8,47.5c0.4,0.5,0.7,1.1,0.7,1.7c0.2,0.9,0.3,1.8,0.4,2.7c0.1,0.4,0,0.8-0.2,1.1
	c-0.1,0.1-0.1,0.1-0.2,0.2c-0.2,0-0.4,0-0.6-0.2c-0.6-0.7-1-1.5-1.2-2.3c-0.2-0.6-0.5-1.1-0.7-1.7c-0.1-0.4-0.4-1.5,0-1.8
	C42.5,46.7,43.5,47.1,43.8,47.5z"/>
<rect x="34" y="29.4" style="fill:#68E1FD;" width="50.2" height="15.1"/>
<linearGradient id="SVGID_9_" gradientUnits="userSpaceOnUse" x1="-565.971" y1="416.5667" x2="-565.9821" y2="418.7357" gradientTransform="matrix(50.162 0 0 -15.111 28449.6621 6350.4648)">
	<stop  offset="0" style="stop-color:#FFFFFF;stop-opacity:0"/>
	<stop  offset="0.99" style="stop-color:#FFFFFF"/>
</linearGradient>
<rect x="34" y="29.4" style="fill:url(#SVGID_9_);" width="50.2" height="15.1"/>
<path style="fill:#68E1FD;" d="M34.7,24.7l-3.2,5.1h55l-3.4-4.9L34.7,24.7z"/>
<linearGradient id="SVGID_10_" gradientUnits="userSpaceOnUse" x1="-566.9966" y1="372.1819" x2="-566.9327" y2="362.3689" gradientTransform="matrix(54.983 0 0 -5.1 31233.6953 1920.9274)">
	<stop  offset="0" style="stop-color:#000000;stop-opacity:0"/>
	<stop  offset="0.99" style="stop-color:#000000"/>
</linearGradient>
<path style="fill:url(#SVGID_10_);" d="M34.7,24.7l-3.2,5.1h55l-3.4-4.9L34.7,24.7z"/>
<path style="fill:#68E1FD;" d="M66.2,44.6H51.6V27.5l7.4-6.1l7.2,6.1V44.6z"/>
<linearGradient id="SVGID_11_" gradientUnits="userSpaceOnUse" x1="-538.186" y1="426.895" x2="-537.809" y2="425.1049" gradientTransform="matrix(14.624 0 0 -23.14 7926.2549 9891.3027)">
	<stop  offset="0" style="stop-color:#FFFFFF;stop-opacity:0"/>
	<stop  offset="0.99" style="stop-color:#FFFFFF"/>
</linearGradient>
<path style="fill:url(#SVGID_11_);" d="M66.2,44.6H51.6V27.5l7.4-6.1l7.2,6.1V44.6z"/>
<path style="fill:#68E1FD;" d="M49.9,27.8l0.6,0.7l8.4-7l8.2,6.9l0.8-0.6l-9-8L49.9,27.8z"/>
<rect x="55" y="34.8" style="fill:#FFFFFF;" width="7.7" height="9.8"/>
<rect x="55.6" y="31.4" style="fill:#68E1FD;" width="6.9" height="2"/>
<ellipse style="fill:#68E1FD;" cx="59" cy="27" rx="2.7" ry="2.3"/>
<rect x="36.1" y="31.2" style="fill:#68E1FD;" width="5.7" height="1.4"/>
<rect x="43.6" y="31.2" style="fill:#68E1FD;" width="5.7" height="1.4"/>
<rect x="68.9" y="31.2" style="fill:#68E1FD;" width="5.7" height="1.4"/>
<rect x="76.4" y="31.2" style="fill:#68E1FD;" width="5.7" height="1.4"/>
<rect x="36.1" y="33.4" style="fill:#68E1FD;" width="5.5" height="3"/>
<rect x="37.8" y="33.4" style="fill:#68E1FD;" width="2.1" height="3.1"/>
<rect x="43.7" y="33.4" style="fill:#68E1FD;" width="5.5" height="3"/>
<rect x="45.4" y="33.4" style="fill:#68E1FD;" width="2.1" height="3.1"/>
<rect x="43.7" y="38.4" style="fill:#68E1FD;" width="5.5" height="3"/>
<rect x="45.4" y="38.4" style="fill:#68E1FD;" width="2.1" height="3.1"/>
<rect x="36" y="38.4" style="fill:#68E1FD;" width="5.5" height="3"/>
<rect x="37.7" y="38.4" style="fill:#68E1FD;" width="2.1" height="3.1"/>
<rect x="76.6" y="38.4" style="fill:#68E1FD;" width="5.5" height="3"/>
<rect x="78.3" y="38.4" style="fill:#68E1FD;" width="2.1" height="3.1"/>
<rect x="68.9" y="38.4" style="fill:#68E1FD;" width="5.5" height="3"/>
<rect x="70.6" y="38.4" style="fill:#68E1FD;" width="2.1" height="3.1"/>
<rect x="76.6" y="33.3" style="fill:#68E1FD;" width="5.5" height="3"/>
<rect x="78.3" y="33.3" style="fill:#68E1FD;" width="2.1" height="3.1"/>
<rect x="68.9" y="33.3" style="fill:#68E1FD;" width="5.5" height="3"/>
<rect x="70.6" y="33.3" style="fill:#68E1FD;" width="2.1" height="3.1"/>
<linearGradient id="SVGID_12_" gradientUnits="userSpaceOnUse" x1="-404.0958" y1="338.5618" x2="-403.0898" y2="338.5618" gradientTransform="matrix(3.3237 0 0 -3.4778 1382.413 1222.4362)">
	<stop  offset="0" style="stop-color:#ECC4D7"/>
	<stop  offset="0.42" style="stop-color:#EFD4D1"/>
	<stop  offset="1" style="stop-color:#F2EAC9"/>
</linearGradient>
<path style="fill:url(#SVGID_12_);" d="M42.4,45.3c0,0.2-0.2,0.4-0.4,0.4c-0.1,0-0.3,0-0.4-0.1c-0.1-0.1-0.3,0-0.4,0
	c0,0.1-0.1,0.1-0.1,0.2c-0.1,0.2-0.5,0.8-0.7,0.8c-0.2,0-0.4-0.1-0.6-0.1c-0.2-0.1-0.3-0.2-0.3-0.4c0-0.4,0.1-0.8,0.2-1.2
	c0-0.2,0.1-0.4,0.2-0.5c0.1-0.2,0.2-0.3,0.4-0.5c0.4-0.4,1-0.7,1.6-0.7c0.1,0,0.2,0,0.4,0.1c0.1,0.1,0.2,0.1,0.3,0.2
	c0.1,0.1,0.2,0.2,0.2,0.4c0,0.1,0,0.3,0,0.4C42.6,44.6,42.5,45,42.4,45.3z"/>
<path style="fill:#68E1FD;" d="M38.2,46.1c1.6-0.2,3.2,0,4.7,0.7c0.1,0,0.2,0.1,0.2,0.2c0,0.1,0.1,0.1,0.1,0.2
	c0,0.7-0.2,1.5-0.4,2.2c-0.1,0.6-0.2,1.2-0.2,1.9l-0.2,2.7c0,0.3-0.1,0.7-0.3,1c-0.3,0.3-0.8,0.5-1.2,0.5c-0.8,0.1-1.5,0-2.3-0.3
	c-0.5-0.1-0.9-0.3-1.4-0.6c-0.5-0.4-0.8-1-0.8-1.7c0-0.6,0.1-1.2,0.3-1.8c0.4-1.1,0.6-2.2,0.7-3.4C37.5,47,37.3,46.2,38.2,46.1z"/>
<linearGradient id="SVGID_13_" gradientUnits="userSpaceOnUse" x1="-492.3621" y1="403.5504" x2="-491.3601" y2="403.5504" gradientTransform="matrix(6.7493 0 0 -9.4336 3359.5503 3857.6238)">
	<stop  offset="0" style="stop-color:#FFFFFF;stop-opacity:0"/>
	<stop  offset="0.99" style="stop-color:#FFFFFF"/>
</linearGradient>
<path style="fill:url(#SVGID_13_);" d="M38.2,46.1c1.6-0.2,3.2,0,4.7,0.7c0.1,0,0.2,0.1,0.2,0.2c0,0.1,0.1,0.1,0.1,0.2
	c0,0.7-0.2,1.5-0.4,2.2c-0.1,0.6-0.2,1.2-0.2,1.9l-0.2,2.7c0,0.3-0.1,0.7-0.3,1c-0.3,0.3-0.8,0.5-1.2,0.5c-0.8,0.1-1.5,0-2.3-0.3
	c-0.5-0.1-0.9-0.3-1.4-0.6c-0.5-0.4-0.8-1-0.8-1.7c0-0.6,0.1-1.2,0.3-1.8c0.4-1.1,0.6-2.2,0.7-3.4C37.5,47,37.3,46.2,38.2,46.1z"/>
<linearGradient id="SVGID_14_" gradientUnits="userSpaceOnUse" x1="-472.6331" y1="374.4097" x2="-471.6341" y2="374.4097" gradientTransform="matrix(5.4856 0 0 -5.3361 2625.2454 2047.0038)">
	<stop  offset="0" style="stop-color:#ECC4D7"/>
	<stop  offset="0.42" style="stop-color:#EFD4D1"/>
	<stop  offset="1" style="stop-color:#F2EAC9"/>
</linearGradient>
<path style="fill:url(#SVGID_14_);" d="M36,47.6c-0.3,0.3-0.6,0.5-0.9,0.8c-0.4,0.4-0.9,0.7-1.4,1c-0.5,0.3-0.8,0.7-1.1,1.2
	c-0.2,0.3-0.1,0.7,0.1,0.9c0.3,0.2,0.7,0.3,1,0.2c0.2,0,0.4,0,0.6-0.1c0.1-0.1,0.3-0.1,0.4-0.2c0.9-0.7,1.8-1.4,2.6-2.2
	c0.2-0.1,0.3-0.3,0.4-0.5c0.1-0.2,0.1-0.5,0.1-0.7c0-0.3,0-1.5-0.5-1.5c-0.2,0-0.6,0.4-0.7,0.5C36.5,47.2,36.2,47.3,36,47.6z"/>
<path style="fill:#68E1FD;" d="M42.3,56.3c0.5,1.8,0.5,3.6,0.2,5.4c-0.7-0.5-1.5-0.7-2.4-0.6c-0.8,0.1-1.7,0.2-2.5,0.2
	c-0.8-0.2-1.5-0.3-2.3-0.3c-0.2,0-0.4,0.1-0.6,0.1c-0.7,0-1.4-0.1-2-0.4c-0.1,0-0.2-0.1-0.2-0.2c0-0.1,0-0.1,0.1-0.2
	c0.3-0.5,0.8-1,1.4-1.3c0.2-0.1,0.5-0.3,0.6-0.4c0.1-0.1,0.2-0.3,0.3-0.4c0.2-0.3,0.3-0.7,0.4-1c0.2-0.5,0.2-1.1,0.3-1.7
	c0.1-0.6,0.5-1.1,1-1.4c0.6-0.2,1.2-0.3,1.8-0.1c1,0.2,1.9,0.6,2.9,0.8C42.1,55.1,42.1,55.6,42.3,56.3z"/>
<linearGradient id="SVGID_15_" gradientUnits="userSpaceOnUse" x1="-522.3749" y1="395.7387" x2="-520.4189" y2="395.0717" gradientTransform="matrix(10.2307 0 0 -7.7472 5367.8276 3120.2498)">
	<stop  offset="5.000000e-02" style="stop-color:#000000;stop-opacity:0"/>
	<stop  offset="0.89" style="stop-color:#000000;stop-opacity:0.749"/>
	<stop  offset="0.99" style="stop-color:#000000"/>
</linearGradient>
<path style="fill:url(#SVGID_15_);" d="M42.3,56.3c0.5,1.8,0.5,3.6,0.2,5.4c-0.7-0.5-1.5-0.7-2.4-0.6c-0.8,0.1-1.7,0.2-2.5,0.2
	c-0.8-0.2-1.5-0.3-2.3-0.3c-0.2,0-0.4,0.1-0.6,0.1c-0.7,0-1.4-0.1-2-0.4c-0.1,0-0.2-0.1-0.2-0.2c0-0.1,0-0.1,0.1-0.2
	c0.3-0.5,0.8-1,1.4-1.3c0.2-0.1,0.5-0.3,0.6-0.4c0.1-0.1,0.2-0.3,0.3-0.4c0.2-0.3,0.3-0.7,0.4-1c0.2-0.5,0.2-1.1,0.3-1.7
	c0.1-0.6,0.5-1.1,1-1.4c0.6-0.2,1.2-0.3,1.8-0.1c1,0.2,1.9,0.6,2.9,0.8C42.1,55.1,42.1,55.6,42.3,56.3z"/>
<path style="fill:#3F3D56;" d="M36.9,68c0.3-0.2,0.8-0.1,1.1,0.1c0.2,0.3,0.4,0.6,0.4,1c0,0.2,0,0.5,0.1,0.7
	c0.1,0.3,0.3,0.7,0.6,0.9c0.2,0.2,0.5,0.5,0.5,0.8s-0.4,0.5-0.8,0.6c-0.6,0.1-1.1-0.1-1.5-0.5c-0.4-0.6-0.6-1.3-0.4-1.9
	C36.8,69.3,36.4,68.4,36.9,68z"/>
<linearGradient id="SVGID_16_" gradientUnits="userSpaceOnUse" x1="-283.2956" y1="320.6924" x2="-283.7016" y2="313.6454" gradientTransform="matrix(1.9653 0 0 -2.9231 595.0775 1003.1075)">
	<stop  offset="0" style="stop-color:#FFFFFF;stop-opacity:0"/>
	<stop  offset="0.99" style="stop-color:#FFFFFF"/>
</linearGradient>
<path style="fill:url(#SVGID_16_);" d="M37.2,69.8c0-0.2,0-0.4,0.1-0.5c0.1-0.2,0.3-0.3,0.5-0.2c0.2,0.1,0.3,0.2,0.3,0.4
	c0,0.2,0,0.4,0,0.5c0.1,0.3,0.3,0.6,0.5,0.7c0.2,0.1,0.4,0.3,0.5,0.5c0.1,0.2,0.1,0.5-0.1,0.6C38.8,72,38.7,72,38.5,72
	c-0.2,0-0.3-0.1-0.4-0.2c-0.3-0.2-0.6-0.5-0.8-0.9c0-0.2-0.1-0.3-0.1-0.5C37.2,70.3,37.2,70,37.2,69.8z"/>
<path style="fill:#3F3D56;" d="M40.5,71.1c-0.2,0-0.4,0-0.6,0c-0.2-0.1-0.3-0.1-0.5-0.2c-0.3-0.2-0.4-0.5-0.4-0.8
	c0-0.1,0-0.5,0.1-0.5s0.5,0.3,0.6,0.4s0.3,0.2,0.4,0.1s0-0.3,0.1-0.4c0.3,0,0.5,0,0.8,0c0.1,0,0.2,0.1,0.3,0.1
	c0.1,0.1,0.1,0.1,0.1,0.2c0,0.3-0.1,0.5-0.3,0.7C40.9,70.9,40.7,71,40.5,71.1L40.5,71.1z"/>
<path style="fill:none;stroke:#3CB6D5;stroke-width:1.51;stroke-miterlimit:10;" d="M40.3,42.6c0.2,0.1,0.3,0.3,0.2,0.5
	c0,0,0,0.1-0.1,0.1c-0.1,0-0.2,0-0.3,0c-0.1-0.1-0.1-0.1-0.2-0.2c-0.1-0.1-0.4-0.3-0.3-0.4C39.8,42.4,40.2,42.5,40.3,42.6z"/>
<path style="fill:#3F3D56;" d="M39.1,41.7c0.2-0.2,0.4-0.3,0.6-0.4c0.1-0.1,0.2-0.1,0.4-0.1c0.1,0,0.3,0,0.4,0c0.5,0,1,0.2,1.5,0.5
	c0.4,0.3,0.7,0.7,0.8,1.2c0.1,0.4,0,0.9-0.4,1.2c-0.1,0.1-0.2,0.2-0.2,0.2c-0.1,0.1-0.2,0.3-0.2,0.5c-0.1,0.1-0.1,0.3-0.3,0.4
	c-0.1,0.1-0.3,0.2-0.5,0.2c0,0-0.1,0-0.1,0c0,0-0.1,0-0.1,0.1c-0.1,0.1-0.3,0.1-0.5,0.1c-0.2,0-0.3-0.1-0.4-0.2c0,0-0.1,0-0.1,0
	c-0.1,0-0.2,0.1-0.3,0.1c-0.1,0-0.2,0-0.3-0.1c-0.1-0.1-0.2-0.1-0.2-0.2c-0.1,0-0.1,0-0.2-0.1c0,0-0.1-0.1-0.1-0.1
	c-0.2-0.5,0-1.2-0.2-1.7c-0.1-0.1-0.1-0.3-0.1-0.4c0-0.1,0.1-0.2,0.1-0.4C38.8,42.2,38.9,41.9,39.1,41.7z"/>
<linearGradient id="SVGID_17_" gradientUnits="userSpaceOnUse" x1="-438.9185" y1="358.2755" x2="-439.2505" y2="358.2675" gradientTransform="matrix(4.1754 0 0 -4.3014 1874.0132 1584.3611)">
	<stop  offset="5.000000e-02" style="stop-color:#000000;stop-opacity:0"/>
	<stop  offset="0.89" style="stop-color:#000000;stop-opacity:0.749"/>
	<stop  offset="0.99" style="stop-color:#000000"/>
</linearGradient>
<path style="fill:url(#SVGID_17_);" d="M39.1,41.7c0.2-0.2,0.4-0.3,0.6-0.4c0.1-0.1,0.2-0.1,0.4-0.1c0.1,0,0.3,0,0.4,0
	c0.5,0,1,0.2,1.5,0.5c0.4,0.3,0.7,0.7,0.8,1.2c0.1,0.4,0,0.9-0.4,1.2c-0.1,0.1-0.2,0.2-0.2,0.2c-0.1,0.1-0.2,0.3-0.2,0.5
	c-0.1,0.1-0.1,0.3-0.3,0.4c-0.1,0.1-0.3,0.2-0.5,0.2c0,0-0.1,0-0.1,0c0,0-0.1,0-0.1,0.1c-0.1,0.1-0.3,0.1-0.5,0.1
	c-0.2,0-0.3-0.1-0.4-0.2c0,0-0.1,0-0.1,0c-0.1,0-0.2,0.1-0.3,0.1c-0.1,0-0.2,0-0.3-0.1c-0.1-0.1-0.2-0.1-0.2-0.2
	c-0.1,0-0.1,0-0.2-0.1c0,0-0.1-0.1-0.1-0.1c-0.2-0.5,0-1.2-0.2-1.7c-0.1-0.1-0.1-0.3-0.1-0.4c0-0.1,0.1-0.2,0.1-0.4
	C38.8,42.2,38.9,41.9,39.1,41.7z"/>
<path style="fill:#68E1FD;" d="M91.3,46.4l0.7-0.6c0.4-0.4,0.8-0.6,1.3-0.8c0.5-0.2,1.1-0.2,1.6-0.2c0.8,0,1.6,0.1,2.3,0.2
	c1,0.1,1.9,0.5,2.8,1c-0.2,2.1-0.2,4.1-0.1,6.2c0.2,1.8,0.2,3.5,0.2,5.3c0,0.2,0,0.3-0.2,0.4c-0.1,0.1-0.3,0.1-0.5,0.1
	c-1.2,0-2.5-0.2-3.7-0.2c-1.2,0-2.3,0.2-3.4,0.6c-0.1,0-0.1,0-0.2,0c-0.1,0-0.1-0.1-0.1-0.1c-0.3-0.3-0.5-0.7-0.6-1.1
	c-0.1-0.4-0.1-0.9,0-1.3l0.1-0.9c0-0.2,0.1-0.5,0.1-0.7c0.1-0.3,0.3-0.6,0.5-0.8c0.3-0.6,0.5-1.2,0.5-1.9c0.1-1,0.1-2.1,0-3.2
	c0-0.5-0.1-1-0.4-1.4C91.9,46.7,91.6,46.5,91.3,46.4L91.3,46.4z"/>
<path style="fill:#68E1FD;" d="M103,49.2c0,0,0,0.1,0,0.1c0,0.1-0.1,0.1-0.1,0.1c-0.5,0.3-1,0.5-1.5,0.7c-0.1,0.1-0.3,0.1-0.5,0.1
	c-0.1,0-0.2-0.1-0.3-0.2c-0.4-0.4-0.8-0.9-1.2-1.3c-0.1-0.1-0.2-0.3-0.3-0.4c-0.1-0.1-0.1-0.3-0.1-0.4c-0.1-0.4-0.3-1.4,0.2-1.7
	s1.1,0.2,1.5,0.4C101.7,47.3,102.5,48.2,103,49.2z"/>
<path style="fill:#68E1FD;" d="M91,46.7c-0.3,0.3-0.5,0.7-0.7,1.1c-0.2,0.4-0.4,0.9-0.6,1.3c-0.3,0.5-0.4,1.1-0.3,1.6
	c0.3-0.1,0.5-0.2,0.7-0.5c0.2-0.2,0.4-0.4,0.7-0.4c0.3,0.1,0.5,0.3,0.5,0.5c0.1,0.1,0.2,0.3,0.3,0.2c0.1,0,0.1-0.1,0.1-0.1l0.7-1
	c0.1-0.2,0.3-0.4,0.3-0.6c0.2-0.6-0.2-1.2-0.5-1.8c-0.1-0.2-0.1-0.9-0.3-1C91.7,46,91.2,46.5,91,46.7z"/>
<linearGradient id="SVGID_18_" gradientUnits="userSpaceOnUse" x1="-512.1032" y1="416.4576" x2="-512.4612" y2="415.2346" gradientTransform="matrix(8.8876 0 0 -13.6376 4650.3296 5714.5879)">
	<stop  offset="0" style="stop-color:#FFFFFF;stop-opacity:0"/>
	<stop  offset="0.99" style="stop-color:#FFFFFF"/>
</linearGradient>
<path style="fill:url(#SVGID_18_);" d="M91.3,46.4l0.7-0.6c0.4-0.4,0.8-0.6,1.3-0.8c0.5-0.2,1.1-0.2,1.6-0.2c0.8,0,1.6,0.1,2.3,0.2
	c1,0.1,1.9,0.5,2.8,1c-0.2,2.1-0.2,4.1-0.1,6.2c0.2,1.8,0.2,3.5,0.2,5.3c0,0.2,0,0.3-0.2,0.4c-0.1,0.1-0.3,0.1-0.5,0.1
	c-1.2,0-2.5-0.2-3.7-0.2c-1.2,0-2.3,0.2-3.4,0.6c-0.1,0-0.1,0-0.2,0c-0.1,0-0.1-0.1-0.1-0.1c-0.3-0.3-0.5-0.7-0.6-1.1
	c-0.1-0.4-0.1-0.9,0-1.3l0.1-0.9c0-0.2,0.1-0.5,0.1-0.7c0.1-0.3,0.3-0.6,0.5-0.8c0.3-0.6,0.5-1.2,0.5-1.9c0.1-1,0.1-2.1,0-3.2
	c0-0.5-0.1-1-0.4-1.4C91.9,46.7,91.6,46.5,91.3,46.4L91.3,46.4z"/>
<linearGradient id="SVGID_19_" gradientUnits="userSpaceOnUse" x1="-434.6669" y1="352.0266" x2="-434.0599" y2="358.6656" gradientTransform="matrix(4.037 0 0 -4.176 1854.3838 1533.9165)">
	<stop  offset="0" style="stop-color:#FFFFFF;stop-opacity:0"/>
	<stop  offset="0.99" style="stop-color:#FFFFFF"/>
</linearGradient>
<path style="fill:url(#SVGID_19_);" d="M103,49.2c0,0,0,0.1,0,0.1c0,0.1-0.1,0.1-0.1,0.1c-0.5,0.3-1,0.5-1.5,0.7
	c-0.1,0.1-0.3,0.1-0.5,0.1c-0.1,0-0.2-0.1-0.3-0.2c-0.4-0.4-0.8-0.9-1.2-1.3c-0.1-0.1-0.2-0.3-0.3-0.4c-0.1-0.1-0.1-0.3-0.1-0.4
	c-0.1-0.4-0.3-1.4,0.2-1.7s1.1,0.2,1.5,0.4C101.7,47.3,102.5,48.2,103,49.2z"/>
<linearGradient id="SVGID_20_" gradientUnits="userSpaceOnUse" x1="-413.8062" y1="359.4325" x2="-413.1132" y2="365.4125" gradientTransform="matrix(3.5197 0 0 -4.6301 1545.7257 1734.592)">
	<stop  offset="0" style="stop-color:#FFFFFF;stop-opacity:0"/>
	<stop  offset="0.99" style="stop-color:#FFFFFF"/>
</linearGradient>
<path style="fill:url(#SVGID_20_);" d="M91,46.7c-0.3,0.3-0.5,0.7-0.7,1.1c-0.2,0.4-0.4,0.9-0.6,1.3c-0.3,0.5-0.4,1.1-0.3,1.6
	c0.3-0.1,0.5-0.2,0.7-0.5c0.2-0.2,0.4-0.4,0.7-0.4c0.3,0.1,0.5,0.3,0.5,0.5c0.1,0.1,0.2,0.3,0.3,0.2c0.1,0,0.1-0.1,0.1-0.1l0.7-1
	c0.1-0.2,0.3-0.4,0.3-0.6c0.2-0.6-0.2-1.2-0.5-1.8c-0.1-0.2-0.1-0.9-0.3-1C91.7,46,91.2,46.5,91,46.7z"/>
<path style="fill:#68E1FD;" d="M93.7,45.3c0.1,0.3-0.1,0.5-0.3,0.8c-0.1,0.2-0.2,0.4-0.3,0.7c-0.5,1.9-0.4,4,0.3,5.8
	c0.2,0.5,0.4,1,0.8,1.4c0.6,0.6,1.4,0.9,2.2,0.9c0.3,0,0.7,0,1-0.1c0.7-0.1,1.4-0.1,2.2,0c0.4,0.1,0.7,0.1,1.1,0
	c0.2-0.1,0.3-0.2,0.4-0.3c0.4-0.3,0.7-0.7,0.9-1.2c0.1-0.3,0.1-0.6,0-0.9c-0.1-1.2-0.3-2.4-0.5-3.5c-0.1-0.7-0.3-1.4-0.6-2
	c-0.3-0.7-0.8-1.2-1.5-1.6c-0.5-0.2-1-0.4-1.5-0.6c-0.1-0.1-0.3-0.2-0.5-0.3c-0.2-0.1-0.4,0-0.5,0.1c-0.3-0.3-0.8-0.4-1.2-0.3
	c-0.4,0-0.8,0.3-1.1,0.6c-0.3,0-0.6-0.1-0.9-0.1c-0.3,0-0.6,0.1-0.9,0.3C93.2,45,93.6,45,93.7,45.3z"/>
<linearGradient id="SVGID_21_" gradientUnits="userSpaceOnUse" x1="-515.3041" y1="409.0923" x2="-513.7651" y2="405.9293" gradientTransform="matrix(9.2315 0 0 -10.7873 4850.5986 4454.0498)">
	<stop  offset="0" style="stop-color:#000000;stop-opacity:0"/>
	<stop  offset="0.99" style="stop-color:#000000"/>
</linearGradient>
<path style="fill:url(#SVGID_21_);" d="M93.7,45.3c0.1,0.3-0.1,0.5-0.3,0.8c-0.1,0.2-0.2,0.4-0.3,0.7c-0.5,1.9-0.4,4,0.3,5.8
	c0.2,0.5,0.4,1,0.8,1.4c0.6,0.6,1.4,0.9,2.2,0.9c0.3,0,0.7,0,1-0.1c0.7-0.1,1.4-0.1,2.2,0c0.4,0.1,0.7,0.1,1.1,0
	c0.2-0.1,0.3-0.2,0.4-0.3c0.4-0.3,0.7-0.7,0.9-1.2c0.1-0.3,0.1-0.6,0-0.9c-0.1-1.2-0.3-2.4-0.5-3.5c-0.1-0.7-0.3-1.4-0.6-2
	c-0.3-0.7-0.8-1.2-1.5-1.6c-0.5-0.2-1-0.4-1.5-0.6c-0.1-0.1-0.3-0.2-0.5-0.3c-0.2-0.1-0.4,0-0.5,0.1c-0.3-0.3-0.8-0.4-1.2-0.3
	c-0.4,0-0.8,0.3-1.1,0.6c-0.3,0-0.6-0.1-0.9-0.1c-0.3,0-0.6,0.1-0.9,0.3C93.2,45,93.6,45,93.7,45.3z"/>
<path style="fill:#68E1FD;" d="M94.5,49.2c-0.1-0.8,0.1-1.7,0.6-2.3c0.5-0.4,1.1-0.7,1.7-0.8c0.7-0.1,1.3,0,2,0.1
	c0.4,0,0.8,0.2,1.1,0.4c0.2,0.2,0.4,0.5,0.4,0.8c0.4,1.3,0.7,2.6,1,3.9c0.1,0.3,0.1,0.6,0,0.9c-0.3,0.4-0.6,0.6-1.1,0.7
	c-1.3,0.5-3.2,1-4.5,0C94.7,52.3,94.5,50.3,94.5,49.2z"/>
<linearGradient id="SVGID_22_" gradientUnits="userSpaceOnUse" x1="-495.2156" y1="394.0423" x2="-492.3656" y2="391.8933" gradientTransform="matrix(6.9463 0 0 -7.4349 3531.3567 2974.3562)">
	<stop  offset="0" style="stop-color:#FFFFFF;stop-opacity:0"/>
	<stop  offset="0.99" style="stop-color:#FFFFFF"/>
</linearGradient>
<path style="fill:url(#SVGID_22_);" d="M94.5,49.2c-0.1-0.8,0.1-1.7,0.6-2.3c0.5-0.4,1.1-0.7,1.7-0.8c0.7-0.1,1.3,0,2,0.1
	c0.4,0,0.8,0.2,1.1,0.4c0.2,0.2,0.4,0.5,0.4,0.8c0.4,1.3,0.7,2.6,1,3.9c0.1,0.3,0.1,0.6,0,0.9c-0.3,0.4-0.6,0.6-1.1,0.7
	c-1.3,0.5-3.2,1-4.5,0C94.7,52.3,94.5,50.3,94.5,49.2z"/>
<path style="fill:#68E1FD;" d="M91.7,62.9c-0.1,0.4-0.1,0.8,0,1.2c0.3,0.5,0.9,0.7,1.5,0.7c0.6,0.1,1.3,0.1,1.9,0.1
	c0.1,0,0.2,0,0.3-0.1c0.1-0.1,0.2-0.2,0.1-0.3l0.1-0.9l0,0.2c1.1-1.2,2.9-1.4,4.3-0.5c-0.1-0.9-0.2-1.8,0-2.6
	c0.1-0.4,0.1-0.7,0.2-1.1c0-0.5-0.2-1-0.4-1.4c0-0.1-0.1-0.2-0.2-0.3c-0.1,0-0.2-0.1-0.3-0.1c-1.2-0.2-2.4-0.3-3.6-0.2
	c-1.1-0.1-2.1,0.1-3.1,0.5c-0.6,0.3-0.6,1-0.6,1.5C91.9,60.8,91.9,61.9,91.7,62.9z"/>
<linearGradient id="SVGID_23_" gradientUnits="userSpaceOnUse" x1="-509.5017" y1="395.0387" x2="-508.7368" y2="391.4997" gradientTransform="matrix(8.4336 0 0 -7.3198 4388.2622 2935.0332)">
	<stop  offset="5.000000e-02" style="stop-color:#000000;stop-opacity:0"/>
	<stop  offset="0.89" style="stop-color:#000000;stop-opacity:0.749"/>
	<stop  offset="0.99" style="stop-color:#000000"/>
</linearGradient>
<path style="fill:url(#SVGID_23_);" d="M91.7,62.9c-0.1,0.4-0.1,0.8,0,1.2c0.3,0.5,0.9,0.7,1.5,0.7c0.6,0.1,1.3,0.1,1.9,0.1
	c0.1,0,0.2,0,0.3-0.1c0.1-0.1,0.2-0.2,0.1-0.3l0.1-0.9c0,0.1,0.5,0.8,0.5,0.9c1-1.1,2.5-2,3.8-1.1c-0.1-0.9-0.2-1.8,0-2.6
	c0.1-0.4,0.1-0.7,0.2-1.1c0-0.5-0.2-1-0.4-1.4c0-0.1-0.1-0.2-0.2-0.3c-0.1,0-0.2-0.1-0.3-0.1c-1.2-0.2-2.4-0.3-3.6-0.2
	c-1.1-0.1-2.1,0.1-3.1,0.5c-0.6,0.3-0.6,1-0.6,1.5C91.9,60.8,91.9,61.9,91.7,62.9z"/>
<path style="fill:#3F3D56;" d="M96.2,64.5C96.2,64.5,96.2,64.5,96.2,64.5C96.2,64.5,96.2,64.5,96.2,64.5c1,0.1,2-0.1,2.8-0.5
	l0.7-0.3c0.1,0,0.2-0.1,0.2-0.2c0,0,0-0.1-0.1-0.1c-0.2-0.2-0.5-0.4-0.7-0.4c-0.3-0.1-0.6-0.1-0.9,0c-0.4,0-0.8,0.2-1.1,0.5
	C96.8,63.7,96.5,64.1,96.2,64.5z"/>
<linearGradient id="SVGID_24_" gradientUnits="userSpaceOnUse" x1="-381.6328" y1="390.6332" x2="-380.6328" y2="390.6332" gradientTransform="matrix(2.9435 0 0 -7.038 1220.2327 2815.5679)">
	<stop  offset="0" style="stop-color:#ECC4D7"/>
	<stop  offset="0.42" style="stop-color:#EFD4D1"/>
	<stop  offset="1" style="stop-color:#F2EAC9"/>
</linearGradient>
<path style="fill:url(#SVGID_24_);" d="M98.1,68.6c0,0.4,0,0.7,0,1.1c0,0.1,0,0.1,0.1,0.2c0.1,0,0.1,0,0.2,0
	c0.4-0.1,0.9-0.3,1.2-0.5c0.1-0.1,0.2-0.1,0.3-0.3c0-0.1,0-0.2,0-0.3c-0.1-0.3-0.1-0.7-0.1-1c0-0.3,0-0.6,0-0.9l0.1-1.6
	c0.1-0.7,0-1.4-0.4-2c-0.1-0.2-0.2-0.3-0.4-0.3c-0.2-0.1-0.4-0.1-0.6-0.1c-0.4,0-0.8,0.1-1.1,0.3c-0.9,0.6-0.4,1.7-0.2,2.4
	C97.7,66.5,97.9,67.5,98.1,68.6z"/>
<path style="fill:#3F3D56;" d="M98.2,68.9c-0.2,0.9,0.4,1.7,0.3,2.6c0,0.2-0.1,0.5-0.2,0.7c0,0.3,0.1,0.5,0.2,0.7
	c0.2,0.2,0.5,0.3,0.8,0.3c0.1,0,0.3-0.1,0.4-0.1c0.9-0.5,1.4-1.5,1.3-2.5c-0.1-0.3-0.1-0.5-0.2-0.8c-0.1-0.4-0.3-0.9-0.4-1.3
	c-0.1-0.3-0.2-0.7-0.5-0.8C99,67.4,98.3,68.4,98.2,68.9z"/>
<linearGradient id="SVGID_25_" gradientUnits="userSpaceOnUse" x1="-317.1537" y1="360.03" x2="-321.6407" y2="355.859" gradientTransform="matrix(2.2302 0 0 -4.3337 809.6111 1626.3647)">
	<stop  offset="0" style="stop-color:#FFFFFF;stop-opacity:0"/>
	<stop  offset="0.99" style="stop-color:#FFFFFF"/>
</linearGradient>
<path style="fill:url(#SVGID_25_);" d="M99.1,71.1c-0.1,0.2-0.2,0.5-0.4,0.6c-0.2,0.3-0.2,0.6-0.2,0.9c0,0.3,0.2,0.5,0.4,0.5
	c0.2,0,0.4,0,0.6-0.1c0.2-0.1,0.3-0.2,0.4-0.4c0.3-0.3,0.6-0.6,0.7-1c0-0.2,0.1-0.4,0-0.6c0-0.4-0.1-0.8-0.2-1.1
	c-0.1-0.4-0.3-0.7-0.5-1c-0.3-0.2-0.6-0.2-0.9,0.1c-0.3,0.2-0.4,0.6-0.3,0.9C99,70.3,99.2,70.7,99.1,71.1z"/>
<linearGradient id="SVGID_26_" gradientUnits="userSpaceOnUse" x1="-352.4575" y1="357.3246" x2="-351.4605" y2="357.3246" gradientTransform="matrix(2.5627 0 0 -4.253 992.7748 1571.7793)">
	<stop  offset="0" style="stop-color:#ECC4D7"/>
	<stop  offset="0.42" style="stop-color:#EFD4D1"/>
	<stop  offset="1" style="stop-color:#F2EAC9"/>
</linearGradient>
<path style="fill:url(#SVGID_26_);" d="M89.8,52.5c0.1,0.2,0.3,0.4,0.5,0.6l1.1,1.2c0.3-0.2,0.7-0.5,0.6-0.9c0-0.1-0.1-0.2-0.2-0.4
	c-0.2-0.3-0.3-0.6-0.4-1c-0.1-0.2-0.1-0.5,0-0.8c0-0.1,0.1-0.2,0.1-0.4c0-0.2-0.2-0.5-0.4-0.6c-0.1-0.1-0.3-0.2-0.4-0.2
	c-0.1,0-0.2,0-0.4,0.1c-0.4,0.1-0.7,0.5-0.8,1C89.5,51.5,89.6,52,89.8,52.5z"/>
<linearGradient id="SVGID_27_" gradientUnits="userSpaceOnUse" x1="-251.8079" y1="292.6113" x2="-250.8079" y2="292.6113" gradientTransform="matrix(1.772 0 0 -2.4045 547.8853 754.3277)">
	<stop  offset="0" style="stop-color:#ECC4D7"/>
	<stop  offset="0.42" style="stop-color:#EFD4D1"/>
	<stop  offset="1" style="stop-color:#F2EAC9"/>
</linearGradient>
<path style="fill:url(#SVGID_27_);" d="M103.5,50.6c-0.1,0.3-0.3,0.6-0.6,0.8c-0.3,0.2-0.6,0.4-0.9,0.5c-0.1-0.2-0.2-0.5-0.2-0.7
	l-0.1-1.1c0,0,0-0.1,0-0.1c0,0,0-0.1,0.1-0.1c0.2-0.1,0.8-0.6,1.1-0.4c0.1,0.1,0.2,0.3,0.3,0.4C103.4,50.2,103.4,50.4,103.5,50.6z"
	/>
<path style="fill:#68E1FD;" d="M40.9,48.8c-0.1,0.9,0,1.9,0.3,2.7c0.3,1.2,0.4,2.4,0.1,3.5c-0.3,1.3-1.3,2.2-2.5,2.6
	c-0.7,0.2-1.5,0.2-2.2,0c-0.6-0.1-1.2-0.3-1.8-0.6c-1-0.8-1.4-2.1-0.9-3.2c0.5-1.1,1.1-2.2,1.8-3.1c0.7-0.9,1.1-2.1,1-3.3
	c0-0.2-0.1-0.4-0.1-0.6c0.1-0.3,0.3-0.6,0.6-0.8c0.3-0.2,0.7-0.2,1,0l0.5,1.1c0,0.1,0.1,0.2,0.2,0.2c0.1,0,0.3,0,0.4-0.1
	c0.6-0.2,1.1-0.6,1.7-0.8c0.5-0.2,1-0.2,1.5,0C42.4,47.3,41.1,47.8,40.9,48.8z"/>
<linearGradient id="SVGID_28_" gradientUnits="userSpaceOnUse" x1="-513.8697" y1="410.6857" x2="-510.0717" y2="412.3557" gradientTransform="matrix(8.833 0 0 -11.9261 4561.1592 4959.2397)">
	<stop  offset="5.000000e-02" style="stop-color:#000000;stop-opacity:0"/>
	<stop  offset="0.89" style="stop-color:#000000;stop-opacity:0.749"/>
	<stop  offset="0.99" style="stop-color:#000000"/>
</linearGradient>
<path style="fill:url(#SVGID_28_);" d="M40.9,48.8c-0.1,0.9,0,1.9,0.3,2.7c0.3,1.2,0.4,2.4,0.1,3.5c-0.3,1.3-1.3,2.2-2.5,2.6
	c-0.7,0.2-1.5,0.2-2.2,0c-0.6-0.1-1.2-0.3-1.8-0.6c-1-0.8-1.4-2.1-0.9-3.2c0.5-1.1,1.1-2.2,1.8-3.1c0.7-0.9,1.1-2.1,1-3.3
	c0-0.2-0.1-0.4-0.1-0.6c0.1-0.3,0.3-0.6,0.6-0.8c0.3-0.2,0.7-0.2,1,0l0.5,1.1c0,0.1,0.1,0.2,0.2,0.2c0.1,0,0.3,0,0.4-0.1
	c0.6-0.2,1.1-0.6,1.7-0.8c0.5-0.2,1-0.2,1.5,0C42.4,47.3,41.1,47.8,40.9,48.8z"/>
<path style="fill:#68E1FD;" d="M16.6,23.1c0,1.1,0.4,2.2,1.1,3.1c-1.9,0.2-3.4,2.1-2.9,3.8c0.1,0.3,0.2,0.6,0,0.8
	c-0.1,0.2-0.3,0.3-0.5,0.3c-1.8,0.7-3.3,2.1-4.1,3.8c-0.7,1.7-0.3,3.8,1.1,5c1.4,1.1,3.1,1.6,4.9,1.5c1.8,0.1,3.5-0.2,5.3-0.2
	c1.2,0.1,2.5,0.1,3.7-0.1c1.2-0.3,2.4-1.1,2.5-2.2c0.1-1.3-1.3-2.4-2.6-3.1c1.4-0.9,1.8-2.8,0.9-4.2c-0.9-1-2.1-1.8-3.4-2.2
	c0.9-0.4,1.3-1.5,0.9-2.4c0,0,0,0,0,0c-0.5-0.9-1.4-1.5-2.4-1.7c0.6-0.2,1.2-0.6,1.6-1.2c0.4-0.5,0.3-1.2-0.2-1.7c0,0,0,0,0,0
	c-0.3-0.2-0.8-0.2-1-0.5c-0.1-0.2-0.2-0.3-0.2-0.5C20.5,19.5,16.7,21.6,16.6,23.1z"/>
<path style="fill:#68E1FD;" d="M94.7,31.5c-1.1,1-1.2,2.8-0.1,3.9c0.1,0.1,0.1,0.1,0.2,0.2c-0.7,0.5-1.2,1.1-1.4,1.9
	c-0.1,1.3,1.7,2.3,3.2,2c1.4-0.3,2.7-1.1,3.7-2.2c1.3,1.2,3.1,1.7,4.8,1.2c0.5-0.1,0.9-0.4,1.3-0.7c0.5-0.7,0.4-1.6-0.2-2.2
	c-0.6-0.6-1.4-1.1-2.2-1.4c1.2-0.4,2.1-1.4,2.2-2.7c-0.1-1.3-1.2-2.2-2.5-2.1c0,0,0,0-0.1,0c1.3-0.8,1.6-2.5,0.8-3.7
	c0-0.1-0.1-0.1-0.1-0.2c-1.1-1.2-2.7-1.8-4.3-1.6c-1.9,0.2-3.7,1.7-3.3,3.4c-1.1-0.6-2.4-0.4-3.2,0.5c-0.5,0.8-0.3,1.9,0.5,2.5
	c0.1,0.1,0.2,0.1,0.4,0.2C95.7,30.9,95.6,30.6,94.7,31.5z"/>
<linearGradient id="SVGID_29_" gradientUnits="userSpaceOnUse" x1="-545.1772" y1="424.453" x2="-545.2182" y2="421.032" gradientTransform="matrix(17.8854 0 0 -20.7922 9769.6172 8852.8311)">
	<stop  offset="0" style="stop-color:#000000;stop-opacity:0"/>
	<stop  offset="0.99" style="stop-color:#000000"/>
</linearGradient>
<path style="fill:url(#SVGID_29_);" d="M16.6,23.1c0,1.1,0.4,2.2,1.1,3.1c-1.9,0.2-3.4,2.1-2.9,3.8c0.1,0.3,0.2,0.6,0,0.8
	c-0.1,0.2-0.3,0.3-0.5,0.3c-1.8,0.7-3.3,2.1-4.1,3.8c-0.7,1.7-0.3,3.8,1.1,5c1.4,1.1,3.1,1.6,4.9,1.5c1.8,0.1,3.5-0.2,5.3-0.2
	c1.2,0.1,2.5,0.1,3.7-0.1c1.2-0.3,2.4-1.1,2.5-2.2c0.1-1.3-1.3-2.4-2.6-3.1c1.4-0.9,1.8-2.8,0.9-4.2c-0.9-1-2.1-1.8-3.4-2.2
	c0.9-0.4,1.3-1.5,0.9-2.4c0,0,0,0,0,0c-0.5-0.9-1.4-1.5-2.4-1.7c0.6-0.2,1.2-0.6,1.6-1.2c0.4-0.5,0.3-1.2-0.2-1.7c0,0,0,0,0,0
	c-0.3-0.2-0.8-0.2-1-0.5c-0.1-0.2-0.2-0.3-0.2-0.5C20.5,19.5,16.7,21.6,16.6,23.1z"/>
<linearGradient id="SVGID_30_" gradientUnits="userSpaceOnUse" x1="-534.6157" y1="419.0851" x2="-533.1627" y2="416.0541" gradientTransform="matrix(13.3907 0 0 -15.675 7255.1211 6594.1611)">
	<stop  offset="0" style="stop-color:#000000;stop-opacity:0"/>
	<stop  offset="0.99" style="stop-color:#000000"/>
</linearGradient>
<path style="fill:url(#SVGID_30_);" d="M94.7,31.5c-1.1,1-1.2,2.8-0.1,3.9c0.1,0.1,0.1,0.1,0.2,0.2c-0.7,0.5-1.2,1.1-1.4,1.9
	c-0.1,1.3,1.7,2.3,3.2,2c1.4-0.3,2.7-1.1,3.7-2.2c1.3,1.2,3.1,1.7,4.8,1.2c0.5-0.1,0.9-0.4,1.3-0.7c0.5-0.7,0.4-1.6-0.2-2.2
	c-0.6-0.6-1.4-1.1-2.2-1.4c1.2-0.4,2.1-1.4,2.2-2.7c-0.1-1.3-1.2-2.2-2.5-2.1c0,0,0,0-0.1,0c1.3-0.8,1.6-2.5,0.8-3.7
	c0-0.1-0.1-0.1-0.1-0.2c-1.1-1.2-2.7-1.8-4.3-1.6c-1.9,0.2-3.7,1.7-3.3,3.4c-1.1-0.6-2.4-0.4-3.2,0.5c-0.5,0.8-0.3,1.9,0.5,2.5
	c0.1,0.1,0.2,0.1,0.4,0.2C95.7,30.9,95.6,30.6,94.7,31.5z"/>
<path style="fill:#68E1FD;" d="M98.3,35.8c-0.6-0.8-1.3-1.4-2.1-2l2.1,1.2c0.1,0.1,0.2,0.1,0.4,0.1c0.4,0,0.4-0.6,0.2-0.9l-2-4.1
	c1.3,1,2.2,2.3,2.7,3.8c0.5-0.5,1-1.1,1.4-1.8c0.3,0.9-0.6,1.8-0.8,2.8c-0.1,0.5,0,0.9,0.1,1.4c0.4,2,0.9,4,1.7,5.9
	c-2.2,0.1-2.5-0.1-2.5-2C99.6,38.7,99.2,37.1,98.3,35.8z"/>
<path style="fill:#68E1FD;" d="M59.1,48c-0.1,0.7-0.4,1.4-0.8,2c-2.3,3.3-6.3,5.7-7.7,9.4c-1.2,3.1-0.3,6.6,1.2,9.6s2.4,6.1,4.1,9.1
	c10.1,0.2,20.1,1,30.1,2.5c-3.6-2.1-20.2-14.2-22.4-21c-1-3,2.2-4.6,1.7-7.7c-0.5-2.4-1.9-4.5-3.9-6c-0.6-0.4-2.4-1.9-3.2-1.2
	C57.3,45.4,59.2,47.1,59.1,48z"/>
<linearGradient id="SVGID_31_" gradientUnits="userSpaceOnUse" x1="-560.415" y1="429.4952" x2="-563.31" y2="434.4413" gradientTransform="matrix(35.9759 0 0 -36.0212 20266.0742 15608.0254)">
	<stop  offset="5.000000e-02" style="stop-color:#000000;stop-opacity:0"/>
	<stop  offset="0.89" style="stop-color:#000000;stop-opacity:0.749"/>
	<stop  offset="0.99" style="stop-color:#000000"/>
</linearGradient>
<path style="fill:url(#SVGID_31_);" d="M59.1,48c-0.1,0.7-0.4,1.4-0.8,2c-2.3,3.3-6.3,5.7-7.7,9.4c-1.2,3.1-0.3,6.6,1.2,9.6
	s2.4,6.1,4.1,9.1c10.1,0.2,20.1,1,30.1,2.5c-3.6-2.1-20.2-14.2-22.4-21c-1-3,2.2-4.6,1.7-7.7c-0.5-2.4-1.9-4.5-3.9-6
	c-0.6-0.4-2.4-1.9-3.2-1.2C57.3,45.4,59.2,47.1,59.1,48z"/>
<path style="fill:#68E1FD;" d="M16.5,43.2c-0.1,0.2-0.1,0.4-0.1,0.6c0.1,0.2,0.5,0.3,0.8,0.3h2.2c-0.4-0.8-0.5-1.6-0.3-2.5
	c0-1.3,0.4-2.5,1.2-3.5c0.7-0.7,1.7-1,2.4-1.7c-0.1-0.2-0.4-0.2-0.6-0.1l-2.7,1c-0.6-1-0.7-2.1-0.3-3.2c0.4-1,0.5-2.2,0.3-3.2
	c-0.3,1.3-0.8,2.7-1.3,3.9L17,34c0.1,0.3,0.2,0.6,0.3,0.8c0.2,0.3,0.3,0.5,0.3,0.8c0.1,0.9,0.2,1.7,0.1,2.6
	C17.6,40,17.2,41.7,16.5,43.2z"/>
<path style="fill:#FFFFFF;" d="M93.2,5C92,5.7,91.1,7,90.8,8.4c0,0.2-0.1,0.5-0.2,0.6c-0.3,0.3-0.9,0.2-1.4,0.1
	C86.7,8.5,84,9.9,83.3,12c-2.5,0.1-5.4,0.4-6.6,2.3c-0.2,0.3-0.3,0.7-0.3,1c0.2,1,1.5,1.3,2.6,1.4c2.6,0.2,5.1,0.3,7.7,0.2
	c8.2-0.1,16.4-0.1,24.6-0.7c0.4,0,0.8-0.1,1-0.4c0.1-0.2,0.1-0.4,0.1-0.6c-0.4-2.9-2.3-5.5-4.5-7.6c-1.7-1.7-4-3.4-6.6-3.1
	C100,5.1,98.7,5,97.5,4.6C96.1,4.1,94.5,4.3,93.2,5z"/>
<path style="fill:#FFFFFF;" d="M27.6,12.2c0.4,0.2,0.8,0.4,1.2,0.5c1.1,0.2,2-0.6,3-1c2.6-1.2,5.7-0.1,8.2,1.2
	c0.5,0.3,1,0.4,1.5,0.6c0.6,0.1,1.2,0,1.8,0c2.3,0,4.7,0.3,6.9,1c0.4,0.1,0.7,0.2,1,0.5c0.2,0.4,0.1,0.8-0.1,1.2
	c-1,1.4-3.1,1.5-5,1.5L13,17.2c-0.6,0-1.3-0.1-1.9-0.2c-0.8-0.3-1.4-1-1.5-1.8c-0.1-0.8,0.4-1.6,1.2-2c0.8-0.4,1.7-0.4,2.5,0
	C15.6,8.9,24,10.2,27.6,12.2z"/>
<path style="fill:#3F3D56;" d="M38.1,42.6c-0.6,0.2-1,0.5-1.4,1c-0.1,0.1-0.2,0.3-0.3,0.5c-0.3,0.5-0.2,1.2-0.8,1.6
	c0.3,0,0.5-0.1,0.8-0.3c-0.3,0.4-0.8,0.6-1.2,0.8c0.1,0.1,0.2,0.2,0.4,0.2c0.2,0,0.3,0,0.5-0.1c0.8-0.2,1.6-0.8,1.9-1.6
	c-0.1,0.2-0.2,0.4-0.3,0.6c0,0.1,0,0.1,0,0.2c0.1,0.1,0.3,0,0.4-0.1c0.4-0.5,0.9-1,1.4-1.4c0.2-0.2,0.6-0.3,0.6-0.6
	C40.1,42.6,38.7,42.4,38.1,42.6z"/>
<linearGradient id="SVGID_32_" gradientUnits="userSpaceOnUse" x1="-192.9019" y1="370.0712" x2="-188.6658" y2="369.8682" gradientTransform="matrix(1.4947 0 0 -5.0045 380.0451 1913.9563)">
	<stop  offset="5.000000e-02" style="stop-color:#000000;stop-opacity:0"/>
	<stop  offset="0.89" style="stop-color:#000000;stop-opacity:0.749"/>
	<stop  offset="0.99" style="stop-color:#000000"/>
</linearGradient>
<path style="fill:url(#SVGID_32_);" d="M95.2,60.3c0-0.1-0.1-0.3-0.2-0.3c-0.2,0.4-0.3,0.7-0.4,1.1l-0.3,1.1
	c-0.1,0.4-0.2,0.9-0.2,1.3c0,0.4,0.1,0.7,0.4,1c0.2,0.2,0.7,0.7,0.9,0.4c0.1-0.4,0.2-0.8,0.2-1.2C95.7,63.3,95.2,61,95.2,60.3z"/>
<path style="fill:#3F3D56;" d="M92.6,63.9c0.3-0.1,0.5-0.1,0.8-0.2c0.3,0,0.5,0.1,0.8,0.2l0.8,0.3c0.1,0,0.2,0.1,0.3,0.2
	c0.1,0.1,0.1,0.2,0.1,0.3c-0.1,0.1-0.2,0.1-0.3,0.1c-0.5,0.1-0.9,0-1.4-0.1c-0.3-0.1-0.7-0.2-1-0.3c-0.2-0.1-0.6-0.2-0.6-0.4
	S92.4,64,92.6,63.9z"/>
<linearGradient id="SVGID_33_" gradientUnits="userSpaceOnUse" x1="-283.4539" y1="394.4733" x2="-282.4579" y2="394.4733" gradientTransform="matrix(1.9623 0 0 -7.6127 648.7947 3070.5911)">
	<stop  offset="0" style="stop-color:#ECC4D7"/>
	<stop  offset="0.42" style="stop-color:#EFD4D1"/>
	<stop  offset="1" style="stop-color:#F2EAC9"/>
</linearGradient>
<path style="fill:url(#SVGID_33_);" d="M92.6,71.1c0,0.1,0,0.1,0,0.2c0,0.1,0.1,0.1,0.2,0.1c0.4,0.1,0.8,0.1,1.1-0.2
	c0.2-0.3,0.2-0.5,0.1-0.8c0-1.5,0.2-3,0.5-4.5c0.1-0.4,0-0.9-0.1-1.3c-0.1-0.4-0.5-0.7-0.9-0.7c-0.8,0-0.8,0.7-0.8,1.2l0,2.1
	C92.6,68.4,92.6,69.7,92.6,71.1z"/>
<path style="fill:#3F3D56;" d="M92.5,72.4l0.2,0.6c0,0,0,0.1,0.1,0.1c0.1,0,0.1,0.1,0.2,0c0.5,0,1-0.1,1.5-0.2c0,0,0.1,0,0.1-0.1
	c0,0,0.1-0.1,0.1-0.1c0.1-0.5,0.1-1,0-1.5c0-0.2-0.1-0.4-0.2-0.6c0,0-0.1-0.1-0.1-0.1c-0.1,0-0.2,0-0.2,0.1
	c-0.3,0.2-0.6,0.2-0.9,0.3c-0.2,0-0.3,0-0.5,0c-0.1,0-0.2-0.1-0.3-0.1C91.9,70.8,92.4,72.2,92.5,72.4z"/>
<linearGradient id="SVGID_34_" gradientUnits="userSpaceOnUse" x1="-548.2778" y1="396.697" x2="-550.0349" y2="400.147" gradientTransform="matrix(20.2949 0 0 -8.2348 11245.5967 3354.6599)">
	<stop  offset="5.000000e-02" style="stop-color:#000000;stop-opacity:0"/>
	<stop  offset="0.89" style="stop-color:#000000;stop-opacity:0.749"/>
	<stop  offset="0.99" style="stop-color:#000000"/>
</linearGradient>
<path style="fill:url(#SVGID_34_);" d="M102.4,80.6c0.4,0.3,0.8,0.5,1.3,0.5c0.7-0.1,1.3-0.3,1.9-0.6c0.8-0.2,1.6-0.3,2.3-0.3
	c2-0.3,3.8-1,5.5-2.1c-2.3-1.9-5.8-2-8.8-3c-0.7-0.2-1.4-0.5-2-0.7c-1.3-0.5-2.5-0.9-3.8-1.2c-0.3,0.2-0.1,0.5,0.1,0.8
	c1.3,1.5,2.8,2.9,4.5,3.9c-0.6,0.3-1.3,0.2-1.9-0.2c-1.9-1-3.7-2.1-5.4-3.5c-0.4-0.3-2.4-1.9-2.8-1.1c-0.4,0.7,1.8,2.1,2.2,2.5
	C97.6,77.4,100,79.1,102.4,80.6z"/>
<linearGradient id="SVGID_35_" gradientUnits="userSpaceOnUse" x1="-441.8571" y1="386.4002" x2="-445.0051" y2="384.1842" gradientTransform="matrix(4.308 0 0 -6.3785 1948.4147 2509.9421)">
	<stop  offset="5.000000e-02" style="stop-color:#000000;stop-opacity:0"/>
	<stop  offset="0.89" style="stop-color:#000000;stop-opacity:0.749"/>
	<stop  offset="0.99" style="stop-color:#000000"/>
</linearGradient>
<path style="fill:url(#SVGID_35_);" d="M38.3,48.8c0.5,0.1,1,0.3,1.4,0.7c0.3,0.4,0.6,0.9,0.6,1.4c0.1,0.5,0.1,1,0.1,1.5
	c0.1,0.4,0.2,0.9,0.2,1.3c0,0.5-0.1,0.9-0.4,1.3c-0.4-0.6-0.7-1.3-0.7-2c-0.1-0.8-0.4-1.5-0.9-2.2c-0.3-0.4-0.7-0.7-1.1-0.9
	c-0.3,0-0.5-0.1-0.8-0.1c-0.2,0-0.4-0.1-0.4-0.2c0-0.1,0-0.1,0-0.2c0.1-0.3,0.2-0.7,0.6-0.8C37.4,48.6,37.9,48.6,38.3,48.8z"/>
<linearGradient id="SVGID_36_" gradientUnits="userSpaceOnUse" x1="-447.5721" y1="360.0047" x2="-448.8191" y2="355.0487" gradientTransform="matrix(4.4678 0 0 -4.2836 2038.4785 1587.7542)">
	<stop  offset="5.000000e-02" style="stop-color:#000000;stop-opacity:0"/>
	<stop  offset="0.89" style="stop-color:#000000;stop-opacity:0.749"/>
	<stop  offset="0.99" style="stop-color:#000000"/>
</linearGradient>
<path style="fill:url(#SVGID_36_);" d="M37.7,53.3c-0.1-0.3-0.3-0.6-0.6-0.8c-0.6-0.2-1.3-0.2-1.8,0.2c-0.2,0.1-0.5,0.2-0.7,0.4
	c-0.2,0.3-0.4,0.6-0.5,0.9c-0.1,0.4-0.1,0.7-0.1,1.1c0,0.2,0,0.5,0.1,0.7c0.2,0.3,0.5,0.5,0.8,0.6c0.9,0.4,1.8,0.4,2.7,0.1
	c0.3-0.1,0.5-0.2,0.7-0.4c0.3-0.4,0-0.9-0.1-1.2C38.1,54.4,37.9,53.8,37.7,53.3z"/>
<path style="fill:#3F3D56;" d="M92.4,40.3c0,0.3,0,0.6-0.1,0.9c-0.1,0.2-0.1,0.4-0.1,0.7c0.1,0.2,0.2,0.3,0.4,0.4
	c0.2,0.1,0.3,0.2,0.5,0.3c0.2,0.2,0.3,0.4,0.4,0.6c0,0.2,0.1,0.3,0.2,0.4c0.1,0.1,0.3,0.2,0.5,0.3c0.2,0,0.4,0,0.6,0l0.7-0.1
	c0.1,0,0.3,0,0.4-0.1c0.1-0.1,0.1-0.2,0.2-0.4c0-0.1,0.1-0.1,0.1-0.2c0-0.1,0.1-0.1,0.1-0.2c0.1-0.3,0.5-0.6,0.6-0.9
	c0-0.2,0-0.3,0.1-0.5c0.1-0.3,0.4-0.4,0.6-0.7c-0.2,0-0.5-0.1-0.7-0.3c0,0-0.1-0.1,0-0.1c0.1,0,0.2,0,0.3,0l-0.6-0.6
	c-0.2-0.2-0.3-0.3-0.5-0.4c-0.4-0.1-0.8-0.2-1.3-0.2c0,0-0.1,0-0.1,0c0,0,0,0,0-0.1c-0.1-0.1-0.2-0.1-0.2-0.1c-0.5,0-1,0.1-1.4,0.3
	C92.6,39.5,92.4,39.9,92.4,40.3z"/>
</svg>
