<?xml version="1.0" encoding="utf-8"?>
<!-- Generator: Adobe Illustrator 24.3.0, SVG Export Plug-In . SVG Version: 6.00 Build 0)  -->
<svg version="1.1" id="Layer_1" xmlns="http://www.w3.org/2000/svg" xmlns:xlink="http://www.w3.org/1999/xlink" x="0px" y="0px"
	 width="30px" height="30px" viewBox="0 0 30 30" style="enable-background:new 0 0 30 30;" xml:space="preserve">
<path style="fill:#FBBB00;" d="M6.6,18.1l-1,3.9l-3.8,0.1c-2.3-4.4-2.4-9.6-0.1-14l0,0l3.4,0.6l1.5,3.4C5.9,14.1,5.9,16.2,6.6,18.1
	L6.6,18.1z"/>
<path style="fill:#518EF8;" d="M29.7,12.2c1,5.5-1,11-5.3,14.5l0,0l-4.3-0.2l-0.6-3.8c1.8-1,3.1-2.6,3.8-4.6h-8v-5.9L29.7,12.2
	L29.7,12.2z"/>
<path style="fill:#28B446;" d="M24.4,26.7L24.4,26.7c-6.5,5.2-15.9,4.2-21.1-2.3c-0.6-0.7-1.1-1.5-1.5-2.3l4.9-4
	c1.7,4.6,6.9,6.9,11.5,5.2c0.5-0.2,0.9-0.4,1.4-0.7L24.4,26.7z"/>
<path style="fill:#F14336;" d="M24.6,3.5l-4.9,4C15.5,4.8,10,6.1,7.4,10.3c-0.4,0.6-0.6,1.2-0.9,1.8l-4.9-4l0,0
	C5.5,0.7,14.5-2.1,21.9,1.7C22.8,2.2,23.7,2.8,24.6,3.5L24.6,3.5z"/>
</svg>
