<?xml version="1.0" encoding="utf-8"?>
<!-- Generator: Adobe Illustrator 24.3.0, SVG Export Plug-In . SVG Version: 6.00 Build 0)  -->
<svg version="1.1" id="Layer_1" xmlns="http://www.w3.org/2000/svg" xmlns:xlink="http://www.w3.org/1999/xlink" x="0px" y="0px"
	 width="108.5px" height="102.6px" viewBox="0 0 108.5 102.6" style="enable-background:new 0 0 108.5 102.6;" xml:space="preserve"
	>
<path style="opacity:0.18;fill:#68E1FD;enable-background:new    ;" d="M39.8,9.9c-4.4,4.2-6.7,10.1-10.9,14.4
	c-7.7,7.9-21.1,9.4-26.6,19c-2.8,4.8-2.9,10.7-1.2,16s5,9.8,8.7,13.9c6.7,7.2,14.9,12.8,24.1,16.2c4.3,1.7,9,2.5,13.6,2.3
	c5.5-0.4,10.6-2.8,16-3.8c5.7-1,11.6-0.5,17.2-1.7s11.5-4.7,12.6-10.4c0.7-3.5-0.4-7.2,0.4-10.7c1.4-6.1,8-9.4,11.7-14.5
	c1.9-2.7,3-5.8,3.1-9.1c0.2-3.5-1.1-6.9-3.5-9.4c-1.9-1.8-4.5-2.7-6.9-3.7C86.8,24,77.6,17.1,67.8,10.3C59.4,4.4,48.1,2.1,39.8,9.9z
	"/>
<path style="fill:#25233A;" d="M55.4,64.5l1.8,30.6l2.9,0.2l6.5-31.7l2.8,32.1h2.9L77.3,65L66.6,59L55.4,64.5z"/>
<linearGradient id="SVGID_1_" gradientUnits="userSpaceOnUse" x1="-492.8858" y1="422.3159" x2="-492.3428" y2="420.9378" gradientTransform="matrix(6.4952 0 0 -13.8195 3307.6719 5911.2695)">
	<stop  offset="0" style="stop-color:#ECC4D7"/>
	<stop  offset="0.42" style="stop-color:#EFD4D1"/>
	<stop  offset="1" style="stop-color:#F2EAC9"/>
</linearGradient>
<path style="fill:url(#SVGID_1_);" d="M93,24.9c0.4-1.1,0.4-2.3,0.2-3.4c-0.4-2.2,2-5.3,2-5.3c0.4,0.2,0.6,0.6,0.5,1.1l1.7-4.4
	c0,0,0.8-0.4,1.7,1.9c0.5,1.8,0.5,3.7,0,5.5c-0.4,1.9-2.1,3.3-2.2,4.2c-0.1,0.7-0.2,1.4-0.4,2.1L93,24.9z"/>
<path style="fill:#FFFFFF;" d="M66.6,17.9c0,0-7.6,0-8.2,0.4c-1.6,1-2.8,2.5-3.4,4.2c-1.1,2.7-6.7,17.6-6.7,17.6
	c-0.2,1.1,0.2,2.3,1,3.1c1.5,1.5,6.2,7.1,6.2,7.1l-1.9,14.1c0,0,11.7,0.9,13.1-2.6c3.3,1.7,6.9,2.8,10.5,3.2l2.1,0.8l0.2-26.6
	c1.7,2.1,4.4,3.1,7.1,2.7c4.6-0.7,9-6.6,11-14.1l-6.4-3.4c0,0-2.4,9.6-6.5,7.9c-2.8-1.2-2.8-5.5-3.2-8.6c-0.2-1.7-1.4-3-3-3.4
	L73.2,19L66.6,17.9z"/>
<path style="fill:#68E1FD;" d="M61,46.1l-0.8,18.3c0,0-5.3,0.2-6.4,0l1.9-14.1L61,46.1z"/>
<linearGradient id="SVGID_2_" gradientUnits="userSpaceOnUse" x1="-502.3369" y1="432.5925" x2="-501.3369" y2="432.5925" gradientTransform="matrix(7.28 0 0 -18.4054 3727.4824 8017.3774)">
	<stop  offset="1.000000e-02" style="stop-color:#FFFFFF;stop-opacity:0"/>
	<stop  offset="0.13" style="stop-color:#FFFFFF;stop-opacity:0.169"/>
	<stop  offset="0.37" style="stop-color:#FFFFFF;stop-opacity:0.459"/>
	<stop  offset="0.59" style="stop-color:#FFFFFF;stop-opacity:0.678"/>
	<stop  offset="0.77" style="stop-color:#FFFFFF;stop-opacity:0.851"/>
	<stop  offset="0.91" style="stop-color:#FFFFFF;stop-opacity:0.949"/>
	<stop  offset="1" style="stop-color:#FFFFFF;stop-opacity:0.988"/>
</linearGradient>
<path style="fill:url(#SVGID_2_);" d="M61,46.1l-0.8,18.3c0,0-5.3,0.2-6.4,0l1.9-14.1L61,46.1z"/>
<path style="fill:#68E1FD;" d="M79.6,39.2l-1.7-3.9l-2.3,29.4l3.8,1L79.6,39.2z"/>
<linearGradient id="SVGID_3_" gradientUnits="userSpaceOnUse" x1="-436.1548" y1="440.0738" x2="-437.9469" y2="440.0668" gradientTransform="matrix(3.972 0 0 -30.448 1814.234 13449.8418)">
	<stop  offset="1.000000e-02" style="stop-color:#FFFFFF;stop-opacity:0"/>
	<stop  offset="0.13" style="stop-color:#FFFFFF;stop-opacity:0.169"/>
	<stop  offset="0.37" style="stop-color:#FFFFFF;stop-opacity:0.459"/>
	<stop  offset="0.59" style="stop-color:#FFFFFF;stop-opacity:0.678"/>
	<stop  offset="0.77" style="stop-color:#FFFFFF;stop-opacity:0.851"/>
	<stop  offset="0.91" style="stop-color:#FFFFFF;stop-opacity:0.949"/>
	<stop  offset="1" style="stop-color:#FFFFFF;stop-opacity:0.988"/>
</linearGradient>
<path style="fill:url(#SVGID_3_);" d="M79.6,39.2l-1.7-3.9l-2.3,29.4l3.8,1L79.6,39.2z"/>
<path style="fill:#25233A;" d="M66.2,20.8c0,0,4.2,2.8,6.5,0.8l-6.2,26.1L66.2,20.8z"/>
<linearGradient id="SVGID_4_" gradientUnits="userSpaceOnUse" x1="-514.9709" y1="416.5188" x2="-513.4739" y2="417.4468" gradientTransform="matrix(8.2612 0 0 -10.1521 4313.998 4254.6694)">
	<stop  offset="0" style="stop-color:#ECC4D7"/>
	<stop  offset="0.42" style="stop-color:#EFD4D1"/>
	<stop  offset="1" style="stop-color:#F2EAC9"/>
</linearGradient>
<path style="fill:url(#SVGID_4_);" d="M67.3,13.9c0,0-1.9,7.4-0.6,9s5.7,1.7,6-1.3c0.4-2.4,0.9-4.8,1.8-7L67.3,13.9z"/>
<linearGradient id="SVGID_5_" gradientUnits="userSpaceOnUse" x1="-490.7652" y1="379.6741" x2="-492.6732" y2="380.5621" gradientTransform="matrix(6.833 0 0 -5.1094 3479.3538 1977.1595)">
	<stop  offset="0" style="stop-color:#183866"/>
	<stop  offset="1" style="stop-color:#1A7FC1"/>
</linearGradient>
<path style="opacity:0.19;fill:url(#SVGID_5_);enable-background:new    ;" d="M67.1,15.7c0,0,1.6,4.1,3.1,4.8s2.7,0.2,2.8-0.4
	s0.9-3.7,0.9-3.7L67.1,15.7z"/>
<linearGradient id="SVGID_6_" gradientUnits="userSpaceOnUse" x1="-534.1909" y1="428.2333" x2="-533.1909" y2="428.2333" gradientTransform="matrix(11.844 0 0 -14.957 6409.1006 6415.9663)">
	<stop  offset="0" style="stop-color:#ECC4D7"/>
	<stop  offset="0.42" style="stop-color:#EFD4D1"/>
	<stop  offset="1" style="stop-color:#F2EAC9"/>
</linearGradient>
<path style="fill:url(#SVGID_6_);" d="M77.2,9.8c0,4.7-2.7,8.5-5.9,8.5s-5.9-3.8-5.9-8.5s2.9-6.4,6.2-6.4S77.2,5.1,77.2,9.8z"/>
<path style="fill:#3F3D56;" d="M79.5,7.1c-0.3,1.3-0.9,2.5-1.8,3.4c0-0.1,0-0.2,0-0.3c0-0.9-0.3-1.9-0.6-2.7c-0.4-1-1.2-1.7-2.3-2
	c-0.7-0.1-1.4-0.1-2.1,0c-0.6,0.1-1.1,0-1.6-0.3c-0.2-0.2-0.5-0.3-0.7-0.4c-1.4-0.5-2.4,2-2.4,3c0.1,1.1,0,2.3-0.3,3.4
	c-0.3-0.1-0.5-0.5-0.6-0.9s-0.4-0.7-0.8-0.7c-0.2,0-0.3,0.2-0.4,0.3c-0.2,0.5-0.3,1.1,0,1.6c0.2,0.5,0.5,1,0.7,1.5
	c0.3,0.9,0.3,1.8-0.1,2.6c-0.8-1.1-1.4-2.3-1.7-3.7l-0.9,0.8L64,9.6c0-2.5,0.2-5.3,1.8-7.2C67.1,1,69,0.1,70.9,0
	c2.2-0.3,4.3,0.3,6.1,1.5C78.8,2.8,79.8,5,79.5,7.1z"/>
<path style="fill:#25233A;" d="M78.6,7.2c-0.6,2.1-1,3.2-1,3.2c0-0.9-0.3-1.9-0.6-2.7c-0.4-1-1.2-1.7-2.3-2c-0.7-0.1-1.4-0.1-2.1,0
	c1.2-0.6,2.5-1.2,3.7-1.7C77.6,3.6,79.3,5,78.6,7.2z"/>
<linearGradient id="SVGID_7_" gradientUnits="userSpaceOnUse" x1="21.9319" y1="267.626" x2="20.2479" y2="267.93" gradientTransform="matrix(1.0049 0 0 -1.9387 68.8947 538.7082)">
	<stop  offset="0" style="stop-color:#183866"/>
	<stop  offset="1" style="stop-color:#1A7FC1"/>
</linearGradient>
<path style="opacity:0.19;fill:url(#SVGID_7_);enable-background:new    ;" d="M67.1,11.9c0,0-0.6-0.2-0.4-0.7s0-0.7-0.2-0.8
	s-0.8,0.4-0.2,1.5S67.1,11.9,67.1,11.9z"/>
<path style="fill:#68E1FD;" d="M65.7,17L64,17.6c-0.3,0.1-0.5,0.4-0.6,0.7l-1.5,7.9l3,0.5l-1.5,2.1l3.2,17.3l-0.2-28.7
	c0-0.2-0.2-0.4-0.4-0.4C65.8,17,65.8,17,65.7,17z"/>
<path style="fill:#68E1FD;" d="M73.2,19l1.8,0.7l0.5,8.1H73l1.1,2.3l-7.5,17.7C66.6,47.7,72.3,25.1,73.2,19z"/>
<linearGradient id="SVGID_8_" gradientUnits="userSpaceOnUse" x1="-456.2223" y1="439.5035" x2="-453.5773" y2="439.4215" gradientTransform="matrix(4.649 0 0 -29.1601 2196.5791 12849.3193)">
	<stop  offset="1.000000e-02" style="stop-color:#FFFFFF;stop-opacity:0"/>
	<stop  offset="0.13" style="stop-color:#FFFFFF;stop-opacity:0.169"/>
	<stop  offset="0.37" style="stop-color:#FFFFFF;stop-opacity:0.459"/>
	<stop  offset="0.59" style="stop-color:#FFFFFF;stop-opacity:0.678"/>
	<stop  offset="0.77" style="stop-color:#FFFFFF;stop-opacity:0.851"/>
	<stop  offset="0.91" style="stop-color:#FFFFFF;stop-opacity:0.949"/>
	<stop  offset="1" style="stop-color:#FFFFFF;stop-opacity:0.988"/>
</linearGradient>
<path style="fill:url(#SVGID_8_);" d="M65.7,17L64,17.6c-0.3,0.1-0.5,0.4-0.6,0.7l-1.5,7.9l3,0.5l-1.5,2.1l3.2,17.3l-0.2-28.7
	c0-0.2-0.2-0.4-0.4-0.4C65.8,17,65.8,17,65.7,17z"/>
<linearGradient id="SVGID_9_" gradientUnits="userSpaceOnUse" x1="-517.6088" y1="439.7881" x2="-518.8107" y2="439.5841" gradientTransform="matrix(9.044 0 0 -28.739 4772.2871 12661.0156)">
	<stop  offset="1.000000e-02" style="stop-color:#FFFFFF;stop-opacity:0"/>
	<stop  offset="0.13" style="stop-color:#FFFFFF;stop-opacity:0.169"/>
	<stop  offset="0.37" style="stop-color:#FFFFFF;stop-opacity:0.459"/>
	<stop  offset="0.59" style="stop-color:#FFFFFF;stop-opacity:0.678"/>
	<stop  offset="0.77" style="stop-color:#FFFFFF;stop-opacity:0.851"/>
	<stop  offset="0.91" style="stop-color:#FFFFFF;stop-opacity:0.949"/>
	<stop  offset="1" style="stop-color:#FFFFFF;stop-opacity:0.988"/>
</linearGradient>
<path style="fill:url(#SVGID_9_);" d="M73.2,19l1.8,0.7l0.5,8.1H73l1.1,2.3l-7.5,17.7C66.6,47.7,72.3,25.1,73.2,19z"/>
<path style="fill:#68E1FD;" d="M58.2,27l-2.7,13.8l5.4,5.4L58.2,27z"/>
<linearGradient id="SVGID_10_" gradientUnits="userSpaceOnUse" x1="-477.1382" y1="433.3099" x2="-476.3142" y2="433.2889" gradientTransform="matrix(5.421 0 0 -19.11 2641.8242 8316.7354)">
	<stop  offset="1.000000e-02" style="stop-color:#FFFFFF;stop-opacity:0"/>
	<stop  offset="0.13" style="stop-color:#FFFFFF;stop-opacity:0.169"/>
	<stop  offset="0.37" style="stop-color:#FFFFFF;stop-opacity:0.459"/>
	<stop  offset="0.59" style="stop-color:#FFFFFF;stop-opacity:0.678"/>
	<stop  offset="0.77" style="stop-color:#FFFFFF;stop-opacity:0.851"/>
	<stop  offset="0.91" style="stop-color:#FFFFFF;stop-opacity:0.949"/>
	<stop  offset="1" style="stop-color:#FFFFFF;stop-opacity:0.988"/>
</linearGradient>
<path style="fill:url(#SVGID_10_);" d="M58.2,27l-2.7,13.8l5.4,5.4l-1-7L58.2,27z"/>
<path style="fill:#25233A;" d="M61,46.1L57,51l-1.5-0.6l5-4.7L61,46.1z"/>
<linearGradient id="SVGID_11_" gradientUnits="userSpaceOnUse" x1="-464.5852" y1="370.8214" x2="-464.3262" y2="369.2614" gradientTransform="matrix(4.88 0 0 -4.351 2326.8269 1665.3171)">
	<stop  offset="0" style="stop-color:#ECC4D7"/>
	<stop  offset="0.42" style="stop-color:#EFD4D1"/>
	<stop  offset="1" style="stop-color:#F2EAC9"/>
</linearGradient>
<path style="fill:url(#SVGID_11_);" d="M60.5,46.7c0.6,1.3,1.1,2.7,1.4,4.1L57,51L60.5,46.7z"/>
<path style="fill:#FFFFFF;" d="M56.5,51l7.7-0.3c0,0-0.6,7.9-0.6,8.8S55.2,61,55.2,61L56.5,51z"/>
<path style="fill:#FFFFFF;" d="M78.9,51.3l-7.6-0.5c0,0-0.8,7.9-0.8,8.8s7.8,2,7.8,2L78.9,51.3z"/>
<path style="fill:#68E1FD;" d="M56.5,51l7.7-0.3c0,0-0.6,7.9-0.6,8.8S55.2,61,55.2,61L56.5,51z"/>
<linearGradient id="SVGID_12_" gradientUnits="userSpaceOnUse" x1="-519.4935" y1="417.5002" x2="-519.5405" y2="418.8002" gradientTransform="matrix(9 0 0 -10.29 4735.2378 4353.8159)">
	<stop  offset="1.000000e-02" style="stop-color:#FFFFFF;stop-opacity:0"/>
	<stop  offset="0.13" style="stop-color:#FFFFFF;stop-opacity:0.169"/>
	<stop  offset="0.37" style="stop-color:#FFFFFF;stop-opacity:0.459"/>
	<stop  offset="0.59" style="stop-color:#FFFFFF;stop-opacity:0.678"/>
	<stop  offset="0.77" style="stop-color:#FFFFFF;stop-opacity:0.851"/>
	<stop  offset="0.91" style="stop-color:#FFFFFF;stop-opacity:0.949"/>
	<stop  offset="1" style="stop-color:#FFFFFF;stop-opacity:0.988"/>
</linearGradient>
<path style="fill:url(#SVGID_12_);" d="M56.5,51l7.7-0.3c0,0-0.6,7.9-0.6,8.8S55.2,61,55.2,61L56.5,51z"/>
<path style="fill:#68E1FD;" d="M78.9,51.3l-7.6-0.5c0,0-0.8,7.9-0.8,8.8s7.8,2,7.8,2L78.9,51.3z"/>
<linearGradient id="SVGID_13_" gradientUnits="userSpaceOnUse" x1="-514.7639" y1="418.7425" x2="-514.8818" y2="420.4335" gradientTransform="matrix(8.3931 0 0 -10.771 4395.4893 4571.2891)">
	<stop  offset="1.000000e-02" style="stop-color:#FFFFFF;stop-opacity:0"/>
	<stop  offset="0.13" style="stop-color:#FFFFFF;stop-opacity:0.169"/>
	<stop  offset="0.37" style="stop-color:#FFFFFF;stop-opacity:0.459"/>
	<stop  offset="0.59" style="stop-color:#FFFFFF;stop-opacity:0.678"/>
	<stop  offset="0.77" style="stop-color:#FFFFFF;stop-opacity:0.851"/>
	<stop  offset="0.91" style="stop-color:#FFFFFF;stop-opacity:0.949"/>
	<stop  offset="1" style="stop-color:#FFFFFF;stop-opacity:0.988"/>
</linearGradient>
<path style="fill:url(#SVGID_13_);" d="M78.9,51.3l-7.6-0.5c0,0-0.8,7.9-0.8,8.8s7.8,2,7.8,2L78.9,51.3z"/>
<path style="fill:#25233A;" d="M91.9,24.7l0.4-0.6l5.2,2.9l0.2,0.8L91.9,24.7z"/>
<path style="fill:#25233A;" d="M63,22.8c-0.1,0-0.3-0.1-0.3-0.3c-0.1-1.9,0.6-3.7,2-5.1c0.6-0.6,1.3-1,2-1.3c0.1,0,0.3,0,0.3,0.2
	c0,0.1,0,0.3-0.2,0.3l0,0c-2.4,0.9-3.9,3.3-3.6,5.9C63.2,22.7,63.1,22.8,63,22.8C63,22.8,63,22.8,63,22.8L63,22.8z"/>
<path style="fill:#25233A;" d="M65.9,29.3L65.9,29.3c-0.2,0-0.3-0.1-0.3-0.3c0,0,0,0,0,0c0.2-2.8-0.4-4.9-1.7-5.7
	c-0.6-0.4-1.5-0.4-2.1,0c-1.7,1-2.2,3.6-2.1,5.8c0,0.1-0.1,0.3-0.2,0.3c-0.1,0-0.3-0.1-0.3-0.2c0,0,0,0,0-0.1
	c-0.1-3,0.7-5.3,2.3-6.2c0.8-0.5,1.8-0.5,2.7,0c1.5,0.9,2.2,3.2,2,6.2C66.2,29.2,66,29.3,65.9,29.3z"/>
<path style="fill:#68E1FD;" d="M60.3,29.3c0,0.4-0.3,0.8-0.8,0.8c-0.4,0-0.8-0.3-0.8-0.8c0-0.4,0.3-0.8,0.8-0.8l0,0
	C59.9,28.5,60.3,28.9,60.3,29.3C60.3,29.3,60.3,29.3,60.3,29.3z"/>
<path style="fill:#68E1FD;" d="M66.6,29.4c0,0.4-0.3,0.8-0.8,0.8c-0.4,0-0.8-0.3-0.8-0.8c0-0.4,0.3-0.8,0.8-0.8l0,0l0,0
	C66.2,28.6,66.6,29,66.6,29.4z"/>
<linearGradient id="SVGID_14_" gradientUnits="userSpaceOnUse" x1="-206.8063" y1="227.0055" x2="-205.9183" y2="225.6565" gradientTransform="matrix(1.548 0 0 -1.548 379.3262 380.2289)">
	<stop  offset="0" style="stop-color:#000000;stop-opacity:0"/>
	<stop  offset="0.99" style="stop-color:#000000"/>
</linearGradient>
<path style="fill:url(#SVGID_14_);" d="M60.3,29.3c0,0.4-0.3,0.8-0.8,0.8c-0.4,0-0.8-0.3-0.8-0.8c0-0.4,0.3-0.8,0.8-0.8l0,0
	C59.9,28.5,60.3,28.9,60.3,29.3C60.3,29.3,60.3,29.3,60.3,29.3z"/>
<linearGradient id="SVGID_15_" gradientUnits="userSpaceOnUse" x1="-206.7007" y1="226.9406" x2="-206.1667" y2="225.7076" gradientTransform="matrix(1.548 0 0 -1.548 385.6084 380.3229)">
	<stop  offset="0" style="stop-color:#000000;stop-opacity:0"/>
	<stop  offset="0.99" style="stop-color:#000000"/>
</linearGradient>
<path style="fill:url(#SVGID_15_);" d="M66.6,29.4c0,0.4-0.3,0.8-0.8,0.8c-0.4,0-0.8-0.3-0.8-0.8c0-0.4,0.3-0.8,0.8-0.8l0,0l0,0
	C66.2,28.6,66.6,29,66.6,29.4z"/>
<path style="fill:#25233A;" d="M74.5,34.5c-0.1,0-0.3-0.1-0.3-0.3c0,0,0-0.1,0-0.1l1.5-3.1C79,21,73.5,18.2,73.4,18.2
	c-0.1-0.1-0.2-0.2-0.1-0.3s0.2-0.2,0.4-0.1c1.1,0.7,2,1.6,2.6,2.8c1,1.9,1.7,5.3,0,10.7l0,0l-1.5,3.1C74.7,34.5,74.6,34.5,74.5,34.5
	z"/>
<circle style="fill:#68E1FD;" cx="74.1" cy="35" r="1.5"/>
<linearGradient id="SVGID_16_" gradientUnits="userSpaceOnUse" x1="-391.0345" y1="336.1154" x2="-390.0345" y2="336.1154" gradientTransform="matrix(3.016 0 0 -3.016 1251.949 1048.769)">
	<stop  offset="0" style="stop-color:#000000;stop-opacity:0"/>
	<stop  offset="0.99" style="stop-color:#000000"/>
</linearGradient>
<circle style="fill:url(#SVGID_16_);" cx="74.1" cy="35" r="1.5"/>
<circle style="fill:#68E1FD;" cx="74.2" cy="34.9" r="1.1"/>
<circle style="fill:#68E1FD;" cx="74.5" cy="34.3" r="1.1"/>
<linearGradient id="SVGID_17_" gradientUnits="userSpaceOnUse" x1="-505.5674" y1="141.6474" x2="-505.6924" y2="138.7224" gradientTransform="matrix(1.5019 -1.5019 -1.5019 -1.5019 1045.4709 -513.468)">
	<stop  offset="0" style="stop-color:#000000;stop-opacity:0"/>
	<stop  offset="0.99" style="stop-color:#000000"/>
</linearGradient>
<circle style="fill:url(#SVGID_17_);" cx="74.5" cy="34.3" r="1.1"/>
<path style="fill:#68E1FD;" d="M46.1,58.8H24.4c-0.6,0-1-0.4-1-1c0,0,0,0,0,0l0,0c0-0.6,0.4-1,1-1h21.7c0.6,0,1,0.4,1,1l0,0
	C47.1,58.3,46.7,58.8,46.1,58.8C46.1,58.8,46.1,58.8,46.1,58.8L46.1,58.8z"/>
<path style="fill:#68E1FD;" d="M35.5,57.8c0,0.6-0.4,1-1,1H0.1v-2h34.3C35,56.8,35.4,57.2,35.5,57.8z"/>
<linearGradient id="SVGID_18_" gradientUnits="userSpaceOnUse" x1="-538.3248" y1="283.7945" x2="-538.2258" y2="290.5435" gradientTransform="matrix(12.69 0 0 -2.01 6873.1274 617.2784)">
	<stop  offset="0" style="stop-color:#000000;stop-opacity:0"/>
	<stop  offset="0.99" style="stop-color:#000000"/>
</linearGradient>
<path style="fill:url(#SVGID_18_);" d="M47.1,57.8c0,0.6-0.4,1-1,1H34.4c0.6,0,1-0.4,1-1s-0.4-1-1-1h11.7
	C46.7,56.8,47.1,57.2,47.1,57.8C47.1,57.8,47.1,57.8,47.1,57.8z"/>
<linearGradient id="SVGID_19_" gradientUnits="userSpaceOnUse" x1="-567.9517" y1="280.5881" x2="-567.9837" y2="297.9871" gradientTransform="matrix(35.338 0 0 -2 20087.8418 612.764)">
	<stop  offset="0" style="stop-color:#000000;stop-opacity:0"/>
	<stop  offset="0.99" style="stop-color:#000000"/>
</linearGradient>
<path style="fill:url(#SVGID_19_);" d="M35.5,57.8c0,0.6-0.4,1-1,1H0.1v-2h34.3C35,56.8,35.4,57.2,35.5,57.8z"/>
<rect x="24.4" y="58.8" style="fill:#68E1FD;" width="21.3" height="23.9"/>
<linearGradient id="SVGID_20_" gradientUnits="userSpaceOnUse" x1="-557.4479" y1="436.9317" x2="-554.417" y2="436.8937" gradientTransform="matrix(21.337 0 0 -23.88 11921.5859 10504.5332)">
	<stop  offset="0" style="stop-color:#000000;stop-opacity:0"/>
	<stop  offset="0.99" style="stop-color:#000000"/>
</linearGradient>
<rect x="24.4" y="58.8" style="fill:url(#SVGID_20_);" width="21.3" height="23.9"/>
<rect x="0.1" y="58.8" style="fill:#68E1FD;" width="35.3" height="23.9"/>
<linearGradient id="SVGID_21_" gradientUnits="userSpaceOnUse" x1="-347.9835" y1="328.5988" x2="-346.9835" y2="328.5988" gradientTransform="matrix(2.539 0 0 -2.8315 957.8608 1027.0044)">
	<stop  offset="0" style="stop-color:#ECC4D7"/>
	<stop  offset="0.42" style="stop-color:#EFD4D1"/>
	<stop  offset="1" style="stop-color:#F2EAC9"/>
</linearGradient>
<path style="fill:url(#SVGID_21_);" d="M57.5,96.5l0.1-1.3l2.5,0.2l-0.3,2C59.8,97.4,58.5,99.2,57.5,96.5z"/>
<linearGradient id="SVGID_22_" gradientUnits="userSpaceOnUse" x1="-88.5921" y1="341.0717" x2="-87.5921" y2="341.0717" gradientTransform="matrix(2.62 0 0 -3.1514 1017.0931 1172.166)">
	<stop  offset="0" style="stop-color:#ECC4D7"/>
	<stop  offset="0.42" style="stop-color:#EFD4D1"/>
	<stop  offset="1" style="stop-color:#F2EAC9"/>
</linearGradient>
<path style="fill:url(#SVGID_22_);" d="M72,97.6l-0.1-1.8l-2.5,0V98C69.4,98,71,100.3,72,97.6z"/>
<path style="fill:#68E1FD;" d="M57.5,96.5c0,0-4.7,2.3-5.2,3.1c-0.4,0.6-0.6,1.3-0.8,2c1.6,0,3.1-0.2,4.6-0.5
	c1.8-0.6,3.9-1.2,3.9-1.2v-3c0,0,0-0.4-0.6,0s-1,0.8-1.5,0.5S57.8,96.5,57.5,96.5z"/>
<path style="fill:#68E1FD;" d="M72.1,97.2c0,0,4.1,2.5,4.6,3.4c0.3,0.6,0.5,1.3,0.6,2c-1.6-0.1-3.1-0.4-4.6-0.9
	c-1.7-0.7-3.8-1.5-3.8-1.5l0.2-3c0,0,0.1-0.3,0.5,0.1s1.4,1,1.9,0.7S71.9,97.1,72.1,97.2z"/>
<linearGradient id="SVGID_23_" gradientUnits="userSpaceOnUse" x1="-514.4174" y1="383.1867" x2="-513.4174" y2="383.1867" gradientTransform="matrix(8.526 0 0 -5.0942 4454.2715 2051.0396)">
	<stop  offset="0" style="stop-color:#000000;stop-opacity:0"/>
	<stop  offset="0.99" style="stop-color:#000000"/>
</linearGradient>
<path style="fill:url(#SVGID_23_);" d="M57.5,96.5c0,0-4.7,2.3-5.2,3.1c-0.4,0.6-0.6,1.3-0.8,2c1.6,0,3.1-0.2,4.6-0.5
	c1.8-0.6,3.9-1.2,3.9-1.2v-3c0,0,0-0.4-0.6,0s-1,0.8-1.5,0.5S57.8,96.5,57.5,96.5z"/>
<linearGradient id="SVGID_24_" gradientUnits="userSpaceOnUse" x1="-513.1109" y1="388.7323" x2="-512.1109" y2="388.7323" gradientTransform="matrix(8.371 0 0 -5.5443 4380.9941 2255.0381)">
	<stop  offset="0" style="stop-color:#000000;stop-opacity:0"/>
	<stop  offset="0.99" style="stop-color:#000000"/>
</linearGradient>
<path style="fill:url(#SVGID_24_);" d="M72.1,97.2c0,0,4.1,2.5,4.6,3.4c0.3,0.6,0.5,1.3,0.6,2c-1.6-0.1-3.1-0.4-4.6-0.9
	c-1.7-0.7-3.8-1.5-3.8-1.5l0.2-3c0,0,0.1-0.3,0.5,0.1s1.4,1,1.9,0.7S71.9,97.1,72.1,97.2z"/>
<path style="fill:#68E1FD;" d="M35.6,56.7L35.6,56.7l-18.9,0c0,0,2.8-9.1,11.2-8.8c0.2,0,0.3,0,0.5,0l0,0
	C36.1,48.6,35.7,56,35.6,56.7z"/>
<path style="fill:#68E1FD;" d="M35.6,56.7h-4.8l0-0.5c0,0,1.5-7.1-2.5-8.2C36.1,48.6,35.7,56,35.6,56.7z"/>
<linearGradient id="SVGID_25_" gradientUnits="userSpaceOnUse" x1="-553.5831" y1="411.7657" x2="-553.491" y2="414.2837" gradientTransform="matrix(18.9282 0 0 -8.7974 10504.7314 3676.3877)">
	<stop  offset="0" style="stop-color:#000000;stop-opacity:0"/>
	<stop  offset="0.99" style="stop-color:#000000"/>
</linearGradient>
<path style="fill:url(#SVGID_25_);" d="M35.6,56.7L35.6,56.7l-18.9,0c0,0,2.8-9.1,11.2-8.8c0.2,0,0.3,0,0.5,0l0,0
	C36.1,48.6,35.7,56,35.6,56.7z"/>
<linearGradient id="SVGID_26_" gradientUnits="userSpaceOnUse" x1="-502.3903" y1="409.8011" x2="-507.6992" y2="414.4661" gradientTransform="matrix(7.2979 0 0 -8.726 3712.6169 3644.1482)">
	<stop  offset="0" style="stop-color:#000000;stop-opacity:0"/>
	<stop  offset="0.99" style="stop-color:#000000"/>
</linearGradient>
<path style="fill:url(#SVGID_26_);" d="M35.6,56.7h-4.8l0-0.5c0,0,1.5-7.1-2.5-8.2C36.1,48.6,35.7,56,35.6,56.7z"/>
</svg>
