<?xml version="1.0" encoding="utf-8"?>
<!-- Generator: Adobe Illustrator 24.3.0, SVG Export Plug-In . SVG Version: 6.00 Build 0)  -->
<svg version="1.1" id="home" xmlns="http://www.w3.org/2000/svg" xmlns:xlink="http://www.w3.org/1999/xlink" x="0px" y="0px"
	 width="26.1px" height="23.3px" viewBox="0 0 26.1 23.3" style="enable-background:new 0 0 26.1 23.3;" xml:space="preserve">
<g id="Group_710" transform="translate(0 0)">
	<g id="Group_709" transform="translate(0 0)">
		<path id="Path_1001" style="fill:#82E8FF;" d="M25.8,9.2L13.5,0.1c-0.2-0.2-0.6-0.2-0.8,0L0.3,9.2c-0.3,0.2-0.4,0.6-0.1,1
			c0.2,0.3,0.6,0.4,0.9,0.1l12-8.8l12,8.8c0.3,0.2,0.7,0.2,0.9-0.2C26.2,9.8,26.1,9.4,25.8,9.2L25.8,9.2L25.8,9.2z"/>
	</g>
</g>
<g id="Group_712" transform="translate(2.88 10.446)">
	<g id="Group_711">
		<path id="Path_1002" style="fill:#82E8FF;" d="M19.7,0C19.3,0,19,0.3,19,0.7l0,0v10.8h-5.4V5.6c0-1.9-1.6-3.4-3.5-3.3
			c-1.8,0-3.3,1.5-3.3,3.3v5.9H1.4V0.7C1.3,0.3,1,0,0.7,0C0.3,0,0,0.3,0,0.7v11.5c0,0.4,0.3,0.7,0.7,0.7l0,0h6.8
			c0.4,0,0.6-0.3,0.7-0.6c0,0,0,0,0-0.1V5.6c0-1.1,0.9-2,2-2s2,0.9,2,2v6.6c0,0,0,0,0,0.1c0,0.4,0.3,0.6,0.7,0.6h6.8
			c0.4,0,0.7-0.3,0.7-0.7l0,0V0.7C20.4,0.3,20.1,0,19.7,0z"/>
	</g>
</g>
</svg>
