<?xml version="1.0" encoding="utf-8"?>
<!-- Generator: Adobe Illustrator 24.3.0, SVG Export Plug-In . SVG Version: 6.00 Build 0)  -->
<svg version="1.1" id="Layer_1" xmlns="http://www.w3.org/2000/svg" xmlns:xlink="http://www.w3.org/1999/xlink" x="0px" y="0px"
	 width="110.4px" height="82.1px" viewBox="0 0 110.4 82.1" style="enable-background:new 0 0 110.4 82.1;" xml:space="preserve">
<g transform="translate(0 0)">
	<path style="opacity:0.18;fill:#68E1FD;enable-background:new    ;" d="M81.7,16.1c-3.4-3.4-6-7.4-10-10.1
		c-6.3-4.3-15.4-4.7-22.8-2c-7.1,2.8-13.1,7.8-17,14.4c-2,3.3-3.6,6.8-6.5,9.5c-2.5,2.3-5.7,3.7-8.8,5.3c-5,2.5-9.8,5.6-13,9.7
		S-1,52.5,1,57.2c1.4,3.2,4.2,5.7,7,8c3.3,2.8,7.1,5.1,11.2,6.8c5.2,2,11,2.4,16.7,2.6C46,75,56.2,74.7,66.2,73.8
		c8.2-0.7,16.7-2,23.6-6c9.6-5.6,14.6-16,15.7-26.1c0.5-4.1,0.3-8.3-1.4-12C99.9,20.7,88.4,22.8,81.7,16.1z"/>
	<path style="fill:#3F3D56;" d="M40.8,34.2c0,0-3.8-0.6-4.9,1.7s0,10.4,0,10.4l14.2,8.9L40.8,34.2z"/>
	<path style="fill:#68E1FD;" d="M58.8,69.9l-5.5,1.4c-0.8,0.2-1.6-0.2-1.9-0.9l0,0c-0.2-0.7,0.2-1.4,0.9-1.6c0,0,0.1,0,0.1,0
		l5.5-1.4c0.8-0.2,1.6,0.2,1.9,0.9l0,0c0.2,0.7-0.2,1.4-0.9,1.6C58.9,69.9,58.8,69.9,58.8,69.9z"/>
	<ellipse style="fill:#25233A;" cx="58.5" cy="73" rx="2.5" ry="2.2"/>
	<ellipse style="fill:#3F3D56;" cx="58" cy="73.2" rx="1.3" ry="1.1"/>
	<ellipse style="fill:#25233A;" cx="48.3" cy="70.8" rx="2.5" ry="2.2"/>
	
		<linearGradient id="SVGID_1_" gradientUnits="userSpaceOnUse" x1="-353.2714" y1="302.2306" x2="-352.2714" y2="302.2306" gradientTransform="matrix(2.5683 0 0 -2.5706 962.402 848.0606)">
		<stop  offset="0" style="stop-color:#183866"/>
		<stop  offset="1" style="stop-color:#1A7FC1"/>
	</linearGradient>
	<path style="fill:url(#SVGID_1_);" d="M49.1,71c0.1,0.7-0.4,1.3-1.1,1.4s-1.3-0.4-1.4-1.1s0.4-1.3,1.1-1.4c0.1,0,0.1,0,0.2,0
		C48.5,69.8,49,70.3,49.1,71z"/>
	<ellipse style="fill:#25233A;" cx="47.5" cy="73.9" rx="2.5" ry="2.2"/>
	<path style="fill:#3F3D56;" d="M49.6,73.9c0.1,0.7-0.4,1.3-1.1,1.4c-0.7,0.1-1.3-0.4-1.4-1.1c-0.1-0.7,0.4-1.3,1.1-1.4
		c0.1,0,0.1,0,0.2,0C48.9,72.8,49.5,73.3,49.6,73.9z"/>
	<path style="fill:#68E1FD;" d="M59,72.1l-11.6-2.1c-0.7-0.1-1.3-0.7-1.2-1.5c0,0,0-0.1,0-0.1l0,0c0.2-0.8,1-1.2,1.8-1l11.6,2.1
		c0.7,0.1,1.3,0.7,1.2,1.5c0,0,0,0.1,0,0.1l0,0C60.6,71.8,59.8,72.3,59,72.1z"/>
	<path style="fill:#68E1FD;" d="M51.8,56.1H55v11.8c-0.1,0.8-0.8,1.5-1.6,1.4l0,0c-0.8,0.1-1.5-0.6-1.6-1.4L51.8,56.1L51.8,56.1z"/>
	<path style="fill:#68E1FD;" d="M53,71.4l-5.5,1.4c-0.8,0.2-1.6-0.2-1.9-0.9l0,0c-0.2-0.7,0.2-1.4,0.9-1.6c0,0,0.1,0,0.1,0l5.5-1.4
		c0.8-0.2,1.6,0.2,1.9,0.9l0,0c0.2,0.7-0.2,1.4-0.9,1.6C53,71.3,53,71.3,53,71.4z"/>
	
		<linearGradient id="SVGID_2_" gradientUnits="userSpaceOnUse" x1="-76.2842" y1="-801.1848" x2="-75.2842" y2="-801.1848" gradientTransform="matrix(1.167 0 0 -0.2881 150.2295 -159.532)">
		<stop  offset="0" style="stop-color:#000000"/>
		<stop  offset="0.99" style="stop-color:#000000;stop-opacity:0"/>
	</linearGradient>
	<path style="fill:url(#SVGID_2_);" d="M53.9,71.2l-0.6,0.2c-0.2,0-0.4,0.1-0.6,0l0.3-0.1c0.2,0,0.3-0.1,0.5-0.2L53.9,71.2z"/>
	
		<linearGradient id="SVGID_3_" gradientUnits="userSpaceOnUse" x1="-482.2038" y1="288.227" x2="-480.8608" y2="286.97" gradientTransform="matrix(5.174 0 0 -2.1803 2492.3066 673.0208)">
		<stop  offset="0" style="stop-color:#000000"/>
		<stop  offset="0.99" style="stop-color:#000000;stop-opacity:0"/>
	</linearGradient>
	<path style="fill:url(#SVGID_3_);" d="M59.9,68.7c0,0.3-0.1,0.6-0.3,0.8l-4.8-0.9c0.1-0.1,0.2-0.3,0.3-0.5l3-0.8
		c0.8-0.2,1.6,0.2,1.9,0.9C59.9,68.4,59.9,68.5,59.9,68.7z"/>
	
		<linearGradient id="SVGID_4_" gradientUnits="userSpaceOnUse" x1="-47.7851" y1="413.422" x2="-55.3611" y2="413.615" gradientTransform="matrix(1.111 0 0 -12.865 116.6544 5384.3931)">
		<stop  offset="0" style="stop-color:#000000"/>
		<stop  offset="0.99" style="stop-color:#000000;stop-opacity:0"/>
	</linearGradient>
	<path style="opacity:0.31;fill:url(#SVGID_4_);enable-background:new    ;" d="M51.9,68.1c0-0.1,0-0.2,0-0.3V56.1h1.1v12.7
		c0,0.1,0,0.1,0,0.2c-0.2-0.1-0.3-0.1-0.5-0.1c-0.1,0-0.3,0-0.4,0l0.1,0C52.1,68.8,51.9,68.4,51.9,68.1z"/>
	
		<linearGradient id="SVGID_5_" gradientUnits="userSpaceOnUse" x1="-551.0643" y1="348.7519" x2="-552.5443" y2="350.5719" gradientTransform="matrix(14.6133 0 0 -3.5161 7995.7451 1265.4486)">
		<stop  offset="0" style="stop-color:#000000"/>
		<stop  offset="0.99" style="stop-color:#000000;stop-opacity:0"/>
	</linearGradient>
	<path style="opacity:0.31;fill:url(#SVGID_5_);enable-background:new    ;" d="M60,72c-0.2,0.1-0.5,0.2-0.7,0.2c-0.1,0-0.2,0-0.3,0
		l-5.1-0.9l-0.4-0.1c-0.1,0.1-0.3,0.2-0.5,0.2l-0.3,0.1l-5.3,1.4c-0.8,0.2-1.6-0.2-1.9-0.9c0.5,0.4,1.1,0.4,1.7,0.1
		c1.5-0.6,3.1-1,4.7-1.3c0.7-0.1,1.2-0.6,1.3-1.2c0,0,0-0.1,0-0.1c0.4,0.4,0.9,0.6,1.5,0.7c1.7,0.4,3.4,0.7,5.2,0.9
		C60.2,71.2,60.3,71.7,60,72z"/>
	
		<linearGradient id="SVGID_6_" gradientUnits="userSpaceOnUse" x1="934.7959" y1="-561.359" x2="932.812" y2="-560.733" gradientTransform="matrix(0.378 0 0 -0.354 -303.0634 -129.9983)">
		<stop  offset="0" style="stop-color:#000000"/>
		<stop  offset="0.99" style="stop-color:#000000;stop-opacity:0"/>
	</linearGradient>
	<path style="fill:url(#SVGID_6_);" d="M60.6,71.5c-0.1,0.1-0.2,0.3-0.4,0.4C60.3,71.8,60.4,71.7,60.6,71.5z"/>
	
		<linearGradient id="SVGID_7_" gradientUnits="userSpaceOnUse" x1="-477.1895" y1="310.9958" x2="-478.2725" y2="310.3978" gradientTransform="matrix(6.0691 0 0 -2.6277 3006.5393 870.8668)">
		<stop  offset="0" style="stop-color:#000000"/>
		<stop  offset="0.99" style="stop-color:#000000;stop-opacity:0"/>
	</linearGradient>
	<path style="fill:url(#SVGID_7_);" d="M51.9,68.1c0.1,0.2,0.2,0.5,0.4,0.6c0,0-0.1,0-0.1,0L47.3,70c-0.7-0.1-1.2-0.7-1.1-1.4
		c0.1-0.7,0.8-1.2,1.5-1.2c0.1,0,0.2,0,0.3,0L51.9,68.1z"/>
	<path style="fill:#3F3D56;" d="M59.2,11.5c0,0-0.1-4.1-3.8-3.8s-3.5-1-5.1-0.9s-3.5,1.6-3,3.3s-1.4,2.1-2.7,3.4s0.3,2.4,2.5,3.7
		s-0.1,1,1.2,3s5.7-0.6,5.7-0.6L59.2,11.5z"/>
	<path style="fill:#68E1FD;" d="M28.4,80.9l2.7,0.1V62.1c0.1-2.9,2.5-5.2,5.4-5.4c5.2-0.5,52.7-6.5,52.7-6.5s1.9-0.2,3,3
		s2.1,15.6,2.1,15.6l14.6,1.7c0,0,0.4-22-4.9-23.2s-74,5-74,5S24.7,75.7,28.4,80.9z"/>
	
		<linearGradient id="SVGID_8_" gradientUnits="userSpaceOnUse" x1="-575.9163" y1="430.8454" x2="-577.3572" y2="430.9924" gradientTransform="matrix(81.7102 0 0 -33.7488 47161.8477 14606.1719)">
		<stop  offset="0" style="stop-color:#000000"/>
		<stop  offset="0.99" style="stop-color:#000000;stop-opacity:0"/>
	</linearGradient>
	<path style="fill:url(#SVGID_8_);" d="M28.4,80.9l2.7,0.1V62.1c0.1-2.9,2.5-5.2,5.4-5.4c5.2-0.5,52.7-6.5,52.7-6.5s1.9-0.2,3,3
		s2.1,15.6,2.1,15.6l14.6,1.7c0,0,0.4-22-4.9-23.2s-74,5-74,5S24.7,75.7,28.4,80.9z"/>
	<path style="fill:#68E1FD;" d="M14.2,54.6c0,0,1.3-6.4,10.6-8.1L90.1,40c0,0,6.4-0.2,9.3,1.3s7.1,2.9,8.8,9.9s2.1,19.1,2.1,19.1
		l-1.6,0.2c0,0-2.4-21.8-4.9-23.2s-70.4,7.1-70.4,7.1s-4.7,0.8-5.1,7s0,19.5,0,19.5l-14.2-5V54.6z"/>
	
		<linearGradient id="SVGID_9_" gradientUnits="userSpaceOnUse" x1="-574.1245" y1="400.5706" x2="-573.1245" y2="400.5706" gradientTransform="matrix(59.9986 0 0 -8.7468 34495.2734 3549.9612)">
		<stop  offset="0" style="stop-color:#183866"/>
		<stop  offset="1" style="stop-color:#1A7FC1"/>
	</linearGradient>
	<path style="opacity:0.19;fill:url(#SVGID_9_);enable-background:new    ;" d="M81.4,42.5c-3.4-0.4-6.8-0.6-10.2-0.6
		c-2.6,0.1-5.1,0.4-7.6,0.7l-22.4,2.8c-0.4,0-0.7,0.1-1,0.4c-0.4,0.6,0.5,1.1,1.2,1.3c7.4,2.3,15.4,4.6,23.1,3
		c3.5-0.7,6.8-2.3,10.3-2.8s7.2,0,10.7-0.6c3.3-0.5,6.5-1.8,9.9-1.8c1,0.1,2.1,0,3.1-0.2c1-0.3,1.9-1.2,1.6-2
		c-3.2-0.1-6.7-0.6-9.8-0.1C87.1,43.1,84.5,42.5,81.4,42.5z"/>
	<path style="fill:#68E1FD;" d="M61.2,45.8l0.1,0.4c0,0,3.9,2.1,3.8,2.2s16-3.4,16-3.4l0.4-1L61.2,45.8z"/>
	
		<linearGradient id="SVGID_10_" gradientUnits="userSpaceOnUse" x1="-554.9615" y1="361.2916" x2="-554.6515" y2="356.1796" gradientTransform="matrix(20.395 0 0 -4.361 11387.832 1613.6287)">
		<stop  offset="0" style="stop-color:#000000"/>
		<stop  offset="0.99" style="stop-color:#000000;stop-opacity:0"/>
	</linearGradient>
	<path style="fill:url(#SVGID_10_);" d="M61.2,45.8l0.1,0.4c0,0,3.9,2.1,3.8,2.2s16-3.4,16-3.4l0.4-1L61.2,45.8z"/>
	<path style="fill:#68E1FD;" d="M61.5,45.8L75.7,43l5.9,1.1l-16.1,3.5L61.5,45.8z"/>
	
		<linearGradient id="SVGID_11_" gradientUnits="userSpaceOnUse" x1="-554.9673" y1="364.6045" x2="-553.9054" y2="363.2455" gradientTransform="matrix(20.029 0 0 -4.607 11174.4512 1721.3152)">
		<stop  offset="0" style="stop-color:#000000"/>
		<stop  offset="0.99" style="stop-color:#000000;stop-opacity:0"/>
	</linearGradient>
	<path style="fill:url(#SVGID_11_);" d="M61.5,45.8L75.7,43l5.9,1.1l-16.1,3.5L61.5,45.8z"/>
	<path style="fill:#68E1FD;" d="M57.1,48l3.4,0.1c0,0,0.9,0,1.1-0.5s-1.4-1.8-1.5-1.8s-4.6,1-4,2L57.1,48z"/>
	
		<linearGradient id="SVGID_12_" gradientUnits="userSpaceOnUse" x1="-478.6503" y1="287.2409" x2="-478.7503" y2="285.7079" gradientTransform="matrix(5.5718 0 0 -2.3161 2725.9019 711.5338)">
		<stop  offset="0" style="stop-color:#000000"/>
		<stop  offset="0.99" style="stop-color:#000000;stop-opacity:0"/>
	</linearGradient>
	<path style="fill:url(#SVGID_12_);" d="M57.1,48l3.4,0.1c0,0,0.9,0,1.1-0.5s-1.4-1.8-1.5-1.8s-4.6,1-4,2L57.1,48z"/>
	<path style="fill:#68E1FD;" d="M18.3,77.1l-1.6,4.4c-2.9,0.9-5.9,0.9-8.8,0l-1.2-4.6C10.5,77.8,14.5,77.9,18.3,77.1z"/>
	
		<linearGradient id="SVGID_13_" gradientUnits="userSpaceOnUse" x1="-532.6724" y1="372.9991" x2="-533.5594" y2="373.0651" gradientTransform="matrix(11.57 0 0 -5.2285 6179.5869 2029.8269)">
		<stop  offset="0" style="stop-color:#000000"/>
		<stop  offset="0.99" style="stop-color:#000000;stop-opacity:0"/>
	</linearGradient>
	<path style="fill:url(#SVGID_13_);" d="M18.3,77.1l-1.6,4.4c-2.9,0.9-5.9,0.9-8.8,0l-1.2-4.6C10.5,77.8,14.5,77.9,18.3,77.1z"/>
	<path style="fill:#68E1FD;" d="M20.1,73l-0.5,3.4l-1.3,0.6c-3.8,0.9-7.8,0.8-11.6-0.2l-1-0.7L5.2,73H20.1z"/>
	
		<linearGradient id="SVGID_14_" gradientUnits="userSpaceOnUse" x1="-544.5162" y1="364.5155" x2="-545.0872" y2="364.5705" gradientTransform="matrix(14.917 0 0 -4.6479 8132.7397 1769.3735)">
		<stop  offset="0" style="stop-color:#000000"/>
		<stop  offset="0.99" style="stop-color:#000000;stop-opacity:0"/>
	</linearGradient>
	<path style="fill:url(#SVGID_14_);" d="M20.1,73l-0.5,3.4l-1.3,0.6c-3.8,0.9-7.8,0.8-11.6-0.2l-1-0.7L5.2,73H20.1z"/>
	<ellipse style="fill:#68E1FD;" cx="12.7" cy="73" rx="7.5" ry="1.2"/>
	
		<linearGradient id="SVGID_15_" gradientUnits="userSpaceOnUse" x1="-545.2457" y1="313.7091" x2="-545.5347" y2="321.4371" gradientTransform="matrix(14.914 0 0 -2.356 8130.9878 755.18)">
		<stop  offset="0" style="stop-color:#000000"/>
		<stop  offset="0.99" style="stop-color:#000000;stop-opacity:0"/>
	</linearGradient>
	<ellipse style="fill:url(#SVGID_15_);" cx="12.7" cy="73" rx="7.5" ry="1.2"/>
	<path style="fill:#68E1FD;" d="M9.1,46.7c-0.8-0.2-1.5-0.6-2.2-1c-1.3-0.9-1.6-2.5-2-3.9s-1.2-2.9-2.7-3.3
		c-0.6-0.2-1.2-0.1-1.7,0.3c-0.4,0.4-0.6,1-0.4,1.6C0.2,41,0.5,41.5,0.7,42c0.6,1.2,0.7,2.6,0.5,3.9C1,47,0.6,48.1,0.9,49.2
		C1.4,51,4,52,4,53.9c0,1.3-1.1,2.4-0.9,3.6c0.2,0.9,1.2,1.6,1.2,2.5c0.1,1-1.1,1.9-1,3s1.2,1.8,2,2.6c0.6,0.7,1,1.5,1.1,2.4
		c0,0.6,0,1.1,0.2,1.7c0.2,0.4,0.4,0.7,0.7,1.1c0.2,0.4,0.5,0.8,0.8,1.1c0.9,0.9,2.2,1.3,3.4,0.9c0.1-1.4,0.2-2.8,0.1-4.2
		c0.1-2.7,1.3-5.5,0.6-8.1c-0.4-0.9-0.7-1.9-0.9-2.9c0-0.9,0.1-1.8,0.4-2.7c0.3-1.8,0.4-3.7,0.2-5.5C11.7,48,10.6,47.3,9.1,46.7z"/>
	<path style="fill:#68E1FD;" d="M13.8,53.9c0,1.2,0.3,2.5-0.1,3.6c-0.3,0.9-1.1,1.6-1.5,2.5c-0.9,2,0.3,4.2,0.1,6.3
		c-0.2,0.9-0.4,1.7-0.7,2.6c-0.3,1.1-0.3,2.2-0.2,3.3c0,0.4,0.3,0.8,0.8,0.9c0.7,0.3,1.5,0.4,2.3,0.5c-0.3-1.3,0-2.7,0.8-3.7
		c1.2-1.7,3.5-2.9,4-4.9c0.3-1.3-0.4-2.7-0.3-4.1c0-0.9,0.4-1.8,1-2.5c0.6-0.6,1.3-1.1,1.9-1.8c1.3-1.6,0.9-3.8,0.5-5.7
		s-0.6-4.2,0.9-5.6c0.5-0.5,1.1-0.8,1.5-1.3c0.9-1.2,0.7-2.8-0.4-3.8c-1.2-1-2.9-1.3-4.4-0.8c-0.6,0.2-1.2,0.5-1.6,1
		c-0.8,0.9-0.5,2.2-0.1,3.4c0.4,1,0.4,2.1,0.1,3.1c-0.3,0.7-1,1.1-1.6,1.6C14.9,49.6,13.9,51.7,13.8,53.9z"/>
	
		<linearGradient id="SVGID_16_" gradientUnits="userSpaceOnUse" x1="-535.57" y1="432.5421" x2="-536.268" y2="431.5371" gradientTransform="matrix(12.4307 0 0 -34.5543 6675.5503 14953.4346)">
		<stop  offset="0" style="stop-color:#000000"/>
		<stop  offset="0.99" style="stop-color:#000000;stop-opacity:0"/>
	</linearGradient>
	<path style="fill:url(#SVGID_16_);" d="M12.2,64.7c-0.3,1.3-0.5,2.6-0.6,4v0.1c0,0,0,0.1,0,0.1c-0.3,1.1-0.3,2.2-0.2,3.3
		c0,0.2,0.1,0.4,0.2,0.5c0,0.1,0,0.1,0,0.2c-1.2,0.3-2.5,0-3.4-0.9c-0.3-0.4-0.5-0.7-0.8-1.1c-0.3-0.3-0.5-0.7-0.7-1.1
		c-0.1-0.5-0.2-1.1-0.2-1.7c-0.1-0.9-0.5-1.8-1.1-2.4c-0.8-0.8-2-1.5-2-2.6s1.1-1.9,1-3c-0.1-0.9-1-1.6-1.2-2.5
		c-0.3-1.2,0.9-2.4,0.9-3.6C4,52,1.4,51,0.9,49.2C0.6,48.1,1,47,1.2,45.9c0.2-1.3,0.1-2.7-0.5-3.9c-0.3-0.5-0.5-1-0.7-1.6
		c-0.2-0.6,0-1.2,0.4-1.6c0.5-0.4,1.1-0.5,1.7-0.3c1.6,0.4,2.3,1.9,2.7,3.3s0.7,3,2,3.9c0.7,0.4,1.4,0.7,2.2,1
		c1.5,0.6,2.6,1.3,2.8,2.7c0.2,1.8,0.1,3.7-0.2,5.5c-0.3,0.9-0.4,1.8-0.4,2.7c0.2,0.9,0.4,1.8,0.8,2.6c0,0.1,0.1,0.2,0.1,0.3
		C12.5,61.9,12.5,63.3,12.2,64.7z"/>
	
		<linearGradient id="SVGID_17_" gradientUnits="userSpaceOnUse" x1="1287.6698" y1="360.2908" x2="1284.4818" y2="359.2568" gradientTransform="matrix(0.3174 0 0 -3.928 -387.3434 1446.965)">
		<stop  offset="0" style="stop-color:#000000"/>
		<stop  offset="0.99" style="stop-color:#000000;stop-opacity:0"/>
	</linearGradient>
	<path style="fill:url(#SVGID_17_);" d="M11.6,72.7c-0.1-0.2-0.1-0.3-0.2-0.5c-0.1-1.1-0.1-2.2,0.2-3.3c0,0,0-0.1,0-0.1
		C11.7,70.1,11.6,71.4,11.6,72.7z"/>
	
		<linearGradient id="SVGID_18_" gradientUnits="userSpaceOnUse" x1="-542.1658" y1="431.9088" x2="-541.4678" y2="431.0638" gradientTransform="matrix(13.9129 0 0 -34.5883 7552.4355 14969.0361)">
		<stop  offset="0" style="stop-color:#000000"/>
		<stop  offset="0.99" style="stop-color:#000000;stop-opacity:0"/>
	</linearGradient>
	<path style="fill:url(#SVGID_18_);" d="M24.6,43.9c-0.4,0.5-1,0.8-1.5,1.3c-1.5,1.5-1.3,3.7-0.9,5.6s0.8,4.1-0.5,5.7
		c-0.5,0.7-1.3,1.2-1.9,1.8c-0.6,0.7-1,1.6-1,2.5c0,1.4,0.6,2.7,0.3,4.1c-0.4,2-2.8,3.2-4,4.9c-0.8,1.1-1,2.4-0.8,3.7
		c-0.8-0.1-1.6-0.3-2.3-0.5c-0.2-0.1-0.4-0.1-0.5-0.3c0,0,0,0-0.1-0.1c-0.1-0.2-0.1-0.3-0.2-0.5c-0.1-1.1-0.1-2.2,0.2-3.3
		c0,0,0-0.1,0-0.1c0.3-0.8,0.5-1.6,0.6-2.5c0.1-0.5,0-1.1,0-1.6c0.3-1.4,0.3-2.8,0-4.2c0-0.1-0.1-0.2-0.1-0.3c0-0.1,0.1-0.2,0.1-0.3
		c0.4-0.9,1.1-1.6,1.5-2.5c0.4-1.2,0.1-2.4,0.1-3.6c0.1-2.2,1.1-4.2,2.8-5.6c0.6-0.5,1.3-0.9,1.6-1.6c0.3-1,0.2-2.1-0.1-3.1
		c-0.3-1.1-0.6-2.4,0.1-3.4c0.4-0.5,1-0.8,1.6-1c1.5-0.5,3.2-0.2,4.4,0.8C25.4,41,25.6,42.7,24.6,43.9z"/>
	<path style="fill:none;stroke:#6C62FF;stroke-width:1.86;stroke-miterlimit:10;" d="M68.2,0"/>
	<path style="fill:#68E1FD;" d="M51.6,22.9c-4,0.7-7.5,3.3-9.3,7c-3,6.1-1.4,13.7-1.4,14.4s9.1,3.6,11.6,3.6
		c1.4,0.1,2.7-0.9,3.1-2.2l-4.5-1.7l13.8-1.4h2.5l-1.4,2c0,0,2.7,0.2,4.5,0.3s3-3,3.2-4.6s-8-15.1-9.2-15.9S60,21.6,51.6,22.9z"/>
	
		<linearGradient id="SVGID_19_" gradientUnits="userSpaceOnUse" x1="-519.9449" y1="418.6034" x2="-518.9449" y2="418.6034" gradientTransform="matrix(9.2502 0 0 -15.6355 4869.1387 6563.2139)">
		<stop  offset="0" style="stop-color:#ECC4D7"/>
		<stop  offset="0.42" style="stop-color:#EFD4D1"/>
		<stop  offset="1" style="stop-color:#F2EAC9"/>
	</linearGradient>
	<path style="fill:url(#SVGID_19_);" d="M59.2,11.5c0.8,0.5,1.2,1.5,1,2.4c-0.1,1.8-0.7,4.6-1.4,5.3s-2.9,1-2.9,1
		c0.5,1.2,1.3,2.3,2.1,3.3c0.9,0.7-0.9,3.1-2.7,2.3c-1.4-0.8-2.7-1.7-3.9-2.8c0,0,1.5-2.5,1-3.7s-2.4-5.8-1-7.1S56.1,9.1,59.2,11.5z
		"/>
	<path style="opacity:0.25;fill:#FFFFFF;enable-background:new    ;" d="M49,31.7l-1,10.8l3.1,1.4l2.5-0.4l-3.1-3.3L49,31.7z"/>
	<path style="opacity:0.25;fill:#FFFFFF;enable-background:new    ;" d="M65.1,31.2c0,0,4,8.4,2.2,11.3L66,42.3L65.1,31.2z"/>
	
		<linearGradient id="SVGID_20_" gradientUnits="userSpaceOnUse" x1="-514.9625" y1="344.7874" x2="-513.9625" y2="344.7874" gradientTransform="matrix(8.5822 0 0 -3.7017 4480.9517 1322.5682)">
		<stop  offset="0" style="stop-color:#ECC4D7"/>
		<stop  offset="0.42" style="stop-color:#EFD4D1"/>
		<stop  offset="1" style="stop-color:#F2EAC9"/>
	</linearGradient>
	<path style="fill:url(#SVGID_20_);" d="M53.9,45.2c0,0-1.5,1.2-0.8,2.1c0.4,0.7,1.3,1,2,0.6c0,0,0.1-0.1,0.1-0.1
		c0.7-0.4,2-1.4,3.6-1c0.7,0.2,1.4,0.4,2,0.7c0,0,0.8-0.5,0.6-1c-0.6-0.9-1.4-1.6-2.4-2.3c-0.8,0-1.7,0.1-2.5,0.4
		C55.7,44.6,54.8,44.8,53.9,45.2z"/>
	
		<linearGradient id="SVGID_21_" gradientUnits="userSpaceOnUse" x1="-497.4765" y1="285.3581" x2="-496.4765" y2="285.3581" gradientTransform="matrix(6.848 0 0 -2.2928 3480.7173 698.0833)">
		<stop  offset="0" style="stop-color:#ECC4D7"/>
		<stop  offset="0.42" style="stop-color:#EFD4D1"/>
		<stop  offset="1" style="stop-color:#F2EAC9"/>
	</linearGradient>
	<path style="fill:url(#SVGID_21_);" d="M67.8,43c0,0-1.5,0.1-1.8,1c-0.1,0.3-0.3,0.6-0.5,0.9c0,0,0.8,0.1,1.2-0.2
		c0.2-0.2,0.4-0.3,0.7-0.2l-0.1,0.5c1.1,0.2,2.2,0.1,3.2,0c0.5-0.1,1-0.4,1.4-0.7l0.4-0.8c-0.5-0.3-1.1-0.5-1.7-0.7
		C69.7,42.7,68.8,42.8,67.8,43z"/>
	<path style="fill:#25233A;" d="M75.2,52c0,0,5,3.3,4.5,7.8s-1.1,11.1-1.1,11.1c-1.1,0.4-2.3,0.4-3.3,0c-1.3-0.7-2.1-10.9-2.8-11.8
		s-4.6-5.3-8.8-5.7L75.2,52z"/>
	<path style="fill:#3F3D56;" d="M50.2,55.1c2,1.4,4.2,2.3,6.6,2.6c4.3,0.6,6.2,1.2,7.5,4.4s2.6,10.1,3,10.9s2.1,0.4,2.1,0.4
		s1-1,1-6.5c0-7.7,0.6-9.2-1.6-11.2c-1.2-1.1-2.6-1.9-4.2-2.5L50.2,55.1z"/>
	<path style="fill:#25233A;" d="M67.4,73l0.4,2.8h0.8c0,0,4.9,0.2,5,0.1c0-1.2-0.9-2.1-2-2.2c0,0-0.1,0-0.1,0c-1.9,0.1-2-0.4-2-0.4
		L67.4,73z"/>
	<path style="fill:#25233A;" d="M75.9,71.2l0.8,2.8l8.6-1c0,0,0.3-1.8-2.4-1.6c-0.7,0-1.3,0.5-2.1,0.5c-0.8,0-1.6-0.3-2.1-0.8l0,0
		L75.9,71.2z"/>
	<path style="fill:#68E1FD;" d="M106,36.4l-32.7,1.5c-0.7,0.1-1.4-0.5-1.5-1.2c0,0,0,0,0-0.1V16.3c0.1-0.9,0.8-1.5,1.7-1.5l32.5-0.6
		c0.8-0.1,1.5,0.5,1.6,1.4v19.3C107.6,35.7,106.9,36.4,106,36.4z"/>
	<path style="fill:#68E1FD;" d="M107.5,36.4l-32.7,1.5c-0.7,0.1-1.4-0.5-1.5-1.2V16.3c0.1-0.9,0.8-1.5,1.7-1.5l32.5-0.6
		c0.8-0.1,1.5,0.5,1.6,1.4v19.3C109.1,35.7,108.4,36.4,107.5,36.4z"/>
	
		<linearGradient id="SVGID_22_" gradientUnits="userSpaceOnUse" x1="-567.2026" y1="426.4174" x2="-568.2616" y2="425.4864" gradientTransform="matrix(35.831 0 0 -23.7061 20414.6211 10134.2969)">
		<stop  offset="0" style="stop-color:#000000"/>
		<stop  offset="0.99" style="stop-color:#000000;stop-opacity:0"/>
	</linearGradient>
	<path style="fill:url(#SVGID_22_);" d="M107.5,36.4l-32.7,1.5c-0.7,0.1-1.4-0.5-1.5-1.2V16.3c0.1-0.9,0.8-1.5,1.7-1.5l32.5-0.6
		c0.8-0.1,1.5,0.5,1.6,1.4v19.3C109.1,35.7,108.4,36.4,107.5,36.4z"/>
	<path style="fill:#68E1FD;" d="M98,44.1l-8.3,0.8c0,0-2.5-0.4-2.4-0.8s2.8-0.6,2.8-0.6V30.2l0,0c-0.4-0.3-0.8-0.6-1.3-0.7l0,0
		c-0.2,0-0.4-0.1-0.6-0.1c-0.2,0-0.3-0.1-0.5-0.1c-0.6-0.3,0.1-0.7,0.9-0.7c0.1,0,0.3,0,0.4,0h6.4c1.5,0.5,2.6,2,2.5,3.6
		C98.1,35.1,98,44.1,98,44.1z"/>
	<path style="fill:#68E1FD;" d="M91.3,44.1l-1.5,0.7c0,0-2.5-0.4-2.4-0.8s2.8-0.6,2.8-0.6V30.2l0,0c-0.4-0.3-0.8-0.5-1.3-0.7l0,0
		c-0.3-0.1-0.7-0.2-1-0.2c-0.6-0.3,0.1-0.7,0.9-0.7c0.7,0.1,2.2,0.8,2.3,1.2S91.3,44.1,91.3,44.1z"/>
	
		<linearGradient id="SVGID_23_" gradientUnits="userSpaceOnUse" x1="-429.6722" y1="420.6796" x2="-436.3582" y2="419.3536" gradientTransform="matrix(3.9454 0 0 -16.289 1807.4384 6870.2925)">
		<stop  offset="0" style="stop-color:#000000"/>
		<stop  offset="0.99" style="stop-color:#000000;stop-opacity:0"/>
	</linearGradient>
	<path style="fill:url(#SVGID_23_);" d="M91.3,44.1l-1.5,0.7c0,0-2.5-0.4-2.4-0.8s2.8-0.6,2.8-0.6V30.2l0,0
		c-0.4-0.3-0.8-0.5-1.3-0.7l0,0c-0.3-0.1-0.7-0.2-1-0.2c-0.6-0.3,0.1-0.7,0.9-0.7c0.7,0.1,2.2,0.8,2.3,1.2S91.3,44.1,91.3,44.1z"/>
	
		<linearGradient id="SVGID_24_" gradientUnits="userSpaceOnUse" x1="2003.0253" y1="-1595.3657" x2="2001.8602" y2="-1594.9347" gradientTransform="matrix(0.2193 0 0 -0.1733 -395.9763 -209.4978)">
		<stop  offset="0" style="stop-color:#000000"/>
		<stop  offset="0.99" style="stop-color:#000000;stop-opacity:0"/>
	</linearGradient>
	<path style="fill:url(#SVGID_24_);" d="M60.2,71.9C60,72.1,59.9,72.1,60,72C60.1,72,60.1,71.9,60.2,71.9z"/>
</g>
</svg>
