<?xml version="1.0" encoding="utf-8"?>
<!-- Generator: Adobe Illustrator 24.3.0, SVG Export Plug-In . SVG Version: 6.00 Build 0)  -->
<svg version="1.1" id="Layer_1" xmlns="http://www.w3.org/2000/svg" xmlns:xlink="http://www.w3.org/1999/xlink" x="0px" y="0px"
	 width="37.1px" height="32px" viewBox="0 0 37.1 32" style="enable-background:new 0 0 37.1 32;" xml:space="preserve">
<g id="Group_518" transform="translate(-584.524 -463.411)">
	<g id="Group_513">
		<g id="Group_512">
			<path id="Path_481" style="fill:#FFFFFF;" d="M619.9,481.1c-0.4,0-0.8,0.3-0.8,0.8c0,0,0,0.1,0,0.1v11c0,0.4-0.3,0.8-0.8,0.8
				c0,0-0.1,0-0.1,0h-30.3c-0.4,0-0.8-0.3-0.8-0.8c0,0,0-0.1,0-0.1v-11c0-0.5-0.4-0.8-0.8-0.8c-0.5,0-0.8,0.4-0.8,0.8v11
				c0,1.4,1.1,2.5,2.4,2.5c0,0,0.1,0,0.1,0h30.3c1.4,0,2.5-1.1,2.5-2.4c0,0,0-0.1,0-0.1v-11C620.8,481.5,620.5,481.1,619.9,481.1
				C620,481.1,620,481.1,619.9,481.1z"/>
		</g>
	</g>
	<g id="Group_515">
		<g id="Group_514">
			<path id="Path_482" style="fill:#FFFFFF;" d="M619.1,469.3h-32c-1.4,0-2.5,1.1-2.5,2.4c0,0,0,0.1,0,0.1v5.4
				c0,1.2,0.8,2.2,1.9,2.4l13.2,3v2.7c0,0.4,0.3,0.8,0.8,0.8c0,0,0.1,0,0.1,0h5.1c0.4,0,0.8-0.3,0.8-0.8c0,0,0-0.1,0-0.1v-2.7
				l13.2-3c1.1-0.3,1.9-1.3,1.9-2.4v-5.4C621.6,470.5,620.5,469.3,619.1,469.3C619.1,469.3,619.1,469.3,619.1,469.3z M604.8,484.5
				h-3.4v-3.4h3.4V484.5z M619.9,477.2c0,0.4-0.3,0.8-0.7,0.8l-12.8,2.9v-0.7c0-0.4-0.3-0.8-0.8-0.8c0,0-0.1,0-0.1,0h-5.1
				c-0.4,0-0.8,0.3-0.8,0.8c0,0,0,0.1,0,0.1v0.7l-12.8-2.9c-0.4-0.1-0.7-0.4-0.7-0.8v-5.4c0-0.4,0.3-0.8,0.8-0.8c0,0,0.1,0,0.1,0h32
				c0.4,0,0.8,0.3,0.8,0.8c0,0,0,0.1,0,0.1L619.9,477.2z"/>
		</g>
	</g>
	<g id="Group_517">
		<g id="Group_516">
			<path id="Path_483" style="fill:#FFFFFF;" d="M607.3,463.4h-8.4c-1.4,0-2.5,1.1-2.5,2.4c0,0,0,0.1,0,0.1v0.8
				c0,0.5,0.4,0.8,0.8,0.8c0.5,0,0.8-0.4,0.8-0.8l0,0v-0.8c0-0.4,0.3-0.8,0.8-0.8c0,0,0.1,0,0.1,0h8.4c0.4,0,0.8,0.3,0.8,0.8
				c0,0,0,0.1,0,0.1v0.8c0,0.5,0.4,0.8,0.8,0.8c0.5,0,0.8-0.4,0.8-0.8c0,0,0,0,0,0v-0.8C609.8,464.6,608.7,463.4,607.3,463.4
				C607.3,463.4,607.3,463.4,607.3,463.4z"/>
		</g>
	</g>
</g>
</svg>
