<?xml version="1.0" encoding="utf-8"?>
<!-- Generator: Adobe Illustrator 24.3.0, SVG Export Plug-In . SVG Version: 6.00 Build 0)  -->
<svg version="1.1" id="Group_518" xmlns="http://www.w3.org/2000/svg" xmlns:xlink="http://www.w3.org/1999/xlink" x="0px" y="0px"
	 width="27px" height="23.3px" viewBox="0 0 27 23.3" style="enable-background:new 0 0 27 23.3;" xml:space="preserve">
<g id="Group_513" transform="translate(0.614 12.886)">
	<g id="Group_512">
		<path id="Path_481" style="fill:#82E8FF;" d="M25.2,0c-0.3,0-0.6,0.2-0.6,0.5c0,0,0,0,0,0.1v8c0,0.3-0.2,0.6-0.5,0.6
			c0,0,0,0-0.1,0H1.8C1.5,9.2,1.2,9,1.2,8.7c0,0,0,0,0-0.1v-8C1.2,0.3,1,0,0.6,0C0.3,0,0,0.3,0,0.6v8c0,1,0.8,1.8,1.8,1.8
			c0,0,0,0,0.1,0h22.1c1,0,1.8-0.8,1.8-1.8c0,0,0,0,0-0.1v-8C25.8,0.3,25.5,0,25.2,0C25.2,0,25.2,0,25.2,0z"/>
	</g>
</g>
<g id="Group_515" transform="translate(0 4.295)">
	<g id="Group_514">
		<path id="Path_482" style="fill:#82E8FF;" d="M25.2,0H1.8C0.8,0,0,0.8,0,1.8c0,0,0,0,0,0.1v3.9c0,0.8,0.6,1.6,1.4,1.8L11,9.7v2
			c0,0.3,0.2,0.6,0.5,0.6c0,0,0,0,0.1,0h3.7c0.3,0,0.6-0.2,0.6-0.5c0,0,0,0,0-0.1v-2l9.6-2.1C26.4,7.4,27,6.6,27,5.8V1.8
			C27,0.8,26.2,0,25.2,0C25.2,0,25.2,0,25.2,0z M14.7,11h-2.5V8.6h2.5L14.7,11z M25.8,5.8c0,0.3-0.2,0.6-0.5,0.6L16,8.5V8
			c0-0.3-0.2-0.6-0.5-0.6c0,0,0,0-0.1,0h-3.7c-0.3,0-0.6,0.2-0.6,0.5c0,0,0,0,0,0.1v0.5L1.7,6.4C1.4,6.3,1.2,6.1,1.2,5.8V1.8
			c0-0.3,0.2-0.6,0.5-0.6c0,0,0,0,0.1,0h23.3c0.3,0,0.6,0.2,0.6,0.5c0,0,0,0,0,0.1L25.8,5.8z"/>
	</g>
</g>
<g id="Group_517" transform="translate(8.591)">
	<g id="Group_516">
		<path id="Path_483" style="fill:#82E8FF;" d="M8,0H1.8C0.8,0,0,0.8,0,1.8c0,0,0,0,0,0.1v0.6c0,0.3,0.3,0.6,0.6,0.6
			c0.3,0,0.6-0.3,0.6-0.6V1.8c0-0.3,0.2-0.6,0.5-0.6c0,0,0,0,0.1,0H8c0.3,0,0.6,0.2,0.6,0.5c0,0,0,0,0,0.1v0.6
			c0,0.3,0.2,0.6,0.6,0.6c0.3,0,0.6-0.2,0.6-0.6c0,0,0,0,0,0V1.8C9.8,0.8,9,0,8,0C8,0,8,0,8,0z"/>
	</g>
</g>
</svg>
