<?xml version="1.0" encoding="utf-8"?>
<!-- Generator: Adobe Illustrator 24.3.0, SVG Export Plug-In . SVG Version: 6.00 Build 0)  -->
<svg version="1.1" id="Layer_1" xmlns="http://www.w3.org/2000/svg" xmlns:xlink="http://www.w3.org/1999/xlink" x="0px" y="0px"
	 width="30px" height="30px" viewBox="0 0 30 30" style="enable-background:new 0 0 30 30;" xml:space="preserve">
<g transform="translate(-0.002)">
	<path style="fill:#0077B5;" d="M27.8,0H2.2C1,0,0,0.9,0,2.1c0,0,0,0,0,0v25.7C0,29.1,1,30,2.2,30c0,0,0,0,0,0h25.6
		c1.2,0,2.2-0.9,2.2-2.1V2.1C30,0.9,29,0,27.8,0z M9.1,25.1H4.6V11.6h4.5V25.1z M6.8,9.7L6.8,9.7C5.5,9.8,4.4,8.8,4.3,7.5
		S5.2,5.1,6.5,5c0.1,0,0.3,0,0.4,0c1.3-0.1,2.4,0.9,2.5,2.2c0.1,1.3-0.9,2.4-2.2,2.5C7.1,9.7,7,9.7,6.8,9.7L6.8,9.7z M25.4,25.1
		h-4.5v-7.3c0-1.8-0.7-3.1-2.3-3.1c-1,0-2,0.7-2.3,1.6c-0.1,0.4-0.2,0.7-0.2,1.1v7.6h-4.5c0,0,0.1-12.3,0-13.5h4.5v1.9
		c0.8-1.4,2.4-2.3,4.1-2.2c3,0,5.2,1.9,5.2,6.1L25.4,25.1L25.4,25.1z M16.1,13.5C16.1,13.5,16.1,13.5,16.1,13.5L16.1,13.5L16.1,13.5
		z"/>
</g>
</svg>
