<?xml version="1.0" encoding="utf-8"?>
<!-- Generator: Adobe Illustrator 24.3.0, SVG Export Plug-In . SVG Version: 6.00 Build 0)  -->
<svg version="1.1" id="Layer_1" xmlns="http://www.w3.org/2000/svg" xmlns:xlink="http://www.w3.org/1999/xlink" x="0px" y="0px"
	 width="30px" height="30px" viewBox="0 0 30 30" style="enable-background:new 0 0 30 30;" xml:space="preserve">
<g id="Group_730" transform="translate(-404 -586.606)">
	<path id="Path_1014" style="fill:#00A2C8;" d="M417.1,606.3V594c0-1.6,1.3-2.9,2.9-2.9h14V589c0-1.3-1.1-2.4-2.4-2.4h-25.1
		c-1.3,0-2.4,1.1-2.4,2.4v25.1c0,1.3,1.1,2.4,2.4,2.4h10.7V606.3z M409,613.9c-1.1,0-2.1-0.9-2.1-2.1c0-1.1,0.9-2.1,2.1-2.1
		c1.1,0,2.1,0.9,2.1,2.1C411.1,612.9,410.1,613.9,409,613.9C409,613.9,409,613.9,409,613.9z"/>
	<path id="Path_1015" style="fill:#00A2C8;" d="M421.4,596.4v5.7H434v-6.6h-11.7C421.8,595.5,421.4,595.9,421.4,596.4
		C421.4,596.3,421.4,596.3,421.4,596.4z"/>
	<path id="Path_1016" style="fill:#00A2C8;" d="M425.1,613.2v-2.7c0-0.4,0.3-0.8,0.8-0.8c0,0,0,0,0,0h8.1v-3.4h-9.7
		c-1.6,0-2.8,1.3-2.8,2.8v7.4h10.1c1.3,0,2.4-1.1,2.4-2.4v-1L425.1,613.2z"/>
</g>
</svg>
