<svg xmlns="http://www.w3.org/2000/svg" xmlns:xlink="http://www.w3.org/1999/xlink" width="199" height="145.992" viewBox="0 0 199 145.992">
  <defs>
    <linearGradient id="linear-gradient" x1="0.5" y1="1" x2="0.5" gradientUnits="objectBoundingBox">
      <stop offset="0" stop-color="gray" stop-opacity="0.251"/>
      <stop offset="0.54" stop-color="gray" stop-opacity="0.122"/>
      <stop offset="1" stop-color="gray" stop-opacity="0.102"/>
    </linearGradient>
    <linearGradient id="linear-gradient-2" x1="9.926" x2="9.926" y2="0" xlink:href="#linear-gradient"/>
  </defs>
  <g id="undraw_make_it_rain_iwk4" transform="translate(0 0.001)">
    <path id="Path_501" data-name="Path 501" d="M177.961,245.484c-2.617.791-5.067,2.705-5.721,5.361-.748,3.052.977,6.129,1.226,9.264.8,10.269-13.8,17.514-11.719,27.6.827,4.011,4.172,6.961,7.468,9.4,5.279,3.892,11.137,7.331,17.624,8.3,9.846,1.475,20.133-2.86,29.7-.121,7.719,2.211,13.626,8.689,21.291,11.08,5.835,1.82,12.122,1.1,18.184.366,3.269-.4,6.693-.854,9.331-2.815,4.9-3.651,5.212-10.861,8.5-16.028,5.071-7.968,16.19-9.533,25.513-7.985s18.376,5.361,27.821,5.051a12.7,12.7,0,0,0,5.847-1.332c2.141-1.2,3.588-3.324,4.867-5.422a87.741,87.741,0,0,0,12.723-43.6c.055-2.646-.039-5.406-1.283-7.741-1.573-2.954-4.718-4.722-7.848-5.911-7.517-2.86-15.82-3.328-23.185-6.554-7.1-3.112-12.857-8.569-19.044-13.246a101.439,101.439,0,0,0-41.78-18.607c-3.553-.686-7.241-1.177-10.771-.384-4.068.913-7.574,3.449-10.726,6.178-8.387,7.261-15.109,16.22-22.838,24.178a130.025,130.025,0,0,1-17.35,14.962c-2.86,2.062-5.9,4.509-9.088,6.033C183.782,244.906,181.046,244.555,177.961,245.484Z" transform="translate(-151.625 -171.524)" fill="#2caecc" opacity="0.2"/>
    <path id="Path_502" data-name="Path 502" d="M377.783,138.88s-7.9,10.487-2.247,22.711-9.846,31.865-9.846,31.865" transform="translate(-314.062 -129.454)" fill="none" stroke="#535461" stroke-miterlimit="10" stroke-width="2"/>
    <path id="Path_503" data-name="Path 503" d="M422.325,98.242c-.627,2.7-3.629,4.307-3.629,4.307s-1.982-2.768-1.355-5.467,2.247-4.628,3.629-4.307S422.953,95.543,422.325,98.242Z" transform="translate(-355.064 -92.74)" fill="#8ed16f"/>
    <ellipse id="Ellipse_136" data-name="Ellipse 136" cx="1.575" cy="0.59" rx="1.575" ry="0.59" transform="translate(63.739 6.298) rotate(-76.9)" fill="#8ed16f"/>
    <ellipse id="Ellipse_137" data-name="Ellipse 137" cx="1.575" cy="0.59" rx="1.575" ry="0.59" transform="translate(63.739 6.298) rotate(-76.9)" opacity="0.3"/>
    <path id="Path_504" data-name="Path 504" d="M413.768,157.522c-2.607.94-5.588-.707-5.588-.707s1.246-3.169,3.855-4.107,5.108-.613,5.588.707S416.375,156.583,413.768,157.522Z" transform="translate(-347.871 -140.03)" fill="#8ed16f"/>
    <ellipse id="Ellipse_138" data-name="Ellipse 138" cx="1.575" cy="0.59" rx="1.575" ry="0.59" transform="matrix(0.94, -0.34, 0.34, 0.94, 63.282, 14.837)" fill="#8ed16f"/>
    <ellipse id="Ellipse_139" data-name="Ellipse 139" cx="1.575" cy="0.59" rx="1.575" ry="0.59" transform="matrix(0.94, -0.34, 0.34, 0.94, 63.282, 14.837)" opacity="0.3"/>
    <path id="Path_505" data-name="Path 505" d="M410.8,204.292c-2.607.94-5.588-.707-5.588-.707s1.246-3.169,3.855-4.107,5.108-.613,5.588.707S413.4,203.355,410.8,204.292Z" transform="translate(-345.508 -177.244)" fill="#8ed16f"/>
    <ellipse id="Ellipse_140" data-name="Ellipse 140" cx="1.575" cy="0.59" rx="1.575" ry="0.59" transform="translate(62.706 24.534) rotate(-19.8)" fill="#8ed16f"/>
    <ellipse id="Ellipse_141" data-name="Ellipse 141" cx="1.575" cy="0.59" rx="1.575" ry="0.59" transform="translate(62.706 24.534) rotate(-19.8)" opacity="0.3"/>
    <path id="Path_506" data-name="Path 506" d="M425.708,259.162c-2.607.94-5.588-.707-5.588-.707s1.246-3.169,3.855-4.107,5.108-.613,5.588.707S428.315,258.229,425.708,259.162Z" transform="translate(-357.371 -220.903)" fill="#8ed16f"/>
    <ellipse id="Ellipse_142" data-name="Ellipse 142" cx="1.575" cy="0.59" rx="1.575" ry="0.59" transform="translate(65.753 35.75) rotate(-19.8)" fill="#8ed16f"/>
    <ellipse id="Ellipse_143" data-name="Ellipse 143" cx="1.575" cy="0.59" rx="1.575" ry="0.59" transform="translate(65.753 35.75) rotate(-19.8)" opacity="0.3"/>
    <path id="Path_507" data-name="Path 507" d="M416.008,309.342c-2.607.94-5.588-.707-5.588-.707s1.246-3.169,3.855-4.107,5.108-.613,5.588.707S418.617,308.4,416.008,309.342Z" transform="translate(-349.653 -260.831)" fill="#8ed16f"/>
    <ellipse id="Ellipse_144" data-name="Ellipse 144" cx="1.575" cy="0.59" rx="1.575" ry="0.59" transform="matrix(0.94, -0.34, 0.34, 0.94, 63.776, 45.831)" fill="#8ed16f"/>
    <ellipse id="Ellipse_145" data-name="Ellipse 145" cx="1.575" cy="0.59" rx="1.575" ry="0.59" transform="matrix(0.94, -0.34, 0.34, 0.94, 63.776, 45.831)" opacity="0.3"/>
    <path id="Path_508" data-name="Path 508" d="M369.734,169.066c1.925,1.994,5.326,1.839,5.326,1.839s.28-3.394-1.645-5.388-4.309-2.815-5.326-1.839S367.809,167.072,369.734,169.066Z" transform="translate(-315.607 -148.858)" fill="#8ed16f"/>
    <ellipse id="Ellipse_146" data-name="Ellipse 146" cx="0.59" cy="1.575" rx="0.59" ry="1.575" transform="matrix(0.719, -0.695, 0.695, 0.719, 54.522, 17.644)" fill="#8ed16f"/>
    <ellipse id="Ellipse_147" data-name="Ellipse 147" cx="0.59" cy="1.575" rx="0.59" ry="1.575" transform="matrix(0.719, -0.695, 0.695, 0.719, 54.522, 17.644)" opacity="0.3"/>
    <path id="Path_509" data-name="Path 509" d="M364.324,324.056c1.925,1.994,5.326,1.839,5.326,1.839s.28-3.394-1.645-5.388-4.309-2.815-5.326-1.839S362.4,322.062,364.324,324.056Z" transform="translate(-311.303 -272.181)" fill="#8ed16f"/>
    <ellipse id="Ellipse_148" data-name="Ellipse 148" cx="0.59" cy="1.575" rx="0.59" ry="1.575" transform="matrix(0.719, -0.695, 0.695, 0.719, 53.413, 49.313)" fill="#8ed16f"/>
    <ellipse id="Ellipse_149" data-name="Ellipse 149" cx="0.59" cy="1.575" rx="0.59" ry="1.575" transform="matrix(0.719, -0.695, 0.695, 0.719, 53.413, 49.313)" opacity="0.3"/>
    <path id="Path_510" data-name="Path 510" d="M371.4,225.023c2.48,1.238,5.633-.049,5.633-.049s-.868-3.291-3.347-4.53-5-1.226-5.633.049S368.924,223.785,371.4,225.023Z" transform="translate(-315.831 -193.623)" fill="#8ed16f"/>
    <ellipse id="Ellipse_150" data-name="Ellipse 150" cx="0.59" cy="1.575" rx="0.59" ry="1.575" transform="translate(55.083 28.845) rotate(-63.48)" fill="#8ed16f"/>
    <ellipse id="Ellipse_151" data-name="Ellipse 151" cx="0.59" cy="1.575" rx="0.59" ry="1.575" transform="translate(55.083 28.845) rotate(-63.48)" opacity="0.3"/>
    <path id="Path_511" data-name="Path 511" d="M376.5,279.593c2.48,1.238,5.633-.049,5.633-.049s-.868-3.291-3.347-4.53-5-1.226-5.633.049S374.027,278.368,376.5,279.593Z" transform="translate(-319.884 -237.044)" fill="#8ed16f"/>
    <ellipse id="Ellipse_152" data-name="Ellipse 152" cx="0.59" cy="1.575" rx="0.59" ry="1.575" transform="translate(56.124 39.996) rotate(-63.48)" fill="#8ed16f"/>
    <ellipse id="Ellipse_153" data-name="Ellipse 153" cx="0.59" cy="1.575" rx="0.59" ry="1.575" transform="translate(56.124 39.996) rotate(-63.48)" opacity="0.3"/>
    <path id="Path_512" data-name="Path 512" d="M179.665,249.21a34.439,34.439,0,0,1,6.281,35.824c-8.142,21.4,13.957,56.991,13.957,56.991s-.237-.035-.676-.112c-29.625-5.228-44.336-39.107-27.868-64.275C177.473,268.281,182.509,257.3,179.665,249.21Z" transform="translate(-153.977 -217.242)" fill="#8ed16f"/>
    <path id="Path_513" data-name="Path 513" d="M113,534.018s16.457-2.621,17.957,12.128S162.6,562.94,162.6,562.94l-.566.376c-24.891,16.345-48.686,10.408-45.1-11.288C118.273,543.96,118.163,535.859,113,534.018Z" transform="translate(-113 -443.716)" fill="#8ed16f"/>
    <g id="Group_587" data-name="Group 587" transform="translate(0 90.121)" opacity="0.3">
      <path id="Path_514" data-name="Path 514" d="M113,534.018s16.457-2.621,17.957,12.128S162.6,562.94,162.6,562.94l-.566.376c-24.891,16.345-48.686,10.408-45.1-11.288C118.273,543.96,118.163,535.859,113,534.018Z" transform="translate(-113 -533.838)" fill="#fff"/>
    </g>
    <ellipse id="Ellipse_154" data-name="Ellipse 154" cx="4.526" cy="11.807" rx="4.526" ry="11.807" transform="translate(16.997 66.505)" fill="#8ed16f"/>
    <ellipse id="Ellipse_155" data-name="Ellipse 155" cx="4.526" cy="11.807" rx="4.526" ry="11.807" transform="translate(16.997 66.505)" opacity="0.3"/>
    <ellipse id="Ellipse_156" data-name="Ellipse 156" cx="3.05" cy="6.789" rx="3.05" ry="6.789" transform="translate(9.351 113.75) rotate(-45)" fill="#8ed16f"/>
    <ellipse id="Ellipse_157" data-name="Ellipse 157" cx="3.05" cy="6.789" rx="3.05" ry="6.789" transform="translate(9.351 113.75) rotate(-45)" opacity="0.3"/>
    <path id="Path_515" data-name="Path 515" d="M400.67,358.2H293.541a4.881,4.881,0,0,0-4.881,4.881v62.791a4.881,4.881,0,0,0,4.881,4.881H400.67a4.881,4.881,0,0,0,4.881-4.881V363.081A4.881,4.881,0,0,0,400.67,358.2Z" transform="translate(-252.77 -303.964)" fill="url(#linear-gradient)"/>
    <rect id="Rectangle_334" data-name="Rectangle 334" width="114.139" height="70.845" rx="4" transform="translate(37.265 55.09)" fill="#2caecc"/>
    <rect id="Rectangle_335" data-name="Rectangle 335" width="114.139" height="12.988" transform="translate(37.265 67.488)" fill="#2caecc"/>
    <rect id="Rectangle_336" data-name="Rectangle 336" width="114.139" height="12.988" transform="translate(37.265 67.488)" opacity="0.3"/>
    <rect id="Rectangle_337" data-name="Rectangle 337" width="92.492" height="6.297" transform="translate(48.089 90.12)" fill="#d6d6e3"/>
    <ellipse id="Ellipse_158" data-name="Ellipse 158" cx="9.053" cy="9.053" rx="9.053" ry="9.053" transform="translate(46.71 103.108)" fill="#2caecc"/>
    <ellipse id="Ellipse_159" data-name="Ellipse 159" cx="9.053" cy="9.053" rx="9.053" ry="9.053" transform="translate(46.71 103.108)" opacity="0.3"/>
    <path id="Path_516" data-name="Path 516" d="M822.151,220.13a1.981,1.981,0,0,0,.872,1.1c1.878,1.24,5.96.977,6.45.977.1,0,.241.186.392.5a34.494,34.494,0,0,1,1.914,6.828c.1,1.187,1.2,6.742,3.009,8.812.055.063.11.123.164.178,1.771,1.78,3.849-.178,3.849-.178l.3-1.036c-.084.409-.178.885-.272,1.418-.047.268-.094.552-.139.844a32.324,32.324,0,0,0-.423,4.979,18.023,18.023,0,0,0,.078,1.814c.016.168.035.333.057.494a17.333,17.333,0,0,1,.135,2.215,60.209,60.209,0,0,1-1.138,9.866l.043-.014c-.027.137-.043.2-.043.2l.065-.02q-.047.3-.09.623c-.38,2.758-.6,6.191-.7,8.172a16.357,16.357,0,0,0,.139,3.13l1.994,14.038v6.538a11.544,11.544,0,0,0,.36,2.938c.65,2.47.114,11.092-.186,15.182-.084,1.116-.149,1.9-.167,2.121v.067l.057-.022v.071a1.156,1.156,0,0,1,.266-.078c-.791,1.226-2.223,3.253-3.324,3.594a3.488,3.488,0,0,0-1.661,1.1l-.029.039-.041.057a1.226,1.226,0,0,0-.239.625.688.688,0,0,1-.037-.121c-.084.456.19.872,1.05,1.075a7.069,7.069,0,0,0,1.522.123c2.983,0,8.277-.917,8.861-1.9v-3.4l.1.031v.031l.366.12,1-3.367c1.2-.891.2-16.833,0-20.5-.184-3.338,1.882-16.619,2.247-18.958l-.049-.059.055-.341a1.449,1.449,0,0,1,.2.18,2.667,2.667,0,0,1,.313.462,6.165,6.165,0,0,1,.443.915c2.019,5.034,2.928,19.43,2.928,20.721v13.538a14.1,14.1,0,0,0,.552,3.949,16.948,16.948,0,0,1,.429,2.055c.043.272.08.541.114.8s.069.552.1.793a1.657,1.657,0,0,0,.02.182.359.359,0,0,1,0,.084c.055.533.084.883.084.883a.2.2,0,0,1,.041-.08l.01.129a.275.275,0,0,1,.08-.127,1.949,1.949,0,0,1,.27-.221v1.72l-.049-.037v.3c2.08,1.569,5.465,2.043,8.064,2.025a10.317,10.317,0,0,0,3.524-.441c.678-.333.306-1.109-.311-1.7a2.33,2.33,0,0,0-1.5-.772c-.658.072-2.907-2.476-4.086-3.872l.133-.059.188-.082V288.8s.3-8.912,1.2-17.726a31.359,31.359,0,0,0-1.543-13.15l-.029-.084.274.043c.29.045.445.072.445.072a1.705,1.705,0,0,0-.018-.2h.018s-.351-3.823-.355-8.624c0-5.443.46-12.079,2.362-15.834a11.171,11.171,0,0,0,1.43-5.239,5.479,5.479,0,0,0-.979-3.351,2.656,2.656,0,0,0-1.126-.891l-.039-.022h-.02a2.8,2.8,0,0,0-1.034-.2h-4.109a2.744,2.744,0,0,1-1.357-.358l-1.608-.911a8.155,8.155,0,0,1-.5-3.982c0-.108.02-.217.031-.323l.116-.123c.09-.1.174-.2.255-.3a2.26,2.26,0,0,1-.018.241c-.02.129-.055.2-.11.221a3.55,3.55,0,0,0,2.4-.966c.022-.027.043-.055.063-.084a4.376,4.376,0,0,0,.394-.817,2.375,2.375,0,0,1,.3-.548c.135-.176.311-.319.456-.486l.024-.029a3.528,3.528,0,0,0,.552-2.292c.01-1.945-.047-4.086-1.349-5.545a6.139,6.139,0,0,0-4.442-1.726c-1.636-.053-3.269.241-4.9.249-1.112,0-2.452-.018-3.065.9-.3.452-.337,1.042-.664,1.475-.188.249-.476.464-.492.774a.8.8,0,0,0,.106.409v.014a2.89,2.89,0,0,0,2.117,1.42,5.27,5.27,0,0,0-.409.564,5.37,5.37,0,0,0-.817,2.86,3.36,3.36,0,0,0,.012.351,5.4,5.4,0,0,0,1.712,3.6c-.016.114-.033.229-.051.341l.037.033q.174.157.362.3l.045.035v.2a3.423,3.423,0,0,1-.012.356c-.012.116,0,.188-.012.282l-.027-.022-2-1.667-3.21-2.971s-8.025-5.841-8.428-3.065a2,2,0,0,0,.382,1.385c1.473,2.247,6.538,4.16,6.538,4.16a42.8,42.8,0,0,1,5.04,6.636c-.072.039-.143.076-.219.11a9.475,9.475,0,0,1-4.421.482c-3.03.472-3.3,3.792-3.287,5.134v.278l-4.021-9.441-.012-.029a1.988,1.988,0,0,0-1.5-1.181C828.309,219.089,821.589,218.147,822.151,220.13Zm16.833,91.736a1.761,1.761,0,0,1,.178-.033l-.018.029Z" transform="translate(-677.236 -182.509)" fill="url(#linear-gradient-2)"/>
    <path id="Path_517" data-name="Path 517" d="M984.349,716.43s3.808,4.787,4.689,4.689,2.93,1.855,1.759,2.452-7.911.977-11.237-1.563v-3.827Z" transform="translate(-802.511 -589.003)" fill="#aca9c9"/>
    <path id="Path_518" data-name="Path 518" d="M886.521,717.86s-2.247,4-3.808,4.495-2.93,2.247-.879,2.736,9.378-.586,10.06-1.759v-5.179Z" transform="translate(-723.927 -590.141)" fill="#aca9c9"/>
    <path id="Path_519" data-name="Path 519" d="M894.372,465.435l1.941,13.848v6.438a11.544,11.544,0,0,0,.351,2.9c.633,2.437.112,10.941-.182,14.976-.1,1.316-.17,2.158-.17,2.158,1.269-.586,6.642,1.269,6.642,1.269l.543-1.849.433-1.471c1.173-.879.2-16.6,0-20.227-.133-2.474.97-10.5,1.677-15.3.2-1.359.37-2.452.47-3.11.063-.409.1-.635.1-.635a2.14,2.14,0,0,1,.527.635,6.134,6.134,0,0,1,.431.9c1.965,4.967,2.86,19.167,2.86,20.431v13.354a14.078,14.078,0,0,0,.537,3.9,20.449,20.449,0,0,1,.529,2.813c.139,1.06.2,1.914.2,1.914.1-.586,6.154-3.224,6.154-3.224v-22.27s.292-8.785,1.173-17.485a31.193,31.193,0,0,0-1.124-11.764c-.243-.832-.486-1.536-.7-2.094-.358-.95-.613-1.475-.613-1.475H896.211c-.335.063-.613.738-.864,1.761-.163.686-.306,1.528-.431,2.452-.37,2.719-.582,6.1-.684,8.062A16.317,16.317,0,0,0,894.372,465.435Z" transform="translate(-734.6 -377.055)" fill="#618fd8"/>
    <g id="Group_588" data-name="Group 588" transform="translate(161.762 73.066)" opacity="0.1">
      <path id="Path_520" data-name="Path 520" d="M983.524,505.451v-22.27s.292-8.786,1.173-17.485a30.461,30.461,0,0,0-2.452-15.336h.39a30.636,30.636,0,0,1,2.452,15.336c-.868,8.693-1.173,17.485-1.173,17.485v22.27s-6.056,2.638-6.154,3.224a2.926,2.926,0,0,0-.031-.356A56.959,56.959,0,0,1,983.524,505.451Z" transform="translate(-962.817 -450.36)"/>
      <path id="Path_521" data-name="Path 521" d="M905.277,722.32a1.516,1.516,0,0,0-.537.11v-.1A3.487,3.487,0,0,1,905.277,722.32Z" transform="translate(-904.74 -666.751)"/>
      <path id="Path_522" data-name="Path 522" d="M936.46,559.893c1.173-.879.2-16.6,0-20.227s2.247-19.046,2.247-19.046a1.7,1.7,0,0,1,.337.347c-.36,2.3-2.37,15.407-2.192,18.7.2,3.614,1.173,19.34,0,20.227l-.977,3.32-.356-.119Z" transform="translate(-929.231 -506.265)"/>
    </g>
    <path id="Path_523" data-name="Path 523" d="M843.248,285.584l-2.043,7.229s-2.149,2.043-3.906,0-2.84-7.521-2.946-8.694-1.661-7.229-2.247-7.229-6.446.39-7.131-2.043c-.547-1.957,5.995-1.022,8.614-.582a1.941,1.941,0,0,1,1.465,1.165l4.017,9.592S841.2,282.556,843.248,285.584Z" transform="translate(-679.483 -236.691)" fill="#f7c4a7"/>
    <path id="Path_524" data-name="Path 524" d="M936.845,249.82s-2.54,7.13.685,9.67S926,262.714,926,262.714l2-1.9s1.416-5.617.439-10.306Z" transform="translate(-759.894 -217.727)" fill="#f7c4a7"/>
    <path id="Path_525" data-name="Path 525" d="M907.945,292.018s2.589-.635,2.589-1.318l2.294,1.318h5.764s4.2,2.343.684,9.378-1.953,24.313-1.953,24.313-12.5-2.247-22.856,1.173c0,0,1.563-7.717.977-12.112s.977-10.549.977-10.549l.879-3.712s-.049-3.473-3.663-1.71c0,0-.537-5.03,3.175-5.617,0,0,4.291.586,5.568-1.563A6.526,6.526,0,0,0,907.945,292.018Z" transform="translate(-734.119 -250.255)" opacity="0.1"/>
    <path id="Path_526" data-name="Path 526" d="M907.944,291.068s2.589-.635,2.589-1.318l1.682.966a2.656,2.656,0,0,0,1.32.351h4.031a2.656,2.656,0,0,1,2.16,1.1c.926,1.3,1.755,3.868-.449,8.279-3.516,7.032-1.953,24.313-1.953,24.313s-12.5-2.247-22.857,1.173c0,0,1.563-7.717.977-12.112s.977-10.534.977-10.534l.879-3.712s-.049-3.473-3.663-1.71c0,0-.523-4.891,3.022-5.59a1,1,0,0,1,.3-.02c.758.08,4.291.335,5.422-1.579A6.558,6.558,0,0,0,907.944,291.068Z" transform="translate(-734.119 -249.499)" fill="#e14b5a"/>
    <path id="Path_527" data-name="Path 527" d="M950.818,309.8s-3.126,1.953-8.205,0c0,0-5.568-2.043-7.327-6.056s8.888.684,8.888.684a7.746,7.746,0,0,0,2.93-.488C947.786,303.452,952.575,307.651,950.818,309.8Z" transform="translate(-767.126 -259.343)" opacity="0.1"/>
    <path id="Path_528" data-name="Path 528" d="M902.444,257.3s-3.126,1.953-8.205,0c0,0-5.568-2.043-7.327-6.056s-5.86-8.408-5.86-8.408-7.131-2.736-6.742-5.469,8.205,3.028,8.205,3.028l3.126,2.93,10.158,8.6a7.746,7.746,0,0,0,2.93-.488C899.412,250.94,904.2,255.147,902.444,257.3Z" transform="translate(-718.753 -207.23)" fill="#f7c4a7"/>
    <path id="Path_529" data-name="Path 529" d="M937.49,251.934l8.4-.684a19.284,19.284,0,0,0-.876,3.978,5.367,5.367,0,0,1-7.519.2,9.548,9.548,0,0,0,0-3.5Z" transform="translate(-769.036 -218.865)" opacity="0.1"/>
    <ellipse id="Ellipse_160" data-name="Ellipse 160" cx="5.371" cy="5.371" rx="5.371" ry="5.371" transform="translate(166.844 26.967)" fill="#f7c4a7"/>
    <path id="Path_530" data-name="Path 530" d="M934.118,219.65c-.315-.519.325-1.2.114-1.763-.194-.523-.966-.613-1.226-1.1-.2-.394,0-.879-.082-1.314a1.35,1.35,0,0,0-1.3-.94,4.621,4.621,0,0,0-1.673.37,6.425,6.425,0,0,1-2.756.425,2.89,2.89,0,0,1-2.276-1.444.817.817,0,0,1-.1-.4c.016-.306.3-.517.48-.762.319-.427.355-1.009.646-1.455.593-.907,1.894-.885,2.977-.889,1.594,0,3.179-.3,4.773-.245a5.945,5.945,0,0,1,4.325,1.7c1.267,1.44,1.324,3.549,1.313,5.469a3.481,3.481,0,0,1-.537,2.262c-.147.178-.327.325-.468.507-.307.409-.388.932-.676,1.346a3.3,3.3,0,0,1-2.4,1.036c.261-.035.045-1.786,0-1.947C935.085,219.705,934.9,219.722,934.118,219.65Z" transform="translate(-758.955 -186.145)" opacity="0.1"/>
    <path id="Path_531" data-name="Path 531" d="M934.118,218.7c-.315-.519.325-1.2.114-1.763-.194-.523-.966-.613-1.226-1.1-.2-.394,0-.879-.082-1.314a1.35,1.35,0,0,0-1.3-.94,4.623,4.623,0,0,0-1.673.37,6.425,6.425,0,0,1-2.756.425,2.89,2.89,0,0,1-2.276-1.445.817.817,0,0,1-.1-.4c.016-.306.3-.517.48-.762.319-.427.355-1.009.646-1.455.593-.907,1.894-.885,2.977-.889,1.594,0,3.179-.3,4.773-.245a5.945,5.945,0,0,1,4.325,1.7c1.267,1.44,1.324,3.549,1.313,5.469a3.481,3.481,0,0,1-.537,2.262c-.147.178-.327.325-.468.507-.307.409-.388.932-.676,1.346a3.3,3.3,0,0,1-2.4,1.036c.261-.035.045-1.786,0-1.947C935.085,218.745,934.9,218.77,934.118,218.7Z" transform="translate(-758.955 -185.39)" fill="#281c1c"/>
    <path id="Path_532" data-name="Path 532" d="M991.9,313.176s-2.638-6.838-4.689-7.032,3.907,0,3.907,0l1.953,3.516Z" transform="translate(-808.253 -262.475)" opacity="0.1"/>
    <path id="Path_533" data-name="Path 533" d="M992.855,313.176s-2.638-6.838-4.689-7.032,3.906,0,3.906,0l1.953,3.516Z" transform="translate(-809.017 -262.475)" fill="#e14b5a"/>
    <path id="Path_534" data-name="Path 534" d="M976.65,714.89c.139,1.06.2,1.914.2,1.914.1-.586,6.154-3.224,6.154-3.224v-1.588a2.68,2.68,0,0,0-.462.023,8.711,8.711,0,0,0-3.269,1.336A29.807,29.807,0,0,1,976.65,714.89Z" transform="translate(-800.195 -585.471)" fill="#618fd8"/>
    <path id="Path_535" data-name="Path 535" d="M976.65,714.89c.139,1.06.2,1.914.2,1.914.1-.586,6.154-3.224,6.154-3.224v-1.588a2.68,2.68,0,0,0-.462.023,8.711,8.711,0,0,0-3.269,1.336A29.807,29.807,0,0,1,976.65,714.89Z" transform="translate(-800.195 -585.471)" opacity="0.3"/>
    <path id="Path_536" data-name="Path 536" d="M904.5,713.739c1.269-.586,6.642,1.269,6.642,1.269l.543-1.849c-.938-.19-1.869-.427-2.785-.709a9.268,9.268,0,0,1-1.25-.462,8.383,8.383,0,0,0-.833-.388,4.325,4.325,0,0,0-2.149-.018C904.574,712.9,904.5,713.739,904.5,713.739Z" transform="translate(-742.786 -585.043)" fill="#618fd8"/>
    <path id="Path_537" data-name="Path 537" d="M904.5,713.739c1.269-.586,6.642,1.269,6.642,1.269l.543-1.849c-.938-.19-1.869-.427-2.785-.709a9.268,9.268,0,0,1-1.25-.462,8.383,8.383,0,0,0-.833-.388,4.325,4.325,0,0,0-2.149-.018C904.574,712.9,904.5,713.739,904.5,713.739Z" transform="translate(-742.786 -585.043)" opacity="0.3"/>
    <path id="Path_538" data-name="Path 538" d="M990.537,743.8a.585.585,0,0,0,.335-.388.574.574,0,0,1-.335.68c-1.173.586-7.911.977-11.237-1.563v-.292C982.626,744.78,989.364,744.389,990.537,743.8Z" transform="translate(-802.304 -609.539)" fill="#fff" opacity="0.4"/>
    <path id="Path_539" data-name="Path 539" d="M881.585,744.949c2.043.488,9.378-.586,10.06-1.759v.292c-.684,1.173-8.009,2.247-10.06,1.759-.838-.2-1.105-.613-1.022-1.06C880.628,744.512,880.935,744.786,881.585,744.949Z" transform="translate(-723.729 -610.296)" fill="#fff" opacity="0.4"/>
    <path id="Path_540" data-name="Path 540" d="M911.484,402.345s-2.149-.684-2.736,0-5.6,2.288-5.6,2.288" transform="translate(-741.712 -338.848)" opacity="0.1"/>
    <rect id="Rectangle_338" data-name="Rectangle 338" width="10.451" height="0.221" transform="translate(155.903 36.659) rotate(180)" fill="#8ed16f"/>
    <rect id="Rectangle_339" data-name="Rectangle 339" width="10.451" height="0.221" transform="translate(155.903 36.88) rotate(180)" fill="#8ed16f"/>
    <rect id="Rectangle_340" data-name="Rectangle 340" width="10.451" height="0.221" transform="translate(155.903 36.88) rotate(180)" opacity="0.1"/>
    <rect id="Rectangle_341" data-name="Rectangle 341" width="10.451" height="0.221" transform="translate(155.903 37.101) rotate(180)" fill="#8ed16f"/>
    <rect id="Rectangle_342" data-name="Rectangle 342" width="10.451" height="0.221" transform="translate(155.903 37.319) rotate(180)" fill="#8ed16f"/>
    <rect id="Rectangle_343" data-name="Rectangle 343" width="10.451" height="0.221" transform="translate(155.903 37.319) rotate(180)" opacity="0.1"/>
    <rect id="Rectangle_344" data-name="Rectangle 344" width="10.451" height="0.221" transform="translate(155.903 37.54) rotate(180)" fill="#8ed16f"/>
    <rect id="Rectangle_345" data-name="Rectangle 345" width="10.451" height="0.221" transform="translate(155.903 37.758) rotate(180)" fill="#8ed16f"/>
    <rect id="Rectangle_346" data-name="Rectangle 346" width="10.451" height="0.221" transform="translate(155.903 37.758) rotate(180)" opacity="0.1"/>
    <rect id="Rectangle_347" data-name="Rectangle 347" width="10.451" height="0.221" transform="translate(155.903 37.979) rotate(180)" fill="#8ed16f"/>
    <rect id="Rectangle_348" data-name="Rectangle 348" width="10.451" height="0.221" transform="translate(155.903 38.198) rotate(180)" fill="#8ed16f"/>
    <rect id="Rectangle_349" data-name="Rectangle 349" width="10.451" height="0.221" transform="translate(155.903 38.198) rotate(180)" opacity="0.1"/>
    <rect id="Rectangle_350" data-name="Rectangle 350" width="10.451" height="0.221" transform="translate(155.903 34.902) rotate(180)" fill="#8ed16f"/>
    <rect id="Rectangle_351" data-name="Rectangle 351" width="10.451" height="0.221" transform="matrix(-0.769, -0.639, 0.639, -0.769, 160.879, 36.36)" fill="#8ed16f"/>
    <rect id="Rectangle_352" data-name="Rectangle 352" width="10.451" height="0.221" transform="matrix(-0.769, -0.639, 0.639, -0.769, 153.554, 32.845)" fill="#8ed16f"/>
    <rect id="Rectangle_353" data-name="Rectangle 353" width="10.451" height="0.221" transform="translate(155.903 35.121) rotate(180)" fill="#8ed16f"/>
    <rect id="Rectangle_354" data-name="Rectangle 354" width="10.451" height="0.221" transform="translate(155.903 35.121) rotate(180)" opacity="0.1"/>
    <rect id="Rectangle_355" data-name="Rectangle 355" width="10.451" height="0.221" transform="translate(155.903 35.344) rotate(180)" fill="#8ed16f"/>
    <rect id="Rectangle_356" data-name="Rectangle 356" width="10.451" height="0.221" transform="translate(155.903 35.562) rotate(180)" fill="#8ed16f"/>
    <rect id="Rectangle_357" data-name="Rectangle 357" width="10.451" height="0.221" transform="translate(155.903 35.562) rotate(180)" opacity="0.1"/>
    <rect id="Rectangle_358" data-name="Rectangle 358" width="10.451" height="0.221" transform="translate(155.903 35.781) rotate(180)" fill="#8ed16f"/>
    <rect id="Rectangle_359" data-name="Rectangle 359" width="10.451" height="0.221" transform="translate(155.903 36.001) rotate(180)" fill="#8ed16f"/>
    <rect id="Rectangle_360" data-name="Rectangle 360" width="10.451" height="0.221" transform="translate(155.903 36.001) rotate(180)" opacity="0.1"/>
    <rect id="Rectangle_361" data-name="Rectangle 361" width="10.451" height="0.221" transform="translate(155.903 36.22) rotate(180)" fill="#8ed16f"/>
    <rect id="Rectangle_362" data-name="Rectangle 362" width="10.451" height="0.221" transform="translate(155.903 36.441) rotate(180)" fill="#8ed16f"/>
    <rect id="Rectangle_363" data-name="Rectangle 363" width="10.451" height="0.221" transform="translate(155.903 36.441) rotate(180)" opacity="0.1"/>
    <rect id="Rectangle_364" data-name="Rectangle 364" width="3.808" height="7.423" transform="translate(147.872 45.703) rotate(-169.48)" fill="#8ed16f"/>
    <ellipse id="Ellipse_161" data-name="Ellipse 161" cx="1.563" cy="0.78" rx="1.563" ry="0.78" transform="translate(145.677 43.125) rotate(-79.48)" fill="#8ed16f"/>
    <ellipse id="Ellipse_162" data-name="Ellipse 162" cx="1.563" cy="0.78" rx="1.563" ry="0.78" transform="translate(145.677 43.125) rotate(-79.48)" opacity="0.1"/>
    <rect id="Rectangle_365" data-name="Rectangle 365" width="3.808" height="7.423" transform="translate(148.513 61.107) rotate(-169.48)" fill="#8ed16f"/>
    <ellipse id="Ellipse_163" data-name="Ellipse 163" cx="1.563" cy="0.78" rx="1.563" ry="0.78" transform="translate(146.316 58.527) rotate(-79.48)" fill="#8ed16f"/>
    <ellipse id="Ellipse_164" data-name="Ellipse 164" cx="1.563" cy="0.78" rx="1.563" ry="0.78" transform="translate(146.316 58.527) rotate(-79.48)" opacity="0.1"/>
    <rect id="Rectangle_366" data-name="Rectangle 366" width="3.808" height="7.423" transform="matrix(0.476, -0.879, 0.879, 0.476, 129.412, 25.899)" fill="#8ed16f"/>
    <ellipse id="Ellipse_165" data-name="Ellipse 165" cx="0.782" cy="1.567" rx="0.782" ry="1.567" transform="translate(132.469 26.071) rotate(-61.39)" fill="#8ed16f"/>
    <ellipse id="Ellipse_166" data-name="Ellipse 166" cx="0.782" cy="1.567" rx="0.782" ry="1.567" transform="translate(132.469 26.071) rotate(-61.39)" opacity="0.1"/>
    <rect id="Rectangle_367" data-name="Rectangle 367" width="3.808" height="7.423" transform="matrix(0.476, -0.879, 0.879, 0.476, 115.078, 91.999)" fill="#8ed16f"/>
    <ellipse id="Ellipse_167" data-name="Ellipse 167" cx="0.78" cy="1.563" rx="0.78" ry="1.563" transform="matrix(0.476, -0.879, 0.879, 0.476, 117.481, 92.078)" fill="#8ed16f"/>
    <ellipse id="Ellipse_168" data-name="Ellipse 168" cx="0.78" cy="1.563" rx="0.78" ry="1.563" transform="matrix(0.476, -0.879, 0.879, 0.476, 117.481, 92.078)" opacity="0.1"/>
    <rect id="Rectangle_368" data-name="Rectangle 368" width="3.808" height="7.423" transform="matrix(0.476, -0.879, 0.879, 0.476, 106.308, 37.451)" fill="#8ed16f"/>
    <ellipse id="Ellipse_169" data-name="Ellipse 169" cx="0.78" cy="1.563" rx="0.78" ry="1.563" transform="matrix(0.476, -0.879, 0.879, 0.476, 108.71, 37.527)" fill="#8ed16f"/>
    <ellipse id="Ellipse_170" data-name="Ellipse 170" cx="0.78" cy="1.563" rx="0.78" ry="1.563" transform="matrix(0.476, -0.879, 0.879, 0.476, 108.71, 37.527)" opacity="0.1"/>
    <rect id="Rectangle_369" data-name="Rectangle 369" width="3.808" height="7.423" transform="matrix(0.476, -0.879, 0.879, 0.476, 117.3, 25.898)" fill="#8ed16f"/>
    <ellipse id="Ellipse_171" data-name="Ellipse 171" cx="0.78" cy="1.563" rx="0.78" ry="1.563" transform="matrix(0.476, -0.879, 0.879, 0.476, 119.701, 25.974)" fill="#8ed16f"/>
    <ellipse id="Ellipse_172" data-name="Ellipse 172" cx="0.78" cy="1.563" rx="0.78" ry="1.563" transform="matrix(0.476, -0.879, 0.879, 0.476, 119.701, 25.974)" opacity="0.1"/>
    <rect id="Rectangle_370" data-name="Rectangle 370" width="3.808" height="7.423" transform="matrix(0.994, -0.109, 0.109, 0.994, 126.302, 36.595)" fill="#8ed16f"/>
    <ellipse id="Ellipse_173" data-name="Ellipse 173" cx="0.78" cy="1.563" rx="0.78" ry="1.563" transform="matrix(0.994, -0.109, 0.109, 0.994, 127.602, 38.615)" fill="#8ed16f"/>
    <ellipse id="Ellipse_174" data-name="Ellipse 174" cx="0.78" cy="1.563" rx="0.78" ry="1.563" transform="matrix(0.994, -0.109, 0.109, 0.994, 127.602, 38.615)" opacity="0.1"/>
    <rect id="Rectangle_371" data-name="Rectangle 371" width="3.808" height="7.423" transform="matrix(0.994, -0.109, 0.109, 0.994, 152.258, 77)" fill="#8ed16f"/>
    <ellipse id="Ellipse_175" data-name="Ellipse 175" cx="0.78" cy="1.563" rx="0.78" ry="1.563" transform="matrix(0.994, -0.109, 0.109, 0.994, 153.56, 79.02)" fill="#8ed16f"/>
    <ellipse id="Ellipse_176" data-name="Ellipse 176" cx="0.78" cy="1.563" rx="0.78" ry="1.563" transform="matrix(0.994, -0.109, 0.109, 0.994, 153.56, 79.02)" opacity="0.1"/>
    <rect id="Rectangle_372" data-name="Rectangle 372" width="3.808" height="7.423" transform="matrix(0.476, -0.879, 0.879, 0.476, 113.45, 55.204)" fill="#8ed16f"/>
    <ellipse id="Ellipse_177" data-name="Ellipse 177" cx="0.78" cy="1.563" rx="0.78" ry="1.563" transform="matrix(0.476, -0.879, 0.879, 0.476, 115.85, 55.283)" fill="#8ed16f"/>
    <ellipse id="Ellipse_178" data-name="Ellipse 178" cx="0.78" cy="1.563" rx="0.78" ry="1.563" transform="matrix(0.476, -0.879, 0.879, 0.476, 115.85, 55.283)" opacity="0.1"/>
    <rect id="Rectangle_373" data-name="Rectangle 373" width="3.808" height="7.423" transform="matrix(0.476, -0.879, 0.879, 0.476, 96.977, 50.499)" fill="#8ed16f"/>
    <ellipse id="Ellipse_179" data-name="Ellipse 179" cx="0.782" cy="1.567" rx="0.782" ry="1.567" transform="translate(99.916 50.788) rotate(-61.39)" fill="#8ed16f"/>
    <ellipse id="Ellipse_180" data-name="Ellipse 180" cx="0.782" cy="1.567" rx="0.782" ry="1.567" transform="translate(99.916 50.788) rotate(-61.39)" opacity="0.1"/>
    <rect id="Rectangle_374" data-name="Rectangle 374" width="3.808" height="7.423" transform="matrix(0.476, -0.879, 0.879, 0.476, 91.7, 129.713)" fill="#8ed16f"/>
    <ellipse id="Ellipse_181" data-name="Ellipse 181" cx="0.78" cy="1.563" rx="0.78" ry="1.563" transform="matrix(0.476, -0.879, 0.879, 0.476, 94.102, 129.79)" fill="#8ed16f"/>
    <ellipse id="Ellipse_182" data-name="Ellipse 182" cx="0.78" cy="1.563" rx="0.78" ry="1.563" transform="matrix(0.476, -0.879, 0.879, 0.476, 94.102, 129.79)" opacity="0.1"/>
    <rect id="Rectangle_375" data-name="Rectangle 375" width="3.808" height="7.423" transform="translate(88.069 131.399) rotate(-79.49)" fill="#8ed16f"/>
    <rect id="Rectangle_376" data-name="Rectangle 376" width="3.808" height="7.423" transform="translate(88.069 131.399) rotate(-79.49)" opacity="0.05"/>
    <ellipse id="Ellipse_183" data-name="Ellipse 183" cx="0.78" cy="1.563" rx="0.78" ry="1.563" transform="translate(90.379 130.734) rotate(-79.49)" fill="#8ed16f"/>
    <ellipse id="Ellipse_184" data-name="Ellipse 184" cx="0.78" cy="1.563" rx="0.78" ry="1.563" transform="translate(90.379 130.734) rotate(-79.49)" opacity="0.1"/>
    <rect id="Rectangle_377" data-name="Rectangle 377" width="3.808" height="7.423" transform="translate(88.753 133.645) rotate(-79.49)" fill="#8ed16f"/>
    <ellipse id="Ellipse_185" data-name="Ellipse 185" cx="0.78" cy="1.563" rx="0.78" ry="1.563" transform="translate(91.061 132.979) rotate(-79.49)" fill="#8ed16f"/>
    <ellipse id="Ellipse_186" data-name="Ellipse 186" cx="0.78" cy="1.563" rx="0.78" ry="1.563" transform="translate(91.061 132.979) rotate(-79.49)" opacity="0.1"/>
    <rect id="Rectangle_378" data-name="Rectangle 378" width="3.808" height="7.423" transform="matrix(0.476, -0.879, 0.879, 0.476, 99.401, 139.34)" fill="#8ed16f"/>
    <ellipse id="Ellipse_187" data-name="Ellipse 187" cx="0.78" cy="1.563" rx="0.78" ry="1.563" transform="matrix(0.476, -0.879, 0.879, 0.476, 101.804, 139.416)" fill="#8ed16f"/>
    <ellipse id="Ellipse_188" data-name="Ellipse 188" cx="0.78" cy="1.563" rx="0.78" ry="1.563" transform="matrix(0.476, -0.879, 0.879, 0.476, 101.804, 139.416)" opacity="0.1"/>
    <rect id="Rectangle_379" data-name="Rectangle 379" width="3.808" height="7.423" transform="translate(95.771 141.024) rotate(-79.49)" fill="#8ed16f"/>
    <rect id="Rectangle_380" data-name="Rectangle 380" width="3.808" height="7.423" transform="translate(95.771 141.024) rotate(-79.49)" opacity="0.05"/>
    <ellipse id="Ellipse_189" data-name="Ellipse 189" cx="0.78" cy="1.563" rx="0.78" ry="1.563" transform="translate(98.079 140.358) rotate(-79.49)" fill="#8ed16f"/>
    <ellipse id="Ellipse_190" data-name="Ellipse 190" cx="0.78" cy="1.563" rx="0.78" ry="1.563" transform="translate(98.079 140.358) rotate(-79.49)" opacity="0.1"/>
    <rect id="Rectangle_381" data-name="Rectangle 381" width="3.808" height="7.423" transform="translate(96.454 143.272) rotate(-79.49)" fill="#8ed16f"/>
    <ellipse id="Ellipse_191" data-name="Ellipse 191" cx="0.78" cy="1.563" rx="0.78" ry="1.563" transform="translate(98.764 142.606) rotate(-79.49)" fill="#8ed16f"/>
    <ellipse id="Ellipse_192" data-name="Ellipse 192" cx="0.78" cy="1.563" rx="0.78" ry="1.563" transform="translate(98.764 142.606) rotate(-79.49)" opacity="0.1"/>
    <rect id="Rectangle_382" data-name="Rectangle 382" width="3.808" height="7.423" transform="matrix(0.476, -0.879, 0.879, 0.476, 110.954, 133.136)" fill="#8ed16f"/>
    <ellipse id="Ellipse_193" data-name="Ellipse 193" cx="0.78" cy="1.563" rx="0.78" ry="1.563" transform="matrix(0.476, -0.879, 0.879, 0.476, 113.354, 133.211)" fill="#8ed16f"/>
    <ellipse id="Ellipse_194" data-name="Ellipse 194" cx="0.78" cy="1.563" rx="0.78" ry="1.563" transform="matrix(0.476, -0.879, 0.879, 0.476, 113.354, 133.211)" opacity="0.1"/>
    <rect id="Rectangle_383" data-name="Rectangle 383" width="3.808" height="7.423" transform="translate(107.323 134.821) rotate(-79.49)" fill="#8ed16f"/>
    <rect id="Rectangle_384" data-name="Rectangle 384" width="3.808" height="7.423" transform="translate(107.323 134.821) rotate(-79.49)" opacity="0.05"/>
    <ellipse id="Ellipse_195" data-name="Ellipse 195" cx="0.78" cy="1.563" rx="0.78" ry="1.563" transform="translate(109.631 134.155) rotate(-79.49)" fill="#8ed16f"/>
    <ellipse id="Ellipse_196" data-name="Ellipse 196" cx="0.78" cy="1.563" rx="0.78" ry="1.563" transform="translate(109.631 134.155) rotate(-79.49)" opacity="0.1"/>
    <rect id="Rectangle_385" data-name="Rectangle 385" width="3.808" height="7.423" transform="translate(108.007 137.069) rotate(-79.49)" fill="#8ed16f"/>
    <ellipse id="Ellipse_197" data-name="Ellipse 197" cx="0.78" cy="1.563" rx="0.78" ry="1.563" transform="translate(110.317 136.403) rotate(-79.49)" fill="#8ed16f"/>
    <ellipse id="Ellipse_198" data-name="Ellipse 198" cx="0.78" cy="1.563" rx="0.78" ry="1.563" transform="translate(110.317 136.403) rotate(-79.49)" opacity="0.1"/>
  </g>
</svg>
