<?xml version="1.0" encoding="utf-8"?>
<!-- Generator: Adobe Illustrator 24.3.0, SVG Export Plug-In . SVG Version: 6.00 Build 0)  -->
<svg version="1.1" id="Layer_1" xmlns="http://www.w3.org/2000/svg" xmlns:xlink="http://www.w3.org/1999/xlink" x="0px" y="0px"
	 width="24.5px" height="20.9px" viewBox="0 0 24.5 20.9" style="enable-background:new 0 0 24.5 20.9;" xml:space="preserve">
<g id="Group_511" transform="translate(0 0)">
	<g id="Group_510">
		<path id="Path_479" style="fill:#82E8FF;" d="M19.8,11.3v-9c0-1.2-1-2.3-2.3-2.3H2.3C1,0,0,1,0,2.3v9c0,1.2,1,2.3,2.3,2.3h0.6v2.7
			c0,0.5,0.4,0.9,0.9,0.9c0,0,0,0,0,0l0,0c0.3,0,0.5-0.1,0.7-0.3l2.9-3.3h10.1C18.7,13.5,19.8,12.5,19.8,11.3z M7.1,12.3
			c-0.2,0-0.3,0.1-0.5,0.2l-2.5,2.9v-2.5c0-0.3-0.3-0.6-0.6-0.6c0,0,0,0,0,0H2.3c-0.6,0-1-0.5-1-1v-9c0-0.6,0.5-1,1-1h15.2
			c0.6,0,1,0.5,1,1v9c0,0.6-0.5,1-1,1H7.1z"/>
		<path id="Path_480" style="fill:#82E8FF;" d="M20,20.5c0.2,0.2,0.4,0.3,0.7,0.3c0.1,0,0.2,0,0.3-0.1c0.4-0.1,0.6-0.5,0.6-0.9v-2.7
			h0.6c1.2,0,2.3-1,2.3-2.3V6c0-1.2-1-2.3-2.3-2.3c-0.3,0-0.6,0.3-0.6,0.6s0.3,0.6,0.6,0.6l0,0c0.6,0,1,0.5,1,1v9c0,0.6-0.5,1-1,1
			H21c-0.3,0-0.6,0.3-0.6,0.6c0,0,0,0,0,0v2.5l-2.5-2.9c-0.1-0.1-0.3-0.2-0.5-0.2H8.2c-0.3,0-0.6,0.3-0.6,0.6c0,0.3,0.3,0.6,0.6,0.6
			c0,0,0,0,0,0h8.9L20,20.5z"/>
		<ellipse id="Ellipse_126" style="fill:#82E8FF;" cx="9.9" cy="7" rx="0.7" ry="0.7"/>
		<ellipse id="Ellipse_127" style="fill:#82E8FF;" cx="12.3" cy="7" rx="0.7" ry="0.7"/>
		<ellipse id="Ellipse_128" style="fill:#82E8FF;" cx="7.4" cy="7" rx="0.7" ry="0.7"/>
	</g>
</g>
</svg>
