<?xml version="1.0" encoding="utf-8"?>
<!-- Generator: Adobe Illustrator 24.3.0, SVG Export Plug-In . SVG Version: 6.00 Build 0)  -->
<svg version="1.1" id="Layer_1" xmlns="http://www.w3.org/2000/svg" xmlns:xlink="http://www.w3.org/1999/xlink" x="0px" y="0px"
	 width="33.7px" height="28.6px" viewBox="0 0 33.7 28.6" style="enable-background:new 0 0 33.7 28.6;" xml:space="preserve">
<g id="Group_511" transform="translate(-528.905 -465.106)">
	<g id="Group_510">
		<path id="Path_479" style="fill:#FFFFFF;" d="M556,480.6v-12.4c0-1.7-1.4-3.1-3.1-3.1H532c-1.7,0-3.1,1.4-3.1,3.1v12.4
			c0,1.7,1.4,3.1,3.1,3.1h0.9v3.7c0,0.7,0.6,1.2,1.2,1.2c0,0,0,0,0,0l0,0c0.4,0,0.7-0.2,0.9-0.4l3.9-4.5h13.9
			C554.7,483.7,556,482.3,556,480.6C556,480.6,556,480.6,556,480.6z M538.6,482c-0.2,0-0.5,0.1-0.6,0.3l-3.4,3.9v-3.4
			c0-0.5-0.4-0.8-0.8-0.8c0,0,0,0,0,0H532c-0.8,0-1.4-0.6-1.4-1.4v-12.4c0-0.8,0.6-1.4,1.4-1.4h20.9c0.8,0,1.4,0.6,1.4,1.4v12.4
			c0,0.8-0.6,1.4-1.4,1.4H538.6z"/>
		<path id="Path_480" style="fill:#FFFFFF;" d="M556.4,493.3c0.2,0.3,0.6,0.4,0.9,0.4c0.2,0,0.3,0,0.4-0.1c0.5-0.2,0.8-0.6,0.8-1.2
			v-3.7h0.9c1.7,0,3.1-1.4,3.1-3.1v-12.4c0-1.7-1.4-3.1-3.1-3.1c-0.5,0-0.9,0.3-0.9,0.8c0,0.5,0.3,0.9,0.8,0.9c0,0,0,0,0.1,0
			c0.8,0,1.4,0.6,1.4,1.4v12.4c0,0.8-0.6,1.4-1.4,1.4h-1.7c-0.5,0-0.8,0.4-0.8,0.8c0,0,0,0,0,0v3.4l-3.4-3.9
			c-0.2-0.2-0.4-0.3-0.6-0.3h-12.6c-0.5,0-0.8,0.4-0.8,0.8c0,0.5,0.4,0.8,0.8,0.8h12.3L556.4,493.3z"/>
		<circle id="Ellipse_126" style="fill:#FFFFFF;" cx="542.5" cy="474.7" r="1"/>
		<circle id="Ellipse_127" style="fill:#FFFFFF;" cx="545.8" cy="474.7" r="1"/>
		<circle id="Ellipse_128" style="fill:#FFFFFF;" cx="539.1" cy="474.7" r="1"/>
	</g>
</g>
</svg>
