<?xml version="1.0" encoding="utf-8"?>
<!-- Generator: Adobe Illustrator 24.3.0, SVG Export Plug-In . SVG Version: 6.00 Build 0)  -->
<svg version="1.1" id="Layer_1" xmlns="http://www.w3.org/2000/svg" xmlns:xlink="http://www.w3.org/1999/xlink" x="0px" y="0px"
	 width="27.3px" height="12.5px" viewBox="0 0 27.3 12.5" style="enable-background:new 0 0 27.3 12.5;" xml:space="preserve">
<g transform="translate(0 -138.667)">
	<path style="fill:#15BDE4;" d="M0.6,138.7h26.1c0.3,0,0.6,0.3,0.6,0.6v11.4c0,0.3-0.3,0.6-0.6,0.6H0.6c-0.3,0-0.6-0.3-0.6-0.6
		v-11.4C0,138.9,0.3,138.7,0.6,138.7z"/>
	<g transform="translate(5.685 142.065)">
		<path style="fill:#FAFAFA;" d="M4,5.7c-0.2,0-0.3-0.1-0.5-0.2L1.1,2.3v2.8c0,0.3-0.3,0.6-0.6,0.6C0.3,5.7,0,5.4,0,5.1V0.6
			C0,0.3,0.3,0,0.6,0C0.7,0,0.9,0.1,1,0.2l2.4,3.2V0.6C3.4,0.3,3.7,0,4,0c0.3,0,0.6,0.3,0.6,0.6v4.5c0,0.2-0.2,0.5-0.4,0.5
			C4.1,5.7,4,5.7,4,5.7z"/>
		<path style="fill:#FAFAFA;" d="M8.5,5.7H6.3c-0.3,0-0.6-0.3-0.6-0.6V0.6C5.7,0.3,5.9,0,6.3,0h2.3c0.3,0,0.6,0.3,0.6,0.6
			S8.8,1.2,8.5,1.2l0,0H6.8v3.4h1.7c0.3,0,0.6,0.3,0.6,0.6S8.8,5.7,8.5,5.7L8.5,5.7z"/>
		<path style="fill:#FAFAFA;" d="M8.5,3.4H6.3c-0.3,0-0.6-0.3-0.6-0.6s0.3-0.6,0.6-0.6h2.3c0.3,0,0.6,0.3,0.6,0.6S8.8,3.4,8.5,3.4
			L8.5,3.4L8.5,3.4z"/>
		<path style="fill:#FAFAFA;" d="M14.2,5.7c-0.2,0-0.5-0.2-0.5-0.4l-0.6-1.8l-0.6,1.8c-0.1,0.3-0.4,0.5-0.7,0.4
			c-0.2-0.1-0.3-0.2-0.4-0.4l-1.1-4.5c-0.1-0.3,0.1-0.6,0.4-0.7c0.3-0.1,0.6,0.1,0.7,0.4l0,0L12,3.1l0.5-1.6
			c0.1-0.3,0.5-0.4,0.8-0.3c0.1,0.1,0.2,0.2,0.3,0.3l0.5,1.6l0.7-2.7c0.1-0.3,0.4-0.5,0.7-0.4s0.5,0.4,0.4,0.7c0,0,0,0,0,0l-1.1,4.5
			C14.7,5.5,14.5,5.7,14.2,5.7L14.2,5.7z"/>
	</g>
</g>
</svg>
