<?xml version="1.0" encoding="utf-8"?>
<!-- Generator: Adobe Illustrator 24.3.0, SVG Export Plug-In . SVG Version: 6.00 Build 0)  -->
<svg version="1.1" id="Layer_1" xmlns="http://www.w3.org/2000/svg" xmlns:xlink="http://www.w3.org/1999/xlink" x="0px" y="0px"
	 width="249px" height="182.7px" viewBox="0 0 249 182.7" style="enable-background:new 0 0 249 182.7;" xml:space="preserve">
<g transform="translate(0 0.001)">
	<path style="opacity:0.2;fill:#2CAECC;enable-background:new    ;" d="M33,92.5c-3.3,1-6.3,3.4-7.2,6.7c-0.9,3.8,1.2,7.7,1.5,11.6
		c1,12.8-17.3,21.9-14.7,34.5c1,5,5.2,8.7,9.3,11.8c6.6,4.9,13.9,9.2,22.1,10.4c12.3,1.8,25.2-3.6,37.2-0.2
		c9.7,2.8,17,10.9,26.6,13.9c7.3,2.3,15.2,1.4,22.8,0.5c4.1-0.5,8.4-1.1,11.7-3.5c6.1-4.6,6.5-13.6,10.6-20.1
		c6.3-10,20.3-11.9,31.9-10s23,6.7,34.8,6.3c2.5,0,5-0.5,7.3-1.7c2.7-1.5,4.5-4.2,6.1-6.8c10-16.5,15.5-35.3,15.9-54.6
		c0.1-3.3,0-6.8-1.6-9.7c-2-3.7-5.9-5.9-9.8-7.4c-9.4-3.6-19.8-4.2-29-8.2c-8.9-3.9-16.1-10.7-23.8-16.6
		c-15.4-11.6-33.3-19.6-52.3-23.3c-4.4-0.9-9.1-1.5-13.5-0.5c-5.1,1.1-9.5,4.3-13.4,7.7C95.1,42.6,86.6,53.8,77,63.8
		C70.3,70.7,63,76.9,55.3,82.5c-3.6,2.6-7.4,5.6-11.4,7.5C40.2,91.8,36.8,91.4,33,92.5z"/>
	<path style="fill:none;stroke:#535461;stroke-width:2;stroke-miterlimit:10;" d="M79.7,11.8c0,0-9.9,13.1-2.8,28.4
		S64.6,80.1,64.6,80.1"/>
	<path style="fill:#8ED16F;" d="M84.2,6.9c-0.8,3.4-4.5,5.4-4.5,5.4s-2.5-3.5-1.7-6.8s2.8-5.8,4.5-5.4S84.9,3.5,84.2,6.9z"/>
	
		<ellipse transform="matrix(0.2267 -0.974 0.974 0.2267 56.6107 83.5526)" style="fill:#8ED16F;" cx="80.9" cy="6.1" rx="2" ry="0.7"/>
	
		<ellipse transform="matrix(0.2267 -0.974 0.974 0.2267 56.6107 83.5526)" style="opacity:0.3;enable-background:new    ;" cx="80.9" cy="6.1" rx="2" ry="0.7"/>
	<path style="fill:#8ED16F;" d="M82.5,21.9c-3.3,1.2-7-0.9-7-0.9s1.6-4,4.8-5.1s6.4-0.8,7,0.9S85.7,20.7,82.5,21.9z"/>
	
		<ellipse transform="matrix(0.9404 -0.3401 0.3401 0.9404 -1.4767 28.7567)" style="fill:#8ED16F;" cx="81.3" cy="18.6" rx="2" ry="0.7"/>
	
		<ellipse transform="matrix(0.9404 -0.3401 0.3401 0.9404 -1.4767 28.7567)" style="opacity:0.3;enable-background:new    ;" cx="81.3" cy="18.6" rx="2" ry="0.7"/>
	<path style="fill:#8ED16F;" d="M81.7,33.8c-3.3,1.2-7-0.9-7-0.9s1.6-4,4.8-5.1s6.4-0.8,7,0.9S85,32.7,81.7,33.8z"/>
	
		<ellipse transform="matrix(0.9409 -0.3387 0.3387 0.9409 -5.6453 29.1072)" style="fill:#8ED16F;" cx="80.6" cy="30.7" rx="2" ry="0.7"/>
	
		<ellipse transform="matrix(0.9409 -0.3387 0.3387 0.9409 -5.6453 29.1072)" style="opacity:0.3;enable-background:new    ;" cx="80.6" cy="30.7" rx="2" ry="0.7"/>
	<path style="fill:#8ED16F;" d="M85.5,47.9c-3.3,1.2-7-0.9-7-0.9s1.6-4,4.8-5.1s6.4-0.8,7,0.9S88.8,46.7,85.5,47.9z"/>
	
		<ellipse transform="matrix(0.9409 -0.3387 0.3387 0.9409 -10.1734 31.2285)" style="fill:#8ED16F;" cx="84.4" cy="44.8" rx="2" ry="0.7"/>
	
		<ellipse transform="matrix(0.9409 -0.3387 0.3387 0.9409 -10.1734 31.2285)" style="opacity:0.3;enable-background:new    ;" cx="84.4" cy="44.8" rx="2" ry="0.7"/>
	<path style="fill:#8ED16F;" d="M83,60.7c-3.3,1.2-7-0.9-7-0.9s1.6-4,4.8-5.1s6.4-0.8,7,0.9S86.3,59.5,83,60.7z"/>
	
		<ellipse transform="matrix(0.9404 -0.3401 0.3401 0.9404 -14.6306 31.2796)" style="fill:#8ED16F;" cx="81.9" cy="57.4" rx="2" ry="0.7"/>
	
		<ellipse transform="matrix(0.9404 -0.3401 0.3401 0.9404 -14.6306 31.2796)" style="opacity:0.3;enable-background:new    ;" cx="81.9" cy="57.4" rx="2" ry="0.7"/>
	<path style="fill:#8ED16F;" d="M67.7,25.3c2.4,2.5,6.7,2.3,6.7,2.3s0.4-4.2-2.1-6.7s-5.4-3.5-6.7-2.3S65.3,22.8,67.7,25.3z"/>
	<ellipse transform="matrix(0.719 -0.695 0.695 0.719 3.7321 55.192)" style="fill:#8ED16F;" cx="70.1" cy="23" rx="0.7" ry="2"/>
	
		<ellipse transform="matrix(0.719 -0.695 0.695 0.719 3.7321 55.192)" style="opacity:0.3;enable-background:new    ;" cx="70.1" cy="23" rx="0.7" ry="2"/>
	<path style="fill:#8ED16F;" d="M66.3,64.9c2.4,2.5,6.7,2.3,6.7,2.3s0.4-4.2-2.1-6.7s-5.4-3.5-6.7-2.3S63.9,62.4,66.3,64.9z"/>
	
		<ellipse transform="matrix(0.719 -0.695 0.695 0.719 -24.1983 65.3637)" style="fill:#8ED16F;" cx="68.7" cy="62.6" rx="0.7" ry="2"/>
	
		<ellipse transform="matrix(0.719 -0.695 0.695 0.719 -24.1983 65.3637)" style="opacity:0.3;enable-background:new    ;" cx="68.7" cy="62.6" rx="0.7" ry="2"/>
	<path style="fill:#8ED16F;" d="M69.5,39.3c3.1,1.5,7-0.1,7-0.1s-1.1-4.1-4.2-5.7s-6.3-1.5-7,0.1S66.4,37.7,69.5,39.3z"/>
	
		<ellipse transform="matrix(0.4465 -0.8948 0.8948 0.4465 6.8159 83.6423)" style="fill:#8ED16F;" cx="71" cy="36.3" rx="0.7" ry="2"/>
	
		<ellipse transform="matrix(0.4465 -0.8948 0.8948 0.4465 6.8159 83.6423)" style="opacity:0.3;enable-background:new    ;" cx="71" cy="36.3" rx="0.7" ry="2"/>
	<path style="fill:#8ED16F;" d="M70.8,53.2c3.1,1.5,7-0.1,7-0.1s-1.1-4.1-4.2-5.7s-6.3-1.5-7,0.1S67.7,51.7,70.8,53.2z"/>
	
		<ellipse transform="matrix(0.4465 -0.8948 0.8948 0.4465 -4.9474 92.5296)" style="fill:#8ED16F;" cx="72.3" cy="50.3" rx="0.7" ry="2"/>
	
		<ellipse transform="matrix(0.4465 -0.8948 0.8948 0.4465 -4.9474 92.5296)" style="opacity:0.3;enable-background:new    ;" cx="72.3" cy="50.3" rx="0.7" ry="2"/>
	<path style="fill:#8ED16F;" d="M32.1,40c10.9,12.2,14,29.6,7.9,44.8c-10.2,26.8,17.5,71.3,17.5,71.3s-0.3,0-0.8-0.1
		c-37.1-6.5-55.5-48.9-34.9-80.4C29.4,63.9,35.7,50.1,32.1,40z"/>
	<path style="fill:#8ED16F;" d="M0,113c0,0,20.6-3.3,22.5,15.2s39.6,21,39.6,21s-0.3,0.2-0.7,0.5c-31.1,20.5-60.9,13-56.4-14.1
		C6.6,125.4,6.5,115.3,0,113z"/>
	<g transform="translate(0 112.765)" style="opacity:0.3;">
		<path style="fill:#FFFFFF;" d="M0,0.2c0,0,20.6-3.3,22.5,15.2s39.6,21,39.6,21s-0.3,0.2-0.7,0.5C30.2,57.3,0.4,49.9,4.9,22.8
			C6.6,12.7,6.5,2.5,0,0.2z"/>
	</g>
	<ellipse style="fill:#8ED16F;" cx="26.9" cy="98" rx="5.7" ry="14.8"/>
	<ellipse style="opacity:0.3;enable-background:new    ;" cx="26.9" cy="98" rx="5.7" ry="14.8"/>
	
		<ellipse transform="matrix(0.7071 -0.7071 0.7071 0.7071 -97.0048 57.0855)" style="fill:#8ED16F;" cx="20.4" cy="145.6" rx="3.8" ry="8.5"/>
	
		<ellipse transform="matrix(0.7071 -0.7071 0.7071 0.7071 -97.0048 57.0855)" style="opacity:0.3;enable-background:new    ;" cx="20.4" cy="145.6" rx="3.8" ry="8.5"/>
	
		<linearGradient id="SVGID_1_" gradientUnits="userSpaceOnUse" x1="-510.9789" y1="487.6063" x2="-510.9789" y2="488.6063" gradientTransform="matrix(146.261 0 0 -90.782 74854.3125 44424.5078)">
		<stop  offset="0" style="stop-color:#808080;stop-opacity:0.251"/>
		<stop  offset="0.54" style="stop-color:#808080;stop-opacity:0.122"/>
		<stop  offset="1" style="stop-color:#808080;stop-opacity:0.102"/>
	</linearGradient>
	<path style="fill:url(#SVGID_1_);" d="M185.1,67.9H51c-3.4,0-6.1,2.7-6.1,6.1v78.6c0,3.4,2.7,6.1,6.1,6.1h134
		c3.4,0,6.1-2.7,6.1-6.1V74C191.2,70.6,188.4,67.9,185.1,67.9z"/>
	<path style="fill:#2CAECC;" d="M71.4,68.9h93.2c13.7,0,24.8,11.1,24.8,24.8v39c0,13.7-11.1,24.8-24.8,24.8H71.4
		c-13.7,0-24.8-11.1-24.8-24.8v-39C46.6,80,57.7,68.9,71.4,68.9z"/>
	<rect x="46.6" y="84.4" style="fill:#2CAECC;" width="142.8" height="16.3"/>
	<rect x="46.6" y="84.4" style="opacity:0.3;enable-background:new    ;" width="142.8" height="16.3"/>
	<rect x="60.2" y="112.8" style="fill:#D6D6E3;" width="115.7" height="7.9"/>
	<ellipse style="fill:#2CAECC;" cx="69.8" cy="140.3" rx="11.3" ry="11.3"/>
	<ellipse style="opacity:0.3;enable-background:new    ;" cx="69.8" cy="140.3" rx="11.3" ry="11.3"/>
	
		<linearGradient id="SVGID_2_" gradientUnits="userSpaceOnUse" x1="-505.2139" y1="488.8173" x2="-505.2139" y2="489.8173" gradientTransform="matrix(55.459 0 0 -141.1714 28227.6621 69177.0234)">
		<stop  offset="0" style="stop-color:#808080;stop-opacity:0.251"/>
		<stop  offset="0.54" style="stop-color:#808080;stop-opacity:0.122"/>
		<stop  offset="1" style="stop-color:#808080;stop-opacity:0.102"/>
	</linearGradient>
	<path style="fill:url(#SVGID_2_);" d="M181.3,47.1c0.2,0.6,0.6,1.1,1.1,1.4c2.3,1.6,7.5,1.2,8.1,1.2c0.1,0,0.3,0.2,0.5,0.6
		c1.1,2.8,1.9,5.6,2.4,8.5c0.1,1.5,1.5,8.4,3.8,11c0.1,0.1,0.1,0.2,0.2,0.2c2.2,2.2,4.8-0.2,4.8-0.2l0.4-1.3
		c-0.1,0.5-0.2,1.1-0.3,1.8c-0.1,0.3-0.1,0.7-0.2,1.1c-0.3,2.1-0.5,4.1-0.5,6.2c0,0.8,0,1.5,0.1,2.3c0,0.2,0,0.4,0.1,0.6
		c0.1,0.9,0.2,1.8,0.2,2.8c-0.1,4.1-0.6,8.3-1.4,12.3l0.1,0c0,0.2-0.1,0.3-0.1,0.3l0.1,0c0,0.3-0.1,0.5-0.1,0.8
		c-0.5,3.5-0.7,7.7-0.9,10.2c-0.1,1.3,0,2.6,0.2,3.9l2.5,17.6v8.2c0,1.2,0.1,2.5,0.5,3.7c0.8,3.1,0.1,13.9-0.2,19
		c-0.1,1.4-0.2,2.4-0.2,2.7v0.1l0.1,0v0.1c0.1,0,0.2-0.1,0.3-0.1c-1,1.5-2.8,4.1-4.2,4.5c-0.8,0.2-1.5,0.7-2.1,1.4l0,0l-0.1,0.1
		c-0.2,0.2-0.3,0.5-0.3,0.8c0,0,0-0.1,0-0.2c-0.1,0.6,0.2,1.1,1.3,1.3c0.6,0.1,1.3,0.2,1.9,0.2c3.7,0,10.4-1.1,11.1-2.4v-4.3l0.1,0
		v0l0.5,0.2l1.3-4.2c1.5-1.1,0.3-21.1,0-25.6c-0.2-4.2,2.4-20.8,2.8-23.7l-0.1-0.1l0.1-0.4c0.1,0.1,0.2,0.1,0.3,0.2
		c0.2,0.2,0.3,0.4,0.4,0.6c0.2,0.4,0.4,0.7,0.6,1.1c2.5,6.3,3.7,24.3,3.7,25.9v16.9c0,1.7,0.2,3.3,0.7,4.9c0.2,0.8,0.4,1.7,0.5,2.6
		c0.1,0.3,0.1,0.7,0.1,1s0.1,0.7,0.1,1c0,0.1,0,0.2,0,0.2c0,0,0,0.1,0,0.1c0.1,0.7,0.1,1.1,0.1,1.1c0,0,0-0.1,0.1-0.1l0,0.2
		c0-0.1,0.1-0.1,0.1-0.2c0.1-0.1,0.2-0.2,0.3-0.3v2.2l-0.1,0v0.4c2.6,2,6.8,2.6,10.1,2.5c1.5,0.1,3-0.1,4.4-0.6
		c0.8-0.4,0.4-1.4-0.4-2.1c-0.5-0.5-1.1-0.9-1.9-1c-0.8,0.1-3.6-3.1-5.1-4.8l0.2-0.1l0.2-0.1V133c0,0,0.4-11.2,1.5-22.2
		c0.5-5.6-0.1-11.2-1.9-16.5l0-0.1l0.3,0.1c0.4,0.1,0.6,0.1,0.6,0.1c0-0.1,0-0.2,0-0.3h0c0,0-0.4-4.8-0.4-10.8
		c0-6.8,0.6-15.1,3-19.8c1.1-2,1.7-4.3,1.8-6.6c0.1-1.5-0.4-3-1.2-4.2c-0.4-0.5-0.8-0.9-1.4-1.1l0,0h0c-0.4-0.2-0.9-0.3-1.3-0.3
		h-5.1c-0.6,0-1.2-0.2-1.7-0.4l-2-1.1c-0.6-1.6-0.8-3.3-0.6-5c0-0.1,0-0.3,0-0.4l0.1-0.2c0.1-0.1,0.2-0.3,0.3-0.4c0,0.1,0,0.2,0,0.3
		c0,0.2-0.1,0.3-0.1,0.3c1.1,0,2.2-0.4,3-1.2c0,0,0.1-0.1,0.1-0.1c0.2-0.3,0.4-0.7,0.5-1c0.1-0.2,0.2-0.5,0.4-0.7
		c0.2-0.2,0.4-0.4,0.6-0.6l0,0c0.6-0.8,0.8-1.9,0.7-2.9c0-2.4-0.1-5.1-1.7-6.9c-1.5-1.4-3.5-2.2-5.6-2.2c-2-0.1-4.1,0.3-6.1,0.3
		c-1.4,0-3.1,0-3.8,1.1c-0.4,0.6-0.4,1.3-0.8,1.8c-0.2,0.3-0.6,0.6-0.6,1c0,0.2,0,0.4,0.1,0.5v0c0.6,1,1.5,1.6,2.6,1.8
		c-0.2,0.2-0.4,0.5-0.5,0.7c-0.7,1.1-1,2.3-1,3.6c0,0.1,0,0.3,0,0.4c0.1,1.7,0.9,3.3,2.1,4.5c0,0.1,0,0.3-0.1,0.4l0,0
		c0.1,0.1,0.3,0.3,0.5,0.4l0.1,0v0.3c0,0.1,0,0.3,0,0.4c0,0.1,0,0.2,0,0.4l0,0l-2.5-2.1l-4-3.7c0,0-10-7.3-10.5-3.8
		c-0.1,0.6,0.1,1.2,0.5,1.7c1.8,2.8,8.2,5.2,8.2,5.2c2.4,2.6,4.5,5.3,6.3,8.3c-0.1,0-0.2,0.1-0.3,0.1c-1.8,0.6-3.7,0.8-5.5,0.6
		c-3.8,0.6-4.1,4.7-4.1,6.4v0.3l-5-11.8l0,0c-0.3-0.8-1-1.3-1.9-1.5C189,45.8,180.6,44.6,181.3,47.1z M202.4,161.9
		c0.1,0,0.1,0,0.2,0l0,0L202.4,161.9z"/>
	<path style="fill:#ACA9C9;" d="M227.5,159.4c0,0,4.8,6,5.9,5.9s3.7,2.3,2.2,3.1s-9.9,1.2-14.1-2v-4.8L227.5,159.4z"/>
	<path style="fill:#ACA9C9;" d="M203.4,159.8c0,0-2.8,5-4.8,5.6s-3.7,2.8-1.1,3.4s11.7-0.7,12.6-2.2v-6.5L203.4,159.8z"/>
	<path style="fill:#618FD8;" d="M199.9,110.6l2.4,17.3v8.1c0,1.2,0.1,2.4,0.4,3.6c0.8,3,0.1,13.7-0.2,18.7c-0.1,1.6-0.2,2.7-0.2,2.7
		c1.6-0.7,8.3,1.6,8.3,1.6l0.7-2.3l0.5-1.8c1.5-1.1,0.3-20.8,0-25.3c-0.2-3.1,1.2-13.1,2.1-19.1c0.3-1.7,0.5-3.1,0.6-3.9
		c0.1-0.5,0.1-0.8,0.1-0.8c0.3,0.2,0.5,0.5,0.7,0.8c0.2,0.4,0.4,0.7,0.5,1.1c2.5,6.2,3.6,24,3.6,25.6v16.7c0,1.6,0.2,3.3,0.7,4.9
		c0.3,1.2,0.5,2.3,0.7,3.5c0.2,1.3,0.3,2.4,0.3,2.4c0.1-0.7,7.7-4,7.7-4v-27.9c0,0,0.4-11,1.5-21.9c0.5-5,0-9.9-1.4-14.7
		c-0.3-1-0.6-1.9-0.9-2.6c-0.4-1.2-0.8-1.8-0.8-1.8h-25c-0.4,0.1-0.8,0.9-1.1,2.2c-0.2,0.9-0.4,1.9-0.5,3.1
		c-0.5,3.4-0.7,7.6-0.9,10.1C199.7,108,199.7,109.3,199.9,110.6z"/>
	<g transform="translate(202.406 91.424)" style="opacity:0.1;">
		<path d="M25.9,68.9V41.1c0,0,0.4-11,1.5-21.9C28,12.6,27,6,24.3,0h0.5c2.7,6,3.7,12.6,3.1,19.2c-1.1,10.9-1.5,21.9-1.5,21.9v27.9
			c0,0-7.6,3.3-7.7,4c0-0.1,0-0.3,0-0.4C21,71.2,23.4,70,25.9,68.9z"/>
		<path d="M0.7,69.5c-0.2,0-0.5,0.1-0.7,0.1v-0.1C0.2,69.5,0.4,69.5,0.7,69.5z"/>
		<path d="M9,67.1c1.5-1.1,0.3-20.8,0-25.3S11.9,18,11.9,18c0.2,0.1,0.3,0.3,0.4,0.4c-0.5,2.9-3,19.3-2.7,23.4
			c0.3,4.5,1.5,24.2,0,25.3l-1.2,4.2l-0.4-0.1L9,67.1z"/>
	</g>
	<path style="fill:#F7C4A7;" d="M204.9,61.2l-2.6,9c0,0-2.7,2.6-4.9,0s-3.6-9.4-3.7-10.9s-2.1-9-2.8-9s-8.1,0.5-8.9-2.6
		c-0.7-2.4,7.5-1.3,10.8-0.7c0.8,0.1,1.5,0.7,1.8,1.5l5,12C199.7,60.5,202.3,57.4,204.9,61.2z"/>
	<path style="fill:#F7C4A7;" d="M221.4,40.2c0,0-3.2,8.9,0.9,12.1s-14.4,4-14.4,4l2.5-2.4c0,0,1.8-7,0.5-12.9L221.4,40.2z"/>
	<path style="opacity:0.1;enable-background:new    ;" d="M217.5,52.3c0,0,3.2-0.8,3.2-1.6l2.9,1.6h7.2c0,0,5.3,2.9,0.9,11.7
		s-2.4,30.4-2.4,30.4s-15.6-2.8-28.6,1.5c0,0,2-9.7,1.2-15.2s1.2-13.2,1.2-13.2l1.1-4.6c0,0-0.1-4.3-4.6-2.1c0,0-0.7-6.3,4-7
		c0,0,5.4,0.7,7-2C210.5,51.8,214.1,53.8,217.5,52.3z"/>
	<path style="fill:#E14B5A;" d="M217.5,52c0,0,3.2-0.8,3.2-1.6l2.1,1.2c0.5,0.3,1.1,0.4,1.7,0.4h5c1.1,0,2.1,0.5,2.7,1.4
		c1.2,1.6,2.2,4.8-0.6,10.4c-4.4,8.8-2.4,30.4-2.4,30.4s-15.6-2.8-28.6,1.5c0,0,2-9.7,1.2-15.2s1.2-13.2,1.2-13.2l1.1-4.6
		c0,0-0.1-4.3-4.6-2.1c0,0-0.7-6.1,3.8-7c0.1,0,0.3,0,0.4,0c0.9,0.1,5.4,0.4,6.8-2C210.5,51.5,214.1,53.6,217.5,52z"/>
	<path style="opacity:0.1;enable-background:new    ;" d="M229.8,63.1c0,0-3.9,2.4-10.3,0c0,0-7-2.6-9.2-7.6s11.1,0.9,11.1,0.9
		s2.8,0,3.7-0.6S232,60.4,229.8,63.1z"/>
	<path style="fill:#F7C4A7;" d="M229.8,62.6c0,0-3.9,2.4-10.3,0c0,0-7-2.6-9.2-7.6s-7.3-10.5-7.3-10.5s-8.9-3.4-8.4-6.8
		s10.3,3.8,10.3,3.8l3.9,3.7l12.7,10.8c0,0,2.8,0,3.7-0.6S232,60,229.8,62.6z"/>
	<path style="opacity:0.1;enable-background:new    ;" d="M210.8,41.4l10.5-0.9c-0.5,1.6-0.9,3.3-1.1,5c-2.5,2.6-6.7,2.7-9.4,0.3
		C211,44.3,211,42.8,210.8,41.4L210.8,41.4z"/>
	<ellipse style="fill:#F7C4A7;" cx="215.5" cy="40.5" rx="6.7" ry="6.7"/>
	<path style="opacity:0.1;enable-background:new    ;" d="M219.2,41.9c-0.4-0.6,0.4-1.5,0.1-2.2c-0.2-0.7-1.2-0.8-1.5-1.4
		c-0.3-0.5,0-1.1-0.1-1.6c-0.2-0.7-0.9-1.2-1.6-1.2c-0.7,0-1.4,0.2-2.1,0.5c-1.1,0.4-2.3,0.6-3.4,0.5c-1.2-0.1-2.3-0.8-2.8-1.8
		c-0.1-0.2-0.1-0.3-0.1-0.5c0-0.4,0.4-0.6,0.6-1c0.4-0.5,0.4-1.3,0.8-1.8c0.7-1.1,2.4-1.1,3.7-1.1c2,0,4-0.4,6-0.3
		c2-0.1,4,0.7,5.4,2.1c1.6,1.8,1.7,4.4,1.6,6.8c0.1,1-0.1,2-0.7,2.8c-0.2,0.2-0.4,0.4-0.6,0.6c-0.4,0.5-0.5,1.2-0.8,1.7
		c-0.8,0.8-1.9,1.3-3,1.3c0.3,0,0.1-2.2,0-2.4C220.4,42,220.2,42,219.2,41.9z"/>
	<path style="fill:#281C1C;" d="M219.2,41.7c-0.4-0.6,0.4-1.5,0.1-2.2c-0.2-0.7-1.2-0.8-1.5-1.4c-0.3-0.5,0-1.1-0.1-1.6
		c-0.2-0.7-0.9-1.2-1.6-1.2c-0.7,0-1.4,0.2-2.1,0.5c-1.1,0.4-2.3,0.6-3.4,0.5c-1.2-0.1-2.3-0.8-2.8-1.8c-0.1-0.2-0.1-0.3-0.1-0.5
		c0-0.4,0.4-0.6,0.6-1c0.4-0.5,0.4-1.3,0.8-1.8c0.7-1.1,2.4-1.1,3.7-1.1c2,0,4-0.4,6-0.3c2-0.1,4,0.7,5.4,2.1
		c1.6,1.8,1.7,4.4,1.6,6.8c0.1,1-0.1,2-0.7,2.8c-0.2,0.2-0.4,0.4-0.6,0.6c-0.4,0.5-0.5,1.2-0.8,1.7c-0.8,0.8-1.9,1.3-3,1.3
		c0.3,0,0.1-2.2,0-2.4C220.4,41.7,220.2,41.8,219.2,41.7z"/>
	<path style="opacity:0.1;enable-background:new    ;" d="M229.8,63.4c0,0-3.3-8.6-5.9-8.8s4.9,0,4.9,0l2.4,4.4L229.8,63.4z"/>
	<path style="fill:#E14B5A;" d="M230,63.4c0,0-3.3-8.6-5.9-8.8s4.9,0,4.9,0l2.4,4.4L230,63.4z"/>
	<path style="fill:#618FD8;" d="M220.8,161.9c0.2,1.3,0.3,2.4,0.3,2.4c0.1-0.7,7.7-4,7.7-4v-2c-0.2,0-0.4,0-0.6,0
		c-1.5,0.3-2.9,0.8-4.1,1.7C223,160.7,221.9,161.4,220.8,161.9z"/>
	<path style="opacity:0.3;enable-background:new    ;" d="M220.8,161.9c0.2,1.3,0.3,2.4,0.3,2.4c0.1-0.7,7.7-4,7.7-4v-2
		c-0.2,0-0.4,0-0.6,0c-1.5,0.3-2.9,0.8-4.1,1.7C223,160.7,221.9,161.4,220.8,161.9z"/>
	<path style="fill:#618FD8;" d="M202.3,161c1.6-0.7,8.3,1.6,8.3,1.6l0.7-2.3c-1.2-0.2-2.3-0.5-3.5-0.9c-0.5-0.2-1.1-0.3-1.6-0.6
		c-0.3-0.2-0.7-0.3-1-0.5c-0.9-0.2-1.8-0.2-2.7,0C202.4,160,202.3,161,202.3,161z"/>
	<path style="opacity:0.3;enable-background:new    ;" d="M202.3,161c1.6-0.7,8.3,1.6,8.3,1.6l0.7-2.3c-1.2-0.2-2.3-0.5-3.5-0.9
		c-0.5-0.2-1.1-0.3-1.6-0.6c-0.3-0.2-0.7-0.3-1-0.5c-0.9-0.2-1.8-0.2-2.7,0C202.4,160,202.3,161,202.3,161z"/>
	<path style="opacity:0.4;fill:#FFFFFF;enable-background:new    ;" d="M235.5,168c0.2-0.1,0.4-0.3,0.4-0.5c0.1,0.3-0.1,0.7-0.4,0.9
		c-1.5,0.7-9.9,1.2-14.1-2V166C225.6,169.2,234.1,168.7,235.5,168z"/>
	<path style="opacity:0.4;fill:#FFFFFF;enable-background:new    ;" d="M197.5,168.5c2.6,0.6,11.7-0.7,12.6-2.2v0.4
		c-0.9,1.5-10,2.8-12.6,2.2c-1-0.3-1.4-0.8-1.3-1.3C196.3,167.9,196.7,168.3,197.5,168.5z"/>
	<path style="opacity:0.1;enable-background:new    ;" d="M212.4,79.5c0,0-2.7-0.9-3.4,0s-7,2.9-7,2.9"/>
	<rect x="182" y="45.6" style="fill:#8ED16F;" width="13.1" height="0.3"/>
	<rect x="182" y="45.9" style="fill:#8ED16F;" width="13.1" height="0.3"/>
	<rect x="182" y="45.9" style="opacity:0.1;enable-background:new    ;" width="13.1" height="0.3"/>
	<rect x="182" y="46.1" style="fill:#8ED16F;" width="13.1" height="0.3"/>
	<rect x="182" y="46.4" style="fill:#8ED16F;" width="13.1" height="0.3"/>
	<rect x="182" y="46.4" style="opacity:0.1;enable-background:new    ;" width="13.1" height="0.3"/>
	<rect x="182" y="46.7" style="fill:#8ED16F;" width="13.1" height="0.3"/>
	<rect x="182" y="47" style="fill:#8ED16F;" width="13.1" height="0.3"/>
	<rect x="182" y="47" style="opacity:0.1;enable-background:new    ;" width="13.1" height="0.3"/>
	<rect x="182" y="47.2" style="fill:#8ED16F;" width="13.1" height="0.3"/>
	<rect x="182" y="47.5" style="fill:#8ED16F;" width="13.1" height="0.3"/>
	<rect x="182" y="47.5" style="opacity:0.1;enable-background:new    ;" width="13.1" height="0.3"/>
	<rect x="182" y="43.4" style="fill:#8ED16F;" width="13.1" height="0.3"/>
	
		<rect x="196.2" y="34.7" transform="matrix(0.6391 -0.7691 0.7691 0.6391 39.1694 165.8994)" style="fill:#8ED16F;" width="0.3" height="13.1"/>
	
		<rect x="187.1" y="30.3" transform="matrix(0.6391 -0.7691 0.7691 0.6391 39.2448 157.262)" style="fill:#8ED16F;" width="0.3" height="13.1"/>
	<rect x="182" y="43.7" style="fill:#8ED16F;" width="13.1" height="0.3"/>
	<rect x="182" y="43.7" style="opacity:0.1;enable-background:new    ;" width="13.1" height="0.3"/>
	<rect x="182" y="43.9" style="fill:#8ED16F;" width="13.1" height="0.3"/>
	<rect x="182" y="44.2" style="fill:#8ED16F;" width="13.1" height="0.3"/>
	<rect x="182" y="44.2" style="opacity:0.1;enable-background:new    ;" width="13.1" height="0.3"/>
	<rect x="182" y="44.5" style="fill:#8ED16F;" width="13.1" height="0.3"/>
	<rect x="182" y="44.8" style="fill:#8ED16F;" width="13.1" height="0.3"/>
	<rect x="182" y="44.8" style="opacity:0.1;enable-background:new    ;" width="13.1" height="0.3"/>
	<rect x="182" y="45" style="fill:#8ED16F;" width="13.1" height="0.3"/>
	<rect x="182" y="45.3" style="fill:#8ED16F;" width="13.1" height="0.3"/>
	<rect x="182" y="45.3" style="opacity:0.1;enable-background:new    ;" width="13.1" height="0.3"/>
	
		<rect x="178.9" y="49.8" transform="matrix(0.1826 -0.9832 0.9832 0.1826 98.7136 223.1045)" style="fill:#8ED16F;" width="9.3" height="4.8"/>
	
		<ellipse transform="matrix(0.1826 -0.9832 0.9832 0.1826 98.7383 223.1925)" style="fill:#8ED16F;" cx="183.6" cy="52.2" rx="2" ry="1"/>
	
		<ellipse transform="matrix(0.1826 -0.9832 0.9832 0.1826 98.7383 223.1925)" style="opacity:0.1;enable-background:new    ;" cx="183.6" cy="52.2" rx="2" ry="1"/>
	
		<rect x="179.7" y="69.1" transform="matrix(0.1826 -0.9832 0.9832 0.1826 80.4192 239.648)" style="fill:#8ED16F;" width="9.3" height="4.8"/>
	
		<ellipse transform="matrix(0.1826 -0.9832 0.9832 0.1826 80.4433 239.7314)" style="fill:#8ED16F;" cx="184.4" cy="71.5" rx="2" ry="1"/>
	
		<ellipse transform="matrix(0.1826 -0.9832 0.9832 0.1826 80.4433 239.7314)" style="opacity:0.1;enable-background:new    ;" cx="184.4" cy="71.5" rx="2" ry="1"/>
	
		<rect x="164.8" y="27.9" transform="matrix(0.4762 -0.8793 0.8793 0.4762 58.9532 164.0134)" style="fill:#8ED16F;" width="4.8" height="9.3"/>
	
		<ellipse transform="matrix(0.4788 -0.8779 0.8779 0.4788 58.8153 164.478)" style="fill:#8ED16F;" cx="167.9" cy="32.7" rx="1" ry="2"/>
	
		<ellipse transform="matrix(0.4788 -0.8779 0.8779 0.4788 58.8153 164.478)" style="opacity:0.1;enable-background:new    ;" cx="167.9" cy="32.7" rx="1" ry="2"/>
	
		<rect x="146.8" y="110.6" transform="matrix(0.4762 -0.8793 0.8793 0.4762 -23.1708 191.5651)" style="fill:#8ED16F;" width="4.8" height="9.3"/>
	
		<ellipse transform="matrix(0.4762 -0.8793 0.8793 0.4762 -23.2312 191.5715)" style="fill:#8ED16F;" cx="149.2" cy="115.3" rx="1" ry="2"/>
	
		<ellipse transform="matrix(0.4762 -0.8793 0.8793 0.4762 -23.2312 191.5715)" style="opacity:0.1;enable-background:new    ;" cx="149.2" cy="115.3" rx="1" ry="2"/>
	
		<rect x="135.9" y="42.3" transform="matrix(0.4762 -0.8793 0.8793 0.4762 31.1002 146.1637)" style="fill:#8ED16F;" width="4.8" height="9.3"/>
	
		<ellipse transform="matrix(0.4762 -0.8793 0.8793 0.4762 31.0414 146.1668)" style="fill:#8ED16F;" cx="138.2" cy="47" rx="1" ry="2"/>
	
		<ellipse transform="matrix(0.4762 -0.8793 0.8793 0.4762 31.0414 146.1668)" style="opacity:0.1;enable-background:new    ;" cx="138.2" cy="47" rx="1" ry="2"/>
	
		<rect x="149.6" y="27.9" transform="matrix(0.4762 -0.8793 0.8793 0.4762 51.0151 150.6855)" style="fill:#8ED16F;" width="4.8" height="9.3"/>
	
		<ellipse transform="matrix(0.4762 -0.8793 0.8793 0.4762 50.9563 150.6887)" style="fill:#8ED16F;" cx="152" cy="32.6" rx="1" ry="2"/>
	
		<ellipse transform="matrix(0.4762 -0.8793 0.8793 0.4762 50.9563 150.6887)" style="opacity:0.1;enable-background:new    ;" cx="152" cy="32.6" rx="1" ry="2"/>
	
		<rect x="158.5" y="45.5" transform="matrix(0.994 -0.109 0.109 0.994 -4.5074 17.8388)" style="fill:#8ED16F;" width="4.8" height="9.3"/>
	
		<ellipse transform="matrix(0.994 -0.109 0.109 0.994 -4.5086 17.8319)" style="fill:#8ED16F;" cx="160.8" cy="50.2" rx="1" ry="2"/>
	
		<ellipse transform="matrix(0.994 -0.109 0.109 0.994 -4.5086 17.8319)" style="opacity:0.1;enable-background:new    ;" cx="160.8" cy="50.2" rx="1" ry="2"/>
	
		<rect x="191" y="96.1" transform="matrix(0.994 -0.109 0.109 0.994 -9.8248 21.6803)" style="fill:#8ED16F;" width="4.8" height="9.3"/>
	
		<ellipse transform="matrix(0.994 -0.109 0.109 0.994 -9.826 21.6737)" style="fill:#8ED16F;" cx="193.3" cy="100.7" rx="1" ry="2"/>
	
		<ellipse transform="matrix(0.994 -0.109 0.109 0.994 -9.826 21.6737)" style="opacity:0.1;enable-background:new    ;" cx="193.3" cy="100.7" rx="1" ry="2"/>
	
		<rect x="144.8" y="64.5" transform="matrix(0.4762 -0.8793 0.8793 0.4762 16.2472 165.6575)" style="fill:#8ED16F;" width="4.8" height="9.3"/>
	
		<ellipse transform="matrix(0.4762 -0.8793 0.8793 0.4762 16.1847 165.6604)" style="fill:#8ED16F;" cx="147.1" cy="69.2" rx="1" ry="2"/>
	
		<ellipse transform="matrix(0.4762 -0.8793 0.8793 0.4762 16.1847 165.6604)" style="opacity:0.1;enable-background:new    ;" cx="147.1" cy="69.2" rx="1" ry="2"/>
	
		<rect x="124.2" y="58.7" transform="matrix(0.4762 -0.8793 0.8793 0.4762 10.6271 144.4487)" style="fill:#8ED16F;" width="4.8" height="9.3"/>
	
		<ellipse transform="matrix(0.4788 -0.8779 0.8779 0.4788 10.4368 144.8372)" style="fill:#8ED16F;" cx="127.2" cy="63.6" rx="1" ry="2"/>
	
		<ellipse transform="matrix(0.4788 -0.8779 0.8779 0.4788 10.4368 144.8372)" style="opacity:0.1;enable-background:new    ;" cx="127.2" cy="63.6" rx="1" ry="2"/>
	
		<rect x="117.6" y="157.8" transform="matrix(0.4762 -0.8793 0.8793 0.4762 -79.9882 190.5616)" style="fill:#8ED16F;" width="4.8" height="9.3"/>
	
		<ellipse transform="matrix(0.4762 -0.8793 0.8793 0.4762 -80.0484 190.5644)" style="fill:#8ED16F;" cx="119.9" cy="162.5" rx="1" ry="2"/>
	
		<ellipse transform="matrix(0.4762 -0.8793 0.8793 0.4762 -80.0484 190.5644)" style="opacity:0.1;enable-background:new    ;" cx="119.9" cy="162.5" rx="1" ry="2"/>
	
		<rect x="112.8" y="158.3" transform="matrix(0.1824 -0.9832 0.9832 0.1824 -66.0005 246.4661)" style="fill:#8ED16F;" width="4.8" height="9.3"/>
	
		<rect x="112.8" y="158.3" transform="matrix(0.1824 -0.9832 0.9832 0.1824 -66.0005 246.4661)" style="opacity:5.000000e-02;enable-background:new    ;" width="4.8" height="9.3"/>
	
		<ellipse transform="matrix(0.1824 -0.9832 0.9832 0.1824 -66.0667 246.5057)" style="fill:#8ED16F;" cx="115.2" cy="163" rx="1" ry="2"/>
	
		<ellipse transform="matrix(0.1824 -0.9832 0.9832 0.1824 -66.0667 246.5057)" style="opacity:0.1;enable-background:new    ;" cx="115.2" cy="163" rx="1" ry="2"/>
	
		<rect x="113.7" y="161.1" transform="matrix(0.1824 -0.9832 0.9832 0.1824 -68.0643 249.6042)" style="fill:#8ED16F;" width="4.8" height="9.3"/>
	
		<ellipse transform="matrix(0.1824 -0.9832 0.9832 0.1824 -68.1312 249.641)" style="fill:#8ED16F;" cx="116" cy="165.8" rx="1" ry="2"/>
	
		<ellipse transform="matrix(0.1824 -0.9832 0.9832 0.1824 -68.1312 249.641)" style="opacity:0.1;enable-background:new    ;" cx="116" cy="165.8" rx="1" ry="2"/>
	
		<rect x="127.2" y="169.8" transform="matrix(0.4762 -0.8793 0.8793 0.4762 -85.5339 205.3439)" style="fill:#8ED16F;" width="4.8" height="9.3"/>
	
		<ellipse transform="matrix(0.4762 -0.8793 0.8793 0.4762 -85.5925 205.3494)" style="fill:#8ED16F;" cx="129.6" cy="174.5" rx="1" ry="2"/>
	
		<ellipse transform="matrix(0.4762 -0.8793 0.8793 0.4762 -85.5925 205.3494)" style="opacity:0.1;enable-background:new    ;" cx="129.6" cy="174.5" rx="1" ry="2"/>
	
		<rect x="122.5" y="170.3" transform="matrix(0.1824 -0.9832 0.9832 0.1824 -69.9623 265.7877)" style="fill:#8ED16F;" width="4.8" height="9.3"/>
	
		<rect x="122.5" y="170.3" transform="matrix(0.1824 -0.9832 0.9832 0.1824 -69.9623 265.7877)" style="opacity:5.000000e-02;enable-background:new    ;" width="4.8" height="9.3"/>
	
		<ellipse transform="matrix(0.1824 -0.9832 0.9832 0.1824 -70.0292 265.8245)" style="fill:#8ED16F;" cx="124.8" cy="175" rx="1" ry="2"/>
	
		<ellipse transform="matrix(0.1824 -0.9832 0.9832 0.1824 -70.0292 265.8245)" style="opacity:0.1;enable-background:new    ;" cx="124.8" cy="175" rx="1" ry="2"/>
	
		<rect x="123.3" y="173.1" transform="matrix(0.1824 -0.9832 0.9832 0.1824 -72.0291 268.9282)" style="fill:#8ED16F;" width="4.8" height="9.3"/>
	
		<ellipse transform="matrix(0.1824 -0.9832 0.9832 0.1824 -72.0943 268.967)" style="fill:#8ED16F;" cx="125.7" cy="177.8" rx="1" ry="2"/>
	
		<ellipse transform="matrix(0.1824 -0.9832 0.9832 0.1824 -72.0943 268.967)" style="opacity:0.1;enable-background:new    ;" cx="125.7" cy="177.8" rx="1" ry="2"/>
	
		<rect x="141.7" y="162.1" transform="matrix(0.4762 -0.8793 0.8793 0.4762 -71.1353 213.9894)" style="fill:#8ED16F;" width="4.8" height="9.3"/>
	
		<ellipse transform="matrix(0.4762 -0.8793 0.8793 0.4762 -71.1957 213.9899)" style="fill:#8ED16F;" cx="144" cy="166.8" rx="1" ry="2"/>
	
		<ellipse transform="matrix(0.4762 -0.8793 0.8793 0.4762 -71.1957 213.9899)" style="opacity:0.1;enable-background:new    ;" cx="144" cy="166.8" rx="1" ry="2"/>
	
		<rect x="136.9" y="162.6" transform="matrix(0.1824 -0.9832 0.9832 0.1824 -50.5132 273.6548)" style="fill:#8ED16F;" width="4.8" height="9.3"/>
	
		<rect x="136.9" y="162.6" transform="matrix(0.1824 -0.9832 0.9832 0.1824 -50.5132 273.6548)" style="opacity:5.000000e-02;enable-background:new    ;" width="4.8" height="9.3"/>
	
		<ellipse transform="matrix(0.1824 -0.9832 0.9832 0.1824 -50.5801 273.6917)" style="fill:#8ED16F;" cx="139.3" cy="167.3" rx="1" ry="2"/>
	
		<ellipse transform="matrix(0.1824 -0.9832 0.9832 0.1824 -50.5801 273.6917)" style="opacity:0.1;enable-background:new    ;" cx="139.3" cy="167.3" rx="1" ry="2"/>
	
		<rect x="137.8" y="165.4" transform="matrix(0.1824 -0.9832 0.9832 0.1824 -52.579 276.7945)" style="fill:#8ED16F;" width="4.8" height="9.3"/>
	
		<ellipse transform="matrix(0.1824 -0.9832 0.9832 0.1824 -52.6452 276.8341)" style="fill:#8ED16F;" cx="140.1" cy="170.1" rx="1" ry="2"/>
	
		<ellipse transform="matrix(0.1824 -0.9832 0.9832 0.1824 -52.6452 276.8341)" style="opacity:0.1;enable-background:new    ;" cx="140.1" cy="170.1" rx="1" ry="2"/>
</g>
</svg>
