<?xml version="1.0" encoding="utf-8"?>
<!-- Generator: Adobe Illustrator 24.3.0, SVG Export Plug-In . SVG Version: 6.00 Build 0)  -->
<svg version="1.1" id="Layer_1" xmlns="http://www.w3.org/2000/svg" xmlns:xlink="http://www.w3.org/1999/xlink" x="0px" y="0px"
	 width="20px" height="20px" viewBox="0 0 20 20" style="enable-background:new 0 0 20 20;" xml:space="preserve">
<g id="Group_568" transform="translate(-671.999 -489)">
	<g id="Pencil">
		<g id="Group_525">
			<path id="Path_494" style="fill:#B8B8B8;" d="M690.9,490.1c-1.4-1.4-3.8-1.4-5.2,0l0,0l-11,11c-0.1,0.1-0.1,0.1-0.1,0.2l-2.5,6.9
				c-0.1,0.3,0,0.7,0.4,0.8c0.1,0,0.1,0,0.2,0c0.1,0,0.1,0,0.2,0l6.2-1.9c0.1,0,0.2-0.1,0.3-0.2l11.6-11.6
				C692.4,493.8,692.4,491.5,690.9,490.1C690.9,490.1,690.9,490.1,690.9,490.1L690.9,490.1z M678.3,506l-2.3,0.7
				c-0.1-0.4-0.3-0.7-0.6-1c-0.3-0.2-0.5-0.4-0.8-0.6l1.1-2.9h1.4v1.2c0,0.3,0.3,0.6,0.6,0.6c0,0,0,0,0,0h1.1L678.3,506z
				 M687.5,496.9l-7.6,7.6l0.2-1c0.1-0.3-0.1-0.7-0.5-0.7c0,0-0.1,0-0.1,0h-1.2v-1.2c0-0.3-0.3-0.6-0.6-0.6l0,0h-1l7.4-7.4l0,0
				c0.9-0.9,2.5-0.9,3.4,0C688.5,494.4,688.5,496,687.5,496.9L687.5,496.9z M690,494.4l-0.6,0.6c-0.1-1.8-1.6-3.3-3.4-3.4l0.6-0.6
				l0,0c0.9-1,2.5-1,3.4-0.1C691,491.8,691,493.4,690,494.4C690.1,494.3,690.1,494.4,690,494.4L690,494.4z M685.9,494.2l-6.2,6.2
				c-0.2,0.2-0.2,0.6,0,0.9c0.2,0.2,0.6,0.2,0.9,0l6.2-6.2c0.2-0.2,0.2-0.6,0-0.9C686.6,493.9,686.2,493.9,685.9,494.2L685.9,494.2z
				"/>
		</g>
	</g>
</g>
</svg>
