<?xml version="1.0" encoding="utf-8"?>
<!-- Generator: Adobe Illustrator 24.3.0, SVG Export Plug-In . SVG Version: 6.00 Build 0)  -->
<svg version="1.1" id="Layer_1" xmlns="http://www.w3.org/2000/svg" xmlns:xlink="http://www.w3.org/1999/xlink" x="0px" y="0px"
	 width="25.7px" height="34px" viewBox="0 0 25.7 34" style="enable-background:new 0 0 25.7 34;" xml:space="preserve">
<path id="Path_62" style="fill:#E7ECED;" d="M6.9,25.3l-6,3.3c-0.3,0.2-0.7,0.4-1,0.7c7.4,6.2,18.2,6.3,25.7,0.1
	c-0.3-0.3-0.7-0.5-1.1-0.7l-6.4-3.2c-0.8-0.4-1.3-1.3-1.3-2.2v-2.5c0.2-0.2,0.4-0.5,0.6-0.8c0.9-1.2,1.5-2.6,2-4
	c0.8-0.3,1.4-1,1.4-1.9v-2.7c0-0.6-0.2-1.1-0.7-1.5V6c0,0,0.8-6-7.4-6S5.5,6,5.5,6v3.9c-0.4,0.4-0.7,0.9-0.7,1.5V14
	c0,0.7,0.4,1.3,0.9,1.7c0.4,1.8,1.3,3.5,2.4,5v2.4C8.2,24.1,7.7,24.9,6.9,25.3z"/>
</svg>
