<?xml version="1.0" encoding="utf-8"?>
<!-- Generator: Adobe Illustrator 24.3.0, SVG Export Plug-In . SVG Version: 6.00 Build 0)  -->
<svg version="1.1" id="Layer_1" xmlns="http://www.w3.org/2000/svg" xmlns:xlink="http://www.w3.org/1999/xlink" x="0px" y="0px"
	 width="21px" height="21px" viewBox="0 0 21 21" style="enable-background:new 0 0 21 21;" xml:space="preserve">
<path style="fill:none;stroke:#E1E1E1;" d="M12.5,20.5c0.1,0,0.2-0.1,0.3-0.2c0.9-2.2,0.8-4.7-0.1-6.9l4.8-5.6c1,0.1,2.1-0.2,3-0.8
	c0.1-0.1,0.1-0.2,0.1-0.3c0-0.1,0-0.2-0.1-0.3l-5.8-5.8c-0.1-0.1-0.4-0.1-0.5,0c0,0,0,0,0,0c-0.6,0.8-0.9,1.9-0.8,2.9L7.7,8.4
	C5.4,7.5,3,7.4,0.7,8.2C0.5,8.3,0.5,8.5,0.5,8.7c0,0,0,0.1,0.1,0.1l5.5,5.5L1,19.5c-0.2,0.1-0.2,0.4,0,0.5c0.1,0.2,0.4,0.2,0.5,0
	c0,0,0,0,0,0l5.1-5.1l5.5,5.5C12.2,20.5,12.3,20.5,12.5,20.5z M6.6,13.8L1.6,8.7c2-0.5,4.1-0.4,6,0.4c0.1,0.1,0.3,0,0.4-0.1l6-5.1
	c0.1-0.1,0.1-0.2,0.1-0.3c0,0,0,0,0-0.1c-0.1-0.7,0-1.5,0.4-2.2l5.1,5.1c-0.7,0.4-1.5,0.5-2.2,0.4c-0.1,0-0.3,0-0.3,0.1l-5.1,6
	c-0.1,0.1-0.1,0.3,0,0.4c0.8,1.9,1,4,0.4,6L6.6,13.8z"/>
</svg>
