<?xml version="1.0" encoding="utf-8"?>
<!-- Generator: Adobe Illustrator 24.3.0, SVG Export Plug-In . SVG Version: 6.00 Build 0)  -->
<svg version="1.1" id="Layer_1" xmlns="http://www.w3.org/2000/svg" xmlns:xlink="http://www.w3.org/1999/xlink" x="0px" y="0px"
	 width="33.4px" height="32px" viewBox="0 0 33.4 32" style="enable-background:new 0 0 33.4 32;" xml:space="preserve">
<g transform="translate(0.175 17.182)">
	<g transform="translate(0 -2.507)">
		<path style="fill:#FFFFFF;stroke:#FFFFFF;stroke-width:0.35;" d="M30.2,8.3h-1.4V7.4l0.9-0.9c0.4-0.5,0.7-1.1,0.7-1.7V2.7
			C30.4,1.2,29.1,0,27.5,0h-1.3c-1.5,0-2.8,1.2-2.9,2.7v2.1c0,0.6,0.3,1.2,0.7,1.7l0.9,0.9v0.8h-1.4c-1.3,0-2.4,0.8-2.8,2.1
			c-0.1,0-0.3,0-0.4,0h-1.6v-1l1-1c0.5-0.5,0.8-1.2,0.8-1.9V4c-0.1-1.7-1.5-3-3.2-3c-0.3,0-0.5,0.2-0.5,0.4s0.2,0.5,0.4,0.5
			c0,0,0,0,0.1,0c1.2,0,2.1,0.9,2.2,2.1v2.4c0,0.5-0.2,0.9-0.5,1.2l-1,1.1c-0.1,0.1-0.2,0.2-0.2,0.4v1.7c0,0.3,0.2,0.5,0.5,0.5
			c0,0,0,0,0,0h2.1c1.1,0,2.1,0.9,2.1,2v2.9H10.6v-2.9c0-0.9,0.6-1.6,1.4-1.9c0,0,0.1,0,0.1,0c0.2-0.1,0.4-0.1,0.6-0.1h2.1
			c0.3,0,0.5-0.2,0.5-0.5c0,0,0,0,0,0V9.1c0-0.2-0.1-0.3-0.2-0.4l-1-1.1c-0.3-0.3-0.5-0.8-0.5-1.2V4c0-1.2,1-2.1,2.2-2.1
			c0.3,0,0.5-0.2,0.5-0.4S16.1,1,15.8,1c0,0,0,0-0.1,0c-1.7,0-3.1,1.3-3.2,3v2.4c0,0.7,0.3,1.4,0.8,1.9l1,1v1h-1.6
			c-0.1,0-0.3,0-0.4,0C12,9.1,10.8,8.2,9.6,8.3H8.2V7.4L9,6.5c0.4-0.5,0.7-1.1,0.7-1.7V2.7C9.7,1.2,8.4,0,6.9,0H5.5
			C4,0,2.7,1.2,2.7,2.7v2.1c0,0.6,0.3,1.2,0.7,1.7l0.9,0.9v0.8H2.8c-1.5,0-2.8,1.1-2.8,2.7v3c0,0.3,0.2,0.5,0.5,0.5c0,0,0,0,0,0h7.7
			c0.3,0,0.5-0.2,0.5-0.4c0-0.3-0.2-0.5-0.4-0.5c0,0,0,0-0.1,0H1v-2.5c0-1,0.9-1.8,1.8-1.7h1.9C5,9.2,5.2,9,5.2,8.7c0,0,0,0,0,0V7.2
			c0-0.2-0.1-0.3-0.2-0.4L4.1,5.9C3.8,5.6,3.7,5.2,3.7,4.8V2.7c0-1,0.9-1.8,1.9-1.8h1.3c1,0,1.8,0.8,1.9,1.8v2.1
			c0,0.4-0.2,0.8-0.4,1.1L7.4,6.8C7.3,6.9,7.2,7.1,7.2,7.2v1.5c0,0.3,0.2,0.5,0.5,0.5c0,0,0,0,0,0h1.9c0.9,0,1.6,0.6,1.8,1.4
			c-1.1,0.5-1.7,1.5-1.8,2.6v3.4c0,0.3,0.2,0.5,0.5,0.5c0,0,0,0,0,0h12.8c0.3,0,0.5-0.2,0.5-0.5c0,0,0,0,0,0v-3.4
			c0-1.1-0.7-2.2-1.7-2.6c0.2-0.9,0.9-1.5,1.8-1.4h1.9c0.3,0,0.5-0.2,0.5-0.5c0,0,0,0,0,0V7.2c0-0.2-0.1-0.3-0.2-0.4l-0.9-0.9
			c-0.3-0.3-0.4-0.7-0.4-1.1V2.7c0-1,0.9-1.8,1.9-1.8h1.3c1,0,1.8,0.8,1.9,1.8v2.1c0,0.4-0.2,0.8-0.4,1.1l-0.9,0.9
			c-0.1,0.1-0.2,0.2-0.2,0.4v1.5c0,0.3,0.2,0.5,0.5,0.5c0,0,0,0,0,0h1.9c1,0,1.8,0.7,1.8,1.7v2.5h-7.2c-0.3,0-0.5,0.2-0.5,0.4
			c0,0.3,0.2,0.5,0.4,0.5c0,0,0,0,0.1,0h7.6c0.3,0,0.5-0.2,0.5-0.5c0,0,0,0,0,0v-3C33,9.4,31.8,8.2,30.2,8.3z"/>
	</g>
	<g transform="translate(21.556 -8.314) rotate(180)">
		<g transform="translate(0)">
			<path style="fill:#FFFFFF;stroke:#FFFFFF;stroke-width:0.35;" d="M9.6,3.3C9.6,3.1,9.4,3,9.3,3L6.5,2.5L5.3,0.3
				C5.1,0,4.8-0.1,4.6,0.1c-0.1,0-0.1,0.1-0.2,0.2L3.1,2.6L0.4,3C0.2,3,0.1,3.1,0,3.3C0,3.5,0,3.6,0.1,3.8l1.9,1.8L1.7,8.1
				c0,0.2,0.1,0.4,0.2,0.4c0.2,0.1,0.3,0.1,0.5,0l2.5-1.2l2.5,1.2c0.2,0.1,0.4,0.1,0.5,0C8,8.5,8,8.3,8,8.2L7.6,5.6l1.9-1.8
				C9.7,3.6,9.7,3.5,9.6,3.3z M6.7,5.1C6.6,5.2,6.6,5.4,6.6,5.5l0.3,1.9L5.1,6.5c-0.1-0.1-0.3-0.1-0.4,0L2.8,7.4l0.3-1.9
				c0-0.1,0-0.3-0.1-0.4L1.5,3.7l2-0.3c0.2,0,0.3-0.1,0.4-0.2l0.9-1.7l0.9,1.7C5.8,3.3,6,3.4,6.1,3.4l2,0.3L6.7,5.1z"/>
		</g>
	</g>
	<g transform="translate(10.674 -4.882) rotate(180)">
		<g transform="translate(0)">
			<path style="fill:#FFFFFF;stroke:#FFFFFF;stroke-width:0.35;" d="M9.6,3.3C9.6,3.1,9.4,3,9.3,3L6.5,2.5L5.3,0.3
				C5.1,0,4.8-0.1,4.6,0.1c-0.1,0-0.1,0.1-0.2,0.2L3.1,2.6L0.4,3C0.2,3,0.1,3.1,0,3.3C0,3.5,0,3.6,0.1,3.8l1.9,1.8L1.7,8.1
				c0,0.2,0.1,0.4,0.2,0.4c0.2,0.1,0.3,0.1,0.5,0l2.5-1.2l2.5,1.2c0.2,0.1,0.4,0.1,0.5,0C8,8.5,8,8.3,8,8.1L7.6,5.6l1.9-1.8
				C9.7,3.6,9.7,3.5,9.6,3.3z M6.7,5.1C6.6,5.2,6.6,5.4,6.6,5.5l0.3,1.9L5.1,6.5c-0.1-0.1-0.3-0.1-0.4,0L2.8,7.4l0.3-1.9
				c0-0.1,0-0.3-0.1-0.4L1.5,3.7l2-0.3c0.2,0,0.3-0.1,0.4-0.2l0.9-1.7l0.9,1.7C5.8,3.3,6,3.4,6.1,3.4l2,0.3L6.7,5.1z"/>
		</g>
	</g>
	<g transform="translate(32.437 -4.882) rotate(180)">
		<g transform="translate(0)">
			<path style="fill:#FFFFFF;stroke:#FFFFFF;stroke-width:0.35;" d="M9.6,3.3C9.6,3.1,9.4,3,9.3,3L6.5,2.5L5.3,0.3
				C5.1,0,4.8-0.1,4.6,0.1c-0.1,0-0.1,0.1-0.2,0.2L3.1,2.6L0.4,3C0.2,3,0.1,3.1,0,3.3C0,3.5,0,3.6,0.1,3.8l1.9,1.8L1.7,8.1
				c0,0.2,0.1,0.4,0.2,0.4c0.2,0.1,0.3,0.1,0.5,0l2.5-1.2l2.5,1.2c0.2,0.1,0.4,0.1,0.5,0C8,8.5,8,8.3,8,8.2L7.6,5.6l1.9-1.8
				C9.7,3.6,9.7,3.5,9.6,3.3z M6.7,5.1C6.6,5.2,6.6,5.4,6.6,5.5l0.3,1.9L5.1,6.5c-0.1-0.1-0.3-0.1-0.4,0L2.8,7.4l0.3-1.9
				c0-0.1,0-0.3-0.1-0.4L1.5,3.7l2-0.3c0.2,0,0.3-0.1,0.4-0.2l0.9-1.7l0.9,1.7C5.8,3.3,6,3.4,6.1,3.4l2,0.3L6.7,5.1z"/>
		</g>
	</g>
</g>
</svg>
