<?xml version="1.0" encoding="utf-8"?>
<!-- Generator: Adobe Illustrator 24.3.0, SVG Export Plug-In . SVG Version: 6.00 Build 0)  -->
<svg version="1.1" id="Layer_1" xmlns="http://www.w3.org/2000/svg" xmlns:xlink="http://www.w3.org/1999/xlink" x="0px" y="0px"
	 width="15px" height="15.5px" viewBox="0 0 15 15.5" style="enable-background:new 0 0 15 15.5;" xml:space="preserve">
<path style="fill:#9F9F9F;" d="M14.8,14.2l-3.7-3.8c2.2-2.7,1.9-6.6-0.8-8.8S3.7-0.4,1.5,2.2s-1.9,6.6,0.8,8.8
	c1.1,0.9,2.6,1.5,4,1.5c1.3,0,2.5-0.4,3.6-1.1l3.7,3.9c0.3,0.3,0.8,0.3,1.2,0C15.1,15,15.1,14.5,14.8,14.2
	C14.8,14.2,14.8,14.2,14.8,14.2L14.8,14.2z M6.3,1.6c2.6,0,4.6,2.1,4.6,4.6s-2.1,4.6-4.6,4.6S1.6,8.8,1.6,6.3v0
	C1.6,3.7,3.7,1.6,6.3,1.6z"/>
</svg>
