<?xml version="1.0" encoding="utf-8"?>
<!-- Generator: Adobe Illustrator 24.3.0, SVG Export Plug-In . SVG Version: 6.00 Build 0)  -->
<svg version="1.1" id="Layer_1" xmlns="http://www.w3.org/2000/svg" xmlns:xlink="http://www.w3.org/1999/xlink" x="0px" y="0px"
	 width="36.8px" height="27.1px" viewBox="0 0 36.8 27.1" style="enable-background:new 0 0 36.8 27.1;" xml:space="preserve">
<g transform="translate(0.1 0.1)">
	<g transform="translate(28.074 11.464)">
		<path style="fill:#FFFFFF;stroke:#FFFFFF;stroke-width:0.2;" d="M4.2,0.6C3,0.2,1.8,0,0.5,0C0.2,0,0,0.2,0,0.5
			c0,0.3,0.2,0.5,0.5,0.5c1.1,0,2.2,0.2,3.2,0.5c0.3,0.1,0.6,0,0.7-0.2C4.6,1.1,4.5,0.8,4.2,0.6L4.2,0.6z"/>
	</g>
	<g transform="translate(0 0)">
		<path style="fill:#FFFFFF;stroke:#FFFFFF;stroke-width:0.2;" d="M35,19.7l-2.2-0.6c-0.1,0-0.2-0.1-0.2-0.2v-0.7
			c0.2-0.1,0.4-0.3,0.5-0.4c0.8-0.7,1.2-1.8,1.2-2.9v-1l0.2-0.4c0.2-0.5,0.4-1,0.4-1.5V9.1c0-0.3-0.2-0.5-0.5-0.5c0,0,0,0,0,0h-5.2
			c-1.9,0-3.4,1.5-3.4,3.4v0c0,0.4,0.1,0.9,0.3,1.3l0.3,0.5v0.9c0,1.3,0.6,2.6,1.7,3.4v0.8c0,0.1,0,0.2-0.4,0.3l-1.1,0.3l-3.1-1.1
			c0-0.2,0-0.3-0.1-0.4l-1-1v-1.8c0.1-0.1,0.2-0.2,0.3-0.3c1.3-1.2,2-2.8,2-4.6V8.9c0.4-0.8,0.6-1.7,0.6-2.6V0.5
			c0-0.3-0.2-0.5-0.5-0.5h0h-8c-2.8,0-5.1,2.3-5.1,5.1v1.1c0,0.9,0.2,1.8,0.6,2.6v1.2c0,1.9,0.8,3.8,2.3,5v1.8l-1,1
			c-0.1,0.1-0.2,0.3-0.1,0.4l-3.3,1.2c-0.2,0.1-0.5,0.2-0.7,0.3l-0.5-0.3c0.8-0.3,1.6-0.9,2.1-1.7c0.1-0.2,0.1-0.3,0-0.5
			c-0.4-1.1-0.5-2.2-0.5-3.3c0-0.4,0-0.7,0-1.1c-0.1-2.5-2.1-4.4-4.5-4.5c-2.5,0.1-4.5,2-4.5,4.5c0,0.3,0,0.7,0,1.1
			c0,1.1-0.1,2.3-0.5,3.3c-0.1,0.2-0.1,0.3,0,0.5c0.5,0.8,1.2,1.4,2.1,1.7l-1.4,0.7c-0.8,0.4-1.2,1.2-1.2,2v4c0,0.3,0.2,0.5,0.5,0.5
			c0.3,0,0.5-0.2,0.5-0.5v-4c0-0.4,0.3-0.9,0.7-1.1l1.8-0.9L4.1,21c0.9,0.8,2.2,0.8,3.1,0l0.6-0.6l0.6,0.3c-0.3,0.4-0.4,1-0.4,1.5
			v4.1c0,0.3,0.2,0.5,0.5,0.5c0.3,0,0.5-0.2,0.5-0.5c0,0,0,0,0,0v-4.1c0-0.7,0.5-1.4,1.2-1.7l3.5-1.3l1.4,2.2
			c0.2,0.3,0.5,0.5,0.8,0.5c0,0,0.1,0,0.1,0c0.3,0,0.6-0.1,0.8-0.3l0.9-0.9v5.6c0,0.3,0.2,0.5,0.5,0.5c0.3,0,0.5-0.2,0.5-0.5v-5.6
			l0.9,0.9c0.2,0.2,0.5,0.3,0.8,0.3c0,0,0.1,0,0.1,0c0.3,0,0.6-0.2,0.8-0.5l1.4-2.2l3.5,1.3c0.7,0.3,1.2,0.9,1.2,1.7v4.1
			c0,0.3,0.2,0.5,0.5,0.5c0.3,0,0.5-0.2,0.5-0.5v-4.1c0-0.7-0.3-1.4-0.8-2l0.1,0c0.2,0,0.3-0.1,0.5-0.2l1.4,1.4v4.9
			c0,0.3,0.2,0.5,0.5,0.5c0.3,0,0.5-0.2,0.5-0.5v-4.9l1.4-1.4c0.1,0,0.1,0.1,0.2,0.1l2.2,0.6c0.5,0.1,0.9,0.6,0.9,1.1v4.4
			c0,0.3,0.2,0.5,0.5,0.5c0.3,0,0.5-0.2,0.5-0.5v-4.4C36.6,20.9,35.9,20,35,19.7z M3.4,18.8c-0.7-0.2-1.3-0.6-1.7-1.1
			C1.9,17.3,2,16.8,2,16.4c0.3,0.7,0.8,1.3,1.4,1.7V18.8z M6.5,20.2c-0.5,0.4-1.2,0.4-1.6,0l-0.5-0.5c0.1-0.2,0.1-0.3,0.1-0.5v-0.6
			c0.8,0.2,1.6,0.2,2.4,0v0.6c0,0.2,0,0.4,0.1,0.5L6.5,20.2z M5.7,17.8c-1.6,0-2.9-1.3-2.9-2.9c0-0.3-0.2-0.5-0.5-0.5
			c0,0-0.1,0-0.1,0c0,0,0-0.1,0-0.1c0-0.4,0-0.7,0-1c0.1-0.9,0.4-1.8,1.1-2.5C4.6,9.4,6.7,9.3,8,10.6c0,0,0.1,0.1,0.1,0.1
			c0.6,0.7,1,1.6,1.1,2.5c0,0.3,0,0.6,0,1v0.1c-0.6-0.9-1.6-1.6-2.6-1.9c-0.7-0.2-1.3-0.3-2-0.3c-0.1,0-0.3,0.1-0.4,0.2l-1,1
			C3,13.4,3,13.8,3.2,14c0.2,0.2,0.6,0.2,0.8,0l0,0l0.8-0.8c0.7,0,2.9,0.3,3.8,2.2C8.3,16.7,7.1,17.8,5.7,17.8z M8,18.8v-0.6
			c0.6-0.4,1.1-1,1.4-1.7c0.1,0.4,0.2,0.9,0.3,1.3C9.2,18.2,8.6,18.6,8,18.8L8,18.8z M13.1,10.1V8.8c0-0.1,0-0.2-0.1-0.2
			c-0.3-0.7-0.5-1.5-0.5-2.3V5.1c0-2.2,1.8-4,4-4.1h7.5v5.2c0,0.8-0.2,1.6-0.5,2.3c0,0.1-0.1,0.2-0.1,0.2v1.5c0,1.4-0.6,2.8-1.6,3.8
			c-0.1,0.1-0.3,0.2-0.4,0.3l0,0c-1,0.8-2.2,1.1-3.5,1C15.2,15.2,13.1,12.9,13.1,10.1L13.1,10.1z M16.1,20.9
			C16.1,20.9,16.1,20.9,16.1,20.9C16.1,20.9,16.1,20.9,16.1,20.9l-1.7-2.5l0.5-0.6l2.5,1.7L16.1,20.9z M18.3,18.8l-2.9-2v-1
			c0.8,0.4,1.6,0.7,2.5,0.7c0.1,0,0.3,0,0.4,0c1,0,2-0.2,2.9-0.7v1L18.3,18.8z M20.5,20.9C20.5,20.9,20.5,20.9,20.5,20.9
			C20.5,20.9,20.5,20.9,20.5,20.9l-1.4-1.3l2.5-1.7l0.5,0.6L20.5,20.9z M30.3,20.4l-1.2-1.2c0-0.1,0-0.2,0-0.3v-0.2
			c0.3,0.1,0.7,0.2,1.1,0.2h0.1c0.4,0,0.8-0.1,1.2-0.2v0.2c0,0.1,0,0.2,0,0.3L30.3,20.4z M32.4,16.9c-0.6,0.5-1.3,0.8-2.1,0.8
			c-1.6-0.1-2.8-1.4-2.8-3v-1c0-0.1,0-0.2-0.1-0.2L27,12.8c-0.1-0.2-0.2-0.5-0.2-0.8v0c0-1.3,1-2.3,2.3-2.3h4.6v2.2
			c0,0.4-0.1,0.7-0.2,1l-0.3,0.5c0,0.1-0.1,0.2-0.1,0.2v1.1C33.2,15.7,32.9,16.4,32.4,16.9L32.4,16.9z"/>
	</g>
	<g transform="translate(33.233 22.355)">
		<path style="fill:#FFFFFF;stroke:#FFFFFF;stroke-width:0.2;" d="M0.5,0C0.2,0,0,0.2,0,0.5c0,0,0,0,0,0V4c0,0.3,0.2,0.5,0.5,0.5
			c0.3,0,0.5-0.2,0.5-0.5V0.5C1.1,0.2,0.8,0,0.5,0z"/>
	</g>
	<g transform="translate(2.293 23.064)">
		<path style="fill:#FFFFFF;stroke:#FFFFFF;stroke-width:0.2;" d="M0.5,0C0.2,0,0,0.2,0,0.5l0,0v2.7c0,0.3,0.2,0.5,0.5,0.5
			c0.3,0,0.5-0.2,0.5-0.5V0.5C1.1,0.2,0.8,0,0.5,0C0.5,0,0.5,0,0.5,0z"/>
	</g>
	<g transform="translate(13.757 4.87)">
		<path style="fill:#FFFFFF;stroke:#FFFFFF;stroke-width:0.2;" d="M8.9,1.6c-2-2-6.3-1.6-8-1.4C0.4,0.3,0,0.8,0,1.3v1.2
			c0,0.3,0.2,0.5,0.5,0.5c0.3,0,0.5-0.2,0.5-0.5l0,0V1.3c0,0,0,0,0,0C2.3,1.1,3.4,1,4.6,1.1c1.3,0,2.6,0.4,3.6,1.2
			c0.2,0.2,0.5,0.2,0.8,0S9.2,1.8,8.9,1.6C8.9,1.6,8.9,1.6,8.9,1.6L8.9,1.6z"/>
	</g>
	<g transform="translate(11.464 23.502)">
		<path style="fill:#FFFFFF;stroke:#FFFFFF;stroke-width:0.2;" d="M0.5,0C0.2,0,0,0.2,0,0.5l0,0v2.3c0,0.3,0.2,0.5,0.5,0.5
			c0.3,0,0.5-0.2,0.5-0.5l0,0V0.5C1.1,0.2,0.8,0,0.5,0L0.5,0z"/>
	</g>
	<g transform="translate(24.075 23.502)">
		<path style="fill:#FFFFFF;stroke:#FFFFFF;stroke-width:0.2;" d="M0.5,0C0.2,0,0,0.2,0,0.5c0,0,0,0,0,0v2.3c0,0.3,0.2,0.5,0.5,0.5
			c0.3,0,0.5-0.2,0.5-0.5V0.5C1.1,0.2,0.8,0,0.5,0z"/>
	</g>
</g>
</svg>
