<?xml version="1.0" encoding="utf-8"?>
<!-- Generator: Adobe Illustrator 24.3.0, SVG Export Plug-In . SVG Version: 6.00 Build 0)  -->
<svg version="1.1" id="Layer_1" xmlns="http://www.w3.org/2000/svg" xmlns:xlink="http://www.w3.org/1999/xlink" x="0px" y="0px"
	 width="377.9px" height="278.9px" viewBox="0 0 377.9 278.9" style="enable-background:new 0 0 377.9 278.9;" xml:space="preserve"
	>
<g transform="translate(-0.006 -0.011)">
	<path style="opacity:0.1;fill:#2CAECC;enable-background:new    ;" d="M10.4,175.1c-4.5,0.7-10.2,2.8-10.2,7.7
		c0,2.5,1.7,4.6,3.3,6.4c6.8,7.8,14.6,14.6,23.2,20.5c4.1,2.8,8.5,5.4,11.2,9.7s3.4,9.7,3.6,14.9c0.5,12.3-0.9,24.5-4.3,36.3
		c13.3,2.5,28.1,4.8,39.2-3.2c6.6-4.8,11.1-12.8,18.5-16.1c4.9-2.2,10.5-2,15.9-1.7c25.5,1.3,50.9,3.9,76.3,7.6
		c10.6,1.5,21.4,3.3,32,1.3s20.8-8.5,24.7-19.1c0.6-1.6,1.1-3.5,2.5-4.4c1.3-0.7,2.8-1,4.3-0.8l88.8,3.1c4.9,0.2,9.9,0.3,14.3-1.7
		c4.3-1.9,7.6-5.7,10.8-9.3c7.3-8.3,15.2-18.6,13-29.9c-1.7-9.1-9.4-15.4-17-19.8s-16-8.1-21.6-15.1c-8.5-10.8-8.2-26.2-8.7-40.2
		c-0.5-12.7-2-25.3-4.7-37.7c-2.3-10.9-5.5-21.8-11.5-31s-15.2-16.6-25.6-17.9c-13.6-1.8-27.2,6.7-40.5,3.1
		c-11.2-3-18.9-13.8-28.2-21.2C203.2,3.1,181.5,0.3,161.1,0c-21.7-0.3-44,1.9-63.3,12.1c-4.4,2.3-8.8,5.2-11.8,9.3
		C81.2,27.8,80,36.2,77,43.6c-12.4,29.8-52.7,36.2-65.8,65.6c-4.6,10.4-4.6,22.6-1.2,33.6c3.6,11.8,13.9,18.3,18,28.6
		C23.5,174.3,15.8,174.3,10.4,175.1z"/>
	<g transform="translate(325.456 55.988)" style="opacity:0.2;">
		<path style="fill:none;stroke:#535461;stroke-width:2;stroke-miterlimit:10;" d="M8.9,84.1c0,0,1.8-24.1,15.4-37.2
			c5.7-5.4,9.6-12.6,10.9-20.4c0.6-3.7,0.8-7.5,0.8-11.2"/>
		<path style="fill:#2CAECC;" d="M44.5,7c-1,2.6-8.7,8.5-8.7,8.5S33.9,6,34.9,3.3c1-2.7,4-4,6.6-3C44.1,1.3,45.5,4.3,44.5,7L44.5,7
			L44.5,7z"/>
		<path style="fill:#2CAECC;" d="M46.9,24.7c-2.3,1.7-12,2.4-12,2.4s3.6-9,5.9-10.7c2.3-1.7,5.5-1.1,7.2,1.2
			C49.6,19.8,49.1,23,46.9,24.7L46.9,24.7z"/>
		<path style="fill:#2CAECC;" d="M37,49.7c-2.8,0.3-11.5-3.9-11.5-3.9s7.6-6,10.5-6.3c2.8-0.3,5.4,1.7,5.7,4.5
			c0.3,2.8-1.7,5.4-4.5,5.7C37.1,49.7,37.1,49.7,37,49.7z"/>
		<path style="fill:#2CAECC;" d="M25.3,66.9C22.6,67.7,13.3,65,13.3,65s6.5-7.2,9.3-8c2.7-0.8,5.6,0.8,6.3,3.5
			C29.6,63.3,28,66.1,25.3,66.9L25.3,66.9z"/>
		<path style="fill:#2CAECC;" d="M24.6,23.8c1.2,2.6,9.4,7.8,9.4,7.8s1.2-9.6,0-12.2c-1.2-2.6-4.3-3.7-6.8-2.5
			C24.5,18.2,23.4,21.2,24.6,23.8L24.6,23.8L24.6,23.8z"/>
		<path style="fill:#2CAECC;" d="M11.2,44.1c1.9,2.1,11.3,4.7,11.3,4.7s-1.8-9.5-3.7-11.6c-1.9-2.1-5.2-2.3-7.3-0.4
			C9.4,38.7,9.2,42,11.2,44.1C11.1,44.1,11.1,44.1,11.2,44.1L11.2,44.1z"/>
		<path style="fill:#2CAECC;" d="M0.8,65.7c1.5,2.4,10.3,6.5,10.3,6.5S11,62.5,9.5,60.1c-1.5-2.4-4.7-3.1-7.1-1.5
			C0,60.1-0.7,63.3,0.8,65.7L0.8,65.7z"/>
	</g>
	
		<linearGradient id="SVGID_1_" gradientUnits="userSpaceOnUse" x1="-447.885" y1="537.5172" x2="-447.885" y2="538.5172" gradientTransform="matrix(279.684 0 0 -174.047 125468.1016 93760.4688)">
		<stop  offset="0" style="stop-color:#808080;stop-opacity:0.251"/>
		<stop  offset="0.54" style="stop-color:#808080;stop-opacity:0.122"/>
		<stop  offset="1" style="stop-color:#808080;stop-opacity:0.102"/>
	</linearGradient>
	<path style="fill:url(#SVGID_1_);" d="M62,33.2v174h279.7v-174H62z"/>
	<rect x="64.9" y="35" style="fill:#F6F7F9;" width="273.8" height="13.3"/>
	<g transform="translate(64.93 35.005)" style="opacity:0.2;">
		<rect x="0" y="0" style="fill:#2CAECC;" width="273.8" height="13.3"/>
	</g>
	<rect x="64.9" y="48.3" style="fill:#F6F7F9;" width="273.8" height="157.1"/>
	<ellipse style="fill:#F6F7F9;" cx="71.5" cy="41.6" rx="3" ry="3"/>
	<ellipse style="fill:#F6F7F9;" cx="79.4" cy="41.6" rx="3" ry="3"/>
	<ellipse style="fill:#F6F7F9;" cx="87.2" cy="41.6" rx="3" ry="3"/>
	<g transform="translate(74.448 67.832)" style="opacity:0.2;">
		<rect x="0" y="0" style="fill:#2CAECC;" width="140.8" height="10.2"/>
	</g>
	<g transform="translate(251.383 67.832)" style="opacity:0.2;">
		<rect x="0" y="0" style="fill:#2CAECC;" width="73.9" height="10.2"/>
	</g>
	<g transform="translate(101.857 117.4)" style="opacity:0.2;">
		<rect x="0" y="46.6" style="fill:#2CAECC;" width="9.8" height="32.5"/>
		<rect x="19" y="23.3" style="fill:#2CAECC;" width="9.8" height="55.8"/>
		<rect x="38.1" y="0" style="fill:#2CAECC;" width="9.8" height="79.1"/>
		<rect x="57.1" y="7.6" style="fill:#2CAECC;" width="9.8" height="71.6"/>
		<rect x="76.2" y="29.9" style="fill:#2CAECC;" width="9.8" height="49.2"/>
	</g>
	<g transform="translate(251.221 100.331)" style="opacity:0.2;">
		<rect x="0" y="0" style="fill:#2CAECC;" width="73.9" height="90.8"/>
	</g>
	
		<linearGradient id="SVGID_2_" gradientUnits="userSpaceOnUse" x1="-440.8972" y1="537.3239" x2="-440.8972" y2="538.3239" gradientTransform="matrix(52.3447 0 0 -154.1089 23429.4648 83083.875)">
		<stop  offset="0" style="stop-color:#808080;stop-opacity:0.251"/>
		<stop  offset="0.54" style="stop-color:#808080;stop-opacity:0.122"/>
		<stop  offset="1" style="stop-color:#808080;stop-opacity:0.102"/>
	</linearGradient>
	<path style="fill:url(#SVGID_2_);" d="M376.7,164.9c-0.5-2.4-1.4-4.7-1.4-7.2c0-4,2.1-8.6-0.7-11.5c-0.7-0.6-1.4-1.2-2-1.9
		c-0.4-0.7-0.5-1.4-0.5-2.2c0-4.6,2.5-9.3,1-13.7c-0.3-1-0.9-1.8-1.8-2.4c-0.9-0.5-1.9-0.8-3-0.7c-1,0-2,0.1-3,0.1
		c-0.6,0-1.1-0.1-1.7-0.2c-1.2-0.3-2.2-1.1-3.3-1.5c-0.6-0.2-1.2-0.3-1.9-0.3c-2.5-0.1-4.9,1.6-6.7,3.2c-0.9,0.8-1.9,1.5-2.8,2.1
		c0.2-0.1-3.5,2.4-2.1,2.4c1,0,1.9,0.4,2.7,1c-1.7,2.6-1.6,6.1,0.4,8.6c-0.6-0.6-1.3-1.2-1.9-1.9c-1.9-2-4-3.8-6.2-5.4
		c-1.9-1.1-3.6-2.4-5.3-3.7c0,0-4.1,2.3-2.8,5.4c0.6,0.2,1.2,0.4,1.7,0.7c0,0.4,0.1,0.8,0.2,1.2c1.3,0.4,2.5,1,3.6,1.8
		c0.1,0.2,0.2,0.4,0.3,0.5c1.2,1.7,2.7,3.2,4.3,4.6c1.4,1.4,3.3,3.2,5.2,4.8c-0.6,1-1.1,2.2-1.3,3.4c-0.1-0.1-0.3-0.1-0.4-0.2
		c-2.8-1.5-9.4-1.4-9.4-1.4c-3.4-2-5.8-5.4-6.6-9.3c0,0-1.1-3.9-0.8-5h0l0.1,0l1.3-2.4c0.3-0.5,0.1-1.1-0.4-1.4
		c-0.1-0.1-0.3-0.1-0.4-0.1c-6.4-0.6-6.7,5.3-6.7,5.3h0.1l0,0c0.8,3.8,1.4,3.5,1.2,6.5l2.5,6.6c0,0,0.2,2.3,4.7,5.3
		c3.4,2.3,6.6,4.9,9.7,7.7c0,0-2.7,1.4-1.7,8c1.2,8-0.6,19.4-0.6,19.4v7.4l0.3-0.1c0,0.2-0.1,0.5-0.1,0.8c-0.6,3.7-0.6,7.5-0.2,11.2
		c0.9,7.8,4.7,18.5,4.7,18.5c0.8,2.2,1.4,4.5,1.7,6.8c0,0.6,0.2,1.2,0.4,1.7c0.7,1.6,1.1,3.4,1.1,5.2c0,4.5,0.8,9,2.4,13.2
		c1.1,2.5,1.9,5.1,2.3,7.7c-1.1,1.5-2.6,3.1-3.7,3.2c-2.2,0.3-6.4,0.6-3.6,4.2c0.1,0.1,0.2,0.2,0.3,0.3c-2.1,0.3-4.5,1.1-2.2,4
		c2.8,3.6,19.3,2,19.3,2s0.1-2,0-4.2c1.2-0.1,1.9-0.2,1.9-0.2s0.5-8.7-1.6-9.8c-0.4,0-0.7,0.1-1.1,0.3c-0.2-1.2-0.4-2.7-0.5-3.8
		l0.8-0.1v-0.1h0v-13.1c0,0-0.9-8.1-4.4-11.7c-0.4-0.5-0.8-1-1.1-1.5l0-0.1c0-1,0-2.4,0-4l0-0.1c0.1-0.1,0.1-0.2,0.2-0.3
		c0.1-0.1,0.2-0.2,0.3-0.3l0-0.1l0,0c0,0,1.9-2.3,8.3-16.5c3.9-8.7,2.9-13.6,1.5-16.1c-0.3-1.1-0.9-3.7-1.7-8
		c-0.3-1.8-0.5-3.7-0.4-5.6c1,0.2,2,0.4,3,0.3c1.6,0,3.1-0.3,4.5-1c-1-1.5-2.1-3.2-1.6-4.9c0.6-1.9,2.9-2.8,4.2-4.4
		C377.2,170,377.2,167.3,376.7,164.9z"/>
	<path style="fill:#797C9C;" d="M337.2,131.3c0,0-3.9,2.2-2.7,5.4c0,0,4,1.2,5.7,4.2s14.3,13.7,14.3,13.7l9.2-4.6
		c0,0-3.2-4.3-13.4-7.3c0,0-6-6.4-8.1-7.6C340.5,133.9,338.8,132.6,337.2,131.3z"/>
	<path style="opacity:5.000000e-02;enable-background:new    ;" d="M339.1,133.2c0,0-3.9,2.2-2.7,5.4c0,0,4,1.2,5.7,4.2
		s14.3,13.7,14.3,13.7l9.2-4.6c0,0-3.2-4.3-13.4-7.3c0,0-6-6.4-8.1-7.6C342.4,135.8,340.7,134.5,339.1,133.2z"/>
	<path style="fill:#2CAECC;" d="M5.9,243.1c0,0-21.8,13.1,18.4,33.4c0,0,8.8-16.4-0.9-29.8c-3.9-5.4-11.3-7-17.1-3.7L5.9,243.1z"/>
	<path style="fill:none;stroke:#535461;stroke-miterlimit:10;" d="M6.1,242.8c0,0,18.6,14.3,18.1,33.6"/>
	<path style="fill:none;stroke:#535461;stroke-width:2;stroke-miterlimit:10;" d="M25.3,276.7c0,0-6.8-23.2,1.3-40.2
		c3.4-7.1,4.5-15.2,3-23c-0.8-3.7-1.8-7.3-3.3-10.8"/>
	<path style="fill:#2CAECC;" d="M31.3,192c0,2.8-5.1,11.1-5.1,11.1s-5.1-8.2-5.1-11.1c0-2.8,2.3-5.1,5.1-5.1S31.3,189.1,31.3,192
		L31.3,192z"/>
	<path style="fill:#2CAECC;" d="M39.8,207.7c-1.5,2.4-10.3,6.5-10.3,6.5s0.2-9.7,1.7-12.1c1.5-2.4,4.7-3.1,7.1-1.5
		C40.7,202.1,41.4,205.3,39.8,207.7L39.8,207.7z"/>
	<path style="fill:#2CAECC;" d="M39.5,234.6c-2.5,1.3-12.2,0.4-12.2,0.4s5-8.3,7.6-9.6c2.5-1.3,5.6-0.3,6.9,2.2
		c1.3,2.5,0.3,5.6-2.2,6.9C39.5,234.5,39.5,234.5,39.5,234.6L39.5,234.6z"/>
	<path style="fill:#2CAECC;" d="M34.6,254.8c-2.3,1.7-12,2.5-12,2.5s3.6-9,5.8-10.7c2.3-1.7,5.5-1.1,7.2,1.2
		C37.3,250,36.8,253.1,34.6,254.8L34.6,254.8z"/>
	<path style="fill:#2CAECC;" d="M18.7,214.7c2,2,11.5,4,11.5,4s-2.3-9.4-4.4-11.4c-2-2-5.3-2-7.3,0c-2,2-2,5.3,0,7.3
		C18.6,214.7,18.7,214.7,18.7,214.7L18.7,214.7z"/>
	<path style="fill:#2CAECC;" d="M13.3,238.5c2.5,1.3,12.2,0.4,12.2,0.4s-5-8.3-7.6-9.6c-2.5-1.3-5.6-0.3-6.9,2.2
		c-1.3,2.5-0.3,5.6,2.2,6.9C13.3,238.5,13.3,238.5,13.3,238.5L13.3,238.5z"/>
	<path style="fill:#2CAECC;" d="M11.3,262.3c2.3,1.7,12,2.5,12,2.5s-3.6-9-5.8-10.7c-2.3-1.7-5.5-1.3-7.2,1c-1.7,2.3-1.3,5.5,1,7.2
		C11.2,262.3,11.2,262.3,11.3,262.3L11.3,262.3z"/>
	<path style="opacity:0.25;enable-background:new    ;" d="M31.3,192c0,2.8-5.1,11.1-5.1,11.1s-5.1-8.2-5.1-11.1
		c0-2.8,2.3-5.1,5.1-5.1S31.3,189.1,31.3,192L31.3,192z"/>
	<path style="opacity:0.25;enable-background:new    ;" d="M39.8,207.7c-1.5,2.4-10.3,6.5-10.3,6.5s0.2-9.7,1.7-12.1
		c1.5-2.4,4.7-3.1,7.1-1.5C40.7,202.1,41.4,205.3,39.8,207.7L39.8,207.7z"/>
	<path style="opacity:0.25;enable-background:new    ;" d="M39.5,234.6c-2.5,1.3-12.2,0.4-12.2,0.4s5-8.3,7.6-9.6
		c2.5-1.3,5.6-0.3,6.9,2.2c1.3,2.5,0.3,5.6-2.2,6.9C39.5,234.5,39.5,234.5,39.5,234.6L39.5,234.6z"/>
	<path style="opacity:0.25;enable-background:new    ;" d="M34.6,254.8c-2.3,1.7-12,2.5-12,2.5s3.6-9,5.8-10.7
		c2.3-1.7,5.5-1.1,7.2,1.2C37.3,250,36.8,253.1,34.6,254.8L34.6,254.8z"/>
	<path style="opacity:0.25;enable-background:new    ;" d="M18.7,214.7c2,2,11.5,4,11.5,4s-2.3-9.4-4.4-11.4c-2-2-5.3-2-7.3,0
		c-2,2-2,5.3,0,7.3C18.6,214.7,18.7,214.7,18.7,214.7L18.7,214.7z"/>
	<path style="opacity:0.25;enable-background:new    ;" d="M13.3,238.5c2.5,1.3,12.2,0.4,12.2,0.4s-5-8.3-7.6-9.6
		c-2.5-1.3-5.6-0.3-6.9,2.2c-1.3,2.5-0.3,5.6,2.2,6.9C13.3,238.5,13.3,238.5,13.3,238.5L13.3,238.5z"/>
	<path style="opacity:0.25;enable-background:new    ;" d="M11.3,262.3c2.3,1.7,12,2.5,12,2.5s-3.6-9-5.8-10.7
		c-2.3-1.7-5.5-1.3-7.2,1c-1.7,2.3-1.3,5.5,1,7.2C11.2,262.3,11.2,262.3,11.3,262.3L11.3,262.3z"/>
	<path style="fill:none;stroke:#535461;stroke-width:2;stroke-miterlimit:10;" d="M41.1,277.1c0,0-6.8-23.2,1.3-40.2
		c3.4-7.1,4.5-15.2,3-23c-0.8-3.7-1.8-7.3-3.3-10.8"/>
	<path style="fill:#2CAECC;" d="M47.1,192.4c0,2.8-5.1,11.1-5.1,11.1s-5.1-8.2-5.1-11.1c0-2.8,2.3-5.1,5.1-5.1
		S47.1,189.6,47.1,192.4L47.1,192.4z"/>
	<path style="fill:#2CAECC;" d="M55.6,208.1c-1.5,2.4-10.3,6.5-10.3,6.5s0.2-9.7,1.7-12.1c1.5-2.4,4.7-3.1,7.1-1.5
		C56.5,202.6,57.2,205.8,55.6,208.1L55.6,208.1z"/>
	<path style="fill:#2CAECC;" d="M55.3,235c-2.5,1.3-12.2,0.4-12.2,0.4s5-8.3,7.6-9.6c2.5-1.3,5.6-0.3,6.9,2.3S57.8,233.7,55.3,235
		L55.3,235z"/>
	<path style="fill:#2CAECC;" d="M50.4,255.3c-2.3,1.7-12,2.5-12,2.5s3.6-9,5.8-10.7c2.3-1.7,5.5-1.3,7.2,1c1.7,2.3,1.3,5.5-1,7.2
		C50.5,255.2,50.4,255.2,50.4,255.3L50.4,255.3z"/>
	<path style="fill:#2CAECC;" d="M34.5,215.2c2,2,11.5,4,11.5,4s-2.3-9.4-4.4-11.4c-2-2-5.3-2-7.3,0c-2,2-2,5.3,0,7.3
		C34.4,215.1,34.5,215.1,34.5,215.2L34.5,215.2z"/>
	<path style="fill:#2CAECC;" d="M29.1,238.9c2.5,1.3,12.2,0.4,12.2,0.4s-5-8.3-7.6-9.6c-2.5-1.3-5.6-0.3-6.9,2.2
		c-1.3,2.5-0.3,5.6,2.2,6.9C29,238.9,29.1,238.9,29.1,238.9L29.1,238.9z"/>
	<path style="fill:#2CAECC;" d="M27.1,262.8c2.3,1.7,12,2.5,12,2.5s-3.6-9-5.8-10.7c-2.3-1.7-5.5-1.3-7.2,1c-1.7,2.3-1.3,5.5,1,7.2
		C27,262.7,27,262.7,27.1,262.8L27.1,262.8z"/>
	<rect x="9.3" y="276.3" style="fill:#2CAECC;" width="359.8" height="2.6"/>
	
		<linearGradient id="SVGID_3_" gradientUnits="userSpaceOnUse" x1="-443.5925" y1="536.2364" x2="-443.5925" y2="537.2364" gradientTransform="matrix(76.252 0 0 -93.706 34126.5586 50470.957)">
		<stop  offset="0" style="stop-color:#808080;stop-opacity:0.251"/>
		<stop  offset="0.54" style="stop-color:#808080;stop-opacity:0.122"/>
		<stop  offset="1" style="stop-color:#808080;stop-opacity:0.102"/>
	</linearGradient>
	<rect x="263.6" y="128.7" style="fill:url(#SVGID_3_);" width="76.3" height="93.7"/>
	<rect x="264.8" y="130.2" style="fill:#2CAECC;" width="73.9" height="90.8"/>
	<rect x="269.8" y="138.1" style="fill:#E8EAF1;" width="15.1" height="15.1"/>
	<rect x="277.3" y="162.3" style="fill:#E8EAF1;" width="53.6" height="3"/>
	<rect x="277.3" y="168.7" style="fill:#E8EAF1;" width="53.6" height="3"/>
	<rect x="277.3" y="175.1" style="fill:#E8EAF1;" width="53.6" height="3"/>
	<rect x="277.3" y="181.5" style="fill:#E8EAF1;" width="53.6" height="3"/>
	<rect x="277.3" y="188" style="fill:#E8EAF1;" width="53.6" height="3"/>
	<rect x="277.3" y="194.4" style="fill:#E8EAF1;" width="53.6" height="3"/>
	<rect x="277.3" y="200.8" style="fill:#E8EAF1;" width="53.6" height="3"/>
	<path style="fill:#FFB9B9;" d="M361.3,258.4c0,0,0.4,6.6,1.2,7.3s-6.7,1.2-6.7,1.2l1-8.5L361.3,258.4z"/>
	<path style="opacity:5.000000e-02;enable-background:new    ;" d="M361.3,258.4c0,0,0.4,6.6,1.2,7.3s-6.7,1.2-6.7,1.2l1-8.5
		L361.3,258.4z"/>
	<path style="fill:#E4E2F3;" d="M363,263.4c0,0-1,0-4.8,1.9c0,0-2.5-0.4-3.6-4c0,0-3.1,5.4-5.2,5.7s-6.1,0.6-3.4,4.2
		s18.5,1.9,18.5,1.9S364.9,264.5,363,263.4z"/>
	<path style="opacity:5.000000e-02;enable-background:new    ;" d="M363,263.4c0,0-1,0-4.8,1.9c0,0-2.5-0.4-3.6-4
		c0,0-3.1,5.4-5.2,5.7s-6.1,0.6-3.4,4.2s18.5,1.9,18.5,1.9S364.9,264.5,363,263.4z"/>
	<path style="fill:#FFB9B9;" d="M360.7,268.5l-1,2.8l-6.9-1.9l0.4-2.8l0.1-0.7l0.3-1.9c0,0,5.8-1.5,5.8-0.8c0.1,0.6,0.2,1.2,0.4,1.8
		c0.2,0.9,0.5,2,0.8,2.6C360.6,268.2,360.7,268.5,360.7,268.5z"/>
	<path style="fill:#4C4C78;" d="M357,229.6c-0.8,1.3-0.8,2.9,0,4.2c0.3,0.5,0.7,1,1.1,1.5c3.3,3.6,4.2,11.6,4.2,11.6v13L360,260
		l-3.6,0.3l-5.4-22.1c0,0-3.1-16.1-1.6-18.9s2.8-20.6,2.8-20.6l1.2-1.3l2.9-3h8.5c0.7,0.5,1.2,1.1,1.7,1.8c1.4,2.4,2.7,7.3-1.2,16.3
		c-6.1,14.2-7.9,16.4-7.9,16.4C357.3,229.2,357.1,229.4,357,229.6L357,229.6z"/>
	<path style="opacity:5.000000e-02;enable-background:new    ;" d="M357,229.6c-0.8,1.3-0.8,2.9,0,4.2c0.3,0.5,0.7,1,1.1,1.5
		c3.3,3.6,4.2,11.6,4.2,11.6v13l-2.2,0.2l-3.6,0.3l-5.4-22.1c0,0-3.1-16.1-1.6-18.9s2.8-20.6,2.8-20.6l1.2-1.3l2.9-3h8.5
		c0.7,0.5,1.2,1.1,1.7,1.8c1.4,2.4,2.7,7.3-1.2,16.3c-6.1,14.2-7.9,16.4-7.9,16.4C357.3,229.1,357.2,229.3,357,229.6z"/>
	<path style="opacity:0.1;enable-background:new    ;" d="M359.8,265.1l-6.5,0.8l0.3-1.9c0,0,5.8-1.5,5.8-0.8
		C359.5,263.9,359.6,264.5,359.8,265.1L359.8,265.1z"/>
	<path style="fill:#4C4C78;" d="M356.6,210.5c0,0,0.4,11.7,0.4,19.1v4.2c0,0.5,0,1.1-0.1,1.6c-0.4,1.3,0.4,4.3,0.4,4.3
		c2.2,5.9,3.2,12.2,2.7,18.5v6.6l-7.2,0.9c0,0,1.2-0.9-2.1-9.5c-1.5-4.2-2.3-8.6-2.3-13.1c0-1.8-0.4-3.5-1-5.2
		c-0.2-0.6-0.3-1.1-0.4-1.7c-0.3-2.3-0.9-4.5-1.6-6.7c0,0-3.6-10.6-4.5-18.3c-0.4-3.7-0.3-7.4,0.2-11.1c0.1-0.9,0.3-1.9,0.5-2.8
		c0,0,14.6-9.2,20.1-2.8c0.5,0.6,0.9,1.3,1.2,2.1c0.3,0.8,0.5,1.5,0.7,2.3C365.4,207.3,356.6,210.5,356.6,210.5z"/>
	<ellipse style="fill:#FFB9B9;" cx="356.1" cy="137.7" rx="7.6" ry="7.6"/>
	<path style="fill:#FFB9B9;" d="M351.9,142.4c0,0,3.1,8.8,0,13.4s10,3.1,10,3.1l5.1-6.1c0,0-6,0-6.3-10.4S351.9,142.4,351.9,142.4z"
		/>
	<path style="opacity:0.1;enable-background:new    ;" d="M367,198c-1.1,0.4-2.2,0.7-3.3,0.8c-1.9,0.3-4,0.3-5.3-0.8
		c-0.8-0.7-2.6-0.8-4.9-0.5c-4.2,0.5-8.3,1.4-12.4,2.6c0.1-0.9,0.3-1.9,0.5-2.8c0,0,14.6-9.2,20.1-2.8h3.2c0.7,0.5,1.2,1.1,1.7,1.8
		C366.8,197.5,367,198,367,198z"/>
	<path style="opacity:0.1;enable-background:new    ;" d="M360.7,268.5l-1,2.8l-6.9-1.9l0.4-2.8c0.5,1.4,1.7,2.5,3.2,3
		c1.3-0.7,2.7-1.3,4.1-1.8C360.6,268.2,360.7,268.5,360.7,268.5z"/>
	<path style="fill:#E4E2F3;" d="M361.2,267.7c0,0-1,0-4.8,1.9c0,0-2.5-0.4-3.6-4c0,0-3.1,5.4-5.2,5.7s-6.1,0.6-3.4,4.2
		s18.5,1.9,18.5,1.9S363.1,268.8,361.2,267.7z"/>
	<path style="fill:#FFB9B9;" d="M325.8,139.1c0,0,0.3-5.8,6.4-5.2c0.6,0.1,1,0.6,0.9,1.1c0,0.1,0,0.3-0.1,0.4l-1.2,2.4L325.8,139.1z
		"/>
	<path style="fill:#797C9C;" d="M361,154.7c0,0-7.3-1.2-9.2-2.7c0,0-1.5,2.8-4.2,1.3s-8.9-1.3-8.9-1.3c-3.3-2-5.6-5.4-6.3-9.2
		c0,0-1-3.9-0.8-4.9c0,0-3.9-4-5.8,1.3c0.8,3.7,1.3,3.4,1.2,6.4l2.4,6.6c0,0,0.1,2.2,4.5,5.2c3.2,2.3,6.3,4.9,9.2,7.6
		c0,0-2.6,1.4-1.6,7.9c1.2,7.9-0.6,19.2-0.6,19.2v7.3c0,0,14.9-4.3,17.4-2.1s8.6,0,8.6,0c-0.7-2.8-1.3-5.7-1.8-8.6
		c-0.6-4-0.5-8.1,0.1-12.1c0,0,3.9-10.3,5.7-14.5s-1.3-9.8-4.5-11.9s-4.3-0.8-4.3-0.8S367.7,153.3,361,154.7z"/>
	<path style="opacity:5.000000e-02;enable-background:new    ;" d="M341.9,176.2c0,0,1.2-0.3,7.1-1.2s16.4,1.2,16.4,1.2"/>
	<path style="opacity:0.1;enable-background:new    ;" d="M347,132.8c3.4,0.1,5.9,4.3,4.4,7.3c-0.7,1.3-1.9,2.5-1.8,4
		c0.1,0.7,0.3,1.3,0.6,1.9c0.7,3-2.9,5.8-2.1,8.8c0.3,0.8,0.7,1.5,1.3,2.2l6.3,7.9c0.4,0.4,0.7,0.9,0.9,1.5c0.2,0.7,0.3,1.5,0.3,2.3
		c0,3.8,0.2,7.8,2.4,10.9c2.9,3.7,7.9,5,12.2,2.9c-1-1.5-2-3.2-1.5-4.9c0.6-1.9,2.8-2.8,4-4.4c1.5-1.9,1.6-4.6,1.1-7
		s-1.3-4.7-1.3-7.1c0-3.9,2-8.5-0.7-11.4c-0.7-0.6-1.3-1.2-1.9-1.9c-0.3-0.7-0.5-1.4-0.5-2.2c0-4.6,2.4-9.3,0.9-13.6
		c-0.3-1-0.9-1.8-1.7-2.4c-2.1-1.4-4.9,0-7.3-0.8c-1.1-0.3-2.1-1.1-3.2-1.5c-3-1-5.7,1-7.8,3c-0.9,0.7-1.8,1.4-2.7,2.1
		C349.2,130.2,345.7,132.7,347,132.8z"/>
	<path style="fill:#B36362;" d="M347.4,132.8c3.4,0.1,5.9,4.3,4.4,7.3c-0.7,1.3-1.9,2.5-1.8,4c0.1,0.7,0.3,1.3,0.6,1.9
		c0.7,3-2.9,5.8-2.1,8.8c0.3,0.8,0.7,1.5,1.3,2.2l6.3,7.9c0.4,0.4,0.7,0.9,0.9,1.5c0.2,0.7,0.3,1.5,0.3,2.3c0,3.8,0.2,7.8,2.4,10.9
		c2.9,3.7,7.9,5,12.2,2.9c-1-1.5-2-3.2-1.5-4.9c0.6-1.9,2.8-2.8,4-4.4c1.5-1.9,1.6-4.6,1.1-7s-1.3-4.7-1.3-7.1c0-3.9,2-8.5-0.7-11.4
		c-0.7-0.6-1.3-1.2-1.9-1.9c-0.3-0.7-0.5-1.4-0.5-2.2c0-4.6,2.4-9.3,0.9-13.6c-0.3-1-0.9-1.8-1.7-2.4c-2.1-1.4-4.9,0-7.3-0.8
		c-1.1-0.3-2.1-1.1-3.2-1.5c-3-1-5.7,1-7.8,3c-0.9,0.7-1.8,1.4-2.7,2.1C349.6,130.2,346.1,132.7,347.4,132.8z"/>
	
		<linearGradient id="SVGID_4_" gradientUnits="userSpaceOnUse" x1="-437.5322" y1="537.2648" x2="-437.5322" y2="538.2648" gradientTransform="matrix(37.6196 0 0 -148.8963 16674.9062 80275)">
		<stop  offset="0" style="stop-color:#808080;stop-opacity:0.251"/>
		<stop  offset="0.54" style="stop-color:#808080;stop-opacity:0.122"/>
		<stop  offset="1" style="stop-color:#808080;stop-opacity:0.102"/>
	</linearGradient>
	<path style="fill:url(#SVGID_4_);" d="M233.4,204.6c-0.9-0.8-1.6-1.7-2.2-2.7c-1.2-1.7-3-3-5-3.7v-0.7h0.1l0-0.6h0l-0.1-1.6l0,0
		l-0.5-8.2c-1.1-3.5-0.5-7.4,1.5-10.5c3.4-5,0.2-9.8-3-11.7c0,0-1.5-8-0.2-9.8c-1.7-1-3.5-1.9-5.4-2.7c0-0.1-0.1-0.2-0.1-0.3
		c0-0.8-0.1-1.5-0.1-2.2c0-0.4,0.1-0.8,0.2-1.1c0-0.2,0.1-0.3,0.1-0.5c3.1-1.2,5.2-4.2,5.2-7.6c0-1-0.2-1.9-0.5-2.8
		c0.2-0.3,0.3-0.6,0.4-0.9c0.2-0.9,0-1.8-0.5-2.6c-1-1.9-2.6-3.4-4.5-4.2c-2.2-0.9-5.6-0.7-7.9-0.4c-1.3,0.2-2.8,0.6-3.2,1.8
		c-0.1,0.5-0.2,0.9-0.3,1.4c-0.5,1.8-2.6,2.7-3.9,4.1c-1.1,1.3-1.7,2.9-2,4.5c-1.1,4.7-1.3,9.5-0.8,14.2c0.1,1.1,0.3,2.2,0.5,3.3
		c-0.8,1.1-1.5,3-1.2,6.4l-2.6,12.1l-1.1,7.1c-0.3,2,0.4,4.1,1.9,5.4c1.8,1.9,3.4,3.9,4.8,6.1c-0.5,1.6-0.8,3.2-0.8,4.8
		c0,0.8,0.1,1.5,0.1,2.2c0.1,1.4,0.4,2.9,0.8,4.3c0.3,2.9,0.9,6.7,2,9.1l0.4,12.8c0,0-0.6,11.7-1.9,14s2.8,21.8,2.8,21.8v2.7l-0.7,2
		l-0.2-0.1c-3.2,4,0,5.4,0,5.4s0.9,0,2.3,0.1c-0.2,1.1,0.3,2.3,1.4,2.8c0,0,18.1,0.8,21.3,0s2.3-3.8,0.6-3.6c-0.9,0-1.7-0.1-2.6-0.3
		c0.6-0.6,0.6-1.5,0.1-2.1c-0.3-0.3-0.7-0.5-1.2-0.5c-1.7,0.2-5.5-1.3-5.5-1.3v0c-0.1,0-0.2-0.1-0.4-0.1c-1.4-0.3-2.8-0.7-4.2-1.2
		c-0.8-1.8-2.7-6.5-1.4-10.2c0.6-1.9,0.9-4,0.8-6c0-6.5,1-12.9,2.8-19.1l2.6-8.8c0,0,3.6-10.7,3.8-13.6l0-4.3c3,1.9,5.4,1.3,6.9,0.4
		c0.8-0.4,1.1-1.5,0.6-2.2C233.6,204.9,233.5,204.7,233.4,204.6L233.4,204.6z M204.9,182.4c0.1-0.3,0.1-0.6,0.2-1h1.5
		c0.6,1.3,0.9,2.7,0.8,4.1C206.2,185.2,204.5,184.3,204.9,182.4z"/>
	<path style="fill:#DB8B8B;" d="M206.9,266.7l-0.8,2.5l2.7,2.7l8.8,2l6.4-0.6l-0.4-2.3l0,0c-0.2-1-1-1.8-2-2c-2.6-0.6-7.6-2-8.6-4
		L206.9,266.7z"/>
	<path style="opacity:0.1;enable-background:new    ;" d="M206.9,266.7l-0.8,2.5l2.7,2.7l8.8,2l6.4-0.6l-0.4-2.3l0,0
		c-0.2-1-1-1.8-2-2c-2.6-0.6-7.6-2-8.6-4L206.9,266.7z"/>
	<path style="fill:#474463;" d="M221.9,272.6l-1.2-1.6l1.2-1.9c0,0,3.7,1.5,5.3,1.3s2.5,2.7-0.6,3.5s-20.5,0-20.5,0s-3.1-1.4,0-5.3
		l2.7,2c0,0,4.5,2.5,6.8,2L221.9,272.6z"/>
	<path style="fill:#DB8B8B;" d="M227.4,276.1l-6.4,0.6l-8.8-2.1l-2.7-2.6l0.2-0.7l0.3-0.9l0.3-0.9l5.9-1.6c0.3,0.5,0.7,0.9,1.2,1.2
		c1.9,1.3,5.4,2.3,7.4,2.8c0.1,0,0.2,0,0.3,0.1c0.9,0.3,1.5,1,1.8,1.9L227.4,276.1z"/>
	<path style="opacity:0.1;enable-background:new    ;" d="M227.4,276.1l-6.4,0.6l-8.8-2.1l-2.7-2.6l0.2-0.7l2.5,1.9
		c0,0,4.5,2.5,6.8,2h6.4l-1.2-1.6l1.1-1.7c0.9,0.3,1.5,1,1.8,1.9L227.4,276.1z"/>
	<path style="fill:#474463;" d="M225.4,275.5l-1.2-1.6l1.2-1.9c0,0,3.7,1.5,5.3,1.3s2.5,2.7-0.6,3.5s-20.5,0-20.5,0s-3.1-1.4,0-5.3
		l2.7,2c0,0,4.5,2.5,6.8,2L225.4,275.5z"/>
	<path style="fill:#DB8B8B;" d="M220.3,156.5c0,0-9.8,1-8.4-3.1c0.4-1.2,0.5-2.4,0.3-3.6c-0.3-1.5-0.9-2.9-1.7-4.2l9.2,1.4
		c-0.6,0.9-1,1.9-1.2,3C217.6,152.4,218.4,154.9,220.3,156.5z"/>
	<path style="fill:#474463;" d="M203.4,203.3c0,0,0.2,8.8,2.3,13.1l0.4,12.5c0,0-0.6,11.5-1.8,13.7s2.7,21.3,2.7,21.3v3.3
		c0,0,6.6,2.5,8.4-0.4l-1.8-24.4l0.8-33.8L203.4,203.3z"/>
	<path style="opacity:0.1;enable-background:new    ;" d="M203.4,203.3c0,0,0.2,8.8,2.3,13.1l0.4,12.5c0,0-0.6,11.5-1.8,13.7
		s2.7,21.3,2.7,21.3v3.3c0,0,6.6,2.5,8.4-0.4l-1.8-24.4l0.8-33.8L203.4,203.3z"/>
	<path style="fill:#CBCDDA;" d="M199.3,175l-1.2,3.3l-1,7c-0.3,2,0.4,4,1.8,5.3c2.1,2.4,4,4.9,5.7,7.6l3.9-11.7c0,0-3.9-0.6-3.3-3.3
		c0.4-2.5,0.5-5.1,0.4-7.6L199.3,175z"/>
	<path style="opacity:5.000000e-02;enable-background:new    ;" d="M199.3,174.6l-1.2,3.3l-1,7c-0.3,2,0.4,4,1.8,5.3
		c2.1,2.4,4,4.9,5.7,7.6l3.9-11.7c0,0-3.9-0.6-3.3-3.3c0.4-2.5,0.5-5.1,0.4-7.6L199.3,174.6z"/>
	<path style="opacity:0.1;enable-background:new    ;" d="M217.6,269.1c-2.6,4.2-6.7,1.8-7.5,1.3l0.3-0.9l5.9-1.6
		C216.7,268.4,217.1,268.8,217.6,269.1z"/>
	<path style="fill:#474463;" d="M225.8,211.3c-0.2,2.9-3.7,13.3-3.7,13.3l-2.5,8.6c-1.8,6.1-2.7,12.4-2.7,18.7c0.1,2-0.2,4-0.8,5.9
		c-1.6,4.5,1.6,10.7,1.6,10.7c-2.9,5.1-7.8,1.6-7.8,1.6v-3.3c0,0-3.9-17.8-2.9-21.3s1.4-12.9,1.4-12.9v-17
		c-3.3-3.3-5.3-7.6-5.6-12.2c0-0.7-0.1-1.4-0.1-2.1c-0.2-4.6,3-10.1,4.2-12c0.3-0.5,0.5-0.7,0.5-0.7l18.1,7.2h0v2.3L225.8,211.3z"/>
	<path style="opacity:0.1;enable-background:new    ;" d="M219.7,147.1c-0.6,0.9-1,1.9-1.2,3c-2,0.8-4.3,0.7-6.2-0.2
		c-0.3-1.5-0.9-2.9-1.7-4.2L219.7,147.1z"/>
	<ellipse style="fill:#DB8B8B;" cx="215.5" cy="142.2" rx="8" ry="8"/>
	<path style="opacity:0.1;enable-background:new    ;" d="M225.8,197.9L225.8,197.9c-8.7,1.8-19.5-7.2-19.5-7.2
		c0.3-0.5,0.5-1,0.8-1.5c0.3-0.5,0.5-0.7,0.5-0.7l18.1,7.2l0,0.7L225.8,197.9z"/>
	<path style="fill:#CBCDDA;" d="M223.5,156.3c0,0-11.5-7-15.2-4.1l-5.1,6.6c0,0-3.3,1-2.7,7.6l-2.5,11.9l7.4,1.8c0,0,4.3,4.1,0.8,10
		c0,0,10.9,9,19.5,7.2l-0.6-9.6c-1-3.5-0.5-7.2,1.4-10.3c3.3-4.9,0.2-9.6-2.9-11.5C223.8,165.9,222.3,158.1,223.5,156.3z"/>
	<path style="fill:#DB8B8B;" d="M224.2,198.1c0,0,4.3,0.8,6.4,4.1c0.6,1,1.3,1.9,2.1,2.7c0.7,0.6,0.7,1.6,0.1,2.3
		c-0.1,0.1-0.2,0.2-0.4,0.3c-1.6,1-4.3,1.6-7.6-1.2C219,201.6,224.2,198.1,224.2,198.1z"/>
	<path style="opacity:0.1;enable-background:new    ;" d="M217.8,160.2c0,0-4.1-0.4-5.1,10.3s-2.7,13.1-2.7,13.1s-1,5.5,1.4,8.8
		s7.2,10.3,7.2,10.3s5.1,1.4,6.2-3.7l-6.4-11.9c0,0-1-4.1,1.4-7S224.2,158.1,217.8,160.2z"/>
	<path style="fill:#CBCDDA;" d="M218.2,159.6c0,0-4.1-0.4-5.1,10.3s-2.7,13.1-2.7,13.1s-1,5.5,1.4,8.8S219,202,219,202
		s5.1,1.4,6.2-3.7l-6.4-11.9c0,0-1-4.1,1.4-7S224.6,157.5,218.2,159.6z"/>
	<path style="opacity:0.1;enable-background:new    ;" d="M221.6,167.3c0,0,0.4,6.4-1.4,9.8s-1.8,8,0,10.5"/>
	<path style="opacity:0.1;enable-background:new    ;" d="M222.6,159.5c0,0-1.6-1.6-6.4-1.8s-6.8-1.6-6.8-1.6"/>
	<path style="opacity:0.1;enable-background:new    ;" d="M211.2,131.8c-1.2,0.2-2.7,0.6-3.1,1.8c-0.1,0.4-0.2,0.9-0.3,1.4
		c-0.5,1.8-2.5,2.6-3.7,4c-1,1.3-1.7,2.8-1.9,4.4c-1,4.6-1.3,9.3-0.7,13.9c0.4,3.4,1.2,6.8,1.4,10.2s-0.2,7-2.1,9.9
		c-0.9,1.2-1.7,2.4-2.4,3.7c1.3,0.8,2.8,1.2,4.3,1.1c1.8,0.1,3.5,0.1,5.3,0c0.9,0,1.9-0.2,2.7-0.6c0.6-0.4,1.1-0.9,1.4-1.5
		c0.9-1.8,1.4-3.8,1.2-5.8c0-2-0.4-4-0.4-6c-0.1-1.1,0.1-2.2,0.7-3.1c0.5-0.6,1.1-1.1,1.7-1.6c2.2-1.9,2.9-5.1,3-8s-0.4-5.9-0.2-8.8
		c0.1-1.1,0.5-2.5,1.7-2.7c0.4,0,0.7-0.1,1.1-0.1c0.9-0.3,0.8-1.6,1.1-2.6c0.3-1,1.2-1.9,1.4-2.9c0.6-2.5-2.6-5.4-4.6-6.3
		C216.6,131.3,213.4,131.5,211.2,131.8z"/>
	<path style="fill:#472727;" d="M211,131.4c-1.2,0.2-2.7,0.6-3.1,1.8c-0.1,0.4-0.2,0.9-0.3,1.4c-0.5,1.8-2.5,2.6-3.7,4
		c-1,1.3-1.7,2.8-1.9,4.4c-1,4.6-1.3,9.3-0.7,13.9c0.4,3.4,1.2,6.8,1.4,10.2s-0.2,7-2.1,9.9c-0.9,1.2-1.7,2.4-2.4,3.7
		c1.3,0.8,2.8,1.2,4.3,1.1c1.8,0.1,3.5,0.1,5.3,0c0.9,0,1.9-0.2,2.7-0.6c0.6-0.4,1.1-0.9,1.4-1.5c0.9-1.8,1.4-3.8,1.2-5.8
		c0-2-0.4-4-0.4-6c-0.1-1.1,0.1-2.2,0.7-3.1c0.5-0.6,1.1-1.1,1.7-1.6c2.2-1.9,2.9-5.1,3-8s-0.4-5.9-0.2-8.8c0.1-1.1,0.5-2.5,1.7-2.7
		c0.4,0,0.7-0.1,1.1-0.1c0.9-0.3,0.8-1.6,1.1-2.6c0.3-1,1.2-1.9,1.4-2.9c0.6-2.5-2.6-5.4-4.6-6.3C216.4,130.9,213.2,131.1,211,131.4
		z"/>
</g>
</svg>
