<?xml version="1.0" encoding="utf-8"?>
<!-- Generator: Adobe Illustrator 24.3.0, SVG Export Plug-In . SVG Version: 6.00 Build 0)  -->
<svg version="1.1" id="Layer_1" xmlns="http://www.w3.org/2000/svg" xmlns:xlink="http://www.w3.org/1999/xlink" x="0px" y="0px"
	 width="372px" height="251.9px" viewBox="0 0 372 251.9" style="enable-background:new 0 0 372 251.9;" xml:space="preserve">
<g transform="translate(0.01 -0.04)">
	<path style="opacity:0.1;fill:#2CAECC;enable-background:new    ;" d="M372,150c0-23.1-9.8-43.5-24.7-55.8c0.2-2.3,0.3-4.7,0.3-7.1
		c0-37.5-25.8-68-57.6-68c-9.9,0-19.7,3-27.9,8.5C239.6,10.5,210.2,0,178.1,0C125.8,0,80.9,27.7,60.9,67.3c-1.1-0.1-2.2-0.1-3.3-0.1
		C25.8,67.1,0,97.6,0,135.1c-0.1,13.1,3.2,25.9,9.5,37.4l0,0c0,33.8,27.4,61.1,61.1,61.1h244.9c26.5,0,48-21.5,48-48c0,0,0,0,0,0
		l0,0C369.1,174.6,372.1,162.4,372,150z"/>
	<path style="fill:#2CAECC;" d="M211.8,216.1c0,0-4-2.6-8-0.8c0,0,1.2,2.4,6.2,2.1L211.8,216.1z"/>
	<path style="fill:#2CAECC;" d="M212.3,216.3c0,0,1.2,4.6-1.8,7.8c0,0-1.8-1.9,0-6.6L212.3,216.3z"/>
	<path style="fill:#2CAECC;" d="M217.3,211.8c0,0-0.3-3.9-9.2-2.6c0,0,0,2.5,3.1,3.7S215.8,213.1,217.3,211.8z"/>
	<path style="fill:#2CAECC;" d="M217.9,211.8c0,0,3.8,1.2,0.4,9.5c0,0-2.5-0.6-2.9-3.9S216.2,213,217.9,211.8z"/>
	<path style="fill:#2CAECC;" d="M222.9,206.2c0,0,0.5-6.5-8.6-5.8c0,0-0.7,5.9,7,7.4L222.9,206.2z"/>
	<path style="fill:#2CAECC;" d="M228.9,198.9c0,0-1.2-7.3-10.3-5.2c0,0,0,6.3,8.8,6.9L228.9,198.9z"/>
	<path style="fill:#2CAECC;" d="M233.3,191.3c0,0-2.1-7.2-11.1-5c0,0,2.1,6.4,10.5,6.3L233.3,191.3z"/>
	<path style="fill:#2CAECC;" d="M237.5,184c0,0-2-7.4-10.7-5.2c0,0,2.9,7.1,10.2,6.5L237.5,184z"/>
	<path style="fill:#2CAECC;" d="M240.2,176.9c0,0-1.6-9.1-9.7-7.1c0,0,2.4,8.3,9.1,8.4L240.2,176.9z"/>
	<path style="fill:#2CAECC;" d="M242.7,168.5c0,0-1.9-9.2-10.1-6.5c0,0,3.2,8.7,9.5,7.8L242.7,168.5z"/>
	<path style="fill:#2CAECC;" d="M244.2,160.6c0,0-3-9.2-9.3-8.9c0,0,3.1,9.7,8.8,10.7L244.2,160.6z"/>
	<path style="fill:#2CAECC;" d="M245.2,152.9c0,0-3.3-11-8.4-10.2c0,0,2.2,8.4,8.2,11.9L245.2,152.9z"/>
	<path style="fill:#2CAECC;" d="M245.8,143.7c0,0-3-9.2-8.1-9.5c0,0,2.1,9,8,11.9L245.8,143.7z"/>
	<path style="fill:#2CAECC;" d="M246.4,135.1c0,0-3.8-9.2-7.2-9.4c0,0,1.7,9,6.8,10.9L246.4,135.1z"/>
	<path style="fill:#2CAECC;" d="M246.8,127.1c0,0-2.3-10-5.7-10.8c0,0,0.5,8.2,5.4,11.6L246.8,127.1z"/>
	<path style="fill:#2CAECC;" d="M248.1,116.7c0,0-2.5-8-5.2-9.2c0,0,0.5,9.4,4.6,11.1L248.1,116.7z"/>
	<path style="fill:#2CAECC;" d="M249.1,109.9l0.5-14c0,0-5.1,10.6-0.9,16.5L249.1,109.9z"/>
	<path style="fill:#2CAECC;" d="M253.1,95.9c0,0,3.7-10.2,4.6-10.8c0,0-7.2,6.6-6.5,15.2L253.1,95.9z"/>
	<path style="fill:#2CAECC;" d="M223.2,206.2c0,0,6.4-0.9,6.3,8.3c0,0-5.8,0.9-7.7-6.6L223.2,206.2z"/>
	<path style="fill:#2CAECC;" d="M229.2,198.7c0,0,7.4,0,6.8,9.3c0,0-6.2,1.1-8.3-7.5L229.2,198.7z"/>
	<path style="fill:#2CAECC;" d="M233.4,192c0,0,6.8-3.2,11.1,5c0,0-6.2,2.6-11.7-3.7L233.4,192z"/>
	<path style="fill:#2CAECC;" d="M237.6,184c0,0,6.9-3.4,11,4.6c0,0-7.2,2.5-11.6-3.4L237.6,184z"/>
	<path style="fill:#2CAECC;" d="M240.1,177.1c0,0,6.7-6.4,12,0.1c0,0-6.8,5.2-12.3,1.3L240.1,177.1z"/>
	<path style="fill:#2CAECC;" d="M242.3,168.3c0,0,6.7-6.5,12,0.3c0,0-7.5,5.3-12.2,1.1L242.3,168.3z"/>
	<path style="fill:#2CAECC;" d="M243.5,160.3c0,0,5.2-8.1,11.2-6.3c0,0-5.4,8.6-11.2,8.2L243.5,160.3z"/>
	<path style="fill:#2CAECC;" d="M245.1,152.8c0,0,5.2-10.2,10.1-8.5c0,0-3.8,7.9-10.3,10.2L245.1,152.8z"/>
	<path style="fill:#2CAECC;" d="M245.4,143.2c0,0,5.4-8.1,10.4-7.1c0,0-4.4,8.2-10.9,9.4L245.4,143.2z"/>
	<path style="fill:#2CAECC;" d="M245.8,134.9c0,0,4.1-9,7.5-9.1c0,0-2,9-7.2,10.6L245.8,134.9z"/>
	<path style="fill:#2CAECC;" d="M246.7,127c0,0,4.6-9.2,8.1-9.2c0,0-2.4,7.8-7.9,10L246.7,127z"/>
	<path style="fill:#2CAECC;" d="M247.4,117.3c0,0,3.4-7.6,6.3-8.5c0,0-1.7,9.2-5.9,10.4L247.4,117.3z"/>
	<path style="fill:#2CAECC;" d="M249.6,109.6l7.7-11.7c0,0-2,11.6-8.8,14L249.6,109.6z"/>
	<path style="fill:#2CAECC;" d="M254.8,96.9c0,0,9-6.2,9.3-7.2c0,0-4.6,8.7-13,10.2L254.8,96.9z"/>
	<path style="fill:#2CAECC;" d="M255.4,94.1c0,0,10.3-9.9,12.9-9.9c-5.7,0.7-10.6,4.2-13.2,9.3L255.4,94.1z"/>
	<path style="fill:#444053;" d="M247.4,118.7l0.4,0c1.9-15.1,4.7-24.1,7.9-25.2l-0.1-0.4C252.3,94.4,249.4,103.3,247.4,118.7z"/>
	<path style="fill:#444053;" d="M244.6,154.9l0.6,0c0.1-1.4,0.2-2.9,0.3-4.3c0.5-12.5,1.4-24,2.5-32.6l-0.3-0.4
		c-1.1,8.6-2.2,20.5-2.7,33C244.8,152.1,244.7,153.5,244.6,154.9z"/>
	<path style="fill:#444053;" d="M201.3,223.3c0.1,0,10.1-4.5,20.4-15.1c6.1-6.2,11.1-13.3,14.9-21.1c4.8-9.7,7.7-21.7,8.7-33.3
		l-0.6,0.3c-2.2,26.1-14.1,43.9-23.5,53.6c-10.2,10.5-20.1,14.9-20.2,15L201.3,223.3z"/>
	<path style="fill:#FFFFFF;" d="M217,33.9v31.9c-0.2,1.8-1.8,3.2-3.6,3.1h-76.9c-1.8,0.1-3.5-1.2-3.6-3.1V33.9
		c0.1-1.9,1.7-3.4,3.6-3.4h76.9C215.3,30.5,216.8,32,217,33.9z"/>
	<path style="opacity:0.2;fill:#2CAECC;enable-background:new    ;" d="M217,34.2v8.9h-84.1v-8.9c0-2,1.6-3.6,3.6-3.6c0,0,0,0,0,0
		h76.9C215.3,30.5,217,32.1,217,34.2C217,34.1,217,34.2,217,34.2z"/>
	<ellipse style="fill:#FFFFFF;" cx="137.4" cy="36.8" rx="2.4" ry="2.4"/>
	<ellipse style="fill:#FFFFFF;" cx="144.5" cy="36.8" rx="2.4" ry="2.4"/>
	<ellipse style="fill:#FFFFFF;" cx="151.6" cy="36.8" rx="2.4" ry="2.4"/>
	<ellipse style="opacity:0.2;fill:#2CAECC;enable-background:new    ;" cx="149.5" cy="55.8" rx="9.5" ry="9.5"/>
	<rect x="169.8" y="49.4" style="fill:#2CAECC;" width="40" height="1.4"/>
	<rect x="169.8" y="52.8" style="opacity:0.2;fill:#2CAECC;enable-background:new    ;" width="40" height="1.4"/>
	<rect x="169.8" y="56.3" style="opacity:0.2;fill:#2CAECC;enable-background:new    ;" width="40" height="1.4"/>
	<rect x="169.8" y="59.7" style="opacity:0.2;fill:#2CAECC;enable-background:new    ;" width="40" height="1.4"/>
	<path style="fill:#FFFFFF;" d="M313.3,15.1v56.7c-0.2,1.8-1.8,3.2-3.6,3.1h-76.9c-1.8,0.1-3.5-1.2-3.6-3.1V15.1
		c0.1-1.9,1.7-3.4,3.6-3.4h76.9C311.6,11.8,313.2,13.2,313.3,15.1z"/>
	<path style="opacity:0.2;fill:#2CAECC;enable-background:new    ;" d="M313.3,15.4v8.9h-84.1v-8.9c0-2,1.6-3.6,3.6-3.6h76.9
		C311.7,11.7,313.3,13.4,313.3,15.4z"/>
	<ellipse style="fill:#FFFFFF;" cx="233.8" cy="18" rx="2.4" ry="2.4"/>
	<ellipse style="fill:#FFFFFF;" cx="240.9" cy="18" rx="2.4" ry="2.4"/>
	<ellipse style="fill:#FFFFFF;" cx="247.9" cy="18" rx="2.4" ry="2.4"/>
	<ellipse style="opacity:0.2;fill:#2CAECC;enable-background:new    ;" cx="245.9" cy="37" rx="9.5" ry="9.5"/>
	<rect x="266.1" y="30.6" style="fill:#2CAECC;" width="40" height="1.4"/>
	<rect x="266.1" y="34.1" style="opacity:0.2;fill:#2CAECC;enable-background:new    ;" width="40" height="1.4"/>
	<rect x="266.1" y="37.5" style="opacity:0.2;fill:#2CAECC;enable-background:new    ;" width="40" height="1.4"/>
	<rect x="266.1" y="40.9" style="opacity:0.2;fill:#2CAECC;enable-background:new    ;" width="40" height="1.4"/>
	<ellipse style="opacity:0.2;fill:#2CAECC;enable-background:new    ;" cx="245.9" cy="59.2" rx="9.5" ry="9.5"/>
	<rect x="266.1" y="52.8" style="fill:#2CAECC;" width="40" height="1.4"/>
	<rect x="266.1" y="56.3" style="opacity:0.2;fill:#2CAECC;enable-background:new    ;" width="40" height="1.4"/>
	<rect x="266.1" y="59.7" style="opacity:0.2;fill:#2CAECC;enable-background:new    ;" width="40" height="1.4"/>
	<rect x="266.1" y="63.2" style="opacity:0.2;fill:#2CAECC;enable-background:new    ;" width="40" height="1.4"/>
	<path style="fill:#FFFFFF;" d="M204.7,98.3v122.8c0,3.7-3.5,6.6-7.9,6.6H30.2c-4.4,0-7.9-3-7.9-6.6V98.3c0-3.7,3.5-7.4,7.9-7.4
		h166.7C201.2,90.9,204.7,94.6,204.7,98.3z"/>
	<path style="opacity:0.2;fill:#2CAECC;enable-background:new    ;" d="M204.7,98.8v19.3H22.3V98.8c0-4.3,3.5-7.9,7.9-7.9
		c0,0,0,0,0,0h166.7C201.2,90.9,204.7,94.4,204.7,98.8C204.7,98.7,204.7,98.7,204.7,98.8L204.7,98.8z"/>
	<ellipse style="fill:#FFFFFF;" cx="32.3" cy="104.5" rx="5.3" ry="5.3"/>
	<ellipse style="fill:#FFFFFF;" cx="47.7" cy="104.5" rx="5.3" ry="5.3"/>
	<ellipse style="fill:#FFFFFF;" cx="63" cy="104.5" rx="5.3" ry="5.3"/>
	<path style="fill:#2CAECC;" d="M149,183.9c0-0.9,0.2-1.8,0.7-2.6c0.1-0.2,0.3-0.5,0.5-0.7c3.9-5.8,6-12.6,6-19.6
		c0.1-20-16.8-36.2-37.7-36.2c-18.2,0-33.4,12.4-36.9,28.8c-0.5,2.4-0.8,4.9-0.8,7.4c0.1,20.3,16.6,36.7,36.9,36.7
		c0.1,0,0.1,0,0.2,0c3.5-0.2,6.9-0.7,10.2-1.7c2.4-0.7,4.9-1.6,5.5-1.8c0.6-0.2,1.3-0.4,2-0.4c0.8,0,1.5,0.1,2.2,0.4l12.3,4.4
		c0.3,0.1,0.6,0.2,0.8,0.2c1,0,1.7-0.8,1.7-1.7c0,0,0,0,0,0c0-0.2-0.1-0.4-0.1-0.6L149,183.9z"/>
	<path style="fill:#2CAECC;" d="M124.6,199.5c-0.8,0.2-1.8,0.5-2.9,0.7c-2.4,0.6-4.9,0.9-7.4,1c-20.3,0.2-36.9-16.2-37.1-36.5
		c0-0.1,0-0.1,0-0.2c0-1.6,0.1-3.1,0.3-4.6c0.1-0.9,0.3-1.9,0.5-2.8c0.2-1,0.5-2,0.8-2.9l-1.7,1.5c-7.1,6.1-11.2,14.9-11.2,24.3
		c0,6.3,1.9,12.5,5.4,17.8c0.5,0.8,0.8,1.3,0.7,1.7s-2.6,13.4-2.6,13.4c-0.1,0.6,0.1,1.3,0.6,1.7c0.3,0.3,0.7,0.4,1.1,0.4
		c0.2,0,0.4,0,0.6-0.1l12.2-4.8c0.8-0.3,1.8-0.3,2.6,0c4.2,1.7,8.7,2.6,13.2,2.6c10,0,19.5-4.3,26-12c0,0,0.7-1,1.5-2.1
		C126.4,199,125.5,199.2,124.6,199.5L124.6,199.5z"/>
	
		<linearGradient id="SVGID_1_" gradientUnits="userSpaceOnUse" x1="-445.5991" y1="522.7565" x2="-445.5991" y2="523.7565" gradientTransform="matrix(65.5488 0 0 -83.1425 29250.7871 43715.2422)">
		<stop  offset="0" style="stop-color:#808080;stop-opacity:0.251"/>
		<stop  offset="0.54" style="stop-color:#808080;stop-opacity:0.122"/>
		<stop  offset="1" style="stop-color:#808080;stop-opacity:0.102"/>
	</linearGradient>
	<path style="fill:url(#SVGID_1_);" d="M66.6,227.5c0,0-5.1,1.2-7.1,3.5c-0.8,0.8-1.7,1.4-2.7,1.7v-3.5c1.2-2,2.3-4.1,2.3-4.1
		c0.1-0.1,0.5-1.6,0.5-1.6c1-0.8-0.1-3.4-0.1-3.4s0.6-1.7,0.3-2s-0.1-1.2,0.2-1.6c0.2-0.4,0.3-0.8,0.2-1.2c0-0.3-0.4-0.8-1.1-1.1
		s0.1-0.7,0.5-0.8s0.5-1.1,0.1-1.7s0.1-0.9,0.3-1.4s-0.8-0.5-0.8-0.5v-5.4l0,0c0,0-0.3-1.8-0.7-4.9s-1.5-3.4-1.5-3.4
		c-0.7-0.2-1.3-0.5-1.9-0.8c-0.7-0.3-1.3-0.6-2-0.7c-0.9,0-1.8-0.1-2.6-0.4c-0.6-0.2-1.2-0.3-1.8-0.4l-0.2-0.1
		c-1.4-0.7-2.6-1.9-3.2-3.4c0-0.1-0.1-0.1-0.1-0.2c0.3-0.3,0.6-0.7,0.8-1.1l0,0v0.6l0,0c0.8-1.5,3.3-1.8,3.5-3.5c0-0.1,0-0.2,0-0.2
		l0,0v-0.2c0-0.5-0.2-1-0.2-1.4c0-0.1,0-0.3,0-0.4l0,0c0.1-1.3,1.1-2.5,1.6-3.8c0.1-0.3,0.2-0.7,0.2-1.1l0,0c0-0.1,0-0.2,0-0.3
		c0,0,0-0.1,0-0.1v-0.2c0-1.4-0.6-2.7-1.7-3.6c-0.8-0.7-2-1.2-2.5-2.2c-0.3-0.4-0.4-1-0.7-1.4c-0.6-0.8-1.6-1.2-2.6-1.3
		c-1,0-2-0.2-2.9-0.4c-0.7-0.2-1.3-0.6-1.9-0.8c-1.5-0.4-3.1,0.2-4,1.4c-0.3,0.6-0.6,1.1-1.1,1.5c-1,0.8-2.6,0.5-3.5,1.4
		c-0.4,0.6-0.6,1.3-0.5,2v0.4c0,0.3,0.1,0.5,0.1,0.8v0.1c0,0,0,0.2,0,0.2c0,0.1,0,0.1,0,0.2v0.4c0.1,2-0.3,3.9-1.2,5.7
		c-0.8,1.6-2,3-2.2,4.8c0,0.3,0,0.6,0,0.9v0.3l0,0.2v0.1c0,0,0,0.2,0,0.2v0c0.2,1.2,0.7,2.4,0.9,3.6c0.1,0.4,0.2,0.9,0.2,1.4l0,0
		c0,0.1,0,0.3,0,0.4c0,0.1,0,0.4,0,0.6c-0.4,0.2-0.8,0.3-1.2,0.4c-0.7,0.1-2.9,2-2.8,2.5s-1,3.9-1,4l0,0L21,214.6
		c0,0-0.9,0.9-0.7,1.5c0.2,0.5,0.1,1.1-0.1,1.6c0,0-1.6,0.7-1.2,1.1c0.3,0.6,0.3,1.2-0.1,1.8c-0.2,0.5-0.7,1.5,0,1.7
		s0.1,2.2,0.1,2.2s2.2-0.3,2.1,1.1c-0.1,0.4,1.6,1.6,2.2,2.1v6.4c-0.9-0.2-1.8-0.5-2.7-0.9c-1.4-0.7-9.1-1.9-10.8,1.8
		s2.3,8.6,3.3,9.2c0.4,0.3,0.8,0.7,1.2,1.1c0.2,0.4,1.4,0.5,1.4,0.5c0.6,0.2,1.1,0.6,1.6,0.9c1.4,0.6,2.9,1.1,4.5,1.3l0,0
		c0,0-1.9,4.3,1.2,3.9s4.5-1.8,6.6-1.8c0.9,0,2.4-0.1,4-0.3c0.4,0.1,0.8,0.2,1.2,0.3c0.9,0.3,1.8,0.5,2.8,0.6c0,0,2.4,1.3,3.7,1
		c0.1,0,0.2-0.1,0.3-0.2h0c0.3-0.1,0.6-0.4,0.8-0.7c1.4,0.1,2.7,0.3,4.1,0.7c1.3,0.5,10.8-0.2,10.8-0.2s6.1,0.1,7.8,0.7
		c1.7,0.5,1.1-5.4-2.1-6.1c-0.9-0.2-1.7-0.2-2.6-0.2c0.2-0.2,0.4-0.5,0.6-0.7c1.2-0.1,1.9-0.2,1.9-0.2s3.1-1.5,4.8-2.4
		c1.1-0.6,2.1-1.4,3-2.4c0,0,1.5-1,2.2-1.3s1-1.6,1-1.6C78.8,226.1,66.6,227.5,66.6,227.5z M52.8,213.8v-0.5
		C52.9,213.4,52.9,213.6,52.8,213.8L52.8,213.8z M52.8,217.6c0.1,0.2,0.3,0.3,0.3,0.4c0.3,0.4-0.3,0.7-0.2,1.4c0,0.2,0,0.4,0,0.7
		l0,0C52.9,219,52.9,218.1,52.8,217.6L52.8,217.6z"/>
	<path style="fill:#65617D;" d="M25.2,234.5c-1.5-0.3-2.9-0.8-4.4-1.3c-1.4-0.6-9.1-1.9-10.8,1.8s2.3,8.5,3.3,9.1s10.8-6.7,10.8-6.7
		l7.7,3.3l1.5-5.1L25.2,234.5z"/>
	<path style="fill:#65617D;" d="M34.3,235.5h22c3.2,0,5.9,2.6,5.9,5.9l0,0c0,3.2-2.6,5.9-5.9,5.9h-22c-3.2,0-5.9-2.6-5.9-5.9l0,0
		C28.5,238.1,31.1,235.5,34.3,235.5z"/>
	<path style="opacity:0.1;enable-background:new    ;" d="M62.2,241.4c0,3.2-2.6,5.9-5.9,5.9c0,0,0,0,0,0h-22
		c-3.2,0-5.9-2.6-5.9-5.9c0-3.2,2.6-5.9,5.9-5.9c0,0,0,0,0,0h22C59.6,235.5,62.2,238.1,62.2,241.4L62.2,241.4L62.2,241.4z"/>
	<path style="fill:#FBBEBE;" d="M43.8,241.7c-2,0.5-4.1,0.8-6.1,0.8c-2.8,0-15.7,5.3-15.7,5.3s-1.9,4.2,1.2,3.9s4.5-1.8,6.6-1.8
		s8.9-0.7,8.9-0.7l6.5-4.8L43.8,241.7z"/>
	<path style="fill:#FBBEBE;" d="M46,201.8l-6.1,1.2l-0.4,0.1c0,0-4.8-1.3-5-1.4s-4.5-6-4.5-6c1.4,0,2.7-0.3,3.9-1
		c0.1,0,0.1-0.1,0.2-0.1c0.8-0.5,1.3-1.2,1.6-2c0-0.1,0.1-0.2,0.1-0.3c0.2-0.9,0.2-1.8-0.1-2.6c-0.6-2.5,0.8-3.2,2.6-3.1
		c2.1,0.2,4.2,0.8,6.2,1.7c0,0.8,0.2,1.6,0.6,2.4c0,0.1,0.1,0.1,0.1,0.2c0.6,1.5,1.8,2.7,3.2,3.4l0.2,0.1c0.2,0.1,0.4,0.2,0.6,0.3
		C53.9,196.5,46,201.8,46,201.8z"/>
	<path style="opacity:0.1;enable-background:new    ;" d="M45.2,191c-2.4,2.7-6.3,3.4-9.4,1.6c0.3-0.9,0.3-1.9,0-2.9
		c-1.4-6,8.8-1.4,8.8-1.4C44.6,189.3,44.8,190.2,45.2,191z"/>
	<path style="fill:#FBBEBE;" d="M47.1,185.6c0,4-3.1,7.4-7.2,7.6h-0.5c-4.2,0-7.6-3.4-7.6-7.6c0-4.2,3.4-7.6,7.6-7.6
		S47.1,181.4,47.1,185.6C47.1,185.6,47.1,185.6,47.1,185.6z"/>
	<path style="opacity:0.1;enable-background:new    ;" d="M46,201.8l-6.1,1.2l-0.4,0.1c0,0-4.8-1.3-5-1.4s-4.5-6-4.5-6
		c1.4,0,2.7-0.3,3.9-1c0.1,0,0.1-0.1,0.2-0.1c1.3,1.4,3.2,2.3,5.2,2.3c0.4,0,0.7,0,1.1-0.1c0.9-0.1,1.7-0.2,2.6-0.3
		c1.6-0.2,4.2-0.7,5.5-2.1l0.2,0.1c0.2,0.1,0.4,0.2,0.6,0.3C53.9,196.5,46,201.8,46,201.8z"/>
	<path style="fill:#2CAECC;" d="M52.8,217.3c0.1,1.2,0.9,14.3,0.9,14.3H27.2l0.2-8.3l0.1-6.6l0-2.2l0.2-7.5l-0.8-0.7l-4.2-3.7l0,0
		c0-0.1,1.2-3.5,1-3.9s2-2.4,2.8-2.5c0.4-0.1,0.8-0.2,1.2-0.4c1-0.4,2-0.8,3.1-1c1,0,2,0,3-0.1l0,0c1.3,1.6,3.3,2.5,5.4,2.5
		c0.4,0,0.7,0,1.1-0.1c0.9-0.1,1.7-0.2,2.6-0.3c1.7-0.2,4.4-0.7,5.7-2.3c0.6,0.1,1.2,0.2,1.8,0.4c0.8,0.2,1.7,0.3,2.6,0.4
		c0.7,0.2,1.4,0.4,2,0.7c0.6,0.3,1.3,0.5,1.9,0.7c0,0,1.2,0.3,1.5,3.4s0.6,4.8,0.6,4.8l-6.3,5.5C52.8,210.4,52.7,216.1,52.8,217.3z"
		/>
	<path style="fill:#FBBEBE;" d="M22.9,226.4l0.9,1.5l3.5,1.2l2.4-4.4l-2.2-1.5l-3.5-1.4l-2,1.2L22.9,226.4z"/>
	<path style="fill:#65617D;" d="M52.5,233.8c0,0,4.9-0.4,6.9-2.7s7.1-3.5,7.1-3.5s12.3-1.4,7.4,9.4c-0.2,0.6-0.5,1.2-1,1.6
		c-0.6,0.4-2.2,1.3-2.2,1.3l-18.8-1.6L52.5,233.8z"/>
	<path style="opacity:0.1;enable-background:new    ;" d="M62.2,241.4c0,1.2-0.3,2.3-1,3.3c-3.2,0.3-10.2,0.9-11.6,1.3
		c-1.8,0.5-5.5-0.4-5.9-0.5h0c0,0-0.7-2.1-1-3.5c-0.2-0.6-0.2-1.1-0.1-1.1c0.3-0.1,3.3-0.9,3.2-0.5s8.8-3.4,8.8-3.4l0.3,3.4
		C55.6,241.4,62.2,239.9,62.2,241.4z"/>
	<path style="fill:#65617D;" d="M71.3,238.5l-0.4,1.4c-0.8,0.9-1.9,1.7-3,2.3c-1.7,0.9-4.8,2.4-4.8,2.4s-11.3,1-13.2,1.5
		s-5.9-0.5-5.9-0.5s-1.5-4.5-1.2-4.6s3.2-0.9,3.2-0.4s8.8-3.4,8.8-3.4L71.3,238.5z"/>
	<path style="fill:#FBBEBE;" d="M39.8,250.4c0,0,5.6,0.4,6.9,0.9s10.8-0.2,10.8-0.2s6.1,0.1,7.8,0.7s1.1-5.3-2.1-6s-7.8,0.3-7.8,0.3
		l-5.7-0.8c-0.6-0.1-4.7,0-4.7,0L39.8,250.4z"/>
	<path style="opacity:0.1;enable-background:new    ;" d="M18,235.8c0,0,7.3,0.7,9.4,1.9L18,235.8z"/>
	<path style="opacity:0.1;enable-background:new    ;" d="M63.8,231c0,0-5.7,1.4-8,3.5L63.8,231z"/>
	<path style="opacity:0.1;enable-background:new    ;" d="M18.4,234.1c0.1,0,3.4,0.5,3.3,0.8S18.4,234.1,18.4,234.1z"/>
	<path style="opacity:0.1;enable-background:new    ;" d="M13.3,242.3l0.4,1.6c0.4,0.3,0.8,0.7,1.2,1.1c0.2,0.4,1.4,0.5,1.4,0.5
		c0.6,0.2,1.1,0.5,1.6,0.9c2.2,0.9,4.6,1.5,7,1.7c3.2,0.4,9.2,1.2,10.5,1.6c0.9,0.3,1.8,0.5,2.8,0.6c0,0,2.4,1.3,3.7,1
		s3.4-6.1,3.4-6.1s-8.4-2-8.6-2.6s-8.3-3.6-8.3-3.6l-4.8,0.1L13.3,242.3z"/>
	<path style="fill:#65617D;" d="M13,242.5l0.4,1.6c0.4,0.3,0.8,0.7,1.2,1.1c0.2,0.4,1.4,0.5,1.4,0.5c0.6,0.2,1.1,0.5,1.6,0.9
		c2.2,0.9,4.6,1.5,7,1.7c3.2,0.4,9.2,1.2,10.5,1.6c0.9,0.3,1.8,0.5,2.8,0.6c0,0,2.4,1.3,3.7,1s3.4-6.1,3.4-6.1s-8.4-2-8.6-2.6
		s-12.1-5.5-12.1-5.5l-3.7-0.8L13,242.5z"/>
	<path style="fill:#2CAECC;" d="M23.8,202.1l-0.9,0.5l-1.8,12.2c0,0-0.9,0.9-0.7,1.5c0.2,0.5,0.1,1.1-0.1,1.6c0,0-1.6,0.7-1.2,1.1
		c0.3,0.6,0.3,1.2-0.1,1.8c-0.2,0.5-0.7,1.5,0,1.6s0.1,2.2,0.1,2.2s2.2-0.3,2.1,1.1c-0.1,0.5,2.5,2.2,2.5,2.2s-3-5.4,3.7-4.6l0.6-3
		c0,0,0.6-1.7,0-2.2s0.1-3,0.1-3l0.1-11L23.8,202.1z"/>
	<path style="opacity:0.1;enable-background:new    ;" d="M22.4,217.8c0.1,0.2,3.7,0.6,3.9,1.2S22.4,217.8,22.4,217.8z"/>
	<path style="opacity:0.1;enable-background:new    ;" d="M21.2,220.9c0,0,0.5-1.5,1.6-1.2S21.2,220.9,21.2,220.9z"/>
	<path style="opacity:0.1;enable-background:new    ;" d="M20.6,223.1c0,0,0.9-2,2-1.9S20.6,223.1,20.6,223.1z"/>
	<path style="fill:#FBBEBE;" d="M59.5,223l-0.4,2.2c0,0-3.8,7-4.5,7.1s-4.5-4.7-4.5-4.7l-1-4.7l4-0.8l1.8-1.7
		C54.9,220.5,59.3,221,59.5,223z"/>
	<path style="fill:#2CAECC;" d="M57.7,203.9l1.4,1v5.4c0,0,1.1-0.1,0.8,0.5s-0.8,0.9-0.3,1.4s0.4,1.5-0.1,1.6s-1.2,0.5-0.5,0.8
		s1.1,0.7,1.1,1.1c0.1,0.4,0,0.8-0.2,1.2c-0.3,0.4-0.5,1.2-0.2,1.5s-0.3,2-0.3,2s1,2.6,0.1,3.3c0,0-0.4,1.5-0.5,1.6c0,0,0.7-5.2-6-3
		l-0.2-2.7c0-0.7,0.6-0.9,0.2-1.4s-1.2-1.4-0.8-1.7s0.3-0.7,0.1-1.1s-0.7-0.4-0.2-0.8s0.8-0.9,0.5-1.1s-0.8-0.9-0.4-1.2
		s0.4-4.9,0.4-4.9S54.5,200.6,57.7,203.9z"/>
	<path style="opacity:0.1;enable-background:new    ;" d="M57,213c0,0,2-0.6,2.1,0S57,213,57,213z"/>
	<path style="opacity:0.1;enable-background:new    ;" d="M54.7,214.5c0,0,2.8-0.7,3.1-0.2S54.7,214.5,54.7,214.5z"/>
	<path style="opacity:0.1;enable-background:new    ;" d="M54.1,216c0,0,4.2-0.6,4.5,0.3S54.1,216,54.1,216z"/>
	<path style="opacity:0.1;enable-background:new    ;" d="M54.7,217.8c0.2,0,4,0.3,4.1,1S54.7,217.8,54.7,217.8z"/>
	<path style="fill:#3F3D56;" d="M33,220.2h14.4c5.2,0,9.4,4.2,9.4,9.4l0,0c0,5.2-4.2,9.4-9.4,9.4H33c-5.2,0-9.4-4.2-9.4-9.4l0,0
		C23.5,224.5,27.7,220.2,33,220.2z"/>
	<ellipse style="fill:#E7EFFD;" cx="40.1" cy="229.7" rx="1.2" ry="1.2"/>
	<path style="opacity:0.1;enable-background:new    ;" d="M29.1,208.7c0,0,3.2,2.4,5.6,0.6C34.7,209.2,30.6,209.6,29.1,208.7z"/>
	<path style="opacity:0.1;enable-background:new    ;" d="M45.2,209.3c0,0,3.2,2.4,5.7,0.6C50.9,209.9,46.7,210.3,45.2,209.3z"/>
	<path style="opacity:0.1;enable-background:new    ;" d="M47.1,185.6c0,1.4-0.4,2.8-1.2,4c0-2.1-0.6-4.2-1.7-6
		c-1.1-1.6-4.3-4.5-6.5-3.7c-0.5,0.2-0.8,0.6-1,1c-0.2,0.8,0.4,1.2,0.8,1.8c0.7,1.1,1,2.5,0.8,3.8c0,0.2-0.1,0.4-0.1,0.5
		c-0.3,1.3-1.1,2.8-0.3,3.9c0.6,0.7,1.8,1,2,1.9c0,0.1,0,0.2,0,0.3c0,0.6-0.6,1.2-0.8,1.8c-0.2,0.7-0.2,1.5,0.2,2.2
		c0.5,0.9,0.8,1.9,1.1,2.9c0.1,1-0.1,2-0.5,2.9c-0.4,0.9-0.7,1.8-0.9,2.7c-0.3,1.8,0.4,3.8-0.7,5.2c-0.1,0.2-0.3,0.3-0.5,0.3
		c-0.7,0.1-0.6-1.2-1.2-1.6c0.1,0.7,0.1,1.5-0.2,2.2c-0.2,0.7-0.9,1.2-1.7,1.2c-0.1-0.6-0.2-1.1-0.2-1.7c-0.5,0.5-1.1,0.9-1.8,1.1
		c0.3-1.8,0.9-3.5,1.8-5c-1.9,0.9-3,2.8-3.9,4.7c-0.7,1.1-1.1,2.4-1,3.7c0.1,0.5,0.3,1,0.4,1.5c0.1,0.5-0.2,1.1-0.6,1.3
		c-0.4,0.1-0.9,0-1.2-0.4l-0.1-0.1l-0.1-0.1c-0.1-0.1-0.1-0.2-0.1-0.3c-0.1-0.3-0.2-0.6-0.3-1l0-0.1c-0.6-2.1-0.8-4.4-0.6-6.6
		c0.2-0.8,0.3-1.6,0.3-2.4c0-0.5-0.1-0.9-0.3-1.4c-0.4-1.2-1.3-2.3-1.7-3.5c0,0,0,0,0,0c-0.3-0.6-0.3-1.4,0.1-2
		c0.3-0.2,0.6-0.4,0.9-0.6c0.9-0.7,1.4-1.7,1.5-2.8c0.1-0.5,0.1-1,0.1-1.5c1-0.4,2-0.8,3.1-1c1,0,2,0,3-0.1c0.8-0.5,1.5-1.2,1.8-2.1
		c0-0.1,0.1-0.2,0.1-0.3c-3.7-2-5.1-6.7-3.1-10.4c2-3.7,6.7-5.1,10.4-3.1C45.6,180.3,47.1,182.8,47.1,185.6L47.1,185.6z"/>
	<path style="fill:#3F3D56;" d="M38.3,186.8c-0.3,1.3-1.1,2.8-0.3,3.9c0.6,0.7,1.8,1,2,1.9c0.1,0.7-0.5,1.4-0.8,2.1
		c-0.6,1.7,1,3.3,1.3,5.1c0.3,1.9-1.1,3.7-1.4,5.6c-0.3,1.8,0.4,3.8-0.7,5.2c-0.1,0.2-0.3,0.3-0.5,0.3c-0.7,0.1-0.6-1.2-1.2-1.6
		c0.1,0.7,0.1,1.5-0.2,2.2c-0.2,0.7-0.9,1.2-1.7,1.2l-0.2-1.7c-0.5,0.5-1.1,0.9-1.8,1.1c0.3-1.8,0.9-3.5,1.8-5
		c-1.9,0.9-3,2.8-3.9,4.7c-0.7,1.1-1.1,2.4-1,3.7c0.1,0.5,0.3,1,0.4,1.5c0.1,0.5-0.2,1.1-0.6,1.3c-0.5,0.2-1,0-1.3-0.4
		c-0.3-0.4-0.5-0.9-0.5-1.3c-0.6-2.2-0.8-4.5-0.6-6.7c0.2-0.8,0.3-1.6,0.3-2.4c-0.1-1.8-1.4-3.3-2-4.9c-0.3-0.6-0.3-1.4,0.1-2
		c0.3-0.2,0.6-0.4,0.9-0.6c0.9-0.7,1.4-1.7,1.5-2.8c0.2-1.2,0.1-2.4-0.1-3.5c-0.4-1.7-1.2-3.4-1-5.2s1.4-3.2,2.2-4.7
		c1-2,1.4-4.3,1.1-6.6c-0.1-1-0.4-2.3,0.3-3c0.9-0.9,2.5-0.6,3.5-1.4c0.4-0.5,0.8-1,1.1-1.5c0.9-1.2,2.5-1.8,4-1.4
		c0.7,0.2,1.3,0.6,1.9,0.8c1,0.2,1.9,0.3,2.9,0.4c1,0,1.9,0.5,2.6,1.2c0.3,0.4,0.4,1,0.7,1.4c0.6,1,1.7,1.4,2.5,2.1
		c1.5,1.3,2,3.4,1.4,5.3c-0.5,1.4-1.7,2.7-1.6,4.1c0.1,0.6,0.2,1.2,0.2,1.8c-0.2,1.7-2.7,2-3.5,3.5c0.1-2.4-0.5-4.9-1.7-7
		c-1.1-1.6-4.3-4.5-6.5-3.7c-0.5,0.2-0.8,0.6-1,1c-0.2,0.8,0.4,1.2,0.8,1.8C38.4,183.8,38.7,185.4,38.3,186.8L38.3,186.8z"/>
	<g transform="translate(25.077 175.2)" style="opacity:0.2;">
		<path d="M2.8,20c0-0.8-0.1-1.5-0.2-2.3c-0.5-1.4-0.8-2.9-1-4.4c-0.1,1.7,0.7,3.3,1,4.9C2.7,18.8,2.8,19.4,2.8,20L2.8,20z"/>
		<path d="M9.1,32.1c0.1-0.2,0.3-0.5,0.4-0.7c-1.9,0.9-3,2.8-3.9,4.7c-0.7,1-1,2.2-1.1,3.4c0.2-1,0.5-2,1.1-2.9
			C6.5,34.9,7.5,33.1,9.1,32.1z"/>
		<path d="M4.9,41.7c0,0.4-0.3,0.8-0.6,0.9c-0.5,0.2-1,0-1.3-0.4c-0.3-0.4-0.4-0.9-0.5-1.3c-0.4-1.6-0.7-3.2-0.7-4.8
			c0,1.8,0.3,3.6,0.7,5.3c0.1,0.5,0.3,0.9,0.5,1.3c0.3,0.4,0.8,0.6,1.3,0.4C4.8,42.8,5,42.3,4.9,41.7L4.9,41.7z"/>
		<path d="M13.4,10.1c0,0.4-0.1,0.8-0.2,1.1c-0.4,0.9-0.6,1.9-0.7,3c0.2-0.8,0.4-1.7,0.7-2.5C13.4,11.1,13.4,10.6,13.4,10.1z"/>
		<path d="M5,3c0-0.6,0-1.1-0.1-1.7C4.9,0.9,4.8,0.4,4.8,0c0,0.6,0,1.2,0.1,1.8C5,2.2,5,2.6,5,3z"/>
		<path d="M14.9,17.5L14.9,17.5c-0.2,0.5-0.5,1.1-0.8,1.6c-0.1,0.3-0.2,0.7-0.1,1c0-0.2,0.1-0.4,0.1-0.6
			C14.3,18.8,15,18.2,14.9,17.5z"/>
		<path d="M2.2,31.7c-0.1-1.8-1.4-3.3-2-4.9C0.1,26.5,0,26.2,0,25.9c0,0.4,0,0.9,0.2,1.3c0.7,1.6,1.9,3.1,2,4.8
			C2.2,31.9,2.2,31.8,2.2,31.7z"/>
		<path d="M19.2,7.6C18.1,6,14.9,3.2,12.7,4c-0.5,0.2-0.8,0.6-1,1c-0.1,0.2-0.1,0.4,0,0.6c0,0,0-0.1,0-0.1c0.1-0.5,0.5-0.9,1-1
			c2.2-0.8,5.4,2.1,6.5,3.7c1.2,1.9,1.7,4.1,1.7,6.3C21,12,20.4,9.7,19.2,7.6z"/>
		<path d="M24.4,11.1c-0.2,1.7-2.7,2-3.5,3.5v0.5c0.8-1.5,3.3-1.8,3.5-3.5C24.5,11.4,24.5,11.2,24.4,11.1
			C24.4,11.1,24.4,11.1,24.4,11.1z"/>
		<path d="M25.8,5.1c-0.5,1.4-1.7,2.6-1.6,4.1v0.1c0.1-1.3,1.1-2.5,1.6-3.7C26,5,26.1,4.4,26,3.8C26,4.3,25.9,4.7,25.8,5.1z"/>
		<path d="M13.2,34.9c-0.1,0.2-0.3,0.3-0.5,0.3c-0.7,0.1-0.6-1.2-1.2-1.6c0,0.2,0,0.3,0,0.5c0.5,0.5,0.4,1.7,1.1,1.6
			c0.2,0,0.4-0.2,0.5-0.3c0.6-0.8,0.8-1.8,0.7-2.8C13.9,33.4,13.7,34.2,13.2,34.9z"/>
		<path d="M11.4,35.8c-0.2,0.7-0.9,1.2-1.7,1.2l-0.3-1.7c-0.5,0.5-1.1,0.8-1.7,1.1c0,0.2-0.1,0.3-0.1,0.5c0.7-0.2,1.3-0.6,1.8-1.1
			l0.3,1.7c0.8,0,1.5-0.4,1.7-1.2c0.2-0.5,0.2-1,0.2-1.5C11.6,35.1,11.5,35.5,11.4,35.8L11.4,35.8z"/>
		<path d="M13.9,29.7c-0.1,0.4-0.1,0.9-0.1,1.3c0-0.3,0-0.6,0.1-0.9c0.3-1.8,1.5-3.5,1.4-5.3C15.3,26.5,14.2,28,13.9,29.7z"/>
	</g>
	<path style="fill:#FFFFFF;" d="M240.3,67v31.9c-0.2,1.8-1.8,3.2-3.6,3.1h-76.9c-1.8,0.1-3.5-1.2-3.6-3.1V67
		c0.1-1.9,1.7-3.4,3.6-3.4h76.9C238.6,63.6,240.2,65,240.3,67z"/>
	<path style="opacity:0.2;fill:#2CAECC;enable-background:new    ;" d="M240.3,67.2v8.9h-84.1v-8.9c0-2,1.6-3.6,3.6-3.6h76.9
		C238.7,63.6,240.3,65.2,240.3,67.2L240.3,67.2z"/>
	<ellipse style="fill:#FFFFFF;" cx="160.8" cy="69.8" rx="2.4" ry="2.4"/>
	<ellipse style="fill:#FFFFFF;" cx="167.8" cy="69.8" rx="2.4" ry="2.4"/>
	<ellipse style="fill:#FFFFFF;" cx="174.9" cy="69.8" rx="2.4" ry="2.4"/>
	<ellipse style="fill:#2CAECC;" cx="223.7" cy="88.8" rx="9.5" ry="9.5"/>
	<rect x="163.4" y="82.4" style="fill:#2CAECC;" width="40" height="1.4"/>
	<rect x="163.4" y="85.9" style="opacity:0.2;fill:#2CAECC;enable-background:new    ;" width="40" height="1.4"/>
	<rect x="163.4" y="89.3" style="opacity:0.2;fill:#2CAECC;enable-background:new    ;" width="40" height="1.4"/>
	<rect x="163.4" y="92.8" style="opacity:0.2;fill:#2CAECC;enable-background:new    ;" width="40" height="1.4"/>
	
		<linearGradient id="SVGID_2_" gradientUnits="userSpaceOnUse" x1="-447.5328" y1="523.2593" x2="-447.5328" y2="524.2593" gradientTransform="matrix(91.0149 0 0 -98.1778 40862.6289 51504.7539)">
		<stop  offset="0" style="stop-color:#808080;stop-opacity:0.251"/>
		<stop  offset="0.54" style="stop-color:#808080;stop-opacity:0.122"/>
		<stop  offset="1" style="stop-color:#808080;stop-opacity:0.102"/>
	</linearGradient>
	<path style="fill:url(#SVGID_2_);" d="M85.8,131.4c2.2,1.5,5.6,0.8,5.6,0.8s5.1-2.4,6.6-2.4s5.2-1.5,5.2-1.5l-0.1-1l-0.4-3
		c2.3,1.8,4.9,1.2,6.2,1.1c1.4-0.1,8.7-4.5,9.4-4.8c0.3-0.2,0.5-0.4,0.6-0.6l0,0c0.5-0.7,0.9-1.5,1.2-2.3l0,0
		c0.5-0.4,0.8-0.7,0.8-0.8c0.1-0.4,0.3-0.8,0.5-1.2c0.8-0.1,1.5-0.4,2.2-0.8c0.5-0.4,0.7-1,0.7-1.6c0,0,7.2-7.2,6.2-10.2
		s2.3-3.1,2.3-3.1s5-2.1,5.7-3.4c0.4-0.8,4.2-2.5,7-3.7l0.3-0.1c1.1,2.4,6.6,0.6,7.7-0.5c1.2-1.1,4.6-1.6,4.6-1.6s0.1-14,1.2-15.8
		c0.5-0.8,0.6-3.6,0.6-6.3v-0.3c1.5-0.3,5.1-1,6.8-1.1c1.1-0.2,2.2-0.7,3-1.4l0.1,0.1c0.3,0.1,0.6,0.2,0.9,0.2c0.3,0,0.6,0,0.8-0.2
		c0.6-0.4,3-1.1,3.9-1.4s-0.1-2.9-0.8-3.4s-1.1-1.1-0.7-1.4s-0.9-1-1.6-1.1c-1-0.3-2-0.7-2.9-1.1c0,0-0.8-1.6-2.1-1.6
		c-1.1-0.2-2.1-0.6-3-1.3c-0.1-0.6-1.4-0.6-1.4-0.6s-5.2-4-6.1-3.5s-3.3-0.8-3.3-0.8s-2.9,0.3-3.6-0.2l0,0c0-0.2-0.1-0.3-0.2-0.5
		c-0.4-0.7-1-1.3-1.6-1.7c0.1-0.3,0.1-0.7,0.1-1c0-0.1,0-0.3,0-0.4c0,0,0-0.1,0-0.1c0-0.3,0.1-0.7,0.1-1c0-0.3,0.1-0.7,0.2-0.9
		c0.1-0.2,0.3-0.3,0.4-0.5c0,0,0.1-0.1,0.1-0.1l0,0c0,0,0-0.1,0.1-0.1c0,0,0,0,0,0c0-0.1,0.1-0.2,0.1-0.3v0c0,0,0-0.1,0-0.1v0
		c0-0.4,0-0.8-0.2-1.2c-0.3-0.6-0.5-1.3-0.6-2c0-0.3,0-0.7,0-1c-0.3-0.8-1-1.4-1.8-1.6c-0.9-0.4-1.7-0.9-2.5-1.6
		c-0.7-0.6-1.9-0.3-2.9-0.2c-2.1,0.2-4.2,0.7-6.1,1.4c-0.8,0.2-1.5,0.6-2.1,1.1c-0.4,0.3-0.7,0.8-0.8,1.3l0,0c0,0.1,0,0.2,0,0.4v0
		c0,0,0,0.1,0,0.1c0,0,0,0,0,0c0,0.1,0,0.1,0,0.2l0,0c0.1,0.3,0.2,0.5,0.3,0.8c0,0.1,0,0.1,0,0.2v0l0,0.2l0,0c0,0.7-0.1,1.3-0.3,2
		c0,0.1,0,0.2,0,0.3l0,0c0,0.4,0,0.8,0.1,1.1l0,0c0,0,0,0.1,0,0.1l0,0.1c0,0,0,0.1,0,0.1c0,0,0,0,0,0.1c0,0,0,0.1,0,0.1s0,0.1,0,0.1
		c0,0,0,0.1,0.1,0.1l0.1,0.1l0.1,0.1l0.1,0.1c0,0,0,0,0.1,0.1l0.1,0.1l0.1,0.1l0.1,0.1l0.1,0.1l0.1,0.1l0.1,0c0.1,0,0.1,0.1,0.2,0.1
		c0.4,0.2,0.9,0.3,1.2,0.6c0.1,0.1,0.1,0.2,0.1,0.3v0.1c0,0.2,0,0.4,0,0.6c0,0.1,0,0.2,0,0.3c0,0.1,0,0.2,0.1,0.2
		c0.3,1.4,1.1,2.7,2.2,3.7c0,0.1,0,0.2,0.1,0.4c-0.6,0.5-1.3,0.9-2.1,1.1c-1.5,0.7-3,1.7-4.2,2.9c0,0-1.2,8.8-1.5,9.9
		c-0.3,1.7-0.4,3.5-0.5,5.2c-0.1,0.9-0.4,1.7-0.7,2.6c-0.3,1.6-0.1,3.3,0.6,4.8c-0.1,0.3-0.3,0.6-0.5,0.9c-1.7,2-6.9,1.9-8.7,1.9
		c-0.9-0.1-1.7,0.3-2.2,1.1c-3.2,0.9-13.5,3.8-14.7,4.4c-1.4,0.6-2.2,6.9-2.2,6.9s-3,10.4-2.9,11.7s-1,5.1-1,5.1s0,4.3-0.5,4.6h0
		c-0.5,0.2-0.4,2.3-0.4,2.3s0.4,0.1,1,0.3c-0.3,1.2-0.6,2.4-1.2,3.6c-0.2-0.3-0.4-0.4-0.6-0.1c-0.4,0.9-5.8,7.3-7.2,7.3
		c-0.9,0.1-1.8,0.6-2.4,1.3C84.9,129.6,84.6,130.6,85.8,131.4z M110.6,94.1c4.2,0.3,8.5,0.2,12.7-0.4c-0.2,0.9-0.6,1.7-0.9,2.5
		c-0.8,1.8-1.3,3.7-1.7,5.6c0,0.9-2,8.2-2.5,8.6c-0.3,0.2-0.5,0.6-0.6,0.9c-0.2,0.4-0.3,0.7-0.4,1.1c0,0.2,0,0.4,0,0.5
		c-0.4,0.4-0.9,0.8-1.3,1.2l0,0c-1.2,0.7-2.3,1.4-3.4,2.2c-0.9,0.8-4.9,1.7-4.9,1.7c-1,0.4-2,0.9-2.9,1.5c-1.3,0.8-2.5,1.7-2.8,2.7
		c0.1-1.6,0.4-3.5,0.5-4.7h0.2c2-0.1,1.7-2.1,1.6-2.5c0,0,0-0.1,0-0.1c1.4-1.6,4.7-13.3,4.3-14.6c-0.3-0.8-0.1-1.8,0.5-2.4
		c0.3-0.7,0.3-1.5,0-2.2C108.7,94.9,110.6,94.1,110.6,94.1z M160.3,62.6l-0.4,0.1v-0.1C160,62.6,160.2,62.6,160.3,62.6L160.3,62.6z
		 M139.3,51.8c-0.1,0.1-0.1,0.1-0.2,0.2l-0.1,0.1v-0.4L139.3,51.8z M132,65.7l0,0.4c0,0,0,0.2-0.1,0.6L132,65.7z M165.3,61.7
		l-1.3,0.2c0.2-0.1,0.4-0.1,0.5-0.2c0.1-0.1,0.3-0.1,0.4-0.1c0.2,0,0.3,0,0.5,0.1C165.3,61.7,165.3,61.7,165.3,61.7L165.3,61.7z"/>
	<path style="fill:#BE6F72;" d="M122.6,113.3c-0.5,1-1,2.1-1.4,3.2c-1,1-2,1.9-3.1,2.8l-3.5-2.5l0.4-1.7c0,0,3.9-3.5,4.2-3.9
		S122.6,113.3,122.6,113.3z"/>
	<path style="fill:#3F3D56;" d="M102.8,123.5c2.4,2.3,5.3,1.6,6.6,1.5s8.5-4.5,9.2-4.8c0.3-0.2,0.5-0.4,0.6-0.6l0,0
		c0.5-0.7,0.9-1.5,1.2-2.2c0,0-2.4,0.7-3,0c0,0-1-1.2-1.2-1.2s0-2.1,0-2.1c-1.2,0.7-2.3,1.4-3.4,2.2c-0.9,0.8-4.8,1.7-4.8,1.7
		c-1,0.4-1.9,0.9-2.9,1.5C103.3,120.5,101.4,122.1,102.8,123.5z"/>
	<path style="opacity:0.1;enable-background:new    ;" d="M102.8,123.5c2.4,2.3,5.3,1.6,6.6,1.5s8.5-4.5,9.2-4.8
		c0.3-0.2,0.5-0.4,0.6-0.6c-0.8-0.5-6.3,3-7.9,3.6s-5.4,0.3-7.6-0.6c-1.1-0.5,0-1.9,1.4-3.2C103.3,120.5,101.4,122.1,102.8,123.5z"
		/>
	<path style="fill:#BE6F72;" d="M103.1,116.1c0,0-1,7.6-0.8,8.6s-6.3-3.4-6.3-3.4s2.3-4.8,1.6-5.9S103.1,116.1,103.1,116.1z"/>
	<path style="fill:#3F3D56;" d="M96.8,116.2c2.1,0.6,4.2,1,6.4,1.1c2-0.1,1.7-2,1.6-2.5c0,0,0-0.1,0-0.1c1.4-1.6,4.6-13.2,4.2-14.5
		c-0.3-0.8-0.1-1.8,0.5-2.4c0.3-0.7,0.3-1.5,0-2.2c-0.4-0.8,1.6-1.5,1.6-1.5c4.2,0.3,8.3,0.2,12.5-0.4c-0.2,0.9-0.5,1.7-0.9,2.5
		c-0.8,1.8-1.3,3.7-1.6,5.6c0,0.9-1.9,8.2-2.5,8.5c-0.3,0.2-0.5,0.6-0.6,0.9c-0.1,0.4-0.3,0.7-0.4,1.1c0.2,4.8,5.6,2.9,6.4,2.3
		c0.1-0.1,0.2-0.2,0.3-0.3c0.3-0.4,0.4-0.8,0.4-1.3c0,0,7-7.2,6.1-10.1s2.3-3,2.3-3s4.9-2.1,5.6-3.4c0.4-0.8,4.1-2.5,6.9-3.7
		c1.7-0.8,3.1-1.3,3.1-1.3l-1.2-4.1l-0.9-3.3l-1.7-0.6l-5.5-2.1l-9.8-1.3l-0.9,0.1l-9.5,1.2c0,0-13.9,4-15.3,4.6s-2.2,6.8-2.2,6.8
		s-3,10.3-2.8,11.6s-1,5.1-1,5.1s0,4.2-0.5,4.5h0C96.7,114.2,96.8,116.2,96.8,116.2z"/>
	<path style="opacity:0.1;enable-background:new    ;" d="M111,94.1c4.2,0.3,8.3,0.2,12.5-0.4c0.4-1.3,6.4-5,6.4-5
		C125,87.4,111,94.1,111,94.1z"/>
	<path style="fill:#444053;" d="M117.5,112.2c0.2,4.8,5.6,2.9,6.4,2.3c0.1-0.1,0.2-0.2,0.3-0.3c-1.9,0.7-5.2,1.2-6.3-3
		C117.7,111.5,117.6,111.9,117.5,112.2L117.5,112.2z"/>
	<path style="fill:#444053;" d="M96.8,116.2c2.1,0.6,4.2,1,6.4,1.1c2-0.1,1.7-2,1.6-2.5c-2.5,0-5.1-0.3-7.5-0.8h0
		C96.7,114.2,96.8,116.2,96.8,116.2z"/>
	<path style="opacity:0.1;enable-background:new    ;" d="M117.5,112.2c0.2,4.8,5.6,2.9,6.4,2.3c0.1-0.1,0.2-0.2,0.3-0.3
		c-1.9,0.7-5.2,1.2-6.3-3C117.7,111.5,117.6,111.9,117.5,112.2L117.5,112.2z"/>
	<path style="opacity:0.1;enable-background:new    ;" d="M96.8,116.2c2.1,0.6,4.2,1,6.4,1.1c2-0.1,1.7-2,1.6-2.5
		c-2.5,0-5.1-0.3-7.5-0.8h0C96.7,114.2,96.8,116.2,96.8,116.2z"/>
	<path style="fill:#3F3D56;" d="M86.6,131c2.2,1.5,5.5,0.8,5.5,0.8s5-2.4,6.5-2.4s5.1-1.5,5.1-1.5l-0.1-1l-0.6-4.8
		c0,0-5.5-0.1-5.7-0.6c0,0-1-2.4-1.3-1.5s-5.7,7.3-7,7.3c-0.9,0.1-1.8,0.6-2.4,1.2C85.8,129.3,85.5,130.3,86.6,131z"/>
	<path style="opacity:0.1;enable-background:new    ;" d="M105.7,89.1c0,0,4.6,2.9,3.3,3.5S105.7,89.1,105.7,89.1z"/>
	<path style="opacity:0.1;enable-background:new    ;" d="M103.8,94.7c0,0,4,3.8,2.5,3.9S103.8,94.7,103.8,94.7z"/>
	<path style="opacity:0.1;enable-background:new    ;" d="M99.5,106.7c0,0,2,3.8,1.3,4.4S99.5,106.7,99.5,106.7z"/>
	<path style="opacity:0.1;enable-background:new    ;" d="M121.7,110.6c-0.7,0.7,6.7-2.3,5-2.5S121.7,110.6,121.7,110.6z"/>
	<path style="fill:#BE6F72;" d="M136.6,57.4l0.2,0c0.9-0.1,4.1-0.6,6.9-1.3c0.7-0.2,1.4-0.3,2-0.5c2.2-0.6,3.7-1.2,2.7-1.7
		c-1.1-0.7-1.9-1.7-2.2-3c0-0.1-0.1-0.2-0.1-0.3c-0.2-0.5-0.3-1.1-0.3-1.6c0,0-8-2.8-6.5,0c0.6,1.1,0.4,2.5-0.5,3.3
		c-0.5,0.5-1.1,1-1.7,1.3L136.6,57.4z"/>
	<path style="opacity:0.1;enable-background:new    ;" d="M145.2,55.2c-1.7,1.2-3.9,1.3-5.8,0.4c-2.9-1.7-6.7,15-6.7,15l-4,9.8
		c0,0-2.6,2.1,0.6,3s10.3-0.9,12.1,1.8c1.3,1.8,3.3,2.9,5.5,3.1c0.3,0,1.7-10.1,1.7-10.1l0.4-14.7L145.2,55.2z"/>
	<path style="fill:#F3F5F9;" d="M129.4,82.8c3.2,0.9,10.3-0.9,12.1,1.8c0.8,1.1,1.8,1.9,3,2.5c0.8,0.4,1.6,0.6,2.5,0.6
		c0,0,0.1-0.2,0.2-0.5c0.5-2.1,1.5-9.6,1.5-9.6l0.4-14.7l-3.4-7.3l-0.5-1c-0.5,0.3-0.9,0.5-1.5,0.7c-1.4,0.5-3,0.4-4.3-0.4
		c-0.9-0.5-1.8,0.6-2.7,2.4c-2.2,4.3-4.1,12.7-4.1,12.7l-4,9.8c-0.1,0.1-0.2,0.2-0.3,0.3C128,80.6,126.9,82.1,129.4,82.8z"/>
	<path style="opacity:0.1;enable-background:new    ;" d="M144.7,83.3c-0.2,1.2-0.2,2.5-0.1,3.7c0.1,1.8,0.3,3.5,0.6,5.3
		c0,0.1,0,0.2,0.1,0.3c1.7-0.8,3.1-1.3,3.1-1.3l-1.2-4.1c0.5-2.1,1.5-9.6,1.5-9.6l0.4-14.7l-3.4-7.3c2.2-0.6,3.7-1.2,2.7-1.7
		c-1.2-0.7-2-1.9-2.3-3.3c-0.6,0.8-1.3,1.5-2,2.2l0,0l-0.3,2.5l-0.1,0.8l-0.2,1.6c0,0,0.8,18.7,1.3,19.7s0.3,3.1-0.2,5.5
		C144.8,83,144.7,83.2,144.7,83.3z"/>
	<path style="fill:#67647E;" d="M145.1,82.6c-0.5,2.4-0.1,6.4,0.5,9.4s6.6,1.1,7.7,0s4.5-1.6,4.5-1.6s0.1-13.9,1.2-15.7
		c0.5-0.8,0.6-3.6,0.6-6.2c0-2.4-0.1-4.7-0.2-5.5v-0.3c0,0,4.6-7.8,4.6-8.4s-1.4-0.6-1.4-0.6s-5.1-4-6-3.5s-3.2-0.8-3.2-0.8
		s-3,0.3-3.6-0.2c-0.1-0.1-0.1-0.2-0.1-0.3c0.1-0.9-3-2.8-3.1-2.9c2.6,2.3-1.6,6-2.1,6.4l0,0l-0.5,4.8c0,0,0.8,18.7,1.3,19.7
		S145.6,80.2,145.1,82.6z"/>
	<ellipse style="fill:#444053;" cx="145.3" cy="62.3" rx="0.4" ry="0.4"/>
	<path style="opacity:0.1;enable-background:new    ;" d="M144.6,52.8l2.2,2.1l3.2-5.3c-0.1-0.1-0.1-0.2-0.1-0.3
		c0.1-0.9-3-2.8-3.1-2.9C149.3,48.8,145.1,52.4,144.6,52.8z"/>
	<ellipse style="opacity:0.1;enable-background:new    ;" cx="146" cy="73.7" rx="0.4" ry="0.4"/>
	<ellipse style="fill:#444053;" cx="146" cy="73.5" rx="0.4" ry="0.4"/>
	<path style="fill:#67647E;" d="M144.5,52.5l2.2,2.1l3.2-5.3c-0.1-0.1-0.1-0.2-0.1-0.3c0.1-0.9-3-2.8-3.1-2.9
		C149.2,48.5,144.9,52.1,144.5,52.5z"/>
	<path style="fill:#3F3D56;" d="M145.5,72.4l-1.5,0c-0.9,0-1.7-0.8-1.7-1.7l0.2-7c0-0.9,0.8-1.7,1.7-1.7l1.5,0
		c0.9,0,1.7,0.8,1.7,1.7l-0.2,7C147.2,71.7,146.4,72.4,145.5,72.4z"/>
	<path style="opacity:0.1;enable-background:new    ;" d="M145.5,72.4l-1.5,0c-0.9,0-1.7-0.8-1.7-1.7l0.2-7c0-0.9,0.8-1.7,1.7-1.7
		l1.5,0c0.9,0,1.7,0.8,1.7,1.7l-0.2,7C147.2,71.7,146.4,72.4,145.5,72.4z"/>
	<path style="fill:#3F3D56;" d="M145.5,72.7l-1.5,0c-0.9,0-1.7-0.8-1.7-1.7l0.2-7c0-0.9,0.8-1.7,1.7-1.7l1.5,0
		c0.9,0,1.7,0.8,1.7,1.7l-0.2,7C147.2,71.9,146.4,72.7,145.5,72.7z"/>
	<ellipse style="fill:#67647E;" cx="145" cy="65.3" rx="0.8" ry="0.8"/>
	<path style="opacity:0.1;enable-background:new    ;" d="M118.3,82c1.8,0.8,13.4-1.3,15.1-1.8s4.2-4.3,3-7.1
		c-0.7-1.8-0.5-3.8,0.4-5.5c0,0,2.6-5.5,3.1-6.5c0.7-1.5,1.4-3.1,1.9-4.7c0-0.1,0-0.2-0.1-0.3c-0.7-0.7-1.4-1.4-2.2-2
		c-0.5,0.2-0.6-1.3-0.5-2.3c0-0.6,0-1.1,0-1.1s-0.2,0.2-0.6,0.6c-0.1,0.1-0.3,0.2-0.5,0.4c-0.7,0.5-1.4,0.9-2.2,1.2
		c-1.7,0.5-4.1,2.8-4.1,2.8l0.7,10.9c0,0-1.6,10.2-3.3,12.2s-6.8,1.9-8.5,1.9C119.5,80.7,118.7,81.2,118.3,82z"/>
	<path style="fill:#67647E;" d="M118.1,81.5c1.8,0.8,13.4-1.3,15.1-1.8s4.2-4.3,3-7.1c-0.7-1.8-0.5-3.8,0.4-5.5c0,0,2.6-5.5,3.1-6.5
		c0.7-1.5,1.4-3.1,1.9-4.7c0-0.1,0-0.2-0.1-0.3c-0.7-0.7-1.4-1.4-2.2-2c-0.5,0.2-0.6-1.3-0.5-2.3c0-0.6,0-1.1,0-1.1
		s-0.2,0.2-0.6,0.6c-0.1,0.1-0.3,0.2-0.5,0.4c-0.7,0.5-1.4,0.9-2.2,1.2c-1.7,0.5-4.1,2.8-4.1,2.8l0.7,10.9c0,0-1.6,10.2-3.3,12.2
		s-6.8,1.9-8.5,1.9C119.4,80.3,118.5,80.7,118.1,81.5z"/>
	<path style="opacity:0.1;enable-background:new    ;" d="M137.4,50.7c0,0,0.1,0.4,0.2,0.9c0.4,2,1.3,6.2,2,6c0.7-0.4,1.4-1,1.9-1.7
		c-0.7-0.7-1.4-1.4-2.2-2c-0.5,0.2-0.6-1.3-0.5-2.3l-0.6-0.5L137.4,50.7z"/>
	<path style="fill:#67647E;" d="M137.5,50.4c0,0,0.1,0.4,0.2,0.9c0.4,2,1.3,6.2,2,6c0.7-0.4,1.4-1,1.9-1.7c-0.7-0.7-1.4-1.4-2.2-2
		c-0.5,0.2-0.6-1.3-0.5-2.3l-0.6-0.5L137.5,50.4z"/>
	<path style="fill:#BE6F72;" d="M133,71.3c0,0,3.5-0.7,4.6-2.3s7.7-2.9,6.9-1.3s-6.9,7-6.9,7l-2.6,3.8l-3.5-0.9l-1.5-2.9L133,71.3z"
		/>
	<path style="opacity:0.1;enable-background:new    ;" d="M141.4,75.3c0,0-3.4,1.3-4,3S141.4,75.3,141.4,75.3z"/>
	<path style="opacity:0.1;enable-background:new    ;" d="M143.5,77.3c0,0,0.3,1.8-4,1.6L143.5,77.3z"/>
	<path style="opacity:0.1;enable-background:new    ;" d="M162.1,54.6l1.6-0.1c0.9,0.7,1.9,1.1,3,1.3c1.3,0,2.1,1.6,2.1,1.6
		c0.9,0.4,1.9,0.8,2.8,1.1c0.7,0.1,1.9,0.9,1.6,1.1s0.1,0.9,0.7,1.4s1.6,3.1,0.8,3.4s-3.2,1.1-3.8,1.4c-0.5,0.2-1,0.2-1.4,0
		c0,0-3.8-4.9-5.7-4c-1.4,0.6-3,0.9-4.6,0.9l-2-4.3L162.1,54.6z"/>
	<path style="fill:#67647E;" d="M129.4,77.9c0.3,0.5,0.8,0.8,1.3,0.9c1.4,0.2,2.8,0,4.1-0.4c0,0-7.2-2.3-0.3-7.8h-1.8l-0.6-0.2
		l0.3-1.5l0.4-13.2l-1.5-0.3c0,0-1.2,8.7-1.5,9.8c-0.3,1.7-0.4,3.4-0.5,5.2c-0.1,0.9-0.4,1.7-0.7,2.6
		C128.3,74.6,128.6,76.4,129.4,77.9z"/>
	<path style="opacity:0.1;enable-background:new    ;" d="M129.7,77.9c0.3,0.5,0.8,0.8,1.3,0.9c1.4,0.2,2.8,0,4.1-0.4
		c0,0-7.2-2.3-0.3-7.8h-1.8l-0.6-0.2C131.5,72.2,129.9,75.4,129.7,77.9z"/>
	<path style="fill:none;" d="M129.4,77.9c0.3,0.5,0.8,0.8,1.3,0.9c1.4,0.2,2.8,0,4.1-0.4c0,0-7.2-2.3-0.3-7.8h-1.8l-0.6-0.2
		C131.2,72.2,129.6,75.4,129.4,77.9z"/>
	<path style="fill:#67647E;" d="M129.4,77.9c0.3,0.5,0.8,0.8,1.3,0.9c1.4,0.2,2.8,0,4.1-0.4c0,0-7.2-2.3-0.3-7.8h-1.8l-0.6-0.2
		C131.2,72.2,129.6,75.4,129.4,77.9z"/>
	<path style="opacity:0.1;enable-background:new    ;" d="M139,52.3c2.5,1.1,5.4,0.6,7.3-1.4c0-0.1-0.1-0.2-0.1-0.3
		c-0.2-0.5-0.3-1.1-0.3-1.6c0,0-8-2.8-6.5,0C140.1,50.1,139.9,51.5,139,52.3z"/>
	<path style="fill:#BE6F72;" d="M135.2,46.1L135.2,46.1c0,0.3,0,0.5,0,0.7c0,0.2,0,0.4,0.1,0.6c0.7,3.5,4.1,5.8,7.6,5.1
		c2.3-0.4,4.1-2.1,4.8-4.2c0-0.1,0.1-0.2,0.1-0.4c0.2-0.6,0.2-1.1,0.2-1.7c0-0.1,0-0.3,0-0.4c-0.3-3.6-3.3-6.2-6.9-6
		C137.8,40,135.2,42.8,135.2,46.1L135.2,46.1z"/>
	<path style="opacity:0.1;enable-background:new    ;" d="M135.2,46.2c0,0.2,0,0.4,0,0.6c0,0.1,0,0.2,0,0.3c0,0.1,0,0.2,0.1,0.2
		c0.3,0.6,1,0.9,1.6,0.7c0,0,0.1,0,0.1,0c0.2-0.2,0.4-0.4,0.5-0.6c0.6-1.1,1.4-2.4,2.7-2.4c0.6,0.1,1.1,0.2,1.6,0.4
		c0.5,0.2,1.1,0.1,1.6-0.2c0.3-0.3,0.5-0.8,0.9-0.9s0.8,0.3,1,0.6c0.1,0.4,0.4,0.8,0.7,1c0.2,0.1,0.4,0.1,0.5,0.2
		c0.8,0.4,0.4,1.9,1.2,2.1c0,0,0.1,0,0.1,0l0-0.4c0.1-0.7,0.1-1.4,0.2-2.2c-0.3-3.6-3.3-6.2-6.9-6C137.8,40,135.2,42.8,135.2,46.2
		L135.2,46.2z"/>
	<path style="fill:#3F3D56;" d="M146.7,36.5c0.8,0.3,1.5,0.8,1.7,1.6c0,0.3,0.1,0.7,0,1c0.1,0.7,0.3,1.4,0.6,2
		c0.3,0.7,0.2,1.4-0.1,2c-0.1,0.2-0.3,0.3-0.4,0.5c-0.2,0.3-0.2,0.6-0.2,0.9l-0.4,3.5c-0.9-0.2-0.5-1.7-1.3-2.2
		c-0.2-0.1-0.4-0.1-0.5-0.2c-0.4-0.2-0.5-0.6-0.7-1s-0.6-0.8-1-0.6s-0.6,0.6-0.9,0.9c-0.5,0.3-1.1,0.4-1.6,0.2
		c-0.5-0.2-1.1-0.3-1.6-0.4c-1.3,0-2.1,1.3-2.7,2.4c-0.1,0.3-0.3,0.5-0.5,0.6c-0.6,0.3-1.3,0.1-1.6-0.5c-0.1-0.1-0.1-0.2-0.1-0.3
		c-0.1-0.4,0.1-0.9-0.2-1.2s-0.8-0.4-1.2-0.6c-1-0.6-1.5-1.7-1.2-2.9c0.2-0.8,0.3-1.6,0.2-2.3c-0.1-0.3-0.2-0.5-0.3-0.8
		c-0.2-0.8,0.1-1.6,0.7-2.1c0.6-0.5,1.3-0.8,2.1-1.1c1.9-0.7,4-1.2,6-1.4c0.9-0.1,2.1-0.3,2.8,0.2C145,35.6,145.8,36.1,146.7,36.5z"
		/>
	<ellipse style="opacity:0.1;enable-background:new    ;" cx="145" cy="56.7" rx="0.4" ry="0.4"/>
	<ellipse style="fill:#444053;" cx="145" cy="56.6" rx="0.4" ry="0.4"/>
	<ellipse style="opacity:0.1;enable-background:new    ;" cx="147.2" cy="79" rx="0.4" ry="0.4"/>
	<ellipse style="fill:#444053;" cx="147.2" cy="78.9" rx="0.4" ry="0.4"/>
	<ellipse style="opacity:0.1;enable-background:new    ;" cx="146" cy="84.9" rx="0.4" ry="0.4"/>
	<ellipse style="fill:#444053;" cx="146" cy="84.8" rx="0.4" ry="0.4"/>
	<path style="opacity:0.1;enable-background:new    ;" d="M133.9,62.3c0,0-0.8,5.3,0,6.2S133.9,62.3,133.9,62.3z"/>
	<path style="opacity:0.1;enable-background:new    ;" d="M157.1,72.2c0.9,2,0.9,4.3,0,6.3c-1.5,3.1-2.4,4.3-1.9,6.3
		S157.1,72.2,157.1,72.2z"/>
	<path style="opacity:0.1;enable-background:new    ;" d="M86.6,131c2.2,1.5,5.5,0.8,5.5,0.8s5-2.4,6.5-2.4s5.1-1.5,5.1-1.5l-0.1-1
		c-1.5,0.3-4.8,1-5.2,1.3c-0.5,0.4-6.6,2.5-6.6,2.5s-4.2-0.5-5.3-2.2C85.8,129.3,85.5,130.3,86.6,131z"/>
	<g transform="translate(132.524 38.342)" style="opacity:0.1;">
		<path d="M15.9,0.2L15.9,0.2C15.9,0.3,15.9,0.2,15.9,0.2z"/>
		<path d="M1.4,6.3c0.4,0.2,0.9,0.3,1.2,0.6s0.1,0.8,0.2,1.2c0.1,0.7,0.8,1.1,1.4,1C4.3,9.1,4.4,9,4.5,9C4.7,8.8,4.9,8.6,5,8.3
			c0.6-1.1,1.4-2.4,2.7-2.4C8.3,6,8.8,6.1,9.3,6.3c0.5,0.2,1.1,0.1,1.6-0.2c0.3-0.3,0.5-0.8,0.9-0.9s0.8,0.3,1,0.6
			c0.1,0.4,0.4,0.8,0.7,1C13.6,6.9,13.8,7,14,7.1c0.8,0.4,0.4,2,1.3,2.2l0.4-3.5c0-0.3,0.1-0.7,0.2-0.9c0.1-0.2,0.3-0.3,0.4-0.5
			c0.2-0.2,0.3-0.5,0.3-0.8c0.1,0.5,0,0.9-0.3,1.3C16.2,5,16,5.2,15.9,5.4c-0.2,0.3-0.2,0.6-0.2,0.9l-0.4,3.5
			c-0.9-0.2-0.5-1.7-1.3-2.2c-0.2-0.1-0.4-0.1-0.5-0.2c-0.4-0.2-0.5-0.6-0.7-1s-0.6-0.8-1-0.6s-0.6,0.6-0.9,0.9
			C10.4,7,9.9,7,9.3,6.9C8.8,6.7,8.3,6.5,7.7,6.5C6.4,6.5,5.6,7.8,5,8.9C4.9,9.1,4.7,9.4,4.5,9.5C3.9,9.8,3.1,9.6,2.8,9
			C2.8,8.9,2.8,8.8,2.7,8.7C2.7,8.3,2.8,7.8,2.6,7.5S1.8,7,1.4,6.8C0.5,6.3,0,5.3,0.2,4.3C0.2,5.1,0.7,5.9,1.4,6.3z"/>
		<path d="M0.1,0.3c0.1,0.3,0.2,0.5,0.3,0.8C0.5,1.4,0.5,1.7,0.5,2c0-0.1,0-0.2-0.1-0.4C0.3,1.4,0.2,1.1,0.1,0.9C0,0.6,0,0.4,0,0.1
			C0,0.2,0.1,0.2,0.1,0.3z"/>
	</g>
	<path style="opacity:0.1;enable-background:new    ;" d="M153.4,70.2c1.6-0.4,5.5-1.5,5.5-1.5l0.7-0.1c0-2.4-0.1-4.7-0.2-5.5l0,0
		c-1.4,0.4-2.7,1-4,1.6c-0.8,0.6-3.2,0.4-3.2,0.4c-2.7,0.3-5.1,1.7-6.9,3.7C142.2,72.3,151.8,70.5,153.4,70.2z"/>
	<path style="fill:#BE6F72;" d="M169.4,63.9c0.5,0.2,0.7,0.8,0.5,1.3c-0.1,0.1-0.1,0.2-0.3,0.3c-0.9,0.9-2.1,1.4-3.3,1.7
		c-2,0.2-6.8,1.2-7.3,1.3c0,0-0.1,0-0.1,0c-0.4,0.1-3.9,1.1-5.4,1.5c-1.6,0.4-11.3,2.1-8.2-1.3c1.8-2,4.2-3.3,6.8-3.7h0.1
		c0.4,0,2.4,0.1,3.1-0.4c0.4-0.2,0.8-0.4,1.2-0.6c1.5-0.6,3.2-1.1,4.8-1.4l3.3-0.6c0.2,0,0.4,0,0.6,0.1L169.4,63.9z"/>
	<path style="fill:#67647E;" d="M162.4,54.6l1.6-0.1c0.9,0.7,1.9,1.1,3,1.3c1.3,0,2.1,1.6,2.1,1.6c0.9,0.4,1.9,0.8,2.8,1.1
		c0.7,0.1,1.9,0.9,1.6,1.1s0.1,0.9,0.7,1.4s1.6,3.1,0.8,3.4s-3.2,1.1-3.8,1.4c-0.5,0.2-1,0.2-1.4,0c0,0-3.8-4.9-5.7-4
		c-1.4,0.6-3,0.9-4.6,0.9l-2.1-4.3L162.4,54.6z"/>
	<path style="fill:#2CAECC;" d="M209.6,146.9c-1.7-0.4-3.4,0.1-4.7,1.3c0,0,1.2,1.1,4-0.1L209.6,146.9z"/>
	<path style="fill:#2CAECC;" d="M209.9,146.9c1,1.4,1.2,3.2,0.6,4.8c0,0-1.4-0.7-1.4-3.7L209.9,146.9z"/>
	<path style="fill:#2CAECC;" d="M211.8,143.3c0,0-1-2.2-5.8,0.5c0.5,1,1.5,1.6,2.5,1.5C209.9,145.4,211.3,144.6,211.8,143.3z"/>
	<path style="fill:#2CAECC;" d="M212.1,143.2c0,0,2.4-0.1,2.2,5.3c-1.1,0-2.1-0.6-2.5-1.6C211.1,145.8,211.2,144.2,212.1,143.2z"/>
	<path style="fill:#2CAECC;" d="M213.8,138.9c0,0-1.1-3.8-6.1-1.5c0,0,0.9,3.5,5.5,2.7L213.8,138.9z"/>
	<path style="fill:#2CAECC;" d="M215.6,133.5c0,0-2.3-3.9-6.9-0.7c0,0,1.3,3.6,6.5,2L215.6,133.5z"/>
	<path style="fill:#2CAECC;" d="M216.5,128.3c0,0-2.7-3.6-7.3-0.5c0,0,2.6,3.2,7.3,1.4L216.5,128.3z"/>
	<path style="fill:#2CAECC;" d="M217.3,123.2c0,0-2.7-3.8-7.2-0.7c0,0,3.1,3.4,7.1,1.5L217.3,123.2z"/>
	<path style="fill:#2CAECC;" d="M217.3,118.7c0,0-2.8-4.8-7-2c0,0,3.1,4.2,6.9,2.8L217.3,118.7z"/>
	<path style="fill:#2CAECC;" d="M217,113.4c0,0-3-4.8-7.1-1.5c0,0,3.6,4.2,7,2.4L217,113.4z"/>
	<path style="fill:#2CAECC;" d="M216.2,108.6c0,0-3.6-4.6-7.2-3.1c0,0,3.8,4.8,7.3,4.2L216.2,108.6z"/>
	<path style="fill:#2CAECC;" d="M215.1,104c0,0-4.2-5.6-6.9-4c0,0,3.1,4.3,7.2,5L215.1,104z"/>
	<path style="fill:#2CAECC;" d="M213.5,98.7c0,0-3.7-4.6-6.6-3.7c0,0,3.1,4.7,7.1,5.1L213.5,98.7z"/>
	<path style="fill:#2CAECC;" d="M212,93.7c0,0-4.1-4.4-6-3.8c0,0,2.9,4.8,6.2,4.7L212,93.7z"/>
	<path style="fill:#2CAECC;" d="M210.6,89.1c0,0-3.4-5.2-5.5-4.9c0,0,2,4.5,5.5,5.4L210.6,89.1z"/>
	<path style="fill:#2CAECC;" d="M209.1,82.9c0,0-3.1-4-4.9-4.1c0,0,2.3,5.2,4.9,5.3L209.1,82.9z"/>
	<path style="fill:#2CAECC;" d="M208.2,78.8l-2.7-8c0,0-0.7,7.1,3,9.5L208.2,78.8z"/>
	<path style="fill:#2CAECC;" d="M207.5,70.1c0,0-0.1-6.6,0.3-7.1c0,0-2.7,5.3-0.5,10L207.5,70.1z"/>
	<path style="fill:#2CAECC;" d="M213.9,138.9c0,0,3.5-1.8,5.3,3.4c0,0-3.1,1.8-5.8-2.1L213.9,138.9z"/>
	<path style="fill:#2CAECC;" d="M215.7,133.3c0,0,4.2-1.6,5.9,3.8c0,0-3.3,2-6.3-2.5L215.7,133.3z"/>
	<path style="fill:#2CAECC;" d="M216.7,128.6c0,0,3.2-3.2,7.3,0.5c0,0-3,2.8-7.4,0.4L216.7,128.6z"/>
	<path style="fill:#2CAECC;" d="M217.4,123.2c0,0,3.2-3.4,7.2,0.3c0,0-3.6,2.9-7.3,0.5L217.4,123.2z"/>
	<path style="fill:#2CAECC;" d="M217.3,118.8c0,0,2.4-5,6.8-2.5c0,0-2.7,4.4-6.7,3.4L217.3,118.8z"/>
	<path style="fill:#2CAECC;" d="M216.7,113.3c0,0,2.4-5.1,6.8-2.4c0,0-3.1,4.6-6.7,3.2L216.7,113.3z"/>
	<path style="fill:#2CAECC;" d="M215.7,108.6c0,0,1.2-5.7,5-6c0,0-1.2,6-4.6,7L215.7,108.6z"/>
	<path style="fill:#2CAECC;" d="M215,104c0,0,0.8-6.9,3.9-6.9c0,0-0.5,5.3-3.7,7.9L215,104z"/>
	<path style="fill:#2CAECC;" d="M213.2,98.5c0,0,1.3-5.7,4.4-6.2c0,0-0.7,5.6-4.2,7.6L213.2,98.5z"/>
	<path style="fill:#2CAECC;" d="M211.7,93.7c0,0,0.4-6,2.3-6.8c0,0,0.8,5.5-1.8,7.6L211.7,93.7z"/>
	<path style="fill:#2CAECC;" d="M210.4,89c0,0,0.7-6.2,2.6-6.9c0,0,0.3,4.9-2.4,7.3L210.4,89z"/>
	<path style="fill:#2CAECC;" d="M208.8,83.4c0,0,0.3-5,1.8-6.1c0,0,1,5.6-1.1,7.2L208.8,83.4z"/>
	<path style="fill:#2CAECC;" d="M208.4,78.6l1.9-8.3c0,0,1.3,7-2,9.8L208.4,78.6z"/>
	<path style="fill:#2CAECC;" d="M208.7,70.2c0,0,3.8-5.4,3.7-6c0,0-0.8,5.9-5.2,8.5L208.7,70.2z"/>
	<path style="fill:#2CAECC;" d="M208.4,68.6c0,0,3.7-7.8,5.2-8.3c-3.1,1.6-5.1,4.6-5.5,8.1L208.4,68.6z"/>
	<path style="fill:#444053;" d="M209.1,84.2l0.2-0.1c-2.1-9-2.4-14.6-0.8-15.9l-0.1-0.2C206.7,69.4,207,75,209.1,84.2z"/>
	<path style="fill:#444053;" d="M215.2,105.3l0.3-0.1c-0.2-0.8-0.5-1.7-0.8-2.5c-2.3-7.2-4.3-13.9-5.5-19l-0.3-0.2
		c1.2,5.1,3.1,12.1,5.4,19.3C214.7,103.6,215,104.4,215.2,105.3z"/>
	<path style="fill:#444053;" d="M205.1,153.2c3.5-3.8,6.3-8.1,8.4-12.9c2.1-4.8,3.5-9.9,4-15.1c0.5-7-0.2-14-2.1-20.7l-0.3,0.3
		c3.4,11.7,2.8,24.1-2,35.3c-2,4.7-4.8,9-8.3,12.7L205.1,153.2z"/>
	
		<linearGradient id="SVGID_3_" gradientUnits="userSpaceOnUse" x1="-446.3212" y1="522.9066" x2="-446.3212" y2="523.9066" gradientTransform="matrix(73.197 0 0 -87.1245 32979 45805.8242)">
		<stop  offset="0" style="stop-color:#808080;stop-opacity:0.251"/>
		<stop  offset="0.54" style="stop-color:#808080;stop-opacity:0.122"/>
		<stop  offset="1" style="stop-color:#808080;stop-opacity:0.102"/>
	</linearGradient>
	<path style="fill:url(#SVGID_3_);" d="M346.2,233l-9-13c0,0-0.2-3.2-0.8-4s-0.1-2.4-0.1-2.4s0.6-0.9,0.1-1s-0.1-2.1-0.1-2.1l0-3.3
		c0,0,0.5-3.1,0.1-3.9c-0.3-0.4-0.2-0.9,0-1.3c0,0,0.5-1.8,0-2.3s-0.4-3.3-0.3-5.5c0-1.3-0.3-2.6-0.9-3.8c0-0.3-3.3-3.6-3.3-3.9
		s-2.1-1.5-3.4-1.8s-1.9-0.6-1.8-0.8s-2-0.8-2-0.8c-0.9,0-1.8-0.4-2.4-1c-0.7-0.9-2.7-1.1-2.8-1.1l0-0.2c0-0.1,0-0.1,0-0.2
		c0.2-0.3,0.3-0.5,0.4-0.8c0-0.1,0.1-0.2,0.1-0.3c0.7,0,1.5-0.2,2.1-0.7c0.6-0.5,1-1.2,1-2c0-0.8-0.1-1.5-0.5-2.2
		c-0.5-0.7-0.8-1.5-0.7-2.4c0.1-0.4,0.3-0.7,0.4-1c0.2-0.7,0.1-1.4-0.3-2c-0.3-0.6-0.8-1.1-1.1-1.7c-0.4-0.8-0.8-1.6-0.9-2.5
		c0-0.5-0.1-0.9-0.3-1.3c-0.2-0.3-0.4-0.6-0.7-0.7c-1.3-0.9-2.9-1.4-4.5-1.4c-1.1,0.2-2.3,0.2-3.4,0.2c-0.7-0.1-1.3-0.3-2-0.5
		c-1.4-0.5-2.9-0.5-4.3,0.2c-1.2,0.8-1.7,2.4-2.5,3.6c-0.9,1-1.7,2.1-2.4,3.2l0-0.1c-0.1,0.3-0.3,0.6-0.3,0.8
		c-0.2,0.9-0.1,1.9,0.2,2.8c0.1,0.5,0.3,0.9,0.7,1.2c0.5,0.2,1,0.3,1.5,0.3c0,0.1,0,0.2-0.1,0.2c-0.1,0.7-0.2,1.3-0.2,2
		c0,4.3,2.8,8,6.9,9.2v0.3c0,0.2,0,0.5,0,0.7l0,0c0,0-4.2-0.9-5.4-0.3s-3.4,1-3.7,1.4s-1.2,0.1-1.9,2.1s-0.8,4-1.8,4.9
		s-1.5,1.6-1.5,2.2s0.1,0.8-0.2,1s-0.9,1.1-0.8,1.4c0.1,0.5-0.1,1-0.5,1.3c-0.4,0.3-0.6,0.8-0.6,1.3c0,0-0.3,0.9-0.8,1.1
		s-1,1.6-1,1.6l-1.9,2.2l-3.8-4.2c-0.6-0.7-1.6-0.7-2.2-0.1c0,0,0,0,0,0l-1.9,1.7c-0.7,0.2-1.4,0.6-1.9,1.1c-0.4,0.4-0.7,0.9-1,1.4
		l-1,0.9c-0.7,0.8-0.8,1.9-0.3,2.8l2.4,2.7v0c-0.9,0.1-1.7,0.4-2.3,1c-3.6,3.2-3.7,6.1-3.1,7.5s5.1,6.5,5.1,6.5c1.8,2.2,4,4,6.5,5.3
		l0,0l0,0c-0.1,0.1-0.2,0.2-0.2,0.3l-0.1,0.1l-0.1,0.1l-0.1,0.1l-0.1,0.1c0,0,0,0.1-0.1,0.1l0,0.1l-0.1,0.2c0,0,0,0,0,0.1
		c0,0.1-0.1,0.2-0.1,0.2l0,0.1L284,234c0,0,0,0.1,0,0.1c0,0,0,0.1-0.1,0.2s0,0.1,0,0.1s0,0.1-0.1,0.2l0,0.1c0,0.1,0,0.2-0.1,0.3
		l0,0.1l0,0.2l0,0.2c0,0.1,0,0.1,0,0.2c0,0.1,0,0.1,0,0.2l0,0.2v0.6c-0.1,4.9,0.2,5.6,0.2,5.6c0.4,0.9,1.2,1.6,2.2,1.7
		c0.2,0,0.5,0,0.7,0c2.2-0.4,7.3-1.3,9.1-0.9c1.5,0.1,3,0,4.5-0.4l0.4-0.1l0.3,0.8l0.8-0.2c0.3,0.2,0.5,0.3,0.7,0.4l0.4,0.3
		c0.8,2.8,4.2,1.9,4.2,1.9l0.8,0.5l8.1,0.2c0.9,0.6,1.9,1,2.9,1.4c0.1,0,0.3,0.1,0.4,0.1c0.8,0.1,1.5,0.1,2.3,0c0.6,0,1.1,0,1.1,0
		s-0.1-2.2-0.2-4.7c2.5-0.1,5-0.3,7.5-0.6c4.3-0.8,6.1-4.7,6.8-6.8c0.2,0.9,0.3,1.7,0.4,2.6c0.2,0.8,0.4,1.5,0.7,2.3
		c0.2,0.6,0.5,1.2,0.9,1.7c3.2-1.1,1.3-2.7,0.6-3.4s0.5-1.3,0.5-1.3s0.9-0.6,0.8-1.1s-0.1-1.1,2.7-1.1S346.2,233,346.2,233z
		 M301.8,206.2c0.2,1.2,0.4,2.4,0.8,3.5c0.1,0.5,0.1,0.9,0.1,1.4c-1.7-0.1-3.5-0.2-3.5-0.2c0,0.1,0.1,0.1,0.1,0.2l-0.3-0.1l-0.4-0.1
		L301.8,206.2L301.8,206.2z M295.7,216l2.9,0.5l0.2,0c-0.1,0.5-0.1,0.9-0.2,1.4c0,0,0.1,0.1,0.2,0.2c0,0.2-0.1,0.5-0.1,0.7
		c0,0.2,1.4,0.7,3,1.2c0,0.1,0,0.2-0.1,0.2l0,0c-1.4-0.7-3.6-1.1-3.8-1.6s-7.7-3.1-7.7-3.1s-0.3-0.1-0.7-0.4l2,0.4l0.5-0.1
		C293.2,215.6,294.4,215.9,295.7,216L295.7,216z"/>
	<path style="fill:#65617D;" d="M336.7,234.8c0,0-1.2,7-7.1,8.1s-25.7,0.8-25.7,0.8s-11.3-1.6-15.4-11.2s-6.7-13.3-3.2-13.5
		s22.4,6.4,23.5,6.5S337.7,211,336.7,234.8z"/>
	<path style="opacity:5.000000e-02;enable-background:new    ;" d="M336.7,234.8c0,0-1.2,7-7.1,8.1s-25.7,0.8-25.7,0.8
		s-11.3-1.6-15.4-11.2s-6.7-13.3-3.2-13.5s22.4,6.4,23.5,6.5S337.7,211,336.7,234.8z"/>
	<path style="fill:#3F3D56;" d="M283.7,242.6c0.4,0.9,1.2,1.6,2.2,1.7c0.2,0,0.5,0,0.7,0c2.2-0.4,7.3-1.3,9-0.9c1.5,0.1,3,0,4.5-0.4
		c0.9-0.2,1.6-0.3,1.6-0.3s-1.7-5.5-1.9-5.7s-7.5-4.6-7.5-4.6l-5.8-0.4l0,0c-0.8,0.1-1.5,0.5-2,1.1c-0.8,1.1-1.2,2.5-1.2,3.9
		C283.4,241.9,283.7,242.6,283.7,242.6z"/>
	<path style="opacity:5.000000e-02;enable-background:new    ;" d="M283.7,242.6c0.4,0.9,1.2,1.6,2.2,1.7c-0.6-0.7-1.1-1.5-1.6-2.3
		l0-4c-0.2-2.2,0.6-4.5,2.3-6l0,0c0,0-3,0.2-3.1,5.1S283.7,242.6,283.7,242.6z"/>
	<path style="opacity:0.1;enable-background:new    ;" d="M308.8,233.8l5.4-4.2l8.5-8.3c0,0-0.9,0-2.3-0.1c-0.3,0.2-1.3,0.9-1.3,1.7
		c0,1-2.3,0.1-3.5,0.7s-6.9,7.9-7.9,7.8s-1.8-0.5-2.2,0.2l0,0L308.8,233.8z"/>
	<path style="opacity:0.1;enable-background:new    ;" d="M284.7,233.1c0.2,0.1,0.4,0.2,0.6,0.3c4.1,1.7,9.1,5.4,9.5,6.1
		c0.2,0.4,3.2,2.2,5.4,3.5c0.9-0.2,1.6-0.3,1.6-0.3s-1.7-5.5-1.9-5.7s-7.5-4.6-7.5-4.6l-5.8-0.4l0,0
		C285.9,232.1,285.1,232.5,284.7,233.1L284.7,233.1z"/>
	<path style="fill:#65617D;" d="M273.3,221.2c0.5,1.3,5.1,6.5,5.1,6.5c1.9,2.3,4.3,4.2,7,5.5c4.1,1.7,9.1,5.4,9.5,6.1
		c0.2,0.4,3.5,2.4,5.8,3.7l0.5,0.3c0.4,0.3,0.8,0.5,1.1,0.7l0.6,0.3c0,0,1.4-1.1,2.8-2.2s2.7-2.2,2.8-2.3c0-0.1,0.6-1.5,0.5-1.6
		c-0.1,0-0.4-0.6-0.9-1.3c-0.6-0.7-1.3-1.3-2.1-1.8c-1.2-0.6-2.2-1.6-2.7-2.9c0,0-0.2-0.1-0.5-0.3c-0.6-0.4-1.2-0.7-1.9-0.8
		c-0.9-0.1-2.6-2-2.6-2c-0.7-0.4-1.2-1-1.6-1.7c-0.5-1-6.9-5.4-7.5-5.8l15.7,10.1l3.7,2.4l5.4-4.2l8.5-8.3c0,0-1.1-0.1-2.8-0.1
		c-4.1-0.2-11.4-0.5-12.3-0.2c-0.7,0.2-1.5,0.2-2.3,0.2c-1.2,0-2.4-0.2-3.5-0.6c-1.4-0.7-3.5-1.1-3.8-1.6s-7.6-3.1-7.6-3.1
		s-10-5.3-13.6-2.2S272.8,219.8,273.3,221.2z"/>
	<path style="fill:#EE8E9E;" d="M305.7,190.6l1.3,4.3l1.7,9.7l6.1,0.4l1.8-2.9l1.8-2.9c0,0,1.1-3.9,1.9-7.7c0.7-3.3,1.2-6.6,0.4-6.9
		c-0.7-0.3-1.1-1.4-1.4-2.7c0-0.2-0.1-0.3-0.1-0.5c-0.2-1-0.3-2.1-0.4-3.1c0,0-12.8-0.7-11.1,4.6c0.3,0.9,0.5,1.9,0.5,2.8
		c0,0.2,0,0.5,0,0.7C307.9,188.1,307.1,189.6,305.7,190.6L305.7,190.6z"/>
	<path style="fill:#E3E8F4;" d="M303.1,189.9l0.5,7.3l1,6.2l1.2,2.9l1,15.7c0,0,10,1.2,12.5,0c0.2-0.1,0.3-0.2,0.4-0.3
		c3-4.5,2-17.4,2-17.4l1.1-8.3l-0.8-4.3l-1.8-0.2l-1.4-0.2c0,0-0.3,0.4-0.8,1c-1.2,1.6-3.5,4.8-3.4,6.2c0.2,1.8-0.2,3.7-1,4
		s-1.3,0.8-1.4,0.3c-0.2-0.4-0.2-0.9-0.1-1.3c0-1-0.2-1.9-0.5-2.9c-0.5-1.1-0.9-2.4-1-3.6c0.1-0.9,0-1.8-0.5-2.6
		c-0.3-0.3-0.8-0.6-0.4-1.9s-1.6-3.9-1.6-3.9L303.1,189.9z"/>
	<path style="opacity:0.1;enable-background:new    ;" d="M316.3,208.1l0.4,12.5l2.4,1.3c0.2-0.1,0.3-0.2,0.4-0.3
		c3-4.5,2-17.4,2-17.4l1.1-8.3l-0.8-4.3l-1.8-0.2c0.7-3.3,1.2-6.6,0.4-6.9c-0.7-0.3-1.1-1.4-1.4-2.6l0,0l-1.3,8.8
		c0,0,0.1,0.8,0.2,1.6c0.1,0.5,0,1-0.1,1.6c-0.2,0.7-0.2,1.4-0.1,2.1c-0.8,1.3-1.1,3.8-1.3,6.1C316.2,205.1,316.3,208.1,316.3,208.1
		z"/>
	<path style="fill:#3F3D56;" d="M319.2,181.5c0,0,2.1,0.3,2.8,1.1c0.7,0.6,1.5,1,2.4,1c0,0,2,0.7,2,0.8s0.6,0.4,1.8,0.7
		s3.3,1.5,3.3,1.8s3.3,3.5,3.3,3.9c0.6,1.2,0.9,2.5,0.9,3.8c-0.1,2.2-0.2,5,0.2,5.5s0,2.2,0,2.2c-0.3,0.4-0.3,0.9,0,1.3
		c0.4,0.8-0.1,3.9-0.1,3.9l0,3.3c0,0-0.5,2,0.1,2.1s-0.1,1-0.1,1s-0.5,1.7,0.1,2.4s0.7,4,0.7,4l8.9,13c0,0,0.1,2.4-2.7,2.3
		s-2.8,0.5-2.7,1.1s-0.8,1.1-0.8,1.1s-1.1,0.6-0.5,1.3s2.6,2.3-0.6,3.4c-0.4-0.5-0.7-1.1-0.9-1.7c-0.3-0.7-0.5-1.5-0.7-2.3
		c0,0-0.3-3.2-0.9-3.6s-0.5-2.4-0.5-2.4s0.8-1.6-0.3-2.3s-18.1-10-18.1-10l-0.4-12.5c0,0-0.3-9.2,1.5-12.3c-0.1-0.7-0.1-1.4,0.1-2.1
		c0.1-1.1,0.1-2.1,0-3.2L319.2,181.5z"/>
	<path style="opacity:0.1;enable-background:new    ;" d="M308.2,186.5c0,0-4.2-0.9-5.3-0.3s-3.3,1-3.7,1.4s-1.2,0.1-1.9,2
		s-0.8,4-1.8,4.9s-1.5,1.5-1.5,2.2s0.1,0.8-0.2,1s-0.9,1.1-0.7,1.4s8.7,7.7,8.7,7.7c0.2,1.2,0.4,2.4,0.8,3.5
		c0.4,0.7-0.4,10.5-1.3,11.1s5.6,0.6,5.6,0.6s0.3-6.4,0.5-6.7s-0.2-7.2-0.2-7.2s0-5.8,0.5-7.4s0.5-6.7,0.5-6.7s0.5-3.1,1.1-3.8
		S308.2,186.5,308.2,186.5z"/>
	<path style="fill:#3F3D56;" d="M308.1,186.4c0,0-4.2-0.9-5.3-0.3s-3.3,1-3.7,1.4s-1.2,0.1-1.9,2s-0.8,4-1.8,4.9s-1.5,1.5-1.5,2.2
		s0.1,0.8-0.2,1s-0.9,1.1-0.8,1.4s8.7,7.7,8.7,7.7c0.2,1.2,0.4,2.4,0.8,3.5c0.4,0.7-0.4,10.5-1.2,11.1s5.6,0.6,5.6,0.6
		s0.3-6.4,0.5-6.7s-0.2-7.2-0.2-7.2s0-5.8,0.5-7.4s0.5-6.7,0.5-6.7s0.5-3.1,1.1-3.8S308.1,186.4,308.1,186.4z"/>
	<path style="opacity:0.1;enable-background:new    ;" d="M307.7,182.9c0.3,0.9,0.5,1.9,0.5,2.8c0.9,0.3,1.8,0.4,2.7,0.4
		c3.4,0,6.5-1.8,8.2-4.7c-0.2-1-0.3-2.1-0.4-3.1C318.7,178.2,305.9,177.6,307.7,182.9z"/>
	<path style="fill:#EE8E9E;" d="M301.3,176.3c0,5.3,4.3,9.5,9.5,9.5c5.3,0,9.5-4.3,9.5-9.5s-4.3-9.5-9.5-9.5c-4.5,0-8.4,3.2-9.3,7.6
		C301.4,174.9,301.3,175.6,301.3,176.3z"/>
	<path style="fill:#3F3D56;" d="M295.2,198.4l-2.3,0.7c0.1,0.5-0.1,1-0.5,1.3c-0.4,0.3-0.6,0.8-0.6,1.2c0,0-0.2,0.9-0.8,1.1
		s-1,1.6-1,1.6l-1.9,2.2c0,0-0.7,0.6-0.6,0.9s-0.8,0.4-0.8,0.4l0.5,7.4l4,0.7l2.5-0.2l2-0.8l1.7-1l0.8-2l3.5-5.3L295.2,198.4z"/>
	<path style="fill:#EE8E9E;" d="M287.4,208.3c0,0-5.1-7.3-8.9-3.4s1.5,10.4,2.8,10.2s7.2-0.5,7.2-0.5L287.4,208.3z"/>
	<path style="fill:#3F3D56;" d="M277.7,194.1l21,10.7c0.8,0.4,1.1,1.3,0.7,2.1l-8,15.7c-0.4,0.8-1.3,1.1-2.1,0.7l-21-10.7
		c-0.8-0.4-1.1-1.3-0.7-2.1l8-15.7C276,194,276.9,193.7,277.7,194.1z"/>
	
		<rect x="275.1" y="197.4" transform="matrix(0.4546 -0.8907 0.8907 0.4546 -31.1869 366.2787)" style="fill:#2CAECC;" width="16.9" height="22.4"/>
	<ellipse style="fill:#E6E8EC;" cx="272.8" cy="203.1" rx="0.4" ry="0.4"/>
	<ellipse style="fill:#E6E8EC;" cx="294.3" cy="214.2" rx="0.6" ry="0.6"/>
	<path style="fill:#EE8E9E;" d="M284.1,209.9c0,5.5,11.3,6.7,11.3,6.7l2.9,0.5l1.3,0.2l0.5-5.4c0,0-0.6-0.1-1.3-0.3
		c-1.1-0.3-2.5-0.7-2.8-1.3C295.5,209.2,284.2,204.4,284.1,209.9z"/>
	<path style="opacity:0.1;enable-background:new    ;" d="M301.5,174.3c0.3,0,0.5,0.1,0.7,0.3c0.3,0.3,0.3,0.9,0.8,1.2
		c0.2,0.1,0.3,0.1,0.5,0.1c1.1-0.2,1.7-1.4,2.8-1.7c0.6-0.2,1.3-0.1,1.9,0.2c0.2,0.1,0.5,0.2,0.6,0.4c0.4,0.5,0.1,1.1,0.3,1.7
		c0.2,0.8,1.2,1.1,2,1.2c0.8,0,1.6,0.3,2.2,0.8c0.4,0.5,0.5,1.1,0.4,1.6c0,0.2,0,0.4,0,0.6c0.2,0.6,1.3,0.5,1.6,0
		c0.2-0.4,0.1-0.7,0.6-0.8c0.3,0,0.7,0,1,0.2c0.8,0.3,1.7,0.4,2.6,0.4c2.2-4.8,0.2-10.5-4.6-12.7s-10.5-0.2-12.7,4.6
		C301.9,172.9,301.7,173.6,301.5,174.3L301.5,174.3z"/>
	<path style="fill:#3F3D56;" d="M313.6,180.2c0-0.2,0-0.4,0-0.6c0.1-0.6,0-1.2-0.4-1.6c-0.6-0.5-1.4-0.8-2.2-0.8
		c-0.8-0.1-1.7-0.4-2-1.2c-0.2-0.6,0.1-1.2-0.3-1.7c-0.2-0.2-0.4-0.3-0.6-0.4c-0.6-0.3-1.2-0.3-1.9-0.2c-1.1,0.3-1.7,1.6-2.8,1.7
		c-0.2,0-0.3,0-0.5-0.1c-0.4-0.2-0.4-0.8-0.8-1.2c-0.5-0.5-1.5-0.2-2.1-0.6c-0.4-0.3-0.6-0.8-0.7-1.2c-0.3-0.9-0.3-1.8-0.2-2.8
		c0.4-1.6,1.7-2.6,2.6-3.9c0.8-1.2,1.3-2.8,2.5-3.6c1.3-0.7,2.9-0.8,4.2-0.2c0.6,0.2,1.3,0.4,2,0.5c1.1,0,2.3-0.1,3.4-0.2
		c1.6-0.1,3.2,0.4,4.5,1.4c0.3,0.2,0.5,0.4,0.7,0.7c0.2,0.4,0.3,0.9,0.3,1.3c0.1,0.9,0.4,1.7,0.9,2.4c0.4,0.6,0.8,1.1,1.1,1.7
		c0.4,0.6,0.5,1.3,0.3,2c-0.2,0.3-0.3,0.7-0.4,1c0,0.8,0.2,1.7,0.7,2.3c0.4,0.7,0.5,1.5,0.5,2.2c0,0.8-0.4,1.5-1,2
		c-0.6,0.4-1.4,0.7-2.1,0.7c-0.9,0-1.8-0.1-2.7-0.4c-0.3-0.1-0.7-0.2-1-0.2c-0.5,0.1-0.4,0.4-0.6,0.8
		C314.9,180.8,313.9,180.9,313.6,180.2z"/>
	<path style="opacity:0.1;enable-background:new    ;" d="M308.5,234l5.4-4.2l8.5-8.3c0,0-1.1-0.1-2.8-0.1c-0.3,0.3-0.5,0.7-0.6,1.1
		c0,1-2.3,0.1-3.5,0.7s-6.9,7.9-7.9,7.9s-1.8-0.5-2.2,0.2l0,0c-0.2,0.2-0.4,0.3-0.6,0.4L308.5,234z"/>
	<path style="fill:#65617D;" d="M297.7,233.7l2.7,8.6l0.4,1.4l1.3-0.4l2.8-0.8l12.6-3.5c1.6-0.1,3.1-0.5,4.6-1.2
		c2.4-1.3,5.1-1.9,7.8-1.7c1.7,0.2,3.5-0.6,5.1-3.4c0,0,3.5-10.3-5.3-13.3s-9.3,1.6-9.3,1.6l-0.1,0.1c-0.3,0.2-1.3,0.9-1.3,1.7
		c0,1-2.3,0.1-3.5,0.7s-6.9,7.9-7.9,7.8s-1.8-0.5-2.2,0.2l0,0c-0.3,0.4-1.2,0.5-1.8,0.5H303l-0.1,0l-0.7,0.2L297.7,233.7z"/>
	<path style="opacity:0.1;enable-background:new    ;" d="M298.4,217l1.3,0.2l0.5-5.4c0,0-0.6-0.1-1.3-0.3
		C299.1,212.3,298.6,215.2,298.4,217z"/>
	<path style="opacity:0.1;enable-background:new    ;" d="M332.4,191.9c0,0,3.9-1.1,2.9,9.9c-0.7,6.7-3.5,13-8.1,18
		c0,0-8.2,3.6-12,3s-6.4-0.7-6.4-0.7c-1.2-0.6-2.4-0.9-3.7-1c-2.1-0.1-6.5-1.4-6.5-1.8s1.1-6.5,0.6-7c0,0,5.8,0.2,6.4,0.7
		s1.4,0.1,2,0c1.9-1.1,4.3-1.2,6.3-0.3c0.6,0.1,1.2,0,1.8-0.2c0.4-0.2,0.9-0.2,1.3-0.1c0.3-0.1,0.6-0.3,0.9-0.5c0.1-0.2,1.1,0,1.1,0
		c0.2,0.1,0.5,0,0.6-0.2c0,0,0-0.1,0-0.1c0.1-0.3,0.3-0.7,0.6-0.9c0,0,1.1-6.3,3.3-8.7c0.3-0.3,0.5-0.8,0.5-1.2
		C323.8,200,327.4,190.5,332.4,191.9z"/>
	<path style="fill:#3F3D56;" d="M332.3,191c0,0,3.9-1.1,2.9,9.9c-0.7,6.7-3.5,13-8.1,18c0,0-8.3,3.6-12,3s-6.4-0.7-6.4-0.7
		c-1.2-0.6-2.4-0.9-3.8-1c-2.1-0.1-6.5-1.4-6.5-1.8s1.1-6.5,0.6-7c0,0,5.8,0.2,6.4,0.7s1.4,0.1,2,0c1.9-1.1,4.3-1.2,6.3-0.3
		c0.6,0.1,1.2,0,1.8-0.2c0.4-0.2,0.9-0.2,1.3-0.1c0.3-0.1,0.6-0.3,0.9-0.5c0.1-0.2,1.1,0,1.1,0c0.2,0.1,0.5,0,0.6-0.2
		c0,0,0-0.1,0-0.1c0.1-0.3,0.3-0.7,0.6-0.9c0,0,1.1-6.3,3.3-8.7c0.3-0.3,0.5-0.8,0.5-1.2C323.7,199.2,327.3,189.7,332.3,191z"/>
	<path style="opacity:0.1;enable-background:new    ;" d="M302.2,232.4l5.5,6.7l0,0c0-0.1,0.6-1.5,0.5-1.6c-0.7-1.3-1.7-2.3-3-3
		c-1-0.5-1.8-1.2-2.4-2.1L302.2,232.4z"/>
	<path style="opacity:0.1;enable-background:new    ;" d="M302.3,243.9l0.6,0.3c0,0,1.4-1.1,2.8-2.2s2.7-2.2,2.8-2.3
		c0-0.1,0.6-1.5,0.5-1.6c-0.1,0-0.4-0.6-0.9-1.3c-3.7-1-1.4,1.5-1,1.7c-2-0.6-4.1,0.6-4.7,2.7c-0.1,0.4-0.2,0.8-0.1,1.2
		C302.2,242.9,302.2,243.4,302.3,243.9L302.3,243.9z"/>
	<path style="fill:#3F3D56;" d="M306.9,246l0.8,0.5l8,0.2c0.9,0.5,1.9,1,2.8,1.4c0.1,0,0.3,0.1,0.4,0.1c0.7,0.1,1.5,0.1,2.2,0
		c0.6,0,1.1,0,1.1,0s-0.4-10.1-0.7-11.2c-0.1-0.5-0.8-0.4-1.5-0.1c-0.5,0.2-1,0.4-1.4,0.7c-1.3,0.1-2.7,0.3-4,0.6
		c-0.5,0.3-2.1-0.2-3,0s-2.7-1.1-2.7-1.1c-4.7-1.5-2,1.3-1.7,1.5c-2-0.6-4.1,0.6-4.7,2.7c-0.1,0.4-0.2,0.8-0.1,1.2
		C302.4,247.3,306.9,246,306.9,246z"/>
	<path style="fill:#565387;" d="M318.5,242.1c0.1,2.1,1.7,4.7,2.7,6.1c0.6,0,1.1,0,1.1,0s-0.4-10.1-0.7-11.2
		c-0.1-0.5-0.8-0.4-1.5-0.1C319.2,238.4,318.7,240.2,318.5,242.1z"/>
	<path style="opacity:0.1;enable-background:new    ;" d="M318.5,242.1c0.1,2.1,1.7,4.7,2.7,6.1c0.6,0,1.1,0,1.1,0
		s-0.4-10.1-0.7-11.2c-0.1-0.5-0.8-0.4-1.5-0.1C319.2,238.4,318.7,240.2,318.5,242.1z"/>
	<path style="opacity:5.000000e-02;enable-background:new    ;" d="M317.2,242.4c0.6,2,0.5,4.3,1.4,5.7c0.1,0,0.3,0.1,0.4,0.1
		c0.7,0.1,1.5,0.1,2.2,0c0.6,0,1.1,0,1.1,0s-0.4-10.1-0.7-11.2c-0.1-0.5-0.8-0.4-1.5-0.1c-0.5,0.2-1,0.4-1.4,0.7
		C318.8,237.5,316.5,239.8,317.2,242.4z"/>
	<path style="opacity:0.1;enable-background:new    ;" d="M289.4,221.8c3,1.2,5.5,3.3,7.4,5.9L289.4,221.8z"/>
	<g transform="translate(299.19 168.93)" style="opacity:0.1;">
		<path d="M22.7,2.9C22.7,2.9,22.7,2.9,22.7,2.9c-0.1,0.2-0.1,0.3-0.2,0.4C22.6,3.2,22.6,3,22.7,2.9L22.7,2.9z"/>
		<path d="M0.1,0.8C0.2,0.5,0.3,0.3,0.4,0c0,0.1,0,0.1-0.1,0.2C0.2,1.1,0.3,2.1,0.5,3c0.1,0.5,0.3,0.9,0.7,1.2
			c0.6,0.4,1.6,0.1,2.1,0.6C3.6,5.1,3.6,5.7,4.1,6C4.2,6,4.4,6,4.6,6c1.1-0.2,1.7-1.4,2.8-1.8C8,4.1,8.7,4.2,9.2,4.4
			c0.2,0.1,0.5,0.2,0.6,0.4C10.2,5.3,10,6,10.1,6.5c0.2,0.8,1.2,1.1,2,1.2c0.8,0,1.6,0.2,2.2,0.8c0.4,0.5,0.5,1.1,0.4,1.6
			c0,0.2,0,0.4,0,0.6c0.2,0.6,1.3,0.5,1.6,0c0.2-0.4,0.1-0.7,0.6-0.8c0.3,0,0.7,0,1,0.2c0.9,0.3,1.8,0.4,2.7,0.4
			c0.8,0,1.5-0.2,2.1-0.7c0.3-0.2,0.5-0.5,0.7-0.8c-0.1,0.6-0.5,1.1-0.9,1.4c-0.6,0.4-1.4,0.7-2.1,0.7c-0.9,0-1.8-0.1-2.7-0.4
			c-0.3-0.1-0.7-0.2-1-0.2c-0.5,0.1-0.4,0.4-0.6,0.8c-0.3,0.5-1.4,0.6-1.6,0c0-0.2,0-0.4,0-0.6c0.1-0.6,0-1.2-0.4-1.6
			c-0.6-0.5-1.4-0.8-2.2-0.8c-0.8-0.1-1.7-0.4-2-1.2C9.7,6.6,10,5.9,9.6,5.4C9.4,5.3,9.2,5.1,9,5C8.4,4.8,7.7,4.7,7.1,4.9
			C6.1,5.2,5.4,6.5,4.3,6.6c-0.2,0-0.3,0-0.5-0.1C3.4,6.4,3.4,5.8,3,5.4C2.5,4.9,1.6,5.2,1,4.8C0.6,4.5,0.4,4.1,0.3,3.6
			C0,2.7-0.1,1.8,0.1,0.8z"/>
	</g>
	<path style="opacity:0.1;enable-background:new    ;" d="M322.5,203.1c-0.8,1-1.6,2-2.3,3.1c-0.7,1.1-1.1,2.3-1,3.6
		c0.6-0.8,1.1-1.7,1.5-2.6c0.8-1.5,1.8-2.9,2.8-4.2c0.2-0.3,1.3-1.8,0.7-1.9C323.7,201.1,322.8,202.8,322.5,203.1z"/>
</g>
</svg>
