<?xml version="1.0" encoding="utf-8"?>
<!-- Generator: Adobe Illustrator 24.3.0, SVG Export Plug-In . SVG Version: 6.00 Build 0)  -->
<svg version="1.1" id="Layer_1" xmlns="http://www.w3.org/2000/svg" xmlns:xlink="http://www.w3.org/1999/xlink" x="0px" y="0px"
	 width="14.5px" height="18.9px" viewBox="0 0 14.5 18.9" style="enable-background:new 0 0 14.5 18.9;" xml:space="preserve">
<path id="Icon_ionic-ios-unlock" style="fill:#CFCFCF;" d="M12.7,6.5H4.2V4.4c0-1.7,1.4-3.1,3.1-3c1.7,0,3,1.4,3,3l0,0
	C10.3,4.7,10.6,5,11,5s0.6-0.3,0.6-0.6l0,0l0,0C11.6,2,9.7,0,7.3,0S2.9,1.9,2.9,4.3c0,0,0,0.1,0,0.1v2.1H1.8C0.8,6.5,0,7.4,0,8.4
	v8.7c0,1,0.8,1.8,1.8,1.8h10.9c1,0,1.8-0.8,1.8-1.8V8.4C14.5,7.4,13.7,6.5,12.7,6.5z M7.9,12.2v3.1c0,0.3-0.3,0.6-0.6,0.7
	c-0.4,0-0.6-0.3-0.7-0.6c0,0,0,0,0,0v-3.1c-0.7-0.4-1-1.2-0.7-1.9c0.4-0.7,1.2-1,1.9-0.7s1,1.2,0.7,1.9C8.4,11.8,8.2,12.1,7.9,12.2
	L7.9,12.2z"/>
</svg>
