<?xml version="1.0" encoding="utf-8"?>
<!-- Generator: Adobe Illustrator 24.3.0, SVG Export Plug-In . SVG Version: 6.00 Build 0)  -->
<svg version="1.1" id="Layer_1" xmlns="http://www.w3.org/2000/svg" xmlns:xlink="http://www.w3.org/1999/xlink" x="0px" y="0px"
	 width="348.5px" height="241.9px" viewBox="0 0 348.5 241.9" style="enable-background:new 0 0 348.5 241.9;" xml:space="preserve"
	>
<ellipse style="fill:#FF6584;" cx="66.1" cy="32" rx="19.9" ry="19.9"/>
<path style="fill:#F1F1F1;" d="M162.9,106.7c0,47-27.9,63.4-62.4,63.4s-62.4-16.4-62.4-63.4S100.6,0,100.6,0S162.9,59.7,162.9,106.7
	z"/>
<path style="fill:#3F3D56;" d="M98.3,162.9l0.6-39.3L125.5,75l-26.5,42.5l0.3-17.7l18.3-35.2L99.4,95.1l0,0l0.5-31.8l19.6-28
	l-19.5,23L100.3,0l-2,77.2l0.2-3.2L78.5,43.4l19.6,36.6l-1.9,35.5l-0.1-0.9l-23-32.1L96.2,118l-0.2,4.4l0,0.1l0,0.4l-4.7,90.1h6.3
	l0.8-46.5l22.9-35.4L98.3,162.9z"/>
<path style="fill:#F1F1F1;" d="M348.5,125.9c0,38.4-22.9,51.9-51,51.9s-51-13.4-51-51.9s51-87.3,51-87.3S348.5,87.5,348.5,125.9z"/>
<path style="fill:#3F3D56;" d="M295.6,171.9l0.5-32.2l21.8-39.8l-21.7,34.8l0.2-14.5l15-28.8l-14.9,25l0,0l0.4-26L313,67.5l-16,18.8
	l0.3-47.7l-1.7,63.2l0.1-2.6l-16.3-25l16.1,30l-1.5,29.1l0-0.8l-18.8-26.3l18.8,29l-0.2,3.6l0,0.1l0,0.3l-3.9,73.7h5.2l0.6-38.1
	l18.7-28.9L295.6,171.9z"/>
<ellipse style="fill:#D6D6D6;" cx="172.5" cy="211.6" rx="172.5" ry="8.7"/>
<ellipse style="fill:#D6D6D6;" cx="277.5" cy="226" rx="29.5" ry="1.5"/>
<ellipse style="fill:#D6D6D6;" cx="170.6" cy="240.4" rx="29.5" ry="1.5"/>
<ellipse style="fill:#D6D6D6;" cx="89.5" cy="228.3" rx="67.5" ry="3.4"/>
<ellipse style="fill:#2F2E41;" cx="30.2" cy="176.1" rx="24.6" ry="24.6"/>
<rect x="15.7" y="198.2" transform="matrix(1.178070e-02 -0.9999 0.9999 1.178070e-02 -179.8022 222.016)" style="fill:#2F2E41;" width="13.4" height="7.5"/>
<rect x="30.7" y="198.4" transform="matrix(1.178070e-02 -0.9999 0.9999 1.178070e-02 -165.228 237.1149)" style="fill:#2F2E41;" width="13.4" height="7.5"/>
<ellipse transform="matrix(1.178075e-02 -0.9999 0.9999 1.178075e-02 -184.2944 231.2124)" style="fill:#2F2E41;" cx="24.8" cy="208.8" rx="2.3" ry="6.2"/>
<ellipse transform="matrix(1.178075e-02 -0.9999 0.9999 1.178075e-02 -169.4053 246.0079)" style="fill:#2F2E41;" cx="39.8" cy="208.7" rx="2.3" ry="6.2"/>
<ellipse style="fill:#FFFFFF;" cx="30.9" cy="169.9" rx="8.4" ry="8.4"/>
<ellipse style="fill:#3F3D56;" cx="30.9" cy="169.9" rx="2.8" ry="2.8"/>
<path style="fill:#2CAECC;" d="M6.6,153c-1.9-8.9,4.6-17.8,14.4-19.9s19.3,3.5,21.2,12.4s-4.7,12.1-14.5,14.2S8.5,161.9,6.6,153z"/>
<path style="fill:#2CAECC;" d="M67.7,189.8c0,17.1-10.2,23.1-22.7,23.1c-0.3,0-0.6,0-0.9,0c-0.6,0-1.2,0-1.7-0.1
	c-11.3-0.8-20.1-7.1-20.1-23c0-16.5,21.1-37.3,22.6-38.8l0,0l0.1-0.1C44.9,150.9,67.7,172.7,67.7,189.8z"/>
<path style="fill:#3F3D56;" d="M44.1,210.3l8.3-11.6l-8.3,12.9l0,1.3c-0.6,0-1.2,0-1.7-0.1l0.9-17.1l0-0.1l0,0l0.1-1.6L35,181
	l8.4,11.7l0,0.3l0.7-12.9l-7.2-13.4l7.2,11.1l0.7-26.8v-0.1v0.1l-0.1,21.2l7.1-8.4L44.7,174l-0.2,11.6l6.7-11.1l-6.7,12.8l-0.1,6.4
	l9.7-15.5L44.3,196L44.1,210.3z"/>
<ellipse style="fill:#2F2E41;" cx="221.6" cy="175.8" rx="24.6" ry="24.6"/>
<rect x="218.3" y="196.2" transform="matrix(0.9559 -0.2938 0.2938 0.9559 -49.7906 74.1815)" style="fill:#2F2E41;" width="7.5" height="13.4"/>
<rect x="232.6" y="191.8" transform="matrix(0.9559 -0.2938 0.2938 0.9559 -47.873 78.1794)" style="fill:#2F2E41;" width="7.5" height="13.4"/>
<ellipse transform="matrix(0.9559 -0.2938 0.2938 0.9559 -51.3032 75.7267)" style="fill:#2F2E41;" cx="226.4" cy="208.7" rx="6.2" ry="2.3"/>
<ellipse transform="matrix(0.9559 -0.2938 0.2938 0.9559 -49.3024 79.6847)" style="fill:#2F2E41;" cx="240.6" cy="204" rx="6.2" ry="2.3"/>
<ellipse style="fill:#FFFFFF;" cx="220.3" cy="169.7" rx="8.4" ry="8.4"/>
<ellipse style="fill:#3F3D56;" cx="220.3" cy="169.7" rx="2.8" ry="2.8"/>
<path style="fill:#2CAECC;" d="M192.1,161c-4.5-7.9-1.1-18.4,7.6-23.3s19.5-2.6,24,5.3s-0.7,13-9.5,17.9S196.6,168.9,192.1,161z"/>
<path style="fill:#2CAECC;" d="M177.8,186.7c0,15.7-9.3,21.2-20.9,21.2c-0.3,0-0.5,0-0.8,0c-0.5,0-1.1,0-1.6-0.1
	c-10.4-0.7-18.5-6.5-18.5-21.1c0-15.1,19.3-34.2,20.8-35.6l0,0l0.1-0.1C156.9,150.9,177.8,170.9,177.8,186.7z"/>
<path style="fill:#3F3D56;" d="M156.1,205.5l7.6-10.7l-7.7,11.8l0,1.2c-0.5,0-1.1,0-1.6-0.1l0.8-15.7l0-0.1l0,0l0.1-1.5l-7.7-11.9
	l7.7,10.8l0,0.3l0.6-11.9l-6.6-12.3l6.7,10.2l0.6-24.6v-0.1v0.1l-0.1,19.4l6.5-7.7l-6.6,9.4l-0.2,10.6l6.1-10.2l-6.1,11.8l-0.1,5.9
	l8.9-14.2l-8.9,16.3L156.1,205.5z"/>
<path style="fill:#2CAECC;" d="M259.9,193.2c0,17.1-10.2,23.1-22.7,23.1c-0.3,0-0.6,0-0.9,0c-0.6,0-1.2,0-1.7-0.1
	c-11.3-0.8-20.1-7.1-20.1-23c0-16.5,21.1-37.3,22.6-38.8l0,0l0.1-0.1C237.1,154.3,259.9,176.1,259.9,193.2z"/>
<path style="fill:#3F3D56;" d="M236.3,213.7l8.3-11.6l-8.3,12.9l0,1.3c-0.6,0-1.2,0-1.7-0.1l0.9-17.1l0-0.1l0,0l0.1-1.6l-8.4-12.9
	l8.4,11.7l0,0.3l0.7-12.9l-7.2-13.4l7.2,11.1l0.7-26.8v-0.1v0.1l-0.1,21.2l7.1-8.4l-7.2,10.2l-0.2,11.6l6.6-11.1l-6.7,12.8l-0.1,6.4
	l9.7-15.5l-9.7,17.7L236.3,213.7z"/>
<ellipse transform="matrix(0.4285 -0.9035 0.9035 0.4285 -46.2315 297.4557)" style="fill:#2F2E41;" cx="212" cy="185.3" rx="3.9" ry="12.3"/>
<ellipse transform="matrix(0.3721 -0.9282 0.9282 0.3721 -156.3119 136.3779)" style="fill:#2F2E41;" cx="22.6" cy="183.7" rx="3.9" ry="12.3"/>
</svg>
