<?xml version="1.0" encoding="utf-8"?>
<!-- Generator: Adobe Illustrator 24.3.0, SVG Export Plug-In . SVG Version: 6.00 Build 0)  -->
<svg version="1.1" id="Layer_1" xmlns="http://www.w3.org/2000/svg" xmlns:xlink="http://www.w3.org/1999/xlink" x="0px" y="0px"
	 width="40px" height="40px" viewBox="0 0 40 40" style="enable-background:new 0 0 40 40;" xml:space="preserve">
<g transform="translate(0 0)">
	<path style="fill:#E7ECED;" d="M14,31.4l-6,3.3c-0.3,0.2-0.7,0.4-1,0.7c7.4,6.2,18.2,6.3,25.7,0.1c-0.3-0.3-0.7-0.5-1.1-0.7
		l-6.4-3.2c-0.8-0.4-1.3-1.3-1.3-2.2v-2.5c0.2-0.2,0.4-0.5,0.6-0.8c0.9-1.2,1.5-2.6,2-4c0.8-0.3,1.4-1,1.4-1.9v-2.7
		c0-0.6-0.2-1.1-0.7-1.5v-3.9c0,0,0.8-6-7.4-6s-7.4,6-7.4,6v3.9c-0.4,0.4-0.7,0.9-0.7,1.5v2.7c0,0.7,0.4,1.3,0.9,1.7
		c0.4,1.8,1.3,3.5,2.4,5v2.4C15.3,30.1,14.8,30.9,14,31.4z"/>
	<g transform="translate(0 0)">
		<path style="fill:#556080;" d="M20.3,0C9.3-0.2,0.2,8.6,0,19.6c-0.1,6,2.5,11.8,7.1,15.7c0.3-0.3,0.6-0.5,0.9-0.7l6-3.3
			c0.8-0.4,1.3-1.2,1.3-2.1v-2.4c-1.2-1.5-2-3.2-2.4-5c-0.6-0.4-0.9-1-0.9-1.7v-2.7c0-0.6,0.2-1.1,0.7-1.5v-3.9c0,0-0.8-6,7.4-6
			s7.4,6,7.4,6v3.9c0.4,0.4,0.7,0.9,0.7,1.5v2.7c0,0.9-0.6,1.7-1.4,1.9c-0.5,1.4-1.1,2.8-2,4c-0.2,0.3-0.4,0.5-0.6,0.8v2.5
			c0,0.9,0.5,1.8,1.3,2.2l6.4,3.2c0.4,0.2,0.7,0.4,1,0.7c8.5-7.1,9.6-19.7,2.6-28.2C31.6,2.7,26.2,0.1,20.3,0z"/>
	</g>
</g>
</svg>
